%TF.GenerationSoftware,KiCad,Pcbnew,9.0.0*%
%TF.CreationDate,2026-03-08T15:51:33+01:00*%
%TF.ProjectId,piezoTester v2.2,7069657a-6f54-4657-9374-65722076322e,rev?*%
%TF.SameCoordinates,Original*%
%TF.FileFunction,Soldermask,Top*%
%TF.FilePolarity,Negative*%
%FSLAX46Y46*%
G04 Gerber Fmt 4.6, Leading zero omitted, Abs format (unit mm)*
G04 Created by KiCad (PCBNEW 9.0.0) date 2026-03-08 15:51:33*
%MOMM*%
%LPD*%
G01*
G04 APERTURE LIST*
G04 Aperture macros list*
%AMRoundRect*
0 Rectangle with rounded corners*
0 $1 Rounding radius*
0 $2 $3 $4 $5 $6 $7 $8 $9 X,Y pos of 4 corners*
0 Add a 4 corners polygon primitive as box body*
4,1,4,$2,$3,$4,$5,$6,$7,$8,$9,$2,$3,0*
0 Add four circle primitives for the rounded corners*
1,1,$1+$1,$2,$3*
1,1,$1+$1,$4,$5*
1,1,$1+$1,$6,$7*
1,1,$1+$1,$8,$9*
0 Add four rect primitives between the rounded corners*
20,1,$1+$1,$2,$3,$4,$5,0*
20,1,$1+$1,$4,$5,$6,$7,0*
20,1,$1+$1,$6,$7,$8,$9,0*
20,1,$1+$1,$8,$9,$2,$3,0*%
G04 Aperture macros list end*
%ADD10R,1.200000X0.300000*%
%ADD11R,0.300000X1.200000*%
%ADD12R,3.000000X3.000000*%
%ADD13RoundRect,0.250000X-0.650000X0.412500X-0.650000X-0.412500X0.650000X-0.412500X0.650000X0.412500X0*%
%ADD14C,3.500000*%
%ADD15R,1.905000X2.000000*%
%ADD16O,1.905000X2.000000*%
%ADD17RoundRect,0.250000X-0.625000X0.400000X-0.625000X-0.400000X0.625000X-0.400000X0.625000X0.400000X0*%
%ADD18RoundRect,0.250000X0.625000X-0.400000X0.625000X0.400000X-0.625000X0.400000X-0.625000X-0.400000X0*%
%ADD19C,1.000000*%
%ADD20RoundRect,0.250000X-0.250000X0.600000X-0.250000X-0.600000X0.250000X-0.600000X0.250000X0.600000X0*%
%ADD21RoundRect,0.250000X0.650000X-0.412500X0.650000X0.412500X-0.650000X0.412500X-0.650000X-0.412500X0*%
%ADD22C,2.000000*%
%ADD23RoundRect,0.237500X0.250000X0.237500X-0.250000X0.237500X-0.250000X-0.237500X0.250000X-0.237500X0*%
%ADD24RoundRect,0.250000X-0.412500X-0.650000X0.412500X-0.650000X0.412500X0.650000X-0.412500X0.650000X0*%
%ADD25R,1.700000X1.700000*%
%ADD26O,1.700000X1.700000*%
%ADD27C,2.200000*%
%ADD28RoundRect,0.250000X-0.400000X-0.625000X0.400000X-0.625000X0.400000X0.625000X-0.400000X0.625000X0*%
%ADD29R,2.500000X2.500000*%
%ADD30R,1.050000X1.500000*%
%ADD31O,1.050000X1.500000*%
%ADD32R,1.600000X1.600000*%
%ADD33C,1.600000*%
%ADD34R,1.800000X1.800000*%
%ADD35C,1.800000*%
%ADD36RoundRect,0.250000X0.412500X0.650000X-0.412500X0.650000X-0.412500X-0.650000X0.412500X-0.650000X0*%
%ADD37R,2.000000X1.100000*%
%ADD38R,1.100000X2.000000*%
%ADD39R,0.900000X0.900000*%
%ADD40R,3.200000X3.200000*%
%ADD41O,4.000000X4.000000*%
%ADD42RoundRect,0.250000X0.400000X0.625000X-0.400000X0.625000X-0.400000X-0.625000X0.400000X-0.625000X0*%
%ADD43R,1.200000X2.500000*%
%ADD44R,8.330000X6.990000*%
%ADD45R,1.235000X1.910000*%
%ADD46O,0.800000X0.800000*%
%ADD47R,0.550000X2.000000*%
%ADD48O,1.700000X2.000000*%
%ADD49RoundRect,0.325000X-0.975000X0.975000X-0.975000X-0.975000X0.975000X-0.975000X0.975000X0.975000X0*%
%ADD50R,0.450000X1.475000*%
%ADD51O,3.200000X3.200000*%
%ADD52C,1.500000*%
%ADD53RoundRect,0.250001X-0.462499X-0.624999X0.462499X-0.624999X0.462499X0.624999X-0.462499X0.624999X0*%
%ADD54R,4.000000X6.000000*%
G04 APERTURE END LIST*
D10*
%TO.C,CP2102N*%
X224314000Y-137250000D03*
X224314000Y-136750000D03*
X224314000Y-136250000D03*
X224314000Y-135750000D03*
X224314000Y-135250000D03*
X224314000Y-134750000D03*
X224314000Y-134250000D03*
D11*
X223464000Y-133400000D03*
X222964000Y-133400000D03*
X222464000Y-133400000D03*
X221964000Y-133400000D03*
X221464000Y-133400000D03*
X220964000Y-133400000D03*
X220464000Y-133400000D03*
D10*
X219614000Y-134250000D03*
X219614000Y-134750000D03*
X219614000Y-135250000D03*
X219614000Y-135750000D03*
X219614000Y-136250000D03*
X219614000Y-136750000D03*
X219614000Y-137250000D03*
D11*
X220464000Y-138100000D03*
X220964000Y-138100000D03*
X221464000Y-138100000D03*
X221964000Y-138100000D03*
X222464000Y-138100000D03*
X222964000Y-138100000D03*
X223464000Y-138100000D03*
D12*
X221964000Y-135750000D03*
%TD*%
D13*
%TO.C,C22*%
X161630000Y-118280000D03*
X161630000Y-121405000D03*
%TD*%
D14*
%TO.C,MOSFET*%
X219460000Y-113460000D03*
D15*
X222000000Y-96800000D03*
D16*
X219460000Y-96800000D03*
X216920000Y-96800000D03*
%TD*%
D17*
%TO.C,R31*%
X220570000Y-127190000D03*
X220570000Y-130290000D03*
%TD*%
D18*
%TO.C,R22*%
X141000000Y-119590000D03*
X141000000Y-116490000D03*
%TD*%
D19*
%TO.C,D-1*%
X213470000Y-140930000D03*
%TD*%
D20*
%TO.C,Q2*%
X206132500Y-135512500D03*
X204232500Y-135512500D03*
X205182500Y-137387500D03*
%TD*%
D21*
%TO.C,C9*%
X192570000Y-102242500D03*
X192570000Y-99117500D03*
%TD*%
D22*
%TO.C,DTR1*%
X208322500Y-128572500D03*
%TD*%
D23*
%TO.C,REF*%
X156895000Y-131890000D03*
X155070000Y-131890000D03*
%TD*%
D18*
%TO.C,R18*%
X173480000Y-116340000D03*
X173480000Y-113240000D03*
%TD*%
D24*
%TO.C,C28*%
X138565000Y-140970000D03*
X141690000Y-140970000D03*
%TD*%
D21*
%TO.C,C13*%
X139740000Y-133042500D03*
X139740000Y-129917500D03*
%TD*%
D24*
%TO.C,C17*%
X167670000Y-118030000D03*
X170795000Y-118030000D03*
%TD*%
D25*
%TO.C,MAGNET_IN*%
X217050000Y-81800000D03*
D26*
X219590000Y-81800000D03*
%TD*%
D22*
%TO.C,MAGNET+*%
X225600000Y-83670000D03*
%TD*%
D21*
%TO.C,C27*%
X153190000Y-115210000D03*
X153190000Y-112085000D03*
%TD*%
D17*
%TO.C,R31*%
X217590000Y-127100000D03*
X217590000Y-130200000D03*
%TD*%
D19*
%TO.C,SDA1*%
X164590000Y-115240000D03*
%TD*%
D27*
%TO.C,RST*%
X200050000Y-147990000D03*
X200050000Y-141490000D03*
X204550000Y-147990000D03*
X204550000Y-141490000D03*
%TD*%
D17*
%TO.C,R30*%
X224260000Y-127200000D03*
X224260000Y-130300000D03*
%TD*%
D19*
%TO.C,D+1*%
X215700000Y-140920000D03*
%TD*%
D28*
%TO.C,R2*%
X164350000Y-143940000D03*
X167450000Y-143940000D03*
%TD*%
D29*
%TO.C,C1*%
X159070000Y-92220000D03*
D22*
X159070000Y-97220000D03*
%TD*%
D30*
%TO.C,BC337*%
X209440000Y-117330000D03*
D31*
X210710000Y-117330000D03*
X211980000Y-117330000D03*
%TD*%
D21*
%TO.C,C8*%
X189220000Y-102242500D03*
X189220000Y-99117500D03*
%TD*%
D22*
%TO.C,STAGE2*%
X226000000Y-94000000D03*
%TD*%
D17*
%TO.C,R10*%
X205500000Y-84500000D03*
X205500000Y-87600000D03*
%TD*%
D22*
%TO.C,3V3A*%
X197810000Y-114270000D03*
%TD*%
D28*
%TO.C,C30*%
X149667500Y-135000000D03*
D24*
X152792500Y-135000000D03*
%TD*%
D19*
%TO.C,REFP1*%
X160910000Y-124170000D03*
%TD*%
D22*
%TO.C,RX_ESP*%
X191650000Y-130030000D03*
%TD*%
D32*
%TO.C,C2*%
X183000000Y-89500000D03*
D33*
X183000000Y-93000000D03*
%TD*%
D21*
%TO.C,C7*%
X201870000Y-87660000D03*
X201870000Y-84535000D03*
%TD*%
D25*
%TO.C,J3*%
X135790000Y-137425000D03*
D26*
X135790000Y-139965000D03*
%TD*%
D28*
%TO.C,R3*%
X164450000Y-148240000D03*
X167550000Y-148240000D03*
%TD*%
D22*
%TO.C,STAGE1*%
X212600000Y-111200000D03*
%TD*%
D21*
%TO.C,C5*%
X201830000Y-109915000D03*
X201830000Y-106790000D03*
%TD*%
D13*
%TO.C,C23*%
X160820000Y-126660000D03*
X160820000Y-129785000D03*
%TD*%
D28*
%TO.C,R23*%
X144380000Y-135070000D03*
X147480000Y-135070000D03*
%TD*%
D22*
%TO.C,RTS1*%
X208312500Y-132872500D03*
%TD*%
%TO.C,MAGN_GPIO1*%
X199550000Y-119950000D03*
%TD*%
D13*
%TO.C,C25*%
X155780000Y-133645000D03*
X155780000Y-136770000D03*
%TD*%
D34*
%TO.C,MCP6002*%
X151255000Y-132000000D03*
D35*
X151255000Y-129460000D03*
X151255000Y-126920000D03*
X151255000Y-124380000D03*
X143445000Y-124380000D03*
X143445000Y-126920000D03*
X143445000Y-129460000D03*
X143445000Y-132000000D03*
%TD*%
D36*
%TO.C,C26*%
X158872500Y-115240000D03*
X155747500Y-115240000D03*
%TD*%
D37*
%TO.C,ESP 32*%
X168420000Y-121520000D03*
X168420000Y-122790000D03*
X168420000Y-124060000D03*
X168420000Y-125330000D03*
X168420000Y-126600000D03*
X168420000Y-127870000D03*
X168420000Y-129140000D03*
X168420000Y-130410000D03*
X168420000Y-131680000D03*
X168420000Y-132950000D03*
X168420000Y-134220000D03*
X168420000Y-135490000D03*
X168420000Y-136760000D03*
X168420000Y-138030000D03*
D38*
X171455000Y-139280000D03*
X172725000Y-139280000D03*
X173995000Y-139280000D03*
X175265000Y-139280000D03*
X176535000Y-139280000D03*
X177805000Y-139280000D03*
X179075000Y-139280000D03*
X180345000Y-139280000D03*
X181615000Y-139280000D03*
X182885000Y-139280000D03*
D37*
X185920000Y-138030000D03*
X185920000Y-136760000D03*
X185920000Y-135490000D03*
X185920000Y-134220000D03*
X185920000Y-132950000D03*
X185920000Y-131680000D03*
X185920000Y-130410000D03*
X185920000Y-129140000D03*
X185920000Y-127870000D03*
X185920000Y-126600000D03*
X185920000Y-125330000D03*
X185920000Y-124060000D03*
X185920000Y-122790000D03*
X185920000Y-121520000D03*
D39*
X175670000Y-128860000D03*
X175670000Y-130260000D03*
X177070000Y-130260000D03*
X177070000Y-128860000D03*
X177070000Y-127460000D03*
X175670000Y-127460000D03*
X174270000Y-127460000D03*
X174270000Y-128860000D03*
X174270000Y-130260000D03*
%TD*%
D13*
%TO.C,C14*%
X155360000Y-138700000D03*
X155360000Y-141825000D03*
%TD*%
D22*
%TO.C,AIN1*%
X140700000Y-123570000D03*
%TD*%
%TO.C,3V3*%
X191100000Y-94600000D03*
%TD*%
D40*
%TO.C,D1*%
X169790000Y-104667677D03*
D41*
X154550000Y-104667677D03*
%TD*%
D42*
%TO.C,R27*%
X204082500Y-129302500D03*
X200982500Y-129302500D03*
%TD*%
D17*
%TO.C,R21*%
X135780000Y-129950000D03*
X135780000Y-133050000D03*
%TD*%
D28*
%TO.C,R29*%
X213510000Y-136600000D03*
X216610000Y-136600000D03*
%TD*%
D43*
%TO.C,BUCK*%
X168130000Y-95802677D03*
X169830000Y-95802677D03*
X171530000Y-95802677D03*
X173230000Y-95802677D03*
X174930000Y-95802677D03*
D44*
X171530000Y-85127677D03*
D45*
X176312500Y-82587677D03*
X166747500Y-82587677D03*
%TD*%
D21*
%TO.C,C10*%
X195090000Y-95282500D03*
X195090000Y-92157500D03*
%TD*%
%TO.C,C6*%
X205610000Y-109892500D03*
X205610000Y-106767500D03*
%TD*%
D19*
%TO.C,SCL1*%
X164610000Y-113130000D03*
%TD*%
D46*
%TO.C,USB*%
X212080000Y-145460000D03*
X217080000Y-145460000D03*
D47*
X213280000Y-144360000D03*
X213930000Y-144360000D03*
X214580000Y-144360000D03*
X215230000Y-144360000D03*
X215880000Y-144360000D03*
D48*
X210705000Y-148210000D03*
X210855000Y-144410000D03*
X218305000Y-144410000D03*
X218455000Y-148210000D03*
%TD*%
D22*
%TO.C,TX_ESP*%
X191520000Y-125870000D03*
%TD*%
D18*
%TO.C,R24*%
X201700000Y-95290000D03*
X201700000Y-92190000D03*
%TD*%
D35*
%TO.C,12VDC*%
X143990000Y-95200000D03*
D33*
X139490000Y-95200000D03*
D49*
X145640000Y-89700000D03*
X139490000Y-89700000D03*
X139490000Y-100700000D03*
X145640000Y-100700000D03*
%TD*%
D50*
%TO.C,IC5*%
X154520000Y-130030000D03*
X155170000Y-130030000D03*
X155820000Y-130030000D03*
X156470000Y-130030000D03*
X157120000Y-130030000D03*
X157770000Y-130030000D03*
X158420000Y-130030000D03*
X159070000Y-130030000D03*
X159070000Y-124154000D03*
X158420000Y-124154000D03*
X157770000Y-124154000D03*
X157120000Y-124154000D03*
X156470000Y-124154000D03*
X155820000Y-124154000D03*
X155170000Y-124154000D03*
X154520000Y-124154000D03*
%TD*%
D18*
%TO.C,R25*%
X209660000Y-109840000D03*
X209660000Y-106740000D03*
%TD*%
D17*
%TO.C,R11*%
X163950000Y-120910000D03*
X163950000Y-124010000D03*
%TD*%
D20*
%TO.C,Q1*%
X200692500Y-135532500D03*
X198792500Y-135532500D03*
X199742500Y-137407500D03*
%TD*%
D24*
%TO.C,C15*%
X167657500Y-115590000D03*
X170782500Y-115590000D03*
%TD*%
D28*
%TO.C,R28*%
X213470000Y-132830000D03*
X216570000Y-132830000D03*
%TD*%
D34*
%TO.C,LM358*%
X143790000Y-138730000D03*
D35*
X143790000Y-141270000D03*
X143790000Y-143810000D03*
X143790000Y-146350000D03*
X151600000Y-146350000D03*
X151600000Y-143810000D03*
X151600000Y-141270000D03*
X151600000Y-138730000D03*
%TD*%
D40*
%TO.C,D2*%
X210870000Y-89270000D03*
D51*
X226110000Y-89270000D03*
%TD*%
D22*
%TO.C,IN-1*%
X145790000Y-105330000D03*
%TD*%
D19*
%TO.C,REFN1*%
X160900000Y-134110000D03*
%TD*%
%TO.C,VBUS1*%
X210940000Y-140920000D03*
%TD*%
D52*
%TO.C,3V3*%
X196450000Y-109440000D03*
X197450000Y-108170000D03*
X196450000Y-106900000D03*
%TD*%
D28*
%TO.C,R9*%
X205100000Y-121200000D03*
X208200000Y-121200000D03*
%TD*%
D17*
%TO.C,R20*%
X150740000Y-112090000D03*
X150740000Y-115190000D03*
%TD*%
%TO.C,R12*%
X191110000Y-134860000D03*
X191110000Y-137960000D03*
%TD*%
D18*
%TO.C,R19*%
X176590000Y-118320000D03*
X176590000Y-115220000D03*
%TD*%
D13*
%TO.C,C3*%
X192380000Y-106880000D03*
X192380000Y-110005000D03*
%TD*%
D24*
%TO.C,C19*%
X227570000Y-133390000D03*
X230695000Y-133390000D03*
%TD*%
D28*
%TO.C,R26*%
X201002500Y-132912500D03*
X204102500Y-132912500D03*
%TD*%
D24*
%TO.C,C24*%
X156400000Y-121260000D03*
X159525000Y-121260000D03*
%TD*%
D22*
%TO.C,MAGNET-*%
X210320000Y-83150000D03*
%TD*%
D28*
%TO.C,R4*%
X158910000Y-148240000D03*
X162010000Y-148240000D03*
%TD*%
D22*
%TO.C,AIN2*%
X140990000Y-136540000D03*
%TD*%
D21*
%TO.C,C16*%
X183630000Y-148075000D03*
X183630000Y-144950000D03*
%TD*%
D42*
%TO.C,R5*%
X161890000Y-143940000D03*
X158790000Y-143940000D03*
%TD*%
D19*
%TO.C,RDY1*%
X164530000Y-117340000D03*
%TD*%
%TO.C,5V0*%
X191000000Y-105000000D03*
%TD*%
D22*
%TO.C,IN+1*%
X145850000Y-84580000D03*
%TD*%
D53*
%TO.C,3V31*%
X194660000Y-87780000D03*
X197635000Y-87780000D03*
%TD*%
D21*
%TO.C,C29*%
X144360000Y-119615000D03*
X144360000Y-116490000D03*
%TD*%
D27*
%TO.C,BOOT*%
X194310000Y-141470000D03*
X194310000Y-147970000D03*
X189810000Y-141470000D03*
X189810000Y-147970000D03*
%TD*%
D13*
%TO.C,C4*%
X189670000Y-106867500D03*
X189670000Y-109992500D03*
%TD*%
D21*
%TO.C,C11*%
X198440000Y-95282500D03*
X198440000Y-92157500D03*
%TD*%
D25*
%TO.C,BEAM_IN*%
X171710000Y-148180000D03*
D26*
X174250000Y-148180000D03*
X176790000Y-148180000D03*
X179330000Y-148180000D03*
%TD*%
D54*
%TO.C,L1*%
X175120000Y-104767677D03*
X185020000Y-104767677D03*
%TD*%
D53*
%TO.C,3V3A2*%
X203985000Y-103270000D03*
X206960000Y-103270000D03*
%TD*%
D52*
%TO.C,3V3A*%
X197380000Y-99350000D03*
X196380000Y-100620000D03*
X197380000Y-101890000D03*
%TD*%
D24*
%TO.C,C18*%
X227585000Y-129430000D03*
X230710000Y-129430000D03*
%TD*%
D21*
%TO.C,C12*%
X163980000Y-129555000D03*
X163980000Y-126430000D03*
%TD*%
D22*
%TO.C,AIN0*%
X148320000Y-118610000D03*
%TD*%
M02*
