%TF.GenerationSoftware,KiCad,Pcbnew,9.0.0*%
%TF.CreationDate,2026-03-08T15:51:33+01:00*%
%TF.ProjectId,piezoTester v2.2,7069657a-6f54-4657-9374-65722076322e,rev?*%
%TF.SameCoordinates,Original*%
%TF.FileFunction,Copper,L3,Inr*%
%TF.FilePolarity,Positive*%
%FSLAX46Y46*%
G04 Gerber Fmt 4.6, Leading zero omitted, Abs format (unit mm)*
G04 Created by KiCad (PCBNEW 9.0.0) date 2026-03-08 15:51:33*
%MOMM*%
%LPD*%
G01*
G04 APERTURE LIST*
%TA.AperFunction,ComponentPad*%
%ADD10R,1.905000X2.000000*%
%TD*%
%TA.AperFunction,ComponentPad*%
%ADD11O,1.905000X2.000000*%
%TD*%
%TA.AperFunction,ComponentPad*%
%ADD12R,1.700000X1.700000*%
%TD*%
%TA.AperFunction,ComponentPad*%
%ADD13O,1.700000X1.700000*%
%TD*%
%TA.AperFunction,ComponentPad*%
%ADD14C,2.200000*%
%TD*%
%TA.AperFunction,ComponentPad*%
%ADD15R,2.500000X2.500000*%
%TD*%
%TA.AperFunction,ComponentPad*%
%ADD16C,2.000000*%
%TD*%
%TA.AperFunction,ComponentPad*%
%ADD17R,1.050000X1.500000*%
%TD*%
%TA.AperFunction,ComponentPad*%
%ADD18O,1.050000X1.500000*%
%TD*%
%TA.AperFunction,ComponentPad*%
%ADD19R,1.600000X1.600000*%
%TD*%
%TA.AperFunction,ComponentPad*%
%ADD20C,1.600000*%
%TD*%
%TA.AperFunction,ComponentPad*%
%ADD21R,1.800000X1.800000*%
%TD*%
%TA.AperFunction,ComponentPad*%
%ADD22C,1.800000*%
%TD*%
%TA.AperFunction,ComponentPad*%
%ADD23R,3.200000X3.200000*%
%TD*%
%TA.AperFunction,ComponentPad*%
%ADD24O,4.000000X4.000000*%
%TD*%
%TA.AperFunction,HeatsinkPad*%
%ADD25O,1.700000X2.000000*%
%TD*%
%TA.AperFunction,ComponentPad*%
%ADD26O,3.200000X3.200000*%
%TD*%
%TA.AperFunction,ComponentPad*%
%ADD27C,1.500000*%
%TD*%
%TA.AperFunction,ViaPad*%
%ADD28C,0.600000*%
%TD*%
%TA.AperFunction,ViaPad*%
%ADD29C,4.000000*%
%TD*%
G04 APERTURE END LIST*
D10*
%TO.N,Net-(Q3-C)*%
%TO.C,MOSFET*%
X222000000Y-96800000D03*
D11*
%TO.N,Net-(D2-A)*%
X219460000Y-96800000D03*
%TO.N,GND_POWER*%
X216920000Y-96800000D03*
%TD*%
D12*
%TO.N,12VDC+*%
%TO.C,MAGNET_IN*%
X217050000Y-81800000D03*
D13*
%TO.N,Net-(D2-A)*%
X219590000Y-81800000D03*
%TD*%
D14*
%TO.N,EN*%
%TO.C,RST*%
X200050000Y-147990000D03*
X200050000Y-141490000D03*
%TO.N,GND*%
X204550000Y-147990000D03*
X204550000Y-141490000D03*
%TD*%
D15*
%TO.N,12VDC+*%
%TO.C,C1*%
X159070000Y-92220000D03*
D16*
%TO.N,GND_POWER*%
X159070000Y-97220000D03*
%TD*%
D17*
%TO.N,Net-(Q3-C)*%
%TO.C,BC337*%
X209440000Y-117330000D03*
D18*
%TO.N,Net-(Q3-B)*%
X210710000Y-117330000D03*
%TO.N,GND_POWER*%
X211980000Y-117330000D03*
%TD*%
D19*
%TO.N,GND_POWER*%
%TO.C,C2*%
X183000000Y-89500000D03*
D20*
%TO.N,BUCK_OUT*%
X183000000Y-93000000D03*
%TD*%
D12*
%TO.N,Sensor-*%
%TO.C,J3*%
X135790000Y-137425000D03*
D13*
%TO.N,3v3A*%
X135790000Y-139965000D03*
%TD*%
D21*
%TO.N,AIN0*%
%TO.C,MCP6002*%
X151255000Y-132000000D03*
D22*
X151255000Y-129460000D03*
%TO.N,3v3A*%
X151255000Y-126920000D03*
%TO.N,AGND*%
X151255000Y-124380000D03*
%TO.N,Sensor-*%
X143445000Y-124380000D03*
%TO.N,AIN1*%
X143445000Y-126920000D03*
X143445000Y-129460000D03*
%TO.N,3v3A*%
X143445000Y-132000000D03*
%TD*%
D23*
%TO.N,OUT*%
%TO.C,D1*%
X169790000Y-104667677D03*
D24*
%TO.N,GND_POWER*%
X154550000Y-104667677D03*
%TD*%
D25*
%TO.N,GND*%
%TO.C,USB*%
X210705000Y-148210000D03*
X210855000Y-144410000D03*
X218305000Y-144410000D03*
X218455000Y-148210000D03*
%TD*%
D21*
%TO.N,AIN2*%
%TO.C,LM358*%
X143790000Y-138730000D03*
D22*
%TO.N,Net-(IC2-IN1-)*%
X143790000Y-141270000D03*
%TO.N,Net-(IC2-IN1+)*%
X143790000Y-143810000D03*
%TO.N,AGND*%
X143790000Y-146350000D03*
%TO.N,unconnected-(IC2-IN2+-Pad5)*%
X151600000Y-146350000D03*
%TO.N,unconnected-(IC2-IN2--Pad6)*%
X151600000Y-143810000D03*
%TO.N,unconnected-(IC2-OUT2-Pad7)*%
X151600000Y-141270000D03*
%TO.N,3v3A*%
X151600000Y-138730000D03*
%TD*%
D23*
%TO.N,12VDC+*%
%TO.C,D2*%
X210870000Y-89270000D03*
D26*
%TO.N,Net-(D2-A)*%
X226110000Y-89270000D03*
%TD*%
D27*
%TO.N,3v3A*%
%TO.C,3V3*%
X196450000Y-109440000D03*
%TO.N,GND_POWER*%
X197450000Y-108170000D03*
%TO.N,BUCK_OUT*%
X196450000Y-106900000D03*
%TD*%
D14*
%TO.N,BOOT*%
%TO.C,BOOT*%
X194310000Y-141470000D03*
X194310000Y-147970000D03*
%TO.N,GND*%
X189810000Y-141470000D03*
X189810000Y-147970000D03*
%TD*%
D12*
%TO.N,GREEN*%
%TO.C,BEAM_IN*%
X171710000Y-148180000D03*
D13*
%TO.N,WHITE*%
X174250000Y-148180000D03*
%TO.N,AGND*%
X176790000Y-148180000D03*
%TO.N,3v3A*%
X179330000Y-148180000D03*
%TD*%
D27*
%TO.N,+3.3V*%
%TO.C,3V3A*%
X197380000Y-99350000D03*
%TO.N,GND_POWER*%
X196380000Y-100620000D03*
%TO.N,BUCK_OUT*%
X197380000Y-101890000D03*
%TD*%
D28*
%TO.N,GND_POWER*%
X152000000Y-82000000D03*
X155000000Y-84000000D03*
X156000000Y-82000000D03*
X160000000Y-82000000D03*
X156000000Y-83000000D03*
X162000000Y-83000000D03*
D29*
X138000000Y-84000000D03*
X230000000Y-84000000D03*
D28*
X163000000Y-83000000D03*
X155000000Y-82000000D03*
X154000000Y-83000000D03*
X152000000Y-83000000D03*
X164000000Y-82000000D03*
X164000000Y-83000000D03*
X159000000Y-83000000D03*
X160000000Y-83000000D03*
X153000000Y-83000000D03*
X153000000Y-84000000D03*
X157000000Y-83000000D03*
X157000000Y-82000000D03*
X153000000Y-82000000D03*
X158000000Y-82000000D03*
X161000000Y-82000000D03*
X162000000Y-84000000D03*
X154000000Y-82000000D03*
X163000000Y-82000000D03*
X159000000Y-84000000D03*
X158000000Y-83000000D03*
X155000000Y-83000000D03*
X154000000Y-84000000D03*
X160000000Y-84000000D03*
X163000000Y-84000000D03*
X158000000Y-84000000D03*
X161000000Y-84000000D03*
X156000000Y-84000000D03*
X164000000Y-84000000D03*
X157000000Y-84000000D03*
X161000000Y-83000000D03*
X159000000Y-82000000D03*
X152000000Y-84000000D03*
X162000000Y-82000000D03*
%TO.N,AGND*%
X142050000Y-143730000D03*
X141180000Y-142820000D03*
X141150000Y-143720000D03*
D29*
X138000000Y-145000000D03*
D28*
X142050000Y-142850000D03*
%TO.N,EN*%
X192180000Y-144730000D03*
%TO.N,Net-(CP2102N1-VBUS)*%
X217910000Y-132050000D03*
X223490000Y-132410000D03*
%TO.N,D+*%
X227240000Y-137890000D03*
X225660000Y-136240000D03*
%TO.N,3v3A*%
X205000000Y-112000000D03*
X203000000Y-112000000D03*
X204000000Y-112000000D03*
X206000000Y-114000000D03*
X201000000Y-113000000D03*
X203991963Y-112996613D03*
X161280000Y-120270000D03*
X207000000Y-113000000D03*
X138080000Y-133410000D03*
X201000000Y-112000000D03*
X206000000Y-113000000D03*
X205000000Y-113000000D03*
X207000000Y-114000000D03*
X141310000Y-133440000D03*
X153860000Y-132160000D03*
X204000000Y-114000000D03*
X153860000Y-131490000D03*
X202000000Y-113000000D03*
X162290000Y-120270000D03*
X160990000Y-122940000D03*
X201000000Y-114000000D03*
X203000000Y-113000000D03*
X202000000Y-112000000D03*
X202000000Y-114000000D03*
X205000000Y-114000000D03*
X206000000Y-112000000D03*
X207000000Y-112000000D03*
X203000000Y-114000000D03*
X157030000Y-122640000D03*
X162070000Y-122980000D03*
%TO.N,RTS*%
X208312500Y-132872500D03*
X217990000Y-138350000D03*
%TO.N,GND*%
X217050000Y-128710000D03*
X221170000Y-128730000D03*
X176000000Y-132000000D03*
X173000000Y-129000000D03*
X218220000Y-128680000D03*
X173000000Y-127000000D03*
X173000000Y-128000000D03*
X174000000Y-126000000D03*
X173000000Y-132000000D03*
X178000000Y-128000000D03*
X156519626Y-131027449D03*
X220210000Y-128720000D03*
X177000000Y-132000000D03*
X178000000Y-130000000D03*
X162370000Y-129420000D03*
X178000000Y-132000000D03*
X175000000Y-132000000D03*
X162340000Y-130420000D03*
X178000000Y-129000000D03*
X173000000Y-126000000D03*
X221964000Y-135750000D03*
X178000000Y-127000000D03*
X232250000Y-130150000D03*
X176000000Y-126000000D03*
X155219917Y-128959064D03*
X177000000Y-126000000D03*
X174000000Y-132000000D03*
X170000000Y-122000000D03*
X187930000Y-121030000D03*
X178000000Y-131000000D03*
D29*
X230000000Y-145000000D03*
D28*
X175000000Y-126000000D03*
X232250000Y-132560000D03*
X154510000Y-128960000D03*
X187950000Y-121890000D03*
X173000000Y-131000000D03*
X178000000Y-126000000D03*
X170000000Y-121000000D03*
X232240000Y-133580000D03*
X232290000Y-128900000D03*
X171840000Y-137670000D03*
X173000000Y-130000000D03*
X171030000Y-137630000D03*
%TO.N,+3.3V*%
X225560000Y-127430000D03*
X166570000Y-122550000D03*
X168950000Y-119830000D03*
X155830000Y-132530000D03*
X225730000Y-133760000D03*
X166520000Y-123260000D03*
X192820000Y-93130000D03*
X172960000Y-118170000D03*
X191090000Y-133010000D03*
X155840000Y-128500000D03*
X226370000Y-127430000D03*
X173800000Y-118210000D03*
X191860000Y-132530000D03*
X168980000Y-116030000D03*
X176110000Y-116590000D03*
X226400000Y-126580000D03*
X177030000Y-116560000D03*
X166390000Y-119800000D03*
X227040000Y-131360000D03*
X225600000Y-126600000D03*
X169000000Y-115190000D03*
X155828450Y-131138265D03*
X191900000Y-93110000D03*
X227890000Y-134670000D03*
X163950000Y-120910000D03*
X191900000Y-133680000D03*
X190280000Y-132550000D03*
X168940000Y-118380000D03*
X192930000Y-96550000D03*
X190240000Y-96510000D03*
X226920000Y-134660000D03*
X191160000Y-96530000D03*
X225760000Y-134540000D03*
X155830000Y-126800000D03*
X189270000Y-96500000D03*
X227990000Y-131340000D03*
X189210000Y-93070000D03*
X191100000Y-93100000D03*
X160820000Y-126660000D03*
X190300000Y-133650000D03*
X191960000Y-96540000D03*
X190130000Y-93090000D03*
%TO.N,RDY*%
X155870000Y-122980000D03*
X164530000Y-117340000D03*
X180320000Y-122620000D03*
%TO.N,SCL*%
X154470000Y-122570000D03*
X173480000Y-113240000D03*
X164610000Y-113130000D03*
X183740000Y-126780000D03*
%TO.N,SDA*%
X164590000Y-115240000D03*
X176590000Y-115220000D03*
X184640000Y-130580000D03*
X155238742Y-121969844D03*
%TD*%
%TA.AperFunction,Conductor*%
%TO.N,+3.3V*%
G36*
X228369435Y-126077261D02*
G01*
X228450000Y-135020000D01*
X223710000Y-135000000D01*
X223680000Y-133390000D01*
X226667500Y-133390000D01*
X226667500Y-127820000D01*
X223330000Y-127840000D01*
X223280000Y-126070000D01*
X228369435Y-126077261D01*
G37*
%TD.AperFunction*%
%TD*%
%TA.AperFunction,Conductor*%
%TO.N,3v3A*%
G36*
X162749008Y-122460687D02*
G01*
X162749008Y-122460688D01*
X162740056Y-124814971D01*
X162725572Y-124849565D01*
X162691010Y-124863785D01*
X159295065Y-124860588D01*
X159295064Y-124860588D01*
X158815495Y-124860137D01*
X158850000Y-123416500D01*
X160500000Y-123380000D01*
X160521085Y-120655401D01*
X160550000Y-119600000D01*
X162760000Y-119570000D01*
X162749008Y-122460687D01*
G37*
%TD.AperFunction*%
%TD*%
%TA.AperFunction,Conductor*%
%TO.N,3v3A*%
G36*
X157405438Y-124892000D02*
G01*
X157386789Y-124892000D01*
X157383981Y-124893158D01*
X156826783Y-124892634D01*
X156792148Y-124878250D01*
X156777829Y-124843588D01*
X156777843Y-124842463D01*
X156795000Y-124124628D01*
X156814841Y-123294499D01*
X156795000Y-123294937D01*
X156795000Y-123294936D01*
X156228288Y-123307472D01*
X156193330Y-123293890D01*
X156178216Y-123259568D01*
X156189893Y-123229512D01*
X156188524Y-123228462D01*
X156190475Y-123225917D01*
X156190480Y-123225913D01*
X156243207Y-123134587D01*
X156270499Y-123032730D01*
X156270500Y-123032730D01*
X156270500Y-122927270D01*
X156270499Y-122927269D01*
X156243207Y-122825414D01*
X156243206Y-122825410D01*
X156190479Y-122734086D01*
X156115913Y-122659520D01*
X156024589Y-122606793D01*
X156024585Y-122606792D01*
X155922730Y-122579500D01*
X155922727Y-122579500D01*
X155817273Y-122579500D01*
X155817270Y-122579500D01*
X155715414Y-122606792D01*
X155715410Y-122606793D01*
X155624086Y-122659520D01*
X155624086Y-122659521D01*
X155549521Y-122734086D01*
X155549520Y-122734086D01*
X155496793Y-122825410D01*
X155496792Y-122825414D01*
X155469500Y-122927269D01*
X155469500Y-123032730D01*
X155485828Y-123093669D01*
X155480933Y-123130851D01*
X155451180Y-123153681D01*
X155439474Y-123155171D01*
X155445994Y-122312644D01*
X155484655Y-122290324D01*
X155559222Y-122215757D01*
X155611949Y-122124431D01*
X155639241Y-122022574D01*
X155639242Y-122022574D01*
X155639242Y-121917114D01*
X155639241Y-121917113D01*
X155611949Y-121815258D01*
X155611948Y-121815254D01*
X155559221Y-121723930D01*
X155484655Y-121649364D01*
X155451277Y-121630092D01*
X155455810Y-121044373D01*
X155483052Y-120050023D01*
X157423949Y-120023676D01*
X157405438Y-124892000D01*
G37*
%TD.AperFunction*%
%TD*%
%TA.AperFunction,Conductor*%
%TO.N,3v3A*%
G36*
X208526011Y-84606925D02*
G01*
X208540782Y-84641397D01*
X208540776Y-84642975D01*
X207930961Y-115032101D01*
X207915917Y-115066454D01*
X207882092Y-115080118D01*
X199902655Y-115099869D01*
X199867972Y-115085603D01*
X199853534Y-115050990D01*
X199853651Y-115047490D01*
X200060000Y-112080000D01*
X200060000Y-111890763D01*
X200060024Y-111889232D01*
X200070000Y-111569999D01*
X194438632Y-111654844D01*
X194403772Y-111641016D01*
X194388900Y-111606588D01*
X194388899Y-111606583D01*
X194350224Y-109020500D01*
X194317259Y-106816233D01*
X195599500Y-106816233D01*
X195599500Y-106983767D01*
X195621189Y-107092809D01*
X195632183Y-107148079D01*
X195632185Y-107148085D01*
X195696296Y-107302862D01*
X195789371Y-107442159D01*
X195907840Y-107560628D01*
X196008427Y-107627838D01*
X196047137Y-107653703D01*
X196201918Y-107717816D01*
X196366233Y-107750500D01*
X196366236Y-107750500D01*
X196533766Y-107750500D01*
X196533767Y-107750500D01*
X196591708Y-107738975D01*
X196628489Y-107731659D01*
X196665271Y-107738975D01*
X196686106Y-107770158D01*
X196683318Y-107798468D01*
X196632186Y-107921910D01*
X196632183Y-107921920D01*
X196615767Y-108004451D01*
X196599500Y-108086233D01*
X196599500Y-108253767D01*
X196621189Y-108362809D01*
X196632183Y-108418079D01*
X196632185Y-108418085D01*
X196696296Y-108572862D01*
X196789371Y-108712159D01*
X196907840Y-108830628D01*
X197047137Y-108923703D01*
X197201918Y-108987816D01*
X197366233Y-109020500D01*
X197366236Y-109020500D01*
X197533764Y-109020500D01*
X197533767Y-109020500D01*
X197698082Y-108987816D01*
X197852863Y-108923703D01*
X197992162Y-108830626D01*
X198110626Y-108712162D01*
X198203703Y-108572863D01*
X198267816Y-108418082D01*
X198300500Y-108253767D01*
X198300500Y-108086233D01*
X198267816Y-107921918D01*
X198203703Y-107767137D01*
X198110628Y-107627840D01*
X197992159Y-107509371D01*
X197852862Y-107416296D01*
X197698085Y-107352185D01*
X197698079Y-107352183D01*
X197628488Y-107338341D01*
X197533767Y-107319500D01*
X197366233Y-107319500D01*
X197310171Y-107330651D01*
X197271510Y-107338341D01*
X197234728Y-107331024D01*
X197213892Y-107299841D01*
X197216680Y-107271532D01*
X197267816Y-107148082D01*
X197300500Y-106983767D01*
X197300500Y-106816233D01*
X197267816Y-106651918D01*
X197203703Y-106497137D01*
X197110628Y-106357840D01*
X196992159Y-106239371D01*
X196852862Y-106146296D01*
X196698085Y-106082185D01*
X196698079Y-106082183D01*
X196631816Y-106069002D01*
X196533767Y-106049500D01*
X196366233Y-106049500D01*
X196284451Y-106065767D01*
X196201920Y-106082183D01*
X196201914Y-106082185D01*
X196047137Y-106146296D01*
X195907840Y-106239371D01*
X195789371Y-106357840D01*
X195696296Y-106497137D01*
X195632185Y-106651914D01*
X195632183Y-106651920D01*
X195616208Y-106732234D01*
X195599500Y-106816233D01*
X194317259Y-106816233D01*
X194223342Y-100536233D01*
X195529500Y-100536233D01*
X195529500Y-100703767D01*
X195551189Y-100812809D01*
X195562183Y-100868079D01*
X195562185Y-100868085D01*
X195626296Y-101022862D01*
X195719371Y-101162159D01*
X195837840Y-101280628D01*
X195938427Y-101347838D01*
X195977137Y-101373703D01*
X196131918Y-101437816D01*
X196296233Y-101470500D01*
X196296236Y-101470500D01*
X196463766Y-101470500D01*
X196463767Y-101470500D01*
X196521708Y-101458975D01*
X196558489Y-101451659D01*
X196595271Y-101458975D01*
X196616106Y-101490158D01*
X196613318Y-101518468D01*
X196562186Y-101641910D01*
X196562183Y-101641920D01*
X196545767Y-101724451D01*
X196529500Y-101806233D01*
X196529500Y-101973767D01*
X196551189Y-102082809D01*
X196562183Y-102138079D01*
X196562185Y-102138085D01*
X196626296Y-102292862D01*
X196719371Y-102432159D01*
X196837840Y-102550628D01*
X196916396Y-102603117D01*
X196977137Y-102643703D01*
X197131918Y-102707816D01*
X197296233Y-102740500D01*
X197296236Y-102740500D01*
X197463764Y-102740500D01*
X197463767Y-102740500D01*
X197628082Y-102707816D01*
X197782863Y-102643703D01*
X197922162Y-102550626D01*
X198040626Y-102432162D01*
X198133703Y-102292863D01*
X198197816Y-102138082D01*
X198230500Y-101973767D01*
X198230500Y-101806233D01*
X198197816Y-101641918D01*
X198133703Y-101487137D01*
X198040628Y-101347840D01*
X197922159Y-101229371D01*
X197782862Y-101136296D01*
X197628085Y-101072185D01*
X197628079Y-101072183D01*
X197558488Y-101058341D01*
X197463767Y-101039500D01*
X197296233Y-101039500D01*
X197240171Y-101050651D01*
X197201510Y-101058341D01*
X197164728Y-101051024D01*
X197143892Y-101019841D01*
X197146680Y-100991532D01*
X197197816Y-100868082D01*
X197230500Y-100703767D01*
X197230500Y-100536233D01*
X197197816Y-100371918D01*
X197146681Y-100248468D01*
X197146681Y-100210966D01*
X197173199Y-100184447D01*
X197201510Y-100181659D01*
X197296227Y-100200499D01*
X197296230Y-100200499D01*
X197296233Y-100200500D01*
X197296234Y-100200500D01*
X197463764Y-100200500D01*
X197463767Y-100200500D01*
X197628082Y-100167816D01*
X197782863Y-100103703D01*
X197922162Y-100010626D01*
X198040626Y-99892162D01*
X198133703Y-99752863D01*
X198197816Y-99598082D01*
X198230500Y-99433767D01*
X198230500Y-99266233D01*
X198197816Y-99101918D01*
X198133703Y-98947137D01*
X198040628Y-98807840D01*
X197922159Y-98689371D01*
X197782862Y-98596296D01*
X197628085Y-98532185D01*
X197628079Y-98532183D01*
X197561816Y-98519002D01*
X197463767Y-98499500D01*
X197296233Y-98499500D01*
X197214451Y-98515767D01*
X197131920Y-98532183D01*
X197131914Y-98532185D01*
X196977137Y-98596296D01*
X196837840Y-98689371D01*
X196719371Y-98807840D01*
X196626296Y-98947137D01*
X196562185Y-99101914D01*
X196562183Y-99101920D01*
X196545767Y-99184451D01*
X196529500Y-99266233D01*
X196529500Y-99433767D01*
X196551189Y-99542809D01*
X196562183Y-99598079D01*
X196562186Y-99598089D01*
X196613318Y-99721531D01*
X196613318Y-99759034D01*
X196586799Y-99785552D01*
X196558489Y-99788341D01*
X196533606Y-99783391D01*
X196463767Y-99769500D01*
X196296233Y-99769500D01*
X196215533Y-99785552D01*
X196131920Y-99802183D01*
X196131914Y-99802185D01*
X195977137Y-99866296D01*
X195837840Y-99959371D01*
X195719371Y-100077840D01*
X195626296Y-100217137D01*
X195562185Y-100371914D01*
X195562183Y-100371920D01*
X195545767Y-100454451D01*
X195529500Y-100536233D01*
X194223342Y-100536233D01*
X194090000Y-91620000D01*
X194089999Y-91620000D01*
X194089999Y-91619999D01*
X186930000Y-91669999D01*
X186340876Y-111730020D01*
X186325513Y-111764232D01*
X186292635Y-111777576D01*
X166220000Y-112079999D01*
X166219999Y-112080000D01*
X166309388Y-119083325D01*
X166295480Y-119118153D01*
X166262102Y-119132920D01*
X162910000Y-119250000D01*
X162831180Y-122412625D01*
X162815969Y-122446905D01*
X162782612Y-122460402D01*
X162749008Y-122460686D01*
X162760000Y-119570000D01*
X160550000Y-119600000D01*
X160521085Y-120655401D01*
X160506966Y-122479741D01*
X160506965Y-122479742D01*
X160506964Y-122479742D01*
X160506965Y-122479741D01*
X160506964Y-122479741D01*
X159300000Y-122489999D01*
X159298091Y-123406586D01*
X159298091Y-123406585D01*
X159298090Y-123406587D01*
X158850000Y-123416500D01*
X158815495Y-124860137D01*
X159295064Y-124860588D01*
X159282662Y-124872953D01*
X159280675Y-124877723D01*
X159246101Y-124892000D01*
X157405438Y-124892000D01*
X157423949Y-120023676D01*
X155483052Y-120050023D01*
X155455810Y-121044373D01*
X155451277Y-121630092D01*
X155393331Y-121596637D01*
X155393327Y-121596636D01*
X155291472Y-121569344D01*
X155291469Y-121569344D01*
X155186015Y-121569344D01*
X155186012Y-121569344D01*
X155084156Y-121596636D01*
X155084152Y-121596637D01*
X154992828Y-121649364D01*
X154992828Y-121649365D01*
X154918263Y-121723930D01*
X154918262Y-121723930D01*
X154865535Y-121815254D01*
X154865534Y-121815258D01*
X154838242Y-121917113D01*
X154838242Y-122022574D01*
X154865534Y-122124429D01*
X154865535Y-122124433D01*
X154907313Y-122196793D01*
X154918262Y-122215757D01*
X154992829Y-122290324D01*
X155008757Y-122299520D01*
X155084152Y-122343050D01*
X155084154Y-122343050D01*
X155084155Y-122343051D01*
X155164489Y-122364576D01*
X155186011Y-122370343D01*
X155186012Y-122370344D01*
X155186015Y-122370344D01*
X155291472Y-122370344D01*
X155291472Y-122370343D01*
X155393329Y-122343051D01*
X155445995Y-122312644D01*
X155439474Y-123155171D01*
X155438077Y-123155349D01*
X153649999Y-123139999D01*
X153620652Y-131005330D01*
X153620000Y-131180000D01*
X155392838Y-131198371D01*
X155427332Y-131213080D01*
X155439657Y-131234685D01*
X155455242Y-131292851D01*
X155455243Y-131292854D01*
X155507970Y-131384178D01*
X155528874Y-131405082D01*
X155543226Y-131439730D01*
X155543207Y-131441110D01*
X155520287Y-132254776D01*
X155510908Y-132281181D01*
X155511125Y-132281306D01*
X155510447Y-132282480D01*
X155510184Y-132283221D01*
X155509518Y-132284088D01*
X155456793Y-132375410D01*
X155456792Y-132375414D01*
X155429500Y-132477269D01*
X155429500Y-132571000D01*
X155415148Y-132605648D01*
X155380500Y-132620000D01*
X154332500Y-132620000D01*
X154332499Y-132620000D01*
X154332499Y-132620001D01*
X154289999Y-135207499D01*
X154290000Y-135207500D01*
X155779933Y-135207500D01*
X155780000Y-135207500D01*
X162119324Y-135190138D01*
X162154010Y-135204395D01*
X162168457Y-135239004D01*
X162168434Y-135240652D01*
X162009494Y-140383366D01*
X161990436Y-141000000D01*
X186842110Y-141039923D01*
X186876735Y-141054330D01*
X186891020Y-141087878D01*
X187069326Y-149449455D01*
X187055716Y-149484402D01*
X187021382Y-149499489D01*
X187020337Y-149499500D01*
X134549500Y-149499500D01*
X134514852Y-149485148D01*
X134500500Y-149450500D01*
X134500500Y-144862326D01*
X135899500Y-144862326D01*
X135899500Y-145137674D01*
X135935440Y-145410666D01*
X135935441Y-145410670D01*
X135935442Y-145410677D01*
X136006702Y-145676625D01*
X136006706Y-145676635D01*
X136112077Y-145931022D01*
X136249749Y-146169476D01*
X136249759Y-146169491D01*
X136417367Y-146387922D01*
X136417377Y-146387934D01*
X136612065Y-146582622D01*
X136612077Y-146582632D01*
X136830508Y-146750240D01*
X136830517Y-146750246D01*
X136830521Y-146750249D01*
X137068979Y-146887923D01*
X137323368Y-146993295D01*
X137323371Y-146993295D01*
X137323374Y-146993297D01*
X137589322Y-147064557D01*
X137589323Y-147064557D01*
X137589334Y-147064560D01*
X137862326Y-147100500D01*
X137862330Y-147100500D01*
X138137670Y-147100500D01*
X138137674Y-147100500D01*
X138410666Y-147064560D01*
X138676632Y-146993295D01*
X138931021Y-146887923D01*
X139169479Y-146750249D01*
X139387928Y-146582628D01*
X139582628Y-146387928D01*
X139687347Y-146251455D01*
X142789500Y-146251455D01*
X142789500Y-146448544D01*
X142827947Y-146641827D01*
X142827949Y-146641836D01*
X142880829Y-146769500D01*
X142903368Y-146823914D01*
X142976691Y-146933650D01*
X142996462Y-146963240D01*
X143012861Y-146987782D01*
X143152218Y-147127139D01*
X143316086Y-147236632D01*
X143498165Y-147312051D01*
X143691459Y-147350500D01*
X143888541Y-147350500D01*
X144081835Y-147312051D01*
X144263914Y-147236632D01*
X144427782Y-147127139D01*
X144567139Y-146987782D01*
X144676632Y-146823914D01*
X144752051Y-146641835D01*
X144790500Y-146448541D01*
X144790500Y-146251459D01*
X144790499Y-146251455D01*
X150599500Y-146251455D01*
X150599500Y-146448544D01*
X150637947Y-146641827D01*
X150637949Y-146641836D01*
X150690829Y-146769500D01*
X150713368Y-146823914D01*
X150786691Y-146933650D01*
X150806462Y-146963240D01*
X150822861Y-146987782D01*
X150962218Y-147127139D01*
X151126086Y-147236632D01*
X151308165Y-147312051D01*
X151501459Y-147350500D01*
X151698541Y-147350500D01*
X151851396Y-147320095D01*
X170759500Y-147320095D01*
X170759500Y-149039894D01*
X170759501Y-149039898D01*
X170765331Y-149069213D01*
X170765331Y-149069214D01*
X170765332Y-149069215D01*
X170765332Y-149069216D01*
X170781872Y-149093970D01*
X170787543Y-149102457D01*
X170820787Y-149124669D01*
X170850101Y-149130500D01*
X172569898Y-149130499D01*
X172599213Y-149124669D01*
X172632457Y-149102457D01*
X172654669Y-149069213D01*
X172660500Y-149039899D01*
X172660499Y-148086384D01*
X173299500Y-148086384D01*
X173299500Y-148273616D01*
X173323740Y-148395479D01*
X173336026Y-148457248D01*
X173336029Y-148457258D01*
X173407675Y-148630225D01*
X173407676Y-148630227D01*
X173407678Y-148630231D01*
X173511698Y-148785908D01*
X173644092Y-148918302D01*
X173799769Y-149022322D01*
X173799774Y-149022324D01*
X173972741Y-149093970D01*
X173972743Y-149093970D01*
X173972749Y-149093973D01*
X174156384Y-149130500D01*
X174156387Y-149130500D01*
X174343613Y-149130500D01*
X174343616Y-149130500D01*
X174527251Y-149093973D01*
X174700231Y-149022322D01*
X174855908Y-148918302D01*
X174988302Y-148785908D01*
X175092322Y-148630231D01*
X175163973Y-148457251D01*
X175200500Y-148273616D01*
X175200500Y-148086384D01*
X175839500Y-148086384D01*
X175839500Y-148273616D01*
X175863740Y-148395479D01*
X175876026Y-148457248D01*
X175876029Y-148457258D01*
X175947675Y-148630225D01*
X175947676Y-148630227D01*
X175947678Y-148630231D01*
X176051698Y-148785908D01*
X176184092Y-148918302D01*
X176339769Y-149022322D01*
X176339774Y-149022324D01*
X176512741Y-149093970D01*
X176512743Y-149093970D01*
X176512749Y-149093973D01*
X176696384Y-149130500D01*
X176696387Y-149130500D01*
X176883613Y-149130500D01*
X176883616Y-149130500D01*
X177067251Y-149093973D01*
X177240231Y-149022322D01*
X177395908Y-148918302D01*
X177528302Y-148785908D01*
X177632322Y-148630231D01*
X177703973Y-148457251D01*
X177740500Y-148273616D01*
X177740500Y-148086384D01*
X177703973Y-147902749D01*
X177700978Y-147895519D01*
X177632324Y-147729774D01*
X177632322Y-147729769D01*
X177528302Y-147574092D01*
X177395908Y-147441698D01*
X177240231Y-147337678D01*
X177240227Y-147337676D01*
X177240225Y-147337675D01*
X177067258Y-147266029D01*
X177067248Y-147266026D01*
X176993194Y-147251296D01*
X176883616Y-147229500D01*
X176696384Y-147229500D01*
X176604986Y-147247680D01*
X176512751Y-147266026D01*
X176512741Y-147266029D01*
X176339774Y-147337675D01*
X176339770Y-147337677D01*
X176339769Y-147337678D01*
X176320581Y-147350499D01*
X176184092Y-147441697D01*
X176051697Y-147574092D01*
X175947675Y-147729774D01*
X175876029Y-147902741D01*
X175876026Y-147902751D01*
X175857680Y-147994986D01*
X175839500Y-148086384D01*
X175200500Y-148086384D01*
X175163973Y-147902749D01*
X175160978Y-147895519D01*
X175092324Y-147729774D01*
X175092322Y-147729769D01*
X174988302Y-147574092D01*
X174855908Y-147441698D01*
X174700231Y-147337678D01*
X174700227Y-147337676D01*
X174700225Y-147337675D01*
X174527258Y-147266029D01*
X174527248Y-147266026D01*
X174453194Y-147251296D01*
X174343616Y-147229500D01*
X174156384Y-147229500D01*
X174064986Y-147247680D01*
X173972751Y-147266026D01*
X173972741Y-147266029D01*
X173799774Y-147337675D01*
X173799770Y-147337677D01*
X173799769Y-147337678D01*
X173780581Y-147350499D01*
X173644092Y-147441697D01*
X173511697Y-147574092D01*
X173407675Y-147729774D01*
X173336029Y-147902741D01*
X173336026Y-147902751D01*
X173317680Y-147994986D01*
X173299500Y-148086384D01*
X172660499Y-148086384D01*
X172660499Y-147320102D01*
X172654669Y-147290787D01*
X172654667Y-147290784D01*
X172654667Y-147290783D01*
X172632457Y-147257543D01*
X172599212Y-147235330D01*
X172569901Y-147229500D01*
X170850105Y-147229500D01*
X170850104Y-147229500D01*
X170850102Y-147229501D01*
X170820787Y-147235331D01*
X170820786Y-147235331D01*
X170820784Y-147235332D01*
X170820783Y-147235332D01*
X170787543Y-147257542D01*
X170765330Y-147290786D01*
X170765330Y-147290787D01*
X170759500Y-147320095D01*
X151851396Y-147320095D01*
X151891835Y-147312051D01*
X152073914Y-147236632D01*
X152237782Y-147127139D01*
X152377139Y-146987782D01*
X152486632Y-146823914D01*
X152562051Y-146641835D01*
X152600500Y-146448541D01*
X152600500Y-146251459D01*
X152562051Y-146058165D01*
X152486632Y-145876086D01*
X152377139Y-145712218D01*
X152237782Y-145572861D01*
X152073914Y-145463368D01*
X152073911Y-145463366D01*
X152073910Y-145463366D01*
X151891836Y-145387949D01*
X151891827Y-145387947D01*
X151698544Y-145349500D01*
X151698541Y-145349500D01*
X151501459Y-145349500D01*
X151501455Y-145349500D01*
X151308172Y-145387947D01*
X151308163Y-145387949D01*
X151126089Y-145463366D01*
X150962218Y-145572860D01*
X150822860Y-145712218D01*
X150713366Y-145876089D01*
X150637949Y-146058163D01*
X150637947Y-146058172D01*
X150599500Y-146251455D01*
X144790499Y-146251455D01*
X144752051Y-146058165D01*
X144676632Y-145876086D01*
X144567139Y-145712218D01*
X144427782Y-145572861D01*
X144263914Y-145463368D01*
X144263911Y-145463366D01*
X144263910Y-145463366D01*
X144081836Y-145387949D01*
X144081827Y-145387947D01*
X143888544Y-145349500D01*
X143888541Y-145349500D01*
X143691459Y-145349500D01*
X143691455Y-145349500D01*
X143498172Y-145387947D01*
X143498163Y-145387949D01*
X143316089Y-145463366D01*
X143152218Y-145572860D01*
X143012860Y-145712218D01*
X142903366Y-145876089D01*
X142827949Y-146058163D01*
X142827947Y-146058172D01*
X142789500Y-146251455D01*
X139687347Y-146251455D01*
X139712080Y-146219223D01*
X139750240Y-146169491D01*
X139750241Y-146169488D01*
X139750249Y-146169479D01*
X139887923Y-145931021D01*
X139993295Y-145676632D01*
X140021101Y-145572860D01*
X140064557Y-145410677D01*
X140064556Y-145410677D01*
X140064560Y-145410666D01*
X140100500Y-145137674D01*
X140100500Y-144862326D01*
X140064560Y-144589334D01*
X140060830Y-144575413D01*
X139993297Y-144323374D01*
X139993293Y-144323364D01*
X139976952Y-144283914D01*
X139887923Y-144068979D01*
X139871468Y-144040479D01*
X139775692Y-143874589D01*
X139750249Y-143830521D01*
X139750246Y-143830517D01*
X139750240Y-143830508D01*
X139645410Y-143693890D01*
X139624983Y-143667269D01*
X140749500Y-143667269D01*
X140749500Y-143772730D01*
X140776792Y-143874585D01*
X140776793Y-143874589D01*
X140829520Y-143965913D01*
X140904087Y-144040480D01*
X140921406Y-144050479D01*
X140995410Y-144093206D01*
X140995412Y-144093206D01*
X140995413Y-144093207D01*
X141032734Y-144103207D01*
X141097269Y-144120499D01*
X141097270Y-144120500D01*
X141097273Y-144120500D01*
X141202730Y-144120500D01*
X141202730Y-144120499D01*
X141304587Y-144093207D01*
X141395913Y-144040480D01*
X141470480Y-143965913D01*
X141523207Y-143874587D01*
X141550499Y-143772730D01*
X141550500Y-143772730D01*
X141550500Y-143667270D01*
X141550499Y-143667269D01*
X141535707Y-143612065D01*
X141523207Y-143565413D01*
X141523206Y-143565412D01*
X141523206Y-143565410D01*
X141470479Y-143474086D01*
X141395913Y-143399520D01*
X141304589Y-143346793D01*
X141304585Y-143346792D01*
X141202730Y-143319500D01*
X141202727Y-143319500D01*
X141097273Y-143319500D01*
X141097270Y-143319500D01*
X140995414Y-143346792D01*
X140995410Y-143346793D01*
X140904086Y-143399520D01*
X140904086Y-143399521D01*
X140829521Y-143474086D01*
X140829520Y-143474086D01*
X140776793Y-143565410D01*
X140776792Y-143565414D01*
X140749500Y-143667269D01*
X139624983Y-143667269D01*
X139582632Y-143612077D01*
X139582622Y-143612065D01*
X139387934Y-143417377D01*
X139387922Y-143417367D01*
X139169491Y-143249759D01*
X139169476Y-143249749D01*
X138931022Y-143112077D01*
X138676635Y-143006706D01*
X138676625Y-143006702D01*
X138410677Y-142935442D01*
X138410670Y-142935441D01*
X138410666Y-142935440D01*
X138137674Y-142899500D01*
X137862326Y-142899500D01*
X137589334Y-142935440D01*
X137589330Y-142935440D01*
X137589322Y-142935442D01*
X137323374Y-143006702D01*
X137323364Y-143006706D01*
X137068977Y-143112077D01*
X136830523Y-143249749D01*
X136830508Y-143249759D01*
X136612077Y-143417367D01*
X136612065Y-143417377D01*
X136417377Y-143612065D01*
X136417367Y-143612077D01*
X136249759Y-143830508D01*
X136249749Y-143830523D01*
X136112077Y-144068977D01*
X136006706Y-144323364D01*
X136006702Y-144323374D01*
X135935442Y-144589322D01*
X135935440Y-144589330D01*
X135935440Y-144589334D01*
X135899500Y-144862326D01*
X134500500Y-144862326D01*
X134500500Y-142767269D01*
X140779500Y-142767269D01*
X140779500Y-142872730D01*
X140806792Y-142974585D01*
X140806793Y-142974589D01*
X140840437Y-143032861D01*
X140859520Y-143065913D01*
X140934087Y-143140480D01*
X140967513Y-143159778D01*
X141025410Y-143193206D01*
X141025412Y-143193206D01*
X141025413Y-143193207D01*
X141105747Y-143214732D01*
X141127269Y-143220499D01*
X141127270Y-143220500D01*
X141127273Y-143220500D01*
X141232730Y-143220500D01*
X141232730Y-143220499D01*
X141334587Y-143193207D01*
X141425913Y-143140480D01*
X141500480Y-143065913D01*
X141553207Y-142974587D01*
X141563650Y-142935609D01*
X141586479Y-142905858D01*
X141623661Y-142900962D01*
X141653415Y-142923792D01*
X141658310Y-142935610D01*
X141676793Y-143004587D01*
X141676793Y-143004589D01*
X141712200Y-143065914D01*
X141729520Y-143095913D01*
X141804087Y-143170480D01*
X141837513Y-143189778D01*
X141895410Y-143223206D01*
X141895412Y-143223206D01*
X141895413Y-143223207D01*
X141914960Y-143228444D01*
X141968048Y-143242670D01*
X141997801Y-143265500D01*
X142002696Y-143302682D01*
X141979866Y-143332435D01*
X141968048Y-143337330D01*
X141895414Y-143356792D01*
X141895410Y-143356793D01*
X141804086Y-143409520D01*
X141804086Y-143409521D01*
X141729521Y-143484086D01*
X141729520Y-143484086D01*
X141676793Y-143575410D01*
X141676792Y-143575414D01*
X141649500Y-143677269D01*
X141649500Y-143782730D01*
X141676792Y-143884585D01*
X141676793Y-143884589D01*
X141723747Y-143965914D01*
X141729520Y-143975913D01*
X141804087Y-144050480D01*
X141836125Y-144068977D01*
X141895410Y-144103206D01*
X141895412Y-144103206D01*
X141895413Y-144103207D01*
X141959952Y-144120500D01*
X141997269Y-144130499D01*
X141997270Y-144130500D01*
X141997273Y-144130500D01*
X142102730Y-144130500D01*
X142102730Y-144130499D01*
X142204587Y-144103207D01*
X142206964Y-144101835D01*
X142216823Y-144096142D01*
X142295913Y-144050480D01*
X142370480Y-143975913D01*
X142423207Y-143884587D01*
X142450499Y-143782730D01*
X142450500Y-143782730D01*
X142450500Y-143711455D01*
X142789500Y-143711455D01*
X142789500Y-143908544D01*
X142827947Y-144101827D01*
X142827949Y-144101836D01*
X142835680Y-144120500D01*
X142903368Y-144283914D01*
X143012861Y-144447782D01*
X143152218Y-144587139D01*
X143316086Y-144696632D01*
X143498165Y-144772051D01*
X143691459Y-144810500D01*
X143888541Y-144810500D01*
X144081835Y-144772051D01*
X144263914Y-144696632D01*
X144427782Y-144587139D01*
X144567139Y-144447782D01*
X144676632Y-144283914D01*
X144752051Y-144101835D01*
X144790500Y-143908541D01*
X144790500Y-143711459D01*
X144790499Y-143711455D01*
X150599500Y-143711455D01*
X150599500Y-143908544D01*
X150637947Y-144101827D01*
X150637949Y-144101836D01*
X150645680Y-144120500D01*
X150713368Y-144283914D01*
X150822861Y-144447782D01*
X150962218Y-144587139D01*
X151126086Y-144696632D01*
X151308165Y-144772051D01*
X151501459Y-144810500D01*
X151698541Y-144810500D01*
X151891835Y-144772051D01*
X152073914Y-144696632D01*
X152237782Y-144587139D01*
X152377139Y-144447782D01*
X152486632Y-144283914D01*
X152562051Y-144101835D01*
X152600500Y-143908541D01*
X152600500Y-143711459D01*
X152562051Y-143518165D01*
X152486632Y-143336086D01*
X152377139Y-143172218D01*
X152237782Y-143032861D01*
X152073914Y-142923368D01*
X152073911Y-142923366D01*
X152073910Y-142923366D01*
X151891836Y-142847949D01*
X151891827Y-142847947D01*
X151698544Y-142809500D01*
X151698541Y-142809500D01*
X151501459Y-142809500D01*
X151501455Y-142809500D01*
X151308172Y-142847947D01*
X151308163Y-142847949D01*
X151126089Y-142923366D01*
X150962218Y-143032860D01*
X150822860Y-143172218D01*
X150713366Y-143336089D01*
X150637949Y-143518163D01*
X150637947Y-143518172D01*
X150599500Y-143711455D01*
X144790499Y-143711455D01*
X144752051Y-143518165D01*
X144676632Y-143336086D01*
X144567139Y-143172218D01*
X144427782Y-143032861D01*
X144263914Y-142923368D01*
X144263911Y-142923366D01*
X144263910Y-142923366D01*
X144081836Y-142847949D01*
X144081827Y-142847947D01*
X143888544Y-142809500D01*
X143888541Y-142809500D01*
X143691459Y-142809500D01*
X143691455Y-142809500D01*
X143498172Y-142847947D01*
X143498163Y-142847949D01*
X143316089Y-142923366D01*
X143152218Y-143032860D01*
X143012860Y-143172218D01*
X142903366Y-143336089D01*
X142827949Y-143518163D01*
X142827947Y-143518172D01*
X142789500Y-143711455D01*
X142450500Y-143711455D01*
X142450500Y-143677270D01*
X142450499Y-143677269D01*
X142433031Y-143612077D01*
X142423207Y-143575413D01*
X142423206Y-143575412D01*
X142423206Y-143575410D01*
X142370479Y-143484086D01*
X142295913Y-143409520D01*
X142204589Y-143356793D01*
X142204586Y-143356792D01*
X142131951Y-143337330D01*
X142102198Y-143314500D01*
X142097303Y-143277318D01*
X142120133Y-143247565D01*
X142131951Y-143242670D01*
X142177841Y-143230373D01*
X142204587Y-143223207D01*
X142209278Y-143220499D01*
X142216823Y-143216142D01*
X142295913Y-143170480D01*
X142370480Y-143095913D01*
X142423207Y-143004587D01*
X142450499Y-142902730D01*
X142450500Y-142902730D01*
X142450500Y-142797270D01*
X142450499Y-142797269D01*
X142423207Y-142695414D01*
X142423206Y-142695410D01*
X142370479Y-142604086D01*
X142295913Y-142529520D01*
X142204589Y-142476793D01*
X142204585Y-142476792D01*
X142102730Y-142449500D01*
X142102727Y-142449500D01*
X141997273Y-142449500D01*
X141997270Y-142449500D01*
X141895414Y-142476792D01*
X141895410Y-142476793D01*
X141804086Y-142529520D01*
X141804086Y-142529521D01*
X141729521Y-142604086D01*
X141729520Y-142604086D01*
X141676793Y-142695410D01*
X141676793Y-142695412D01*
X141666349Y-142734389D01*
X141643519Y-142764142D01*
X141606336Y-142769036D01*
X141576583Y-142746206D01*
X141571689Y-142734388D01*
X141553207Y-142665413D01*
X141553206Y-142665410D01*
X141500479Y-142574086D01*
X141425913Y-142499520D01*
X141334589Y-142446793D01*
X141334585Y-142446792D01*
X141232730Y-142419500D01*
X141232727Y-142419500D01*
X141127273Y-142419500D01*
X141127270Y-142419500D01*
X141025414Y-142446792D01*
X141025410Y-142446793D01*
X140934086Y-142499520D01*
X140934086Y-142499521D01*
X140859521Y-142574086D01*
X140859520Y-142574086D01*
X140806793Y-142665410D01*
X140806792Y-142665414D01*
X140779500Y-142767269D01*
X134500500Y-142767269D01*
X134500500Y-141171455D01*
X142789500Y-141171455D01*
X142789500Y-141368544D01*
X142794866Y-141395519D01*
X142827949Y-141561835D01*
X142903368Y-141743914D01*
X143012861Y-141907782D01*
X143152218Y-142047139D01*
X143316086Y-142156632D01*
X143498165Y-142232051D01*
X143691459Y-142270500D01*
X143888541Y-142270500D01*
X144081835Y-142232051D01*
X144263914Y-142156632D01*
X144427782Y-142047139D01*
X144567139Y-141907782D01*
X144676632Y-141743914D01*
X144752051Y-141561835D01*
X144790500Y-141368541D01*
X144790500Y-141171459D01*
X144790499Y-141171455D01*
X150599500Y-141171455D01*
X150599500Y-141368544D01*
X150604866Y-141395519D01*
X150637949Y-141561835D01*
X150713368Y-141743914D01*
X150822861Y-141907782D01*
X150962218Y-142047139D01*
X151126086Y-142156632D01*
X151308165Y-142232051D01*
X151501459Y-142270500D01*
X151698541Y-142270500D01*
X151891835Y-142232051D01*
X152073914Y-142156632D01*
X152237782Y-142047139D01*
X152377139Y-141907782D01*
X152486632Y-141743914D01*
X152562051Y-141561835D01*
X152600500Y-141368541D01*
X152600500Y-141171459D01*
X152562051Y-140978165D01*
X152486632Y-140796086D01*
X152377139Y-140632218D01*
X152237782Y-140492861D01*
X152073914Y-140383368D01*
X152073911Y-140383366D01*
X152073910Y-140383366D01*
X151891836Y-140307949D01*
X151891827Y-140307947D01*
X151698544Y-140269500D01*
X151698541Y-140269500D01*
X151501459Y-140269500D01*
X151501455Y-140269500D01*
X151308172Y-140307947D01*
X151308163Y-140307949D01*
X151126089Y-140383366D01*
X150962218Y-140492860D01*
X150822860Y-140632218D01*
X150713366Y-140796089D01*
X150637949Y-140978163D01*
X150637947Y-140978172D01*
X150599500Y-141171455D01*
X144790499Y-141171455D01*
X144752051Y-140978165D01*
X144676632Y-140796086D01*
X144567139Y-140632218D01*
X144427782Y-140492861D01*
X144263914Y-140383368D01*
X144263911Y-140383366D01*
X144263910Y-140383366D01*
X144081836Y-140307949D01*
X144081827Y-140307947D01*
X143888544Y-140269500D01*
X143888541Y-140269500D01*
X143691459Y-140269500D01*
X143691455Y-140269500D01*
X143498172Y-140307947D01*
X143498163Y-140307949D01*
X143316089Y-140383366D01*
X143152218Y-140492860D01*
X143012860Y-140632218D01*
X142903366Y-140796089D01*
X142827949Y-140978163D01*
X142827947Y-140978172D01*
X142789500Y-141171455D01*
X134500500Y-141171455D01*
X134500500Y-136565095D01*
X134839500Y-136565095D01*
X134839500Y-138284894D01*
X134839501Y-138284898D01*
X134845331Y-138314213D01*
X134845331Y-138314214D01*
X134845332Y-138314215D01*
X134845332Y-138314216D01*
X134867542Y-138347456D01*
X134867543Y-138347457D01*
X134900787Y-138369669D01*
X134930101Y-138375500D01*
X136649898Y-138375499D01*
X136679213Y-138369669D01*
X136712457Y-138347457D01*
X136734669Y-138314213D01*
X136740500Y-138284899D01*
X136740499Y-137820095D01*
X142789500Y-137820095D01*
X142789500Y-139639894D01*
X142789501Y-139639898D01*
X142795331Y-139669213D01*
X142795331Y-139669214D01*
X142795332Y-139669215D01*
X142795332Y-139669216D01*
X142817542Y-139702456D01*
X142817543Y-139702457D01*
X142850787Y-139724669D01*
X142880101Y-139730500D01*
X144699898Y-139730499D01*
X144729213Y-139724669D01*
X144762457Y-139702457D01*
X144784669Y-139669213D01*
X144790500Y-139639899D01*
X144790499Y-137820102D01*
X144784669Y-137790787D01*
X144784667Y-137790784D01*
X144784667Y-137790783D01*
X144762457Y-137757543D01*
X144729212Y-137735330D01*
X144699901Y-137729500D01*
X142880105Y-137729500D01*
X142880104Y-137729500D01*
X142880102Y-137729501D01*
X142850787Y-137735331D01*
X142850786Y-137735331D01*
X142850784Y-137735332D01*
X142850783Y-137735332D01*
X142817543Y-137757542D01*
X142795330Y-137790786D01*
X142795330Y-137790787D01*
X142789500Y-137820095D01*
X136740499Y-137820095D01*
X136740499Y-137424087D01*
X136740499Y-136565105D01*
X136740499Y-136565102D01*
X136734669Y-136535787D01*
X136734667Y-136535784D01*
X136734667Y-136535783D01*
X136712457Y-136502543D01*
X136679212Y-136480330D01*
X136649901Y-136474500D01*
X134930105Y-136474500D01*
X134930104Y-136474500D01*
X134930102Y-136474501D01*
X134900787Y-136480331D01*
X134900786Y-136480331D01*
X134900784Y-136480332D01*
X134900783Y-136480332D01*
X134867543Y-136502542D01*
X134845330Y-136535786D01*
X134845330Y-136535787D01*
X134839500Y-136565095D01*
X134500500Y-136565095D01*
X134500500Y-131090095D01*
X150254500Y-131090095D01*
X150254500Y-132909894D01*
X150254501Y-132909898D01*
X150260331Y-132939213D01*
X150260331Y-132939214D01*
X150260332Y-132939215D01*
X150260332Y-132939216D01*
X150282542Y-132972456D01*
X150282543Y-132972457D01*
X150315787Y-132994669D01*
X150345101Y-133000500D01*
X152164898Y-133000499D01*
X152194213Y-132994669D01*
X152227457Y-132972457D01*
X152249669Y-132939213D01*
X152255500Y-132909899D01*
X152255499Y-131090102D01*
X152249669Y-131060787D01*
X152249667Y-131060784D01*
X152249667Y-131060783D01*
X152227457Y-131027543D01*
X152194212Y-131005330D01*
X152164901Y-130999500D01*
X150345105Y-130999500D01*
X150345104Y-130999500D01*
X150345102Y-130999501D01*
X150315787Y-131005331D01*
X150315786Y-131005331D01*
X150315784Y-131005332D01*
X150315783Y-131005332D01*
X150282543Y-131027542D01*
X150260330Y-131060786D01*
X150260330Y-131060787D01*
X150254500Y-131090095D01*
X134500500Y-131090095D01*
X134500500Y-129361455D01*
X142444500Y-129361455D01*
X142444500Y-129558544D01*
X142482947Y-129751827D01*
X142482949Y-129751836D01*
X142521710Y-129845413D01*
X142558368Y-129933914D01*
X142667861Y-130097782D01*
X142807218Y-130237139D01*
X142971086Y-130346632D01*
X143153165Y-130422051D01*
X143346459Y-130460500D01*
X143543541Y-130460500D01*
X143736835Y-130422051D01*
X143918914Y-130346632D01*
X144082782Y-130237139D01*
X144222139Y-130097782D01*
X144331632Y-129933914D01*
X144407051Y-129751835D01*
X144445500Y-129558541D01*
X144445500Y-129361459D01*
X144445499Y-129361455D01*
X150254500Y-129361455D01*
X150254500Y-129558544D01*
X150292947Y-129751827D01*
X150292949Y-129751836D01*
X150331710Y-129845413D01*
X150368368Y-129933914D01*
X150477861Y-130097782D01*
X150617218Y-130237139D01*
X150781086Y-130346632D01*
X150963165Y-130422051D01*
X151156459Y-130460500D01*
X151353541Y-130460500D01*
X151546835Y-130422051D01*
X151728914Y-130346632D01*
X151892782Y-130237139D01*
X152032139Y-130097782D01*
X152141632Y-129933914D01*
X152217051Y-129751835D01*
X152255500Y-129558541D01*
X152255500Y-129361459D01*
X152217051Y-129168165D01*
X152141632Y-128986086D01*
X152032139Y-128822218D01*
X151892782Y-128682861D01*
X151728914Y-128573368D01*
X151728911Y-128573366D01*
X151728910Y-128573366D01*
X151546836Y-128497949D01*
X151546827Y-128497947D01*
X151353544Y-128459500D01*
X151353541Y-128459500D01*
X151156459Y-128459500D01*
X151156455Y-128459500D01*
X150963172Y-128497947D01*
X150963163Y-128497949D01*
X150781089Y-128573366D01*
X150617218Y-128682860D01*
X150477860Y-128822218D01*
X150368366Y-128986089D01*
X150292949Y-129168163D01*
X150292947Y-129168172D01*
X150254500Y-129361455D01*
X144445499Y-129361455D01*
X144407051Y-129168165D01*
X144331632Y-128986086D01*
X144222139Y-128822218D01*
X144082782Y-128682861D01*
X143918914Y-128573368D01*
X143918911Y-128573366D01*
X143918910Y-128573366D01*
X143736836Y-128497949D01*
X143736827Y-128497947D01*
X143543544Y-128459500D01*
X143543541Y-128459500D01*
X143346459Y-128459500D01*
X143346455Y-128459500D01*
X143153172Y-128497947D01*
X143153163Y-128497949D01*
X142971089Y-128573366D01*
X142807218Y-128682860D01*
X142667860Y-128822218D01*
X142558366Y-128986089D01*
X142482949Y-129168163D01*
X142482947Y-129168172D01*
X142444500Y-129361455D01*
X134500500Y-129361455D01*
X134500500Y-126821455D01*
X142444500Y-126821455D01*
X142444500Y-127018544D01*
X142475265Y-127173207D01*
X142482949Y-127211835D01*
X142558368Y-127393914D01*
X142667861Y-127557782D01*
X142807218Y-127697139D01*
X142971086Y-127806632D01*
X143153165Y-127882051D01*
X143346459Y-127920500D01*
X143543541Y-127920500D01*
X143736835Y-127882051D01*
X143918914Y-127806632D01*
X144082782Y-127697139D01*
X144222139Y-127557782D01*
X144331632Y-127393914D01*
X144407051Y-127211835D01*
X144445500Y-127018541D01*
X144445500Y-126821459D01*
X144407051Y-126628165D01*
X144331632Y-126446086D01*
X144222139Y-126282218D01*
X144082782Y-126142861D01*
X143918914Y-126033368D01*
X143918911Y-126033366D01*
X143918910Y-126033366D01*
X143736836Y-125957949D01*
X143736827Y-125957947D01*
X143543544Y-125919500D01*
X143543541Y-125919500D01*
X143346459Y-125919500D01*
X143346455Y-125919500D01*
X143153172Y-125957947D01*
X143153163Y-125957949D01*
X142971089Y-126033366D01*
X142807218Y-126142860D01*
X142667860Y-126282218D01*
X142558366Y-126446089D01*
X142482949Y-126628163D01*
X142482947Y-126628172D01*
X142444500Y-126821455D01*
X134500500Y-126821455D01*
X134500500Y-124281455D01*
X142444500Y-124281455D01*
X142444500Y-124478544D01*
X142482947Y-124671827D01*
X142482949Y-124671835D01*
X142558368Y-124853914D01*
X142667861Y-125017782D01*
X142807218Y-125157139D01*
X142971086Y-125266632D01*
X143153165Y-125342051D01*
X143346459Y-125380500D01*
X143543541Y-125380500D01*
X143736835Y-125342051D01*
X143918914Y-125266632D01*
X144082782Y-125157139D01*
X144222139Y-125017782D01*
X144331632Y-124853914D01*
X144407051Y-124671835D01*
X144445500Y-124478541D01*
X144445500Y-124281459D01*
X144445499Y-124281455D01*
X150254500Y-124281455D01*
X150254500Y-124478544D01*
X150292947Y-124671827D01*
X150292949Y-124671835D01*
X150368368Y-124853914D01*
X150477861Y-125017782D01*
X150617218Y-125157139D01*
X150781086Y-125266632D01*
X150963165Y-125342051D01*
X151156459Y-125380500D01*
X151353541Y-125380500D01*
X151546835Y-125342051D01*
X151728914Y-125266632D01*
X151892782Y-125157139D01*
X152032139Y-125017782D01*
X152141632Y-124853914D01*
X152217051Y-124671835D01*
X152255500Y-124478541D01*
X152255500Y-124281459D01*
X152217051Y-124088165D01*
X152141632Y-123906086D01*
X152032139Y-123742218D01*
X151892782Y-123602861D01*
X151859286Y-123580480D01*
X151838650Y-123566691D01*
X151728914Y-123493368D01*
X151728911Y-123493366D01*
X151728910Y-123493366D01*
X151546836Y-123417949D01*
X151546827Y-123417947D01*
X151353544Y-123379500D01*
X151353541Y-123379500D01*
X151156459Y-123379500D01*
X151156455Y-123379500D01*
X150963172Y-123417947D01*
X150963163Y-123417949D01*
X150781089Y-123493366D01*
X150617218Y-123602860D01*
X150477860Y-123742218D01*
X150368366Y-123906089D01*
X150292949Y-124088163D01*
X150292947Y-124088172D01*
X150254500Y-124281455D01*
X144445499Y-124281455D01*
X144407051Y-124088165D01*
X144331632Y-123906086D01*
X144222139Y-123742218D01*
X144082782Y-123602861D01*
X144049286Y-123580480D01*
X144028650Y-123566691D01*
X143918914Y-123493368D01*
X143918911Y-123493366D01*
X143918910Y-123493366D01*
X143736836Y-123417949D01*
X143736827Y-123417947D01*
X143543544Y-123379500D01*
X143543541Y-123379500D01*
X143346459Y-123379500D01*
X143346455Y-123379500D01*
X143153172Y-123417947D01*
X143153163Y-123417949D01*
X142971089Y-123493366D01*
X142807218Y-123602860D01*
X142667860Y-123742218D01*
X142558366Y-123906089D01*
X142482949Y-124088163D01*
X142482947Y-124088172D01*
X142444500Y-124281455D01*
X134500500Y-124281455D01*
X134500500Y-122517269D01*
X154069500Y-122517269D01*
X154069500Y-122622730D01*
X154096792Y-122724585D01*
X154096793Y-122724589D01*
X154125660Y-122774587D01*
X154149520Y-122815913D01*
X154224087Y-122890480D01*
X154257513Y-122909778D01*
X154315410Y-122943206D01*
X154315412Y-122943206D01*
X154315413Y-122943207D01*
X154395747Y-122964732D01*
X154417269Y-122970499D01*
X154417270Y-122970500D01*
X154417273Y-122970500D01*
X154522730Y-122970500D01*
X154522730Y-122970499D01*
X154624587Y-122943207D01*
X154715913Y-122890480D01*
X154790480Y-122815913D01*
X154843207Y-122724587D01*
X154870499Y-122622730D01*
X154870500Y-122622730D01*
X154870500Y-122517270D01*
X154870499Y-122517269D01*
X154843207Y-122415414D01*
X154843206Y-122415410D01*
X154790479Y-122324086D01*
X154715913Y-122249520D01*
X154624589Y-122196793D01*
X154624585Y-122196792D01*
X154522730Y-122169500D01*
X154522727Y-122169500D01*
X154417273Y-122169500D01*
X154417270Y-122169500D01*
X154315414Y-122196792D01*
X154315410Y-122196793D01*
X154224086Y-122249520D01*
X154224086Y-122249521D01*
X154149521Y-122324086D01*
X154149520Y-122324086D01*
X154096793Y-122415410D01*
X154096792Y-122415414D01*
X154069500Y-122517269D01*
X134500500Y-122517269D01*
X134500500Y-117287269D01*
X164129500Y-117287269D01*
X164129500Y-117392730D01*
X164156792Y-117494585D01*
X164156793Y-117494589D01*
X164209520Y-117585913D01*
X164284087Y-117660480D01*
X164317513Y-117679778D01*
X164375410Y-117713206D01*
X164375412Y-117713206D01*
X164375413Y-117713207D01*
X164455747Y-117734732D01*
X164477269Y-117740499D01*
X164477270Y-117740500D01*
X164477273Y-117740500D01*
X164582730Y-117740500D01*
X164582730Y-117740499D01*
X164684587Y-117713207D01*
X164775913Y-117660480D01*
X164850480Y-117585913D01*
X164903207Y-117494587D01*
X164930499Y-117392730D01*
X164930500Y-117392730D01*
X164930500Y-117287270D01*
X164930499Y-117287269D01*
X164903207Y-117185414D01*
X164903206Y-117185410D01*
X164850479Y-117094086D01*
X164775913Y-117019520D01*
X164684589Y-116966793D01*
X164684585Y-116966792D01*
X164582730Y-116939500D01*
X164582727Y-116939500D01*
X164477273Y-116939500D01*
X164477270Y-116939500D01*
X164375414Y-116966792D01*
X164375410Y-116966793D01*
X164284086Y-117019520D01*
X164284086Y-117019521D01*
X164209521Y-117094086D01*
X164209520Y-117094086D01*
X164156793Y-117185410D01*
X164156792Y-117185414D01*
X164129500Y-117287269D01*
X134500500Y-117287269D01*
X134500500Y-115187269D01*
X164189500Y-115187269D01*
X164189500Y-115292730D01*
X164216792Y-115394585D01*
X164216793Y-115394589D01*
X164257973Y-115465913D01*
X164269520Y-115485913D01*
X164344087Y-115560480D01*
X164377513Y-115579778D01*
X164435410Y-115613206D01*
X164435412Y-115613206D01*
X164435413Y-115613207D01*
X164496220Y-115629500D01*
X164537269Y-115640499D01*
X164537270Y-115640500D01*
X164537273Y-115640500D01*
X164642730Y-115640500D01*
X164642730Y-115640499D01*
X164744587Y-115613207D01*
X164835913Y-115560480D01*
X164910480Y-115485913D01*
X164963207Y-115394587D01*
X164990499Y-115292730D01*
X164990500Y-115292730D01*
X164990500Y-115187270D01*
X164990499Y-115187269D01*
X164963207Y-115085414D01*
X164963206Y-115085410D01*
X164910479Y-114994086D01*
X164835913Y-114919520D01*
X164744589Y-114866793D01*
X164744585Y-114866792D01*
X164642730Y-114839500D01*
X164642727Y-114839500D01*
X164537273Y-114839500D01*
X164537270Y-114839500D01*
X164435414Y-114866792D01*
X164435410Y-114866793D01*
X164344086Y-114919520D01*
X164344086Y-114919521D01*
X164269521Y-114994086D01*
X164269520Y-114994086D01*
X164216793Y-115085410D01*
X164216792Y-115085414D01*
X164189500Y-115187269D01*
X134500500Y-115187269D01*
X134500500Y-113077269D01*
X164209500Y-113077269D01*
X164209500Y-113182730D01*
X164236792Y-113284585D01*
X164236793Y-113284589D01*
X164289520Y-113375913D01*
X164364087Y-113450480D01*
X164397513Y-113469778D01*
X164455410Y-113503206D01*
X164455412Y-113503206D01*
X164455413Y-113503207D01*
X164535747Y-113524732D01*
X164557269Y-113530499D01*
X164557270Y-113530500D01*
X164557273Y-113530500D01*
X164662730Y-113530500D01*
X164662730Y-113530499D01*
X164764587Y-113503207D01*
X164855913Y-113450480D01*
X164930480Y-113375913D01*
X164983207Y-113284587D01*
X165010499Y-113182730D01*
X165010500Y-113182730D01*
X165010500Y-113077270D01*
X165010499Y-113077269D01*
X165004732Y-113055747D01*
X164983207Y-112975413D01*
X164983206Y-112975412D01*
X164983206Y-112975410D01*
X164930479Y-112884086D01*
X164855913Y-112809520D01*
X164764589Y-112756793D01*
X164764585Y-112756792D01*
X164662730Y-112729500D01*
X164662727Y-112729500D01*
X164557273Y-112729500D01*
X164557270Y-112729500D01*
X164455414Y-112756792D01*
X164455410Y-112756793D01*
X164364086Y-112809520D01*
X164364086Y-112809521D01*
X164289521Y-112884086D01*
X164289520Y-112884086D01*
X164236793Y-112975410D01*
X164236792Y-112975414D01*
X164209500Y-113077269D01*
X134500500Y-113077269D01*
X134500500Y-104530003D01*
X152449500Y-104530003D01*
X152449500Y-104805351D01*
X152485440Y-105078343D01*
X152485441Y-105078347D01*
X152485442Y-105078354D01*
X152556702Y-105344302D01*
X152556706Y-105344312D01*
X152662077Y-105598699D01*
X152799749Y-105837153D01*
X152799759Y-105837168D01*
X152967367Y-106055599D01*
X152967377Y-106055611D01*
X153162065Y-106250299D01*
X153162077Y-106250309D01*
X153380508Y-106417917D01*
X153380517Y-106417923D01*
X153380521Y-106417926D01*
X153618979Y-106555600D01*
X153873368Y-106660972D01*
X153873371Y-106660972D01*
X153873374Y-106660974D01*
X154139322Y-106732234D01*
X154139323Y-106732234D01*
X154139334Y-106732237D01*
X154412326Y-106768177D01*
X154412330Y-106768177D01*
X154687670Y-106768177D01*
X154687674Y-106768177D01*
X154960666Y-106732237D01*
X155226632Y-106660972D01*
X155481021Y-106555600D01*
X155719479Y-106417926D01*
X155937928Y-106250305D01*
X156132628Y-106055605D01*
X156300249Y-105837156D01*
X156437923Y-105598698D01*
X156543295Y-105344309D01*
X156614560Y-105078343D01*
X156650500Y-104805351D01*
X156650500Y-104530003D01*
X156614560Y-104257011D01*
X156543295Y-103991045D01*
X156437923Y-103736656D01*
X156300249Y-103498198D01*
X156300246Y-103498194D01*
X156300240Y-103498185D01*
X156132632Y-103279754D01*
X156132622Y-103279742D01*
X155937934Y-103085054D01*
X155937922Y-103085044D01*
X155902380Y-103057772D01*
X168089500Y-103057772D01*
X168089500Y-106277571D01*
X168089501Y-106277575D01*
X168095331Y-106306890D01*
X168095331Y-106306891D01*
X168095332Y-106306892D01*
X168095332Y-106306893D01*
X168117542Y-106340133D01*
X168117543Y-106340134D01*
X168150787Y-106362346D01*
X168180101Y-106368177D01*
X171399898Y-106368176D01*
X171429213Y-106362346D01*
X171462457Y-106340134D01*
X171484669Y-106306890D01*
X171490500Y-106277576D01*
X171490499Y-103057779D01*
X171484669Y-103028464D01*
X171484667Y-103028461D01*
X171484667Y-103028460D01*
X171462457Y-102995220D01*
X171429212Y-102973007D01*
X171399901Y-102967177D01*
X168180105Y-102967177D01*
X168180104Y-102967177D01*
X168180102Y-102967178D01*
X168150787Y-102973008D01*
X168150786Y-102973008D01*
X168150784Y-102973009D01*
X168150783Y-102973009D01*
X168117543Y-102995219D01*
X168095330Y-103028463D01*
X168095330Y-103028464D01*
X168089500Y-103057772D01*
X155902380Y-103057772D01*
X155719491Y-102917436D01*
X155719476Y-102917426D01*
X155481022Y-102779754D01*
X155226635Y-102674383D01*
X155226625Y-102674379D01*
X154960677Y-102603119D01*
X154960670Y-102603118D01*
X154960666Y-102603117D01*
X154687674Y-102567177D01*
X154412326Y-102567177D01*
X154139334Y-102603117D01*
X154139330Y-102603117D01*
X154139322Y-102603119D01*
X153873374Y-102674379D01*
X153873364Y-102674383D01*
X153618977Y-102779754D01*
X153380523Y-102917426D01*
X153380508Y-102917436D01*
X153162077Y-103085044D01*
X153162065Y-103085054D01*
X152967377Y-103279742D01*
X152967367Y-103279754D01*
X152799759Y-103498185D01*
X152799749Y-103498200D01*
X152662077Y-103736654D01*
X152556706Y-103991041D01*
X152556702Y-103991051D01*
X152485442Y-104256999D01*
X152485440Y-104257007D01*
X152485440Y-104257011D01*
X152449500Y-104530003D01*
X134500500Y-104530003D01*
X134500500Y-97133389D01*
X157969500Y-97133389D01*
X157969500Y-97306610D01*
X157996597Y-97477698D01*
X157996598Y-97477701D01*
X158050127Y-97642446D01*
X158128764Y-97796782D01*
X158128767Y-97796786D01*
X158128768Y-97796788D01*
X158230586Y-97936928D01*
X158230588Y-97936930D01*
X158230591Y-97936934D01*
X158353065Y-98059408D01*
X158353068Y-98059410D01*
X158353072Y-98059414D01*
X158493212Y-98161232D01*
X158493214Y-98161233D01*
X158493217Y-98161235D01*
X158647553Y-98239872D01*
X158647555Y-98239873D01*
X158812299Y-98293402D01*
X158983389Y-98320500D01*
X158983390Y-98320500D01*
X159156610Y-98320500D01*
X159156611Y-98320500D01*
X159327701Y-98293402D01*
X159492445Y-98239873D01*
X159646788Y-98161232D01*
X159786928Y-98059414D01*
X159909414Y-97936928D01*
X160011232Y-97796788D01*
X160089873Y-97642445D01*
X160143402Y-97477701D01*
X160170500Y-97306611D01*
X160170500Y-97133389D01*
X160143402Y-96962299D01*
X160089873Y-96797555D01*
X160037409Y-96694587D01*
X160011235Y-96643217D01*
X160011233Y-96643214D01*
X160011232Y-96643212D01*
X159909414Y-96503072D01*
X159909410Y-96503068D01*
X159909408Y-96503065D01*
X159786934Y-96380591D01*
X159786935Y-96380591D01*
X159706527Y-96322171D01*
X159646788Y-96278768D01*
X159646786Y-96278767D01*
X159646782Y-96278764D01*
X159492446Y-96200127D01*
X159327701Y-96146598D01*
X159327698Y-96146597D01*
X159196271Y-96125781D01*
X159156611Y-96119500D01*
X158983389Y-96119500D01*
X158951192Y-96124599D01*
X158812301Y-96146597D01*
X158812298Y-96146598D01*
X158647553Y-96200127D01*
X158493217Y-96278764D01*
X158353065Y-96380591D01*
X158230591Y-96503065D01*
X158128764Y-96643217D01*
X158050127Y-96797553D01*
X157996598Y-96962298D01*
X157996597Y-96962301D01*
X157969500Y-97133389D01*
X134500500Y-97133389D01*
X134500500Y-95096535D01*
X138439500Y-95096535D01*
X138439500Y-95303465D01*
X138466290Y-95438150D01*
X138472507Y-95469406D01*
X138479870Y-95506420D01*
X138559059Y-95697598D01*
X138674023Y-95869655D01*
X138820345Y-96015977D01*
X138992402Y-96130941D01*
X139183580Y-96210130D01*
X139386535Y-96250500D01*
X139386538Y-96250500D01*
X139593462Y-96250500D01*
X139593465Y-96250500D01*
X139796420Y-96210130D01*
X139987598Y-96130941D01*
X140159655Y-96015977D01*
X140305977Y-95869655D01*
X140420941Y-95697598D01*
X140500130Y-95506420D01*
X140540500Y-95303465D01*
X140540500Y-95109454D01*
X142839500Y-95109454D01*
X142839500Y-95290545D01*
X142867828Y-95469406D01*
X142867829Y-95469409D01*
X142923789Y-95641639D01*
X143006004Y-95802994D01*
X143054436Y-95869655D01*
X143112448Y-95949502D01*
X143112452Y-95949507D01*
X143240493Y-96077548D01*
X143240497Y-96077551D01*
X143240499Y-96077553D01*
X143387006Y-96183996D01*
X143548361Y-96266211D01*
X143720591Y-96322171D01*
X143899454Y-96350500D01*
X143899455Y-96350500D01*
X144080545Y-96350500D01*
X144080546Y-96350500D01*
X144259409Y-96322171D01*
X144431639Y-96266211D01*
X144592994Y-96183996D01*
X144739501Y-96077553D01*
X144739504Y-96077549D01*
X144739507Y-96077548D01*
X144867548Y-95949507D01*
X144867549Y-95949504D01*
X144867553Y-95949501D01*
X144973996Y-95802994D01*
X145056211Y-95641639D01*
X145112171Y-95469409D01*
X145140500Y-95290546D01*
X145140500Y-95109454D01*
X145112171Y-94930591D01*
X145056211Y-94758361D01*
X144973996Y-94597006D01*
X144867553Y-94450499D01*
X144867551Y-94450497D01*
X144867548Y-94450493D01*
X144739507Y-94322452D01*
X144739502Y-94322448D01*
X144666018Y-94269059D01*
X144592994Y-94216004D01*
X144431639Y-94133789D01*
X144431638Y-94133788D01*
X144431637Y-94133788D01*
X144259409Y-94077829D01*
X144259406Y-94077828D01*
X144122007Y-94056066D01*
X144080546Y-94049500D01*
X143899454Y-94049500D01*
X143865794Y-94054831D01*
X143720593Y-94077828D01*
X143720590Y-94077829D01*
X143548362Y-94133788D01*
X143387006Y-94216004D01*
X143240497Y-94322448D01*
X143112448Y-94450497D01*
X143006004Y-94597006D01*
X142923788Y-94758362D01*
X142867829Y-94930590D01*
X142867828Y-94930593D01*
X142839500Y-95109454D01*
X140540500Y-95109454D01*
X140540500Y-95096535D01*
X140500130Y-94893580D01*
X140420941Y-94702402D01*
X140305977Y-94530345D01*
X140159655Y-94384023D01*
X139987598Y-94269059D01*
X139859513Y-94216004D01*
X139796423Y-94189871D01*
X139796417Y-94189869D01*
X139714572Y-94173589D01*
X139593465Y-94149500D01*
X139386535Y-94149500D01*
X139285520Y-94169592D01*
X139183582Y-94189869D01*
X139183576Y-94189871D01*
X138992403Y-94269058D01*
X138820345Y-94384022D01*
X138674022Y-94530345D01*
X138559058Y-94702403D01*
X138479871Y-94893576D01*
X138479869Y-94893582D01*
X138459592Y-94995520D01*
X138439500Y-95096535D01*
X134500500Y-95096535D01*
X134500500Y-90960095D01*
X157719500Y-90960095D01*
X157719500Y-93479894D01*
X157719501Y-93479898D01*
X157725331Y-93509213D01*
X157725331Y-93509214D01*
X157725332Y-93509215D01*
X157725332Y-93509216D01*
X157747542Y-93542456D01*
X157747543Y-93542457D01*
X157780787Y-93564669D01*
X157810101Y-93570500D01*
X160329898Y-93570499D01*
X160359213Y-93564669D01*
X160392457Y-93542457D01*
X160414669Y-93509213D01*
X160420500Y-93479899D01*
X160420500Y-92911303D01*
X182099500Y-92911303D01*
X182099500Y-93088696D01*
X182134103Y-93262656D01*
X182134106Y-93262667D01*
X182195332Y-93410480D01*
X182201987Y-93426547D01*
X182237633Y-93479894D01*
X182300533Y-93574032D01*
X182425967Y-93699466D01*
X182484640Y-93738670D01*
X182573453Y-93798013D01*
X182737334Y-93865894D01*
X182737340Y-93865895D01*
X182737343Y-93865896D01*
X182911303Y-93900499D01*
X182911309Y-93900500D01*
X183088691Y-93900500D01*
X183262666Y-93865894D01*
X183426547Y-93798013D01*
X183574035Y-93699464D01*
X183699464Y-93574035D01*
X183798013Y-93426547D01*
X183865894Y-93262666D01*
X183900500Y-93088691D01*
X183900500Y-92911309D01*
X183887129Y-92844087D01*
X183865896Y-92737343D01*
X183865893Y-92737332D01*
X183850223Y-92699500D01*
X183798013Y-92573453D01*
X183738670Y-92484640D01*
X183699466Y-92425967D01*
X183574032Y-92300533D01*
X183486021Y-92241726D01*
X183426547Y-92201987D01*
X183426544Y-92201985D01*
X183426543Y-92201985D01*
X183262667Y-92134106D01*
X183262656Y-92134103D01*
X183088696Y-92099500D01*
X183088691Y-92099500D01*
X182911309Y-92099500D01*
X182911303Y-92099500D01*
X182737343Y-92134103D01*
X182737332Y-92134106D01*
X182573456Y-92201985D01*
X182425967Y-92300533D01*
X182300533Y-92425967D01*
X182201985Y-92573456D01*
X182134106Y-92737332D01*
X182134103Y-92737343D01*
X182099500Y-92911303D01*
X160420500Y-92911303D01*
X160420499Y-92201987D01*
X160420499Y-90960105D01*
X160420499Y-90960102D01*
X160414669Y-90930787D01*
X160414667Y-90930784D01*
X160414667Y-90930783D01*
X160392457Y-90897543D01*
X160359212Y-90875330D01*
X160329901Y-90869500D01*
X157810105Y-90869500D01*
X157810104Y-90869500D01*
X157810102Y-90869501D01*
X157780787Y-90875331D01*
X157780786Y-90875331D01*
X157780784Y-90875332D01*
X157780783Y-90875332D01*
X157747543Y-90897542D01*
X157725330Y-90930786D01*
X157725330Y-90930787D01*
X157719500Y-90960095D01*
X134500500Y-90960095D01*
X134500500Y-88690095D01*
X182099500Y-88690095D01*
X182099500Y-90309894D01*
X182099501Y-90309898D01*
X182105331Y-90339213D01*
X182105331Y-90339214D01*
X182105332Y-90339215D01*
X182105332Y-90339216D01*
X182127542Y-90372456D01*
X182127543Y-90372457D01*
X182160787Y-90394669D01*
X182190101Y-90400500D01*
X183809898Y-90400499D01*
X183839213Y-90394669D01*
X183872457Y-90372457D01*
X183894669Y-90339213D01*
X183900500Y-90309899D01*
X183900499Y-88690102D01*
X183894669Y-88660787D01*
X183894667Y-88660784D01*
X183894667Y-88660783D01*
X183872457Y-88627543D01*
X183839212Y-88605330D01*
X183809901Y-88599500D01*
X182190105Y-88599500D01*
X182190104Y-88599500D01*
X182190102Y-88599501D01*
X182160787Y-88605331D01*
X182160786Y-88605331D01*
X182160784Y-88605332D01*
X182160783Y-88605332D01*
X182127543Y-88627542D01*
X182105330Y-88660786D01*
X182105330Y-88660787D01*
X182099500Y-88690095D01*
X134500500Y-88690095D01*
X134500500Y-85540682D01*
X134514852Y-85506034D01*
X134548900Y-85491687D01*
X136476806Y-85468256D01*
X136511624Y-85482184D01*
X136512047Y-85482603D01*
X136612066Y-85582623D01*
X136612077Y-85582632D01*
X136830508Y-85750240D01*
X136830517Y-85750246D01*
X136830521Y-85750249D01*
X137068979Y-85887923D01*
X137323368Y-85993295D01*
X137323371Y-85993295D01*
X137323374Y-85993297D01*
X137589322Y-86064557D01*
X137589323Y-86064557D01*
X137589334Y-86064560D01*
X137862326Y-86100500D01*
X137862330Y-86100500D01*
X138137670Y-86100500D01*
X138137674Y-86100500D01*
X138410666Y-86064560D01*
X138676632Y-85993295D01*
X138931021Y-85887923D01*
X139169479Y-85750249D01*
X139387928Y-85582628D01*
X139525421Y-85445134D01*
X139559467Y-85430789D01*
X208491193Y-84592996D01*
X208526011Y-84606925D01*
G37*
%TD.AperFunction*%
%TA.AperFunction,Conductor*%
G36*
X156795000Y-124124629D02*
G01*
X156795000Y-123294937D01*
X156814841Y-123294499D01*
X156795000Y-124124629D01*
G37*
%TD.AperFunction*%
%TD*%
%TA.AperFunction,Conductor*%
%TO.N,+3.3V*%
G36*
X193243039Y-92869685D02*
G01*
X193288794Y-92922489D01*
X193300000Y-92974000D01*
X193300000Y-97029005D01*
X193299985Y-97030954D01*
X193199999Y-103390061D01*
X193139999Y-123859999D01*
X193140000Y-123859999D01*
X193140000Y-123860000D01*
X233374340Y-123482299D01*
X233441557Y-123501353D01*
X233487806Y-123553725D01*
X233499500Y-123606293D01*
X233499500Y-141043187D01*
X233479815Y-141110226D01*
X233427011Y-141155981D01*
X233374871Y-141167185D01*
X205849347Y-141027615D01*
X205782408Y-141007591D01*
X205739491Y-140959912D01*
X205737287Y-140955586D01*
X205662287Y-140808390D01*
X205662285Y-140808387D01*
X205662284Y-140808385D01*
X205541971Y-140642786D01*
X205397213Y-140498028D01*
X205231613Y-140377715D01*
X205231612Y-140377714D01*
X205231610Y-140377713D01*
X205174653Y-140348691D01*
X205049223Y-140284781D01*
X204854534Y-140221522D01*
X204679995Y-140193878D01*
X204652352Y-140189500D01*
X204447648Y-140189500D01*
X204423329Y-140193351D01*
X204245465Y-140221522D01*
X204050776Y-140284781D01*
X203868386Y-140377715D01*
X203702786Y-140498028D01*
X203558028Y-140642786D01*
X203437715Y-140808386D01*
X203367208Y-140946763D01*
X203319233Y-140997559D01*
X203256094Y-141014466D01*
X201337691Y-141004738D01*
X201270752Y-140984714D01*
X201227835Y-140937035D01*
X201205616Y-140893428D01*
X201162287Y-140808390D01*
X201147755Y-140788388D01*
X201041971Y-140642786D01*
X200897213Y-140498028D01*
X200731613Y-140377715D01*
X200731612Y-140377714D01*
X200731610Y-140377713D01*
X200674653Y-140348691D01*
X200549223Y-140284781D01*
X200354534Y-140221522D01*
X200179995Y-140193878D01*
X200152352Y-140189500D01*
X199947648Y-140189500D01*
X199923329Y-140193351D01*
X199745465Y-140221522D01*
X199550776Y-140284781D01*
X199368386Y-140377715D01*
X199202786Y-140498028D01*
X199058028Y-140642786D01*
X198937712Y-140808389D01*
X198937711Y-140808391D01*
X198878803Y-140924004D01*
X198830829Y-140974800D01*
X198767690Y-140991707D01*
X195593039Y-140975610D01*
X195526100Y-140955586D01*
X195483184Y-140907907D01*
X195422287Y-140788390D01*
X195422286Y-140788388D01*
X195301971Y-140622786D01*
X195157213Y-140478028D01*
X194991613Y-140357715D01*
X194991612Y-140357714D01*
X194991610Y-140357713D01*
X194934653Y-140328691D01*
X194809223Y-140264781D01*
X194614534Y-140201522D01*
X194439995Y-140173878D01*
X194412352Y-140169500D01*
X194207648Y-140169500D01*
X194183329Y-140173351D01*
X194005465Y-140201522D01*
X193810776Y-140264781D01*
X193628386Y-140357715D01*
X193462786Y-140478028D01*
X193318028Y-140622786D01*
X193197713Y-140788388D01*
X193143430Y-140894923D01*
X193095455Y-140945718D01*
X193032317Y-140962625D01*
X191081383Y-140952733D01*
X191014444Y-140932709D01*
X190971527Y-140885029D01*
X190922286Y-140788388D01*
X190801971Y-140622786D01*
X190657213Y-140478028D01*
X190491613Y-140357715D01*
X190491612Y-140357714D01*
X190491610Y-140357713D01*
X190434653Y-140328691D01*
X190309223Y-140264781D01*
X190114534Y-140201522D01*
X189939995Y-140173878D01*
X189912352Y-140169500D01*
X189707648Y-140169500D01*
X189683329Y-140173351D01*
X189505465Y-140201522D01*
X189310776Y-140264781D01*
X189128386Y-140357715D01*
X188962786Y-140478028D01*
X188818032Y-140622782D01*
X188793463Y-140656599D01*
X188738132Y-140699265D01*
X188668519Y-140705243D01*
X188606724Y-140672637D01*
X188572367Y-140611798D01*
X188569145Y-140584011D01*
X188568198Y-140189500D01*
X188563625Y-138284108D01*
X217489500Y-138284108D01*
X217489500Y-138415891D01*
X217523608Y-138543187D01*
X217556554Y-138600250D01*
X217589500Y-138657314D01*
X217682686Y-138750500D01*
X217796814Y-138816392D01*
X217924108Y-138850500D01*
X217924110Y-138850500D01*
X218055890Y-138850500D01*
X218055892Y-138850500D01*
X218183186Y-138816392D01*
X218297314Y-138750500D01*
X218390500Y-138657314D01*
X218456392Y-138543186D01*
X218490500Y-138415892D01*
X218490500Y-138284108D01*
X218456392Y-138156814D01*
X218390500Y-138042686D01*
X218297314Y-137949500D01*
X218252051Y-137923367D01*
X218252050Y-137923366D01*
X218183189Y-137883609D01*
X218183186Y-137883608D01*
X218055892Y-137849500D01*
X217924108Y-137849500D01*
X217796812Y-137883608D01*
X217682686Y-137949500D01*
X217682683Y-137949502D01*
X217589502Y-138042683D01*
X217589500Y-138042686D01*
X217523608Y-138156812D01*
X217489500Y-138284108D01*
X188563625Y-138284108D01*
X188562521Y-137824108D01*
X226739500Y-137824108D01*
X226739500Y-137955891D01*
X226773608Y-138083187D01*
X226800925Y-138130500D01*
X226839500Y-138197314D01*
X226932686Y-138290500D01*
X227046814Y-138356392D01*
X227174108Y-138390500D01*
X227174110Y-138390500D01*
X227305890Y-138390500D01*
X227305892Y-138390500D01*
X227433186Y-138356392D01*
X227547314Y-138290500D01*
X227640500Y-138197314D01*
X227706392Y-138083186D01*
X227740500Y-137955892D01*
X227740500Y-137824108D01*
X227706392Y-137696814D01*
X227640500Y-137582686D01*
X227547314Y-137489500D01*
X227490250Y-137456554D01*
X227433187Y-137423608D01*
X227369539Y-137406554D01*
X227305892Y-137389500D01*
X227174108Y-137389500D01*
X227046812Y-137423608D01*
X226932686Y-137489500D01*
X226932683Y-137489502D01*
X226839502Y-137582683D01*
X226839500Y-137582686D01*
X226773608Y-137696812D01*
X226739500Y-137824108D01*
X188562521Y-137824108D01*
X188557384Y-135684108D01*
X221463500Y-135684108D01*
X221463500Y-135815891D01*
X221497608Y-135943187D01*
X221530554Y-136000250D01*
X221563500Y-136057314D01*
X221656686Y-136150500D01*
X221770814Y-136216392D01*
X221898108Y-136250500D01*
X221898110Y-136250500D01*
X222029890Y-136250500D01*
X222029892Y-136250500D01*
X222157186Y-136216392D01*
X222230424Y-136174108D01*
X225159500Y-136174108D01*
X225159500Y-136305891D01*
X225193608Y-136433187D01*
X225226554Y-136490250D01*
X225259500Y-136547314D01*
X225352686Y-136640500D01*
X225466814Y-136706392D01*
X225594108Y-136740500D01*
X225594110Y-136740500D01*
X225725890Y-136740500D01*
X225725892Y-136740500D01*
X225853186Y-136706392D01*
X225967314Y-136640500D01*
X226060500Y-136547314D01*
X226126392Y-136433186D01*
X226160500Y-136305892D01*
X226160500Y-136174108D01*
X226126392Y-136046814D01*
X226060500Y-135932686D01*
X225967314Y-135839500D01*
X225910250Y-135806554D01*
X225853187Y-135773608D01*
X225789539Y-135756554D01*
X225725892Y-135739500D01*
X225594108Y-135739500D01*
X225466812Y-135773608D01*
X225352686Y-135839500D01*
X225352683Y-135839502D01*
X225259502Y-135932683D01*
X225259500Y-135932686D01*
X225193608Y-136046812D01*
X225159500Y-136174108D01*
X222230424Y-136174108D01*
X222271314Y-136150500D01*
X222364500Y-136057314D01*
X222430392Y-135943186D01*
X222464500Y-135815892D01*
X222464500Y-135684108D01*
X222430392Y-135556814D01*
X222364500Y-135442686D01*
X222271314Y-135349500D01*
X222214250Y-135316554D01*
X222157187Y-135283608D01*
X222093539Y-135266554D01*
X222029892Y-135249500D01*
X221898108Y-135249500D01*
X221770812Y-135283608D01*
X221656686Y-135349500D01*
X221656683Y-135349502D01*
X221563502Y-135442683D01*
X221563500Y-135442686D01*
X221497608Y-135556812D01*
X221463500Y-135684108D01*
X188557384Y-135684108D01*
X188550477Y-132806608D01*
X207812000Y-132806608D01*
X207812000Y-132938392D01*
X207819613Y-132966803D01*
X207846108Y-133065687D01*
X207873776Y-133113608D01*
X207912000Y-133179814D01*
X208005186Y-133273000D01*
X208119314Y-133338892D01*
X208246608Y-133373000D01*
X208246610Y-133373000D01*
X208378390Y-133373000D01*
X208378392Y-133373000D01*
X208505686Y-133338892D01*
X208619814Y-133273000D01*
X208713000Y-133179814D01*
X208778892Y-133065686D01*
X208813000Y-132938392D01*
X208813000Y-132806608D01*
X208778892Y-132679314D01*
X208713000Y-132565186D01*
X208619814Y-132472000D01*
X208562750Y-132439054D01*
X208505687Y-132406108D01*
X208429495Y-132385693D01*
X208378392Y-132372000D01*
X208246608Y-132372000D01*
X208119312Y-132406108D01*
X208005186Y-132472000D01*
X208005183Y-132472002D01*
X207912002Y-132565183D01*
X207912000Y-132565186D01*
X207846108Y-132679312D01*
X207844774Y-132684291D01*
X207812000Y-132806608D01*
X188550477Y-132806608D01*
X188550043Y-132625890D01*
X188548503Y-131984108D01*
X217409500Y-131984108D01*
X217409500Y-132115891D01*
X217443608Y-132243187D01*
X217453639Y-132260561D01*
X217509500Y-132357314D01*
X217602686Y-132450500D01*
X217716814Y-132516392D01*
X217844108Y-132550500D01*
X217844110Y-132550500D01*
X217975890Y-132550500D01*
X217975892Y-132550500D01*
X218103186Y-132516392D01*
X218217314Y-132450500D01*
X218310500Y-132357314D01*
X218318125Y-132344108D01*
X222989500Y-132344108D01*
X222989500Y-132475892D01*
X223006554Y-132539539D01*
X223023608Y-132603187D01*
X223036717Y-132625892D01*
X223089500Y-132717314D01*
X223182686Y-132810500D01*
X223296814Y-132876392D01*
X223424108Y-132910500D01*
X223424110Y-132910500D01*
X223555890Y-132910500D01*
X223555892Y-132910500D01*
X223683186Y-132876392D01*
X223797314Y-132810500D01*
X223890500Y-132717314D01*
X223956392Y-132603186D01*
X223990500Y-132475892D01*
X223990500Y-132344108D01*
X223956392Y-132216814D01*
X223890500Y-132102686D01*
X223797314Y-132009500D01*
X223739774Y-131976279D01*
X223683187Y-131943608D01*
X223619539Y-131926554D01*
X223555892Y-131909500D01*
X223424108Y-131909500D01*
X223296812Y-131943608D01*
X223182686Y-132009500D01*
X223182683Y-132009502D01*
X223089502Y-132102683D01*
X223089500Y-132102686D01*
X223023608Y-132216812D01*
X222995006Y-132323559D01*
X222989500Y-132344108D01*
X218318125Y-132344108D01*
X218376392Y-132243186D01*
X218410500Y-132115892D01*
X218410500Y-131984108D01*
X218376392Y-131856814D01*
X218310500Y-131742686D01*
X218217314Y-131649500D01*
X218130712Y-131599500D01*
X218103187Y-131583608D01*
X218039539Y-131566554D01*
X217975892Y-131549500D01*
X217844108Y-131549500D01*
X217716812Y-131583608D01*
X217602686Y-131649500D01*
X217602683Y-131649502D01*
X217509502Y-131742683D01*
X217509500Y-131742686D01*
X217443608Y-131856812D01*
X217409500Y-131984108D01*
X188548503Y-131984108D01*
X188548484Y-131976279D01*
X188543923Y-130076279D01*
X188541691Y-129146391D01*
X188540485Y-128644108D01*
X216549500Y-128644108D01*
X216549500Y-128775892D01*
X216558151Y-128808177D01*
X216583608Y-128903187D01*
X216601461Y-128934108D01*
X216649500Y-129017314D01*
X216742686Y-129110500D01*
X216856814Y-129176392D01*
X216984108Y-129210500D01*
X216984110Y-129210500D01*
X217115890Y-129210500D01*
X217115892Y-129210500D01*
X217243186Y-129176392D01*
X217357314Y-129110500D01*
X217450500Y-129017314D01*
X217516392Y-128903186D01*
X217519904Y-128890076D01*
X217556265Y-128830417D01*
X217619111Y-128799885D01*
X217688486Y-128808177D01*
X217742366Y-128852659D01*
X217750792Y-128868309D01*
X217763361Y-128890079D01*
X217819500Y-128987314D01*
X217912686Y-129080500D01*
X218026814Y-129146392D01*
X218154108Y-129180500D01*
X218154110Y-129180500D01*
X218285890Y-129180500D01*
X218285892Y-129180500D01*
X218413186Y-129146392D01*
X218527314Y-129080500D01*
X218620500Y-128987314D01*
X218686392Y-128873186D01*
X218720500Y-128745892D01*
X218720500Y-128654108D01*
X219709500Y-128654108D01*
X219709500Y-128785892D01*
X219715106Y-128806814D01*
X219743608Y-128913187D01*
X219766946Y-128953608D01*
X219809500Y-129027314D01*
X219902686Y-129120500D01*
X220016814Y-129186392D01*
X220144108Y-129220500D01*
X220144110Y-129220500D01*
X220275890Y-129220500D01*
X220275892Y-129220500D01*
X220403186Y-129186392D01*
X220517314Y-129120500D01*
X220597319Y-129040495D01*
X220658642Y-129007010D01*
X220728334Y-129011994D01*
X220772681Y-129040495D01*
X220862686Y-129130500D01*
X220976814Y-129196392D01*
X221104108Y-129230500D01*
X221104110Y-129230500D01*
X221235890Y-129230500D01*
X221235892Y-129230500D01*
X221363186Y-129196392D01*
X221477314Y-129130500D01*
X221570500Y-129037314D01*
X221636392Y-128923186D01*
X221670500Y-128795892D01*
X221670500Y-128664108D01*
X221636392Y-128536814D01*
X221630618Y-128526814D01*
X221614850Y-128499502D01*
X221570500Y-128422686D01*
X221477314Y-128329500D01*
X221420250Y-128296554D01*
X221363187Y-128263608D01*
X221288544Y-128243608D01*
X221235892Y-128229500D01*
X221104108Y-128229500D01*
X220976812Y-128263608D01*
X220862686Y-128329500D01*
X220862683Y-128329502D01*
X220782681Y-128409505D01*
X220721358Y-128442990D01*
X220651666Y-128438006D01*
X220607319Y-128409505D01*
X220517316Y-128319502D01*
X220517314Y-128319500D01*
X220448032Y-128279500D01*
X220403187Y-128253608D01*
X220339539Y-128236554D01*
X220275892Y-128219500D01*
X220144108Y-128219500D01*
X220016812Y-128253608D01*
X219902686Y-128319500D01*
X219902683Y-128319502D01*
X219809502Y-128412683D01*
X219809500Y-128412686D01*
X219743608Y-128526812D01*
X219710133Y-128651747D01*
X219709500Y-128654108D01*
X218720500Y-128654108D01*
X218720500Y-128614108D01*
X218686392Y-128486814D01*
X218620500Y-128372686D01*
X218527314Y-128279500D01*
X218440712Y-128229500D01*
X218413187Y-128213608D01*
X218336969Y-128193186D01*
X218285892Y-128179500D01*
X218154108Y-128179500D01*
X218026812Y-128213608D01*
X217912686Y-128279500D01*
X217912683Y-128279502D01*
X217819502Y-128372683D01*
X217819500Y-128372686D01*
X217753607Y-128486814D01*
X217753607Y-128486815D01*
X217750094Y-128499927D01*
X217713729Y-128559587D01*
X217650882Y-128590115D01*
X217581506Y-128581820D01*
X217527629Y-128537334D01*
X217519206Y-128521688D01*
X217506396Y-128499500D01*
X217450500Y-128402686D01*
X217357314Y-128309500D01*
X217277827Y-128263608D01*
X217243187Y-128243608D01*
X217179539Y-128226554D01*
X217115892Y-128209500D01*
X216984108Y-128209500D01*
X216856812Y-128243608D01*
X216742686Y-128309500D01*
X216742683Y-128309502D01*
X216649502Y-128402683D01*
X216649500Y-128402686D01*
X216583608Y-128516812D01*
X216557538Y-128614108D01*
X216549500Y-128644108D01*
X188540485Y-128644108D01*
X188534306Y-126070000D01*
X223280000Y-126070000D01*
X223330000Y-127840000D01*
X226667500Y-127820000D01*
X226667500Y-133390000D01*
X223680000Y-133390000D01*
X223710000Y-135000000D01*
X228450000Y-135020000D01*
X228436433Y-133514108D01*
X231739500Y-133514108D01*
X231739500Y-133645891D01*
X231773608Y-133773187D01*
X231806554Y-133830250D01*
X231839500Y-133887314D01*
X231932686Y-133980500D01*
X232046814Y-134046392D01*
X232174108Y-134080500D01*
X232174110Y-134080500D01*
X232305890Y-134080500D01*
X232305892Y-134080500D01*
X232433186Y-134046392D01*
X232547314Y-133980500D01*
X232640500Y-133887314D01*
X232706392Y-133773186D01*
X232740500Y-133645892D01*
X232740500Y-133514108D01*
X232706392Y-133386814D01*
X232640500Y-133272686D01*
X232547314Y-133179500D01*
X232547311Y-133179498D01*
X232540865Y-133174552D01*
X232541904Y-133173197D01*
X232500433Y-133129696D01*
X232487217Y-133061088D01*
X232513190Y-132996226D01*
X232548652Y-132965500D01*
X232557314Y-132960500D01*
X232650500Y-132867314D01*
X232716392Y-132753186D01*
X232750500Y-132625892D01*
X232750500Y-132494108D01*
X232716392Y-132366814D01*
X232710424Y-132356478D01*
X232698182Y-132335274D01*
X232650500Y-132252686D01*
X232557314Y-132159500D01*
X232481783Y-132115892D01*
X232443187Y-132093608D01*
X232379539Y-132076554D01*
X232315892Y-132059500D01*
X232184108Y-132059500D01*
X232056812Y-132093608D01*
X231942686Y-132159500D01*
X231942683Y-132159502D01*
X231849502Y-132252683D01*
X231849500Y-132252686D01*
X231783608Y-132366812D01*
X231749500Y-132494108D01*
X231749500Y-132625891D01*
X231783608Y-132753187D01*
X231807749Y-132794999D01*
X231849500Y-132867314D01*
X231942686Y-132960500D01*
X231942689Y-132960502D01*
X231949135Y-132965448D01*
X231948094Y-132966803D01*
X231989563Y-133010297D01*
X232002783Y-133078904D01*
X231976813Y-133143768D01*
X231941349Y-133174498D01*
X231932689Y-133179498D01*
X231932683Y-133179502D01*
X231839502Y-133272683D01*
X231839500Y-133272686D01*
X231773608Y-133386812D01*
X231739500Y-133514108D01*
X228436433Y-133514108D01*
X228405532Y-130084108D01*
X231749500Y-130084108D01*
X231749500Y-130215891D01*
X231783608Y-130343187D01*
X231808797Y-130386814D01*
X231849500Y-130457314D01*
X231942686Y-130550500D01*
X232056814Y-130616392D01*
X232184108Y-130650500D01*
X232184110Y-130650500D01*
X232315890Y-130650500D01*
X232315892Y-130650500D01*
X232443186Y-130616392D01*
X232557314Y-130550500D01*
X232650500Y-130457314D01*
X232716392Y-130343186D01*
X232750500Y-130215892D01*
X232750500Y-130084108D01*
X232716392Y-129956814D01*
X232650500Y-129842686D01*
X232557314Y-129749500D01*
X232457538Y-129691894D01*
X232443187Y-129683608D01*
X232379539Y-129666554D01*
X232315892Y-129649500D01*
X232184108Y-129649500D01*
X232056812Y-129683608D01*
X231942686Y-129749500D01*
X231942683Y-129749502D01*
X231849502Y-129842683D01*
X231849500Y-129842686D01*
X231783608Y-129956812D01*
X231749500Y-130084108D01*
X228405532Y-130084108D01*
X228394271Y-128834108D01*
X231789500Y-128834108D01*
X231789500Y-128965892D01*
X231801853Y-129011994D01*
X231823608Y-129093187D01*
X231845151Y-129130499D01*
X231889500Y-129207314D01*
X231982686Y-129300500D01*
X232096814Y-129366392D01*
X232224108Y-129400500D01*
X232224110Y-129400500D01*
X232355890Y-129400500D01*
X232355892Y-129400500D01*
X232483186Y-129366392D01*
X232597314Y-129300500D01*
X232690500Y-129207314D01*
X232756392Y-129093186D01*
X232790500Y-128965892D01*
X232790500Y-128834108D01*
X232756392Y-128706814D01*
X232690500Y-128592686D01*
X232597314Y-128499500D01*
X232526411Y-128458564D01*
X232483187Y-128433608D01*
X232405092Y-128412683D01*
X232355892Y-128399500D01*
X232224108Y-128399500D01*
X232096812Y-128433608D01*
X231982686Y-128499500D01*
X231982683Y-128499502D01*
X231889502Y-128592683D01*
X231889500Y-128592686D01*
X231823608Y-128706812D01*
X231802419Y-128785892D01*
X231789500Y-128834108D01*
X228394271Y-128834108D01*
X228369435Y-126077261D01*
X223280000Y-126070000D01*
X188534306Y-126070000D01*
X188520000Y-120110000D01*
X170460000Y-120110000D01*
X170460000Y-120472878D01*
X170440315Y-120539917D01*
X170387511Y-120585672D01*
X170318353Y-120595616D01*
X170274000Y-120580265D01*
X170193189Y-120533609D01*
X170193186Y-120533608D01*
X170065892Y-120499500D01*
X169934108Y-120499500D01*
X169806812Y-120533608D01*
X169692686Y-120599500D01*
X169692683Y-120599502D01*
X169599502Y-120692683D01*
X169599500Y-120692686D01*
X169533608Y-120806812D01*
X169499500Y-120934108D01*
X169499500Y-121065892D01*
X169516554Y-121129539D01*
X169533608Y-121193187D01*
X169566554Y-121250250D01*
X169599500Y-121307314D01*
X169599502Y-121307316D01*
X169692687Y-121400501D01*
X169694158Y-121401630D01*
X169695083Y-121402897D01*
X169698433Y-121406247D01*
X169697910Y-121406769D01*
X169735356Y-121458060D01*
X169739506Y-121527807D01*
X169705289Y-121588725D01*
X169694158Y-121598370D01*
X169692687Y-121599498D01*
X169599502Y-121692683D01*
X169599500Y-121692686D01*
X169533608Y-121806812D01*
X169499500Y-121934108D01*
X169499500Y-122065891D01*
X169533608Y-122193187D01*
X169535991Y-122197314D01*
X169599500Y-122307314D01*
X169692686Y-122400500D01*
X169806814Y-122466392D01*
X169934108Y-122500500D01*
X169934110Y-122500500D01*
X170065890Y-122500500D01*
X170065892Y-122500500D01*
X170193186Y-122466392D01*
X170274000Y-122419733D01*
X170341899Y-122403261D01*
X170407927Y-122426113D01*
X170451117Y-122481034D01*
X170460000Y-122527121D01*
X170460000Y-123416000D01*
X170440315Y-123483039D01*
X170387511Y-123528794D01*
X170336000Y-123540000D01*
X166560000Y-123540000D01*
X166559648Y-123539999D01*
X165180068Y-123536079D01*
X165180002Y-127165814D01*
X165160316Y-127232853D01*
X165107511Y-127278607D01*
X165055815Y-127289812D01*
X158003045Y-127279188D01*
X156850079Y-127277452D01*
X156850047Y-127277452D01*
X156849978Y-127277452D01*
X156070000Y-127279999D01*
X156070000Y-127280000D01*
X156037044Y-129196391D01*
X156030000Y-129605966D01*
X155983882Y-133862433D01*
X155963472Y-133929256D01*
X155910175Y-133974436D01*
X155855025Y-133984995D01*
X155772467Y-133981754D01*
X155706251Y-133959454D01*
X155662603Y-133904896D01*
X155653344Y-133859619D01*
X155650293Y-133645890D01*
X155635012Y-132575516D01*
X155635000Y-132573815D01*
X155635000Y-132520649D01*
X155639223Y-132488564D01*
X155641688Y-132479361D01*
X155644062Y-132470499D01*
X155656451Y-132440588D01*
X155679598Y-132400500D01*
X155684089Y-132392723D01*
X155684092Y-132392717D01*
X155688403Y-132385252D01*
X155689081Y-132384078D01*
X155689081Y-132384077D01*
X155690829Y-132381051D01*
X155690830Y-132381051D01*
X155690865Y-132380984D01*
X155691128Y-132380529D01*
X155695547Y-132376319D01*
X155700238Y-132366156D01*
X155700769Y-132363522D01*
X155700839Y-132360613D01*
X155702125Y-132356804D01*
X155702241Y-132356478D01*
X155702259Y-132356432D01*
X155704555Y-132349964D01*
X155705770Y-132346541D01*
X155708361Y-132339980D01*
X155709772Y-132335274D01*
X155713934Y-132323559D01*
X155713934Y-132323554D01*
X155714195Y-132322822D01*
X155714853Y-132318640D01*
X155725706Y-132260562D01*
X155748626Y-131446896D01*
X155748688Y-131443939D01*
X155748707Y-131442559D01*
X155733083Y-131361087D01*
X155718731Y-131326439D01*
X155674184Y-131259772D01*
X155674182Y-131259770D01*
X155670930Y-131254903D01*
X155666645Y-131248012D01*
X155654900Y-131227670D01*
X155642513Y-131197764D01*
X155638155Y-131181499D01*
X155623247Y-131145241D01*
X155613946Y-131099867D01*
X155588979Y-129350959D01*
X155607704Y-129283646D01*
X155615987Y-129273221D01*
X155615470Y-129272824D01*
X155620412Y-129266382D01*
X155620417Y-129266378D01*
X155686309Y-129152250D01*
X155720417Y-129024956D01*
X155720417Y-128893172D01*
X155686309Y-128765878D01*
X155620417Y-128651750D01*
X155613984Y-128645317D01*
X155580499Y-128583994D01*
X155577678Y-128559414D01*
X155539070Y-125854942D01*
X155557795Y-125787629D01*
X155609941Y-125741125D01*
X155661088Y-125729189D01*
X156240000Y-125720000D01*
X156250000Y-124920000D01*
X156241432Y-123634843D01*
X156243658Y-123627069D01*
X156242331Y-123619090D01*
X156253138Y-123593967D01*
X156260669Y-123567675D01*
X156266746Y-123562337D01*
X156269943Y-123554908D01*
X156292618Y-123539616D01*
X156313167Y-123521570D01*
X156322650Y-123519363D01*
X156327871Y-123515843D01*
X156362678Y-123510049D01*
X156462760Y-123507835D01*
X156530216Y-123526031D01*
X156577127Y-123577810D01*
X156589500Y-123631804D01*
X156589500Y-124120677D01*
X156589465Y-124123640D01*
X156572399Y-124837674D01*
X156572361Y-124839771D01*
X156572345Y-124841033D01*
X156587896Y-124922049D01*
X156602213Y-124956705D01*
X156602214Y-124956707D01*
X156602216Y-124956711D01*
X156625148Y-124993285D01*
X156638790Y-125015041D01*
X156668039Y-125035835D01*
X156711272Y-125090723D01*
X156720171Y-125134703D01*
X156730000Y-125689999D01*
X156730000Y-125690000D01*
X163134663Y-125629778D01*
X163087350Y-120384842D01*
X163087382Y-120380737D01*
X163104594Y-119690099D01*
X163125942Y-119623577D01*
X163179870Y-119579151D01*
X163227879Y-119569196D01*
X166760000Y-119550000D01*
X166760000Y-115154108D01*
X176089500Y-115154108D01*
X176089500Y-115285892D01*
X176094719Y-115305368D01*
X176123608Y-115413187D01*
X176131162Y-115426270D01*
X176189500Y-115527314D01*
X176282686Y-115620500D01*
X176396814Y-115686392D01*
X176524108Y-115720500D01*
X176524110Y-115720500D01*
X176655890Y-115720500D01*
X176655892Y-115720500D01*
X176783186Y-115686392D01*
X176897314Y-115620500D01*
X176990500Y-115527314D01*
X177056392Y-115413186D01*
X177090500Y-115285892D01*
X177090500Y-115154108D01*
X177056392Y-115026814D01*
X176990500Y-114912686D01*
X176897314Y-114819500D01*
X176832104Y-114781851D01*
X176783187Y-114753608D01*
X176719539Y-114736554D01*
X176655892Y-114719500D01*
X176524108Y-114719500D01*
X176396812Y-114753608D01*
X176282686Y-114819500D01*
X176282683Y-114819502D01*
X176189502Y-114912683D01*
X176189500Y-114912686D01*
X176123608Y-115026812D01*
X176100103Y-115114536D01*
X176089500Y-115154108D01*
X166760000Y-115154108D01*
X166760000Y-114275617D01*
X166779685Y-114208578D01*
X166832489Y-114162823D01*
X166885604Y-114151627D01*
X189140000Y-114440000D01*
X189140000Y-114439999D01*
X188901394Y-92975378D01*
X188920332Y-92908124D01*
X188972624Y-92861785D01*
X189025386Y-92850000D01*
X193176000Y-92850000D01*
X193243039Y-92869685D01*
G37*
%TD.AperFunction*%
%TD*%
M02*
