%TF.GenerationSoftware,KiCad,Pcbnew,9.0.0*%
%TF.CreationDate,2026-03-08T15:51:33+01:00*%
%TF.ProjectId,piezoTester v2.2,7069657a-6f54-4657-9374-65722076322e,rev?*%
%TF.SameCoordinates,Original*%
%TF.FileFunction,Copper,L4,Bot*%
%TF.FilePolarity,Positive*%
%FSLAX46Y46*%
G04 Gerber Fmt 4.6, Leading zero omitted, Abs format (unit mm)*
G04 Created by KiCad (PCBNEW 9.0.0) date 2026-03-08 15:51:33*
%MOMM*%
%LPD*%
G01*
G04 APERTURE LIST*
%TA.AperFunction,ComponentPad*%
%ADD10R,1.905000X2.000000*%
%TD*%
%TA.AperFunction,ComponentPad*%
%ADD11O,1.905000X2.000000*%
%TD*%
%TA.AperFunction,ComponentPad*%
%ADD12R,1.700000X1.700000*%
%TD*%
%TA.AperFunction,ComponentPad*%
%ADD13O,1.700000X1.700000*%
%TD*%
%TA.AperFunction,ComponentPad*%
%ADD14C,2.200000*%
%TD*%
%TA.AperFunction,ComponentPad*%
%ADD15R,2.500000X2.500000*%
%TD*%
%TA.AperFunction,ComponentPad*%
%ADD16C,2.000000*%
%TD*%
%TA.AperFunction,ComponentPad*%
%ADD17R,1.050000X1.500000*%
%TD*%
%TA.AperFunction,ComponentPad*%
%ADD18O,1.050000X1.500000*%
%TD*%
%TA.AperFunction,ComponentPad*%
%ADD19R,1.600000X1.600000*%
%TD*%
%TA.AperFunction,ComponentPad*%
%ADD20C,1.600000*%
%TD*%
%TA.AperFunction,ComponentPad*%
%ADD21R,1.800000X1.800000*%
%TD*%
%TA.AperFunction,ComponentPad*%
%ADD22C,1.800000*%
%TD*%
%TA.AperFunction,ComponentPad*%
%ADD23R,3.200000X3.200000*%
%TD*%
%TA.AperFunction,ComponentPad*%
%ADD24O,4.000000X4.000000*%
%TD*%
%TA.AperFunction,HeatsinkPad*%
%ADD25O,1.700000X2.000000*%
%TD*%
%TA.AperFunction,ComponentPad*%
%ADD26O,3.200000X3.200000*%
%TD*%
%TA.AperFunction,ComponentPad*%
%ADD27C,1.500000*%
%TD*%
%TA.AperFunction,ViaPad*%
%ADD28C,0.600000*%
%TD*%
%TA.AperFunction,ViaPad*%
%ADD29C,4.000000*%
%TD*%
%TA.AperFunction,Conductor*%
%ADD30C,0.300000*%
%TD*%
%TA.AperFunction,Conductor*%
%ADD31C,0.350000*%
%TD*%
%TA.AperFunction,Conductor*%
%ADD32C,0.400000*%
%TD*%
G04 APERTURE END LIST*
D10*
%TO.P,MOSFET,1,G*%
%TO.N,Net-(Q3-C)*%
X222000000Y-96800000D03*
D11*
%TO.P,MOSFET,2,D*%
%TO.N,Net-(D2-A)*%
X219460000Y-96800000D03*
%TO.P,MOSFET,3,S*%
%TO.N,GND_POWER*%
X216920000Y-96800000D03*
%TD*%
D12*
%TO.P,MAGNET_IN,1,Pin_1*%
%TO.N,12VDC+*%
X217050000Y-81800000D03*
D13*
%TO.P,MAGNET_IN,2,Pin_2*%
%TO.N,Net-(D2-A)*%
X219590000Y-81800000D03*
%TD*%
D14*
%TO.P,RST,1,1*%
%TO.N,EN*%
X200050000Y-147990000D03*
X200050000Y-141490000D03*
%TO.P,RST,2,2*%
%TO.N,GND*%
X204550000Y-147990000D03*
X204550000Y-141490000D03*
%TD*%
D15*
%TO.P,C1,1*%
%TO.N,12VDC+*%
X159070000Y-92220000D03*
D16*
%TO.P,C1,2*%
%TO.N,GND_POWER*%
X159070000Y-97220000D03*
%TD*%
D17*
%TO.P,BC337,1,C*%
%TO.N,Net-(Q3-C)*%
X209440000Y-117330000D03*
D18*
%TO.P,BC337,2,B*%
%TO.N,Net-(Q3-B)*%
X210710000Y-117330000D03*
%TO.P,BC337,3,E*%
%TO.N,GND_POWER*%
X211980000Y-117330000D03*
%TD*%
D19*
%TO.P,C2,1*%
%TO.N,GND_POWER*%
X183000000Y-89500000D03*
D20*
%TO.P,C2,2*%
%TO.N,BUCK_OUT*%
X183000000Y-93000000D03*
%TD*%
D12*
%TO.P,J3,1,Pin_1*%
%TO.N,Sensor-*%
X135790000Y-137425000D03*
D13*
%TO.P,J3,2,Pin_2*%
%TO.N,3v3A*%
X135790000Y-139965000D03*
%TD*%
D21*
%TO.P,MCP6002,1,VOUTA*%
%TO.N,AIN0*%
X151255000Y-132000000D03*
D22*
%TO.P,MCP6002,2,VINA-*%
X151255000Y-129460000D03*
%TO.P,MCP6002,3,VINA+*%
%TO.N,3v3A*%
X151255000Y-126920000D03*
%TO.P,MCP6002,4,VSS*%
%TO.N,AGND*%
X151255000Y-124380000D03*
%TO.P,MCP6002,5,VINB+*%
%TO.N,Sensor-*%
X143445000Y-124380000D03*
%TO.P,MCP6002,6,VINB-*%
%TO.N,AIN1*%
X143445000Y-126920000D03*
%TO.P,MCP6002,7,VOUTB*%
X143445000Y-129460000D03*
%TO.P,MCP6002,8,VDD*%
%TO.N,3v3A*%
X143445000Y-132000000D03*
%TD*%
D23*
%TO.P,D1,1,K*%
%TO.N,OUT*%
X169790000Y-104667677D03*
D24*
%TO.P,D1,2,A*%
%TO.N,GND_POWER*%
X154550000Y-104667677D03*
%TD*%
D25*
%TO.P,USB,6,Shield*%
%TO.N,GND*%
X210705000Y-148210000D03*
X210855000Y-144410000D03*
X218305000Y-144410000D03*
X218455000Y-148210000D03*
%TD*%
D21*
%TO.P,LM358,1,OUT1*%
%TO.N,AIN2*%
X143790000Y-138730000D03*
D22*
%TO.P,LM358,2,IN1-*%
%TO.N,Net-(IC2-IN1-)*%
X143790000Y-141270000D03*
%TO.P,LM358,3,IN1+*%
%TO.N,Net-(IC2-IN1+)*%
X143790000Y-143810000D03*
%TO.P,LM358,4,V-*%
%TO.N,AGND*%
X143790000Y-146350000D03*
%TO.P,LM358,5,IN2+*%
%TO.N,unconnected-(IC2-IN2+-Pad5)*%
X151600000Y-146350000D03*
%TO.P,LM358,6,IN2-*%
%TO.N,unconnected-(IC2-IN2--Pad6)*%
X151600000Y-143810000D03*
%TO.P,LM358,7,OUT2*%
%TO.N,unconnected-(IC2-OUT2-Pad7)*%
X151600000Y-141270000D03*
%TO.P,LM358,8,V+*%
%TO.N,3v3A*%
X151600000Y-138730000D03*
%TD*%
D23*
%TO.P,D2,1,K*%
%TO.N,12VDC+*%
X210870000Y-89270000D03*
D26*
%TO.P,D2,2,A*%
%TO.N,Net-(D2-A)*%
X226110000Y-89270000D03*
%TD*%
D27*
%TO.P,3V3,1,OUTPUT*%
%TO.N,3v3A*%
X196450000Y-109440000D03*
%TO.P,3V3,2,GND*%
%TO.N,GND_POWER*%
X197450000Y-108170000D03*
%TO.P,3V3,3,INPUT*%
%TO.N,BUCK_OUT*%
X196450000Y-106900000D03*
%TD*%
D14*
%TO.P,BOOT,1,1*%
%TO.N,BOOT*%
X194310000Y-141470000D03*
X194310000Y-147970000D03*
%TO.P,BOOT,2,2*%
%TO.N,GND*%
X189810000Y-141470000D03*
X189810000Y-147970000D03*
%TD*%
D12*
%TO.P,BEAM_IN,1,Pin_1*%
%TO.N,GREEN*%
X171710000Y-148180000D03*
D13*
%TO.P,BEAM_IN,2,Pin_2*%
%TO.N,WHITE*%
X174250000Y-148180000D03*
%TO.P,BEAM_IN,3,Pin_3*%
%TO.N,AGND*%
X176790000Y-148180000D03*
%TO.P,BEAM_IN,4,Pin_4*%
%TO.N,3v3A*%
X179330000Y-148180000D03*
%TD*%
D27*
%TO.P,3V3A,1,OUTPUT*%
%TO.N,+3.3V*%
X197380000Y-99350000D03*
%TO.P,3V3A,2,GND*%
%TO.N,GND_POWER*%
X196380000Y-100620000D03*
%TO.P,3V3A,3,INPUT*%
%TO.N,BUCK_OUT*%
X197380000Y-101890000D03*
%TD*%
D28*
%TO.N,GND_POWER*%
X152000000Y-82000000D03*
X155000000Y-84000000D03*
X156000000Y-82000000D03*
X160000000Y-82000000D03*
X156000000Y-83000000D03*
X162000000Y-83000000D03*
D29*
X138000000Y-84000000D03*
X230000000Y-84000000D03*
D28*
X163000000Y-83000000D03*
X155000000Y-82000000D03*
X154000000Y-83000000D03*
X152000000Y-83000000D03*
X164000000Y-82000000D03*
X164000000Y-83000000D03*
X159000000Y-83000000D03*
X160000000Y-83000000D03*
X153000000Y-83000000D03*
X153000000Y-84000000D03*
X157000000Y-83000000D03*
X157000000Y-82000000D03*
X153000000Y-82000000D03*
X158000000Y-82000000D03*
X161000000Y-82000000D03*
X162000000Y-84000000D03*
X154000000Y-82000000D03*
X163000000Y-82000000D03*
X159000000Y-84000000D03*
X158000000Y-83000000D03*
X155000000Y-83000000D03*
X154000000Y-84000000D03*
X160000000Y-84000000D03*
X163000000Y-84000000D03*
X158000000Y-84000000D03*
X161000000Y-84000000D03*
X156000000Y-84000000D03*
X164000000Y-84000000D03*
X157000000Y-84000000D03*
X161000000Y-83000000D03*
X159000000Y-82000000D03*
X152000000Y-84000000D03*
X162000000Y-82000000D03*
%TO.N,AGND*%
X142050000Y-143730000D03*
X141180000Y-142820000D03*
X141150000Y-143720000D03*
D29*
X138000000Y-145000000D03*
D28*
X142050000Y-142850000D03*
%TO.N,EN*%
X192180000Y-144730000D03*
%TO.N,Net-(CP2102N1-VBUS)*%
X217910000Y-132050000D03*
X223490000Y-132410000D03*
%TO.N,D+*%
X227240000Y-137890000D03*
X225660000Y-136240000D03*
%TO.N,3v3A*%
X205000000Y-112000000D03*
X203000000Y-112000000D03*
X204000000Y-112000000D03*
X206000000Y-114000000D03*
X201000000Y-113000000D03*
X203991963Y-112996613D03*
X161280000Y-120270000D03*
X207000000Y-113000000D03*
X138080000Y-133410000D03*
X201000000Y-112000000D03*
X206000000Y-113000000D03*
X205000000Y-113000000D03*
X207000000Y-114000000D03*
X141310000Y-133440000D03*
X153860000Y-132160000D03*
X204000000Y-114000000D03*
X153860000Y-131490000D03*
X202000000Y-113000000D03*
X162290000Y-120270000D03*
X160990000Y-122940000D03*
X201000000Y-114000000D03*
X203000000Y-113000000D03*
X202000000Y-112000000D03*
X202000000Y-114000000D03*
X205000000Y-114000000D03*
X206000000Y-112000000D03*
X207000000Y-112000000D03*
X203000000Y-114000000D03*
X157030000Y-122640000D03*
X162070000Y-122980000D03*
%TO.N,RTS*%
X208312500Y-132872500D03*
X217990000Y-138350000D03*
%TO.N,GND*%
X217050000Y-128710000D03*
X221170000Y-128730000D03*
X176000000Y-132000000D03*
X173000000Y-129000000D03*
X218220000Y-128680000D03*
X173000000Y-127000000D03*
X173000000Y-128000000D03*
X174000000Y-126000000D03*
X173000000Y-132000000D03*
X178000000Y-128000000D03*
X156519626Y-131027449D03*
X220210000Y-128720000D03*
X177000000Y-132000000D03*
X178000000Y-130000000D03*
X162370000Y-129420000D03*
X178000000Y-132000000D03*
X175000000Y-132000000D03*
X162340000Y-130420000D03*
X178000000Y-129000000D03*
X173000000Y-126000000D03*
X221964000Y-135750000D03*
X178000000Y-127000000D03*
X232250000Y-130150000D03*
X176000000Y-126000000D03*
X155219917Y-128959064D03*
X177000000Y-126000000D03*
X174000000Y-132000000D03*
X170000000Y-122000000D03*
X187930000Y-121030000D03*
X178000000Y-131000000D03*
D29*
X230000000Y-145000000D03*
D28*
X175000000Y-126000000D03*
X232250000Y-132560000D03*
X154510000Y-128960000D03*
X187950000Y-121890000D03*
X173000000Y-131000000D03*
X178000000Y-126000000D03*
X170000000Y-121000000D03*
X232240000Y-133580000D03*
X232290000Y-128900000D03*
X171840000Y-137670000D03*
X173000000Y-130000000D03*
X171030000Y-137630000D03*
%TO.N,+3.3V*%
X225560000Y-127430000D03*
X166570000Y-122550000D03*
X168950000Y-119830000D03*
X155830000Y-132530000D03*
X225730000Y-133760000D03*
X166520000Y-123260000D03*
X192820000Y-93130000D03*
X172960000Y-118170000D03*
X191090000Y-133010000D03*
X155840000Y-128500000D03*
X226370000Y-127430000D03*
X173800000Y-118210000D03*
X191860000Y-132530000D03*
X168980000Y-116030000D03*
X176110000Y-116590000D03*
X226400000Y-126580000D03*
X177030000Y-116560000D03*
X166390000Y-119800000D03*
X227040000Y-131360000D03*
X225600000Y-126600000D03*
X169000000Y-115190000D03*
X155828450Y-131138265D03*
X191900000Y-93110000D03*
X227890000Y-134670000D03*
X163950000Y-120910000D03*
X191900000Y-133680000D03*
X190280000Y-132550000D03*
X168940000Y-118380000D03*
X192930000Y-96550000D03*
X190240000Y-96510000D03*
X226920000Y-134660000D03*
X191160000Y-96530000D03*
X225760000Y-134540000D03*
X155830000Y-126800000D03*
X189270000Y-96500000D03*
X227990000Y-131340000D03*
X189210000Y-93070000D03*
X191100000Y-93100000D03*
X160820000Y-126660000D03*
X190300000Y-133650000D03*
X191960000Y-96540000D03*
X190130000Y-93090000D03*
%TO.N,RDY*%
X155870000Y-122980000D03*
X164530000Y-117340000D03*
X180320000Y-122620000D03*
%TO.N,SCL*%
X154470000Y-122570000D03*
X173480000Y-113240000D03*
X164610000Y-113130000D03*
X183740000Y-126780000D03*
%TO.N,SDA*%
X164590000Y-115240000D03*
X176590000Y-115220000D03*
X184640000Y-130580000D03*
X155238742Y-121969844D03*
%TD*%
D30*
%TO.N,EN*%
X199300000Y-144730000D02*
X200050000Y-145480000D01*
X200050000Y-145480000D02*
X200050000Y-147990000D01*
X192180000Y-144730000D02*
X199300000Y-144730000D01*
D31*
%TO.N,Net-(CP2102N1-VBUS)*%
X223490000Y-132410000D02*
X223130000Y-132050000D01*
X223130000Y-132050000D02*
X217910000Y-132050000D01*
%TO.N,D+*%
X227240000Y-137890000D02*
X227240000Y-137790000D01*
X225660000Y-136240000D02*
X225590000Y-136240000D01*
X225690000Y-136240000D02*
X225660000Y-136240000D01*
X227240000Y-137790000D02*
X225690000Y-136240000D01*
D30*
%TO.N,RTS*%
X208360000Y-132920000D02*
X208312500Y-132872500D01*
X217990000Y-138350000D02*
X212560000Y-132920000D01*
X212560000Y-132920000D02*
X208360000Y-132920000D01*
D32*
%TO.N,RDY*%
X180320000Y-120080000D02*
X177580000Y-117340000D01*
X180320000Y-122620000D02*
X180320000Y-120080000D01*
X155870000Y-122830000D02*
X155939742Y-122760258D01*
X155870000Y-122980000D02*
X155870000Y-122830000D01*
X154870000Y-118090000D02*
X155620000Y-117340000D01*
X154870000Y-120609738D02*
X154870000Y-118090000D01*
X155620000Y-117340000D02*
X164530000Y-117340000D01*
X155939742Y-122760258D02*
X155939742Y-121679480D01*
X155939742Y-121679480D02*
X154870000Y-120609738D01*
X177580000Y-117340000D02*
X164530000Y-117340000D01*
%TO.N,SCL*%
X173480000Y-113240000D02*
X176450000Y-113240000D01*
X153240000Y-121340000D02*
X153240000Y-116460000D01*
X154470000Y-122570000D02*
X153240000Y-121340000D01*
X176450000Y-113240000D02*
X183740000Y-120530000D01*
X153240000Y-116460000D02*
X156570000Y-113130000D01*
X183740000Y-120530000D02*
X183740000Y-126780000D01*
X156570000Y-113130000D02*
X164610000Y-113130000D01*
%TO.N,SDA*%
X156450000Y-115240000D02*
X164590000Y-115240000D01*
X176590000Y-115220000D02*
X177030000Y-115220000D01*
X177030000Y-115220000D02*
X182780000Y-120970000D01*
X155238742Y-121969844D02*
X153841000Y-120572102D01*
X153841000Y-117849000D02*
X156450000Y-115240000D01*
X153841000Y-120572102D02*
X153841000Y-117849000D01*
X182780000Y-129210000D02*
X184150000Y-130580000D01*
X184150000Y-130580000D02*
X184640000Y-130580000D01*
X182780000Y-120970000D02*
X182780000Y-129210000D01*
%TD*%
%TA.AperFunction,Conductor*%
%TO.N,EN*%
G36*
X200201176Y-145914563D02*
G01*
X200203279Y-145917430D01*
X200959773Y-147369574D01*
X200960557Y-147378495D01*
X200955905Y-147384703D01*
X200056508Y-147986644D01*
X200047726Y-147988398D01*
X200043492Y-147986644D01*
X199144094Y-147384703D01*
X199139125Y-147377254D01*
X199140225Y-147369577D01*
X199896721Y-145917429D01*
X199903582Y-145911676D01*
X199907097Y-145911136D01*
X200192903Y-145911136D01*
X200201176Y-145914563D01*
G37*
%TD.AperFunction*%
%TD*%
M02*
