%TF.GenerationSoftware,KiCad,Pcbnew,9.0.0*%
%TF.CreationDate,2026-03-08T15:51:33+01:00*%
%TF.ProjectId,piezoTester v2.2,7069657a-6f54-4657-9374-65722076322e,rev?*%
%TF.SameCoordinates,Original*%
%TF.FileFunction,Soldermask,Bot*%
%TF.FilePolarity,Negative*%
%FSLAX46Y46*%
G04 Gerber Fmt 4.6, Leading zero omitted, Abs format (unit mm)*
G04 Created by KiCad (PCBNEW 9.0.0) date 2026-03-08 15:51:33*
%MOMM*%
%LPD*%
G01*
G04 APERTURE LIST*
%ADD10C,0.120000*%
%ADD11C,3.500000*%
%ADD12R,1.905000X2.000000*%
%ADD13O,1.905000X2.000000*%
%ADD14R,1.700000X1.700000*%
%ADD15O,1.700000X1.700000*%
%ADD16C,2.200000*%
%ADD17R,2.500000X2.500000*%
%ADD18C,2.000000*%
%ADD19R,1.050000X1.500000*%
%ADD20O,1.050000X1.500000*%
%ADD21R,1.600000X1.600000*%
%ADD22C,1.600000*%
%ADD23R,1.800000X1.800000*%
%ADD24C,1.800000*%
%ADD25R,3.200000X3.200000*%
%ADD26O,4.000000X4.000000*%
%ADD27O,0.800000X0.800000*%
%ADD28O,1.700000X2.000000*%
%ADD29O,3.200000X3.200000*%
%ADD30C,1.500000*%
G04 APERTURE END LIST*
D10*
%TO.C,12VDC*%
X140290000Y-95200000D02*
G75*
G02*
X138690000Y-95200000I-800000J0D01*
G01*
X138690000Y-95200000D02*
G75*
G02*
X140290000Y-95200000I800000J0D01*
G01*
X144890000Y-95200000D02*
G75*
G02*
X143090000Y-95200000I-900000J0D01*
G01*
X143090000Y-95200000D02*
G75*
G02*
X144890000Y-95200000I900000J0D01*
G01*
%TD*%
D11*
%TO.C,MOSFET*%
X219460000Y-113460000D03*
D12*
X222000000Y-96800000D03*
D13*
X219460000Y-96800000D03*
X216920000Y-96800000D03*
%TD*%
D14*
%TO.C,MAGNET_IN*%
X217050000Y-81800000D03*
D15*
X219590000Y-81800000D03*
%TD*%
D16*
%TO.C,RST*%
X200050000Y-147990000D03*
X200050000Y-141490000D03*
X204550000Y-147990000D03*
X204550000Y-141490000D03*
%TD*%
D17*
%TO.C,C1*%
X159070000Y-92220000D03*
D18*
X159070000Y-97220000D03*
%TD*%
D19*
%TO.C,BC337*%
X209440000Y-117330000D03*
D20*
X210710000Y-117330000D03*
X211980000Y-117330000D03*
%TD*%
D21*
%TO.C,C2*%
X183000000Y-89500000D03*
D22*
X183000000Y-93000000D03*
%TD*%
D14*
%TO.C,J3*%
X135790000Y-137425000D03*
D15*
X135790000Y-139965000D03*
%TD*%
D23*
%TO.C,MCP6002*%
X151255000Y-132000000D03*
D24*
X151255000Y-129460000D03*
X151255000Y-126920000D03*
X151255000Y-124380000D03*
X143445000Y-124380000D03*
X143445000Y-126920000D03*
X143445000Y-129460000D03*
X143445000Y-132000000D03*
%TD*%
D25*
%TO.C,D1*%
X169790000Y-104667677D03*
D26*
X154550000Y-104667677D03*
%TD*%
D27*
%TO.C,USB*%
X212080000Y-145460000D03*
X217080000Y-145460000D03*
D28*
X210705000Y-148210000D03*
X210855000Y-144410000D03*
X218305000Y-144410000D03*
X218455000Y-148210000D03*
%TD*%
D24*
%TO.C,12VDC*%
X143990000Y-95200000D03*
D22*
X139490000Y-95200000D03*
%TD*%
D23*
%TO.C,LM358*%
X143790000Y-138730000D03*
D24*
X143790000Y-141270000D03*
X143790000Y-143810000D03*
X143790000Y-146350000D03*
X151600000Y-146350000D03*
X151600000Y-143810000D03*
X151600000Y-141270000D03*
X151600000Y-138730000D03*
%TD*%
D25*
%TO.C,D2*%
X210870000Y-89270000D03*
D29*
X226110000Y-89270000D03*
%TD*%
D30*
%TO.C,3V3*%
X196450000Y-109440000D03*
X197450000Y-108170000D03*
X196450000Y-106900000D03*
%TD*%
D16*
%TO.C,BOOT*%
X194310000Y-141470000D03*
X194310000Y-147970000D03*
X189810000Y-141470000D03*
X189810000Y-147970000D03*
%TD*%
D14*
%TO.C,BEAM_IN*%
X171710000Y-148180000D03*
D15*
X174250000Y-148180000D03*
X176790000Y-148180000D03*
X179330000Y-148180000D03*
%TD*%
D30*
%TO.C,3V3A*%
X197380000Y-99350000D03*
X196380000Y-100620000D03*
X197380000Y-101890000D03*
%TD*%
M02*
