M48
; DRILL file {KiCad 9.0.0} date 2026-03-08T15:51:35+0100
; FORMAT={-:-/ absolute / metric / decimal}
; #@! TF.CreationDate,2026-03-08T15:51:35+01:00
; #@! TF.GenerationSoftware,Kicad,Pcbnew,9.0.0
; #@! TF.FileFunction,Plated,1,4,PTH
FMAT,2
METRIC
; #@! TA.AperFunction,Plated,PTH,ViaDrill
T1C0.300
; #@! TA.AperFunction,Plated,PTH,ComponentDrill
T2C0.750
; #@! TA.AperFunction,Plated,PTH,ComponentDrill
T3C0.759
; #@! TA.AperFunction,Plated,PTH,ComponentDrill
T4C0.800
; #@! TA.AperFunction,Plated,PTH,ComponentDrill
T5C0.850
; #@! TA.AperFunction,Plated,PTH,ComponentDrill
T6C0.900
; #@! TA.AperFunction,Plated,PTH,ComponentDrill
T7C1.000
; #@! TA.AperFunction,Plated,PTH,ComponentDrill
T8C1.100
; #@! TA.AperFunction,Plated,PTH,ComponentDrill
T9C1.600
; #@! TA.AperFunction,Plated,PTH,ViaDrill
T10C3.500
%
G90
G05
T1
X138.08Y-133.41
X141.15Y-143.72
X141.18Y-142.82
X141.31Y-133.44
X142.05Y-142.85
X142.05Y-143.73
X152.0Y-82.0
X152.0Y-83.0
X152.0Y-84.0
X153.0Y-82.0
X153.0Y-83.0
X153.0Y-84.0
X153.86Y-131.49
X153.86Y-132.16
X154.0Y-82.0
X154.0Y-83.0
X154.0Y-84.0
X154.47Y-122.57
X154.51Y-128.96
X155.0Y-82.0
X155.0Y-83.0
X155.0Y-84.0
X155.22Y-128.959
X155.239Y-121.97
X155.828Y-131.138
X155.83Y-126.8
X155.83Y-132.53
X155.84Y-128.5
X155.87Y-122.98
X156.0Y-82.0
X156.0Y-83.0
X156.0Y-84.0
X156.52Y-131.027
X157.0Y-82.0
X157.0Y-83.0
X157.0Y-84.0
X157.03Y-122.64
X158.0Y-82.0
X158.0Y-83.0
X158.0Y-84.0
X159.0Y-82.0
X159.0Y-83.0
X159.0Y-84.0
X160.0Y-82.0
X160.0Y-83.0
X160.0Y-84.0
X160.82Y-126.66
X160.99Y-122.94
X161.0Y-82.0
X161.0Y-83.0
X161.0Y-84.0
X161.28Y-120.27
X162.0Y-82.0
X162.0Y-83.0
X162.0Y-84.0
X162.07Y-122.98
X162.29Y-120.27
X162.34Y-130.42
X162.37Y-129.42
X163.0Y-82.0
X163.0Y-83.0
X163.0Y-84.0
X163.95Y-120.91
X164.0Y-82.0
X164.0Y-83.0
X164.0Y-84.0
X164.53Y-117.34
X164.59Y-115.24
X164.61Y-113.13
X166.39Y-119.8
X166.52Y-123.26
X166.57Y-122.55
X168.94Y-118.38
X168.95Y-119.83
X168.98Y-116.03
X169.0Y-115.19
X170.0Y-121.0
X170.0Y-122.0
X171.03Y-137.63
X171.84Y-137.67
X172.96Y-118.17
X173.0Y-126.0
X173.0Y-127.0
X173.0Y-128.0
X173.0Y-129.0
X173.0Y-130.0
X173.0Y-131.0
X173.0Y-132.0
X173.48Y-113.24
X173.8Y-118.21
X174.0Y-126.0
X174.0Y-132.0
X175.0Y-126.0
X175.0Y-132.0
X176.0Y-126.0
X176.0Y-132.0
X176.11Y-116.59
X176.59Y-115.22
X177.0Y-126.0
X177.0Y-132.0
X177.03Y-116.56
X178.0Y-126.0
X178.0Y-127.0
X178.0Y-128.0
X178.0Y-129.0
X178.0Y-130.0
X178.0Y-131.0
X178.0Y-132.0
X180.32Y-122.62
X183.74Y-126.78
X184.64Y-130.58
X187.93Y-121.03
X187.95Y-121.89
X189.21Y-93.07
X189.27Y-96.5
X190.13Y-93.09
X190.24Y-96.51
X190.28Y-132.55
X190.3Y-133.65
X191.09Y-133.01
X191.1Y-93.1
X191.16Y-96.53
X191.86Y-132.53
X191.9Y-93.11
X191.9Y-133.68
X191.96Y-96.54
X192.18Y-144.73
X192.82Y-93.13
X192.93Y-96.55
X201.0Y-112.0
X201.0Y-113.0
X201.0Y-114.0
X202.0Y-112.0
X202.0Y-113.0
X202.0Y-114.0
X203.0Y-112.0
X203.0Y-113.0
X203.0Y-114.0
X203.992Y-112.997
X204.0Y-112.0
X204.0Y-114.0
X205.0Y-112.0
X205.0Y-113.0
X205.0Y-114.0
X206.0Y-112.0
X206.0Y-113.0
X206.0Y-114.0
X207.0Y-112.0
X207.0Y-113.0
X207.0Y-114.0
X208.312Y-132.873
X217.05Y-128.71
X217.91Y-132.05
X217.99Y-138.35
X218.22Y-128.68
X220.21Y-128.72
X221.17Y-128.73
X221.964Y-135.75
X223.49Y-132.41
X225.56Y-127.43
X225.6Y-126.6
X225.66Y-136.24
X225.73Y-133.76
X225.76Y-134.54
X226.37Y-127.43
X226.4Y-126.58
X226.92Y-134.66
X227.04Y-131.36
X227.24Y-137.89
X227.89Y-134.67
X227.99Y-131.34
X232.24Y-133.58
X232.25Y-130.15
X232.25Y-132.56
X232.29Y-128.9
T2
X209.44Y-117.33
X210.71Y-117.33
X211.98Y-117.33
T3
X143.445Y-124.38
X143.445Y-126.92
X143.445Y-129.46
X143.445Y-132.0
X143.79Y-138.73
X143.79Y-141.27
X143.79Y-143.81
X143.79Y-146.35
X151.255Y-124.38
X151.255Y-126.92
X151.255Y-129.46
X151.255Y-132.0
X151.6Y-138.73
X151.6Y-141.27
X151.6Y-143.81
X151.6Y-146.35
T4
X183.0Y-89.5
X183.0Y-93.0
T6
X196.38Y-100.62
X196.45Y-106.9
X196.45Y-109.44
X197.38Y-99.35
X197.38Y-101.89
X197.45Y-108.17
T7
X135.79Y-137.425
X135.79Y-139.965
X159.07Y-92.22
X159.07Y-97.22
X171.71Y-148.18
X174.25Y-148.18
X176.79Y-148.18
X179.33Y-148.18
X217.05Y-81.8
X219.59Y-81.8
T8
X189.81Y-141.47
X189.81Y-147.97
X194.31Y-141.47
X194.31Y-147.97
X200.05Y-141.49
X200.05Y-147.99
X204.55Y-141.49
X204.55Y-147.99
X216.92Y-96.8
X219.46Y-96.8
X222.0Y-96.8
T9
X154.55Y-104.668
X169.79Y-104.668
X210.87Y-89.27
X226.11Y-89.27
T10
X138.0Y-84.0
X138.0Y-145.0
X230.0Y-84.0
X230.0Y-145.0
T5
G00X210.705Y-147.935
M15
G01X210.705Y-148.485
M16
G05
G00X210.855Y-144.135
M15
G01X210.855Y-144.685
M16
G05
G00X218.305Y-144.135
M15
G01X218.305Y-144.685
M16
G05
G00X218.455Y-147.935
M15
G01X218.455Y-148.485
M16
G05
M30
