%TF.GenerationSoftware,KiCad,Pcbnew,9.0.0*%
%TF.CreationDate,2026-03-08T15:51:33+01:00*%
%TF.ProjectId,piezoTester v2.2,7069657a-6f54-4657-9374-65722076322e,rev?*%
%TF.SameCoordinates,Original*%
%TF.FileFunction,Copper,L2,Inr*%
%TF.FilePolarity,Positive*%
%FSLAX46Y46*%
G04 Gerber Fmt 4.6, Leading zero omitted, Abs format (unit mm)*
G04 Created by KiCad (PCBNEW 9.0.0) date 2026-03-08 15:51:33*
%MOMM*%
%LPD*%
G01*
G04 APERTURE LIST*
%TA.AperFunction,ComponentPad*%
%ADD10R,1.905000X2.000000*%
%TD*%
%TA.AperFunction,ComponentPad*%
%ADD11O,1.905000X2.000000*%
%TD*%
%TA.AperFunction,ComponentPad*%
%ADD12R,1.700000X1.700000*%
%TD*%
%TA.AperFunction,ComponentPad*%
%ADD13O,1.700000X1.700000*%
%TD*%
%TA.AperFunction,ComponentPad*%
%ADD14C,2.200000*%
%TD*%
%TA.AperFunction,ComponentPad*%
%ADD15R,2.500000X2.500000*%
%TD*%
%TA.AperFunction,ComponentPad*%
%ADD16C,2.000000*%
%TD*%
%TA.AperFunction,ComponentPad*%
%ADD17R,1.050000X1.500000*%
%TD*%
%TA.AperFunction,ComponentPad*%
%ADD18O,1.050000X1.500000*%
%TD*%
%TA.AperFunction,ComponentPad*%
%ADD19R,1.600000X1.600000*%
%TD*%
%TA.AperFunction,ComponentPad*%
%ADD20C,1.600000*%
%TD*%
%TA.AperFunction,ComponentPad*%
%ADD21R,1.800000X1.800000*%
%TD*%
%TA.AperFunction,ComponentPad*%
%ADD22C,1.800000*%
%TD*%
%TA.AperFunction,ComponentPad*%
%ADD23R,3.200000X3.200000*%
%TD*%
%TA.AperFunction,ComponentPad*%
%ADD24O,4.000000X4.000000*%
%TD*%
%TA.AperFunction,HeatsinkPad*%
%ADD25O,1.700000X2.000000*%
%TD*%
%TA.AperFunction,ComponentPad*%
%ADD26O,3.200000X3.200000*%
%TD*%
%TA.AperFunction,ComponentPad*%
%ADD27C,1.500000*%
%TD*%
%TA.AperFunction,ViaPad*%
%ADD28C,0.600000*%
%TD*%
%TA.AperFunction,ViaPad*%
%ADD29C,4.000000*%
%TD*%
G04 APERTURE END LIST*
D10*
%TO.N,Net-(Q3-C)*%
%TO.C,MOSFET*%
X222000000Y-96800000D03*
D11*
%TO.N,Net-(D2-A)*%
X219460000Y-96800000D03*
%TO.N,GND_POWER*%
X216920000Y-96800000D03*
%TD*%
D12*
%TO.N,12VDC+*%
%TO.C,MAGNET_IN*%
X217050000Y-81800000D03*
D13*
%TO.N,Net-(D2-A)*%
X219590000Y-81800000D03*
%TD*%
D14*
%TO.N,EN*%
%TO.C,RST*%
X200050000Y-147990000D03*
X200050000Y-141490000D03*
%TO.N,GND*%
X204550000Y-147990000D03*
X204550000Y-141490000D03*
%TD*%
D15*
%TO.N,12VDC+*%
%TO.C,C1*%
X159070000Y-92220000D03*
D16*
%TO.N,GND_POWER*%
X159070000Y-97220000D03*
%TD*%
D17*
%TO.N,Net-(Q3-C)*%
%TO.C,BC337*%
X209440000Y-117330000D03*
D18*
%TO.N,Net-(Q3-B)*%
X210710000Y-117330000D03*
%TO.N,GND_POWER*%
X211980000Y-117330000D03*
%TD*%
D19*
%TO.N,GND_POWER*%
%TO.C,C2*%
X183000000Y-89500000D03*
D20*
%TO.N,BUCK_OUT*%
X183000000Y-93000000D03*
%TD*%
D12*
%TO.N,Sensor-*%
%TO.C,J3*%
X135790000Y-137425000D03*
D13*
%TO.N,3v3A*%
X135790000Y-139965000D03*
%TD*%
D21*
%TO.N,AIN0*%
%TO.C,MCP6002*%
X151255000Y-132000000D03*
D22*
X151255000Y-129460000D03*
%TO.N,3v3A*%
X151255000Y-126920000D03*
%TO.N,AGND*%
X151255000Y-124380000D03*
%TO.N,Sensor-*%
X143445000Y-124380000D03*
%TO.N,AIN1*%
X143445000Y-126920000D03*
X143445000Y-129460000D03*
%TO.N,3v3A*%
X143445000Y-132000000D03*
%TD*%
D23*
%TO.N,OUT*%
%TO.C,D1*%
X169790000Y-104667677D03*
D24*
%TO.N,GND_POWER*%
X154550000Y-104667677D03*
%TD*%
D25*
%TO.N,GND*%
%TO.C,USB*%
X210705000Y-148210000D03*
X210855000Y-144410000D03*
X218305000Y-144410000D03*
X218455000Y-148210000D03*
%TD*%
D21*
%TO.N,AIN2*%
%TO.C,LM358*%
X143790000Y-138730000D03*
D22*
%TO.N,Net-(IC2-IN1-)*%
X143790000Y-141270000D03*
%TO.N,Net-(IC2-IN1+)*%
X143790000Y-143810000D03*
%TO.N,AGND*%
X143790000Y-146350000D03*
%TO.N,unconnected-(IC2-IN2+-Pad5)*%
X151600000Y-146350000D03*
%TO.N,unconnected-(IC2-IN2--Pad6)*%
X151600000Y-143810000D03*
%TO.N,unconnected-(IC2-OUT2-Pad7)*%
X151600000Y-141270000D03*
%TO.N,3v3A*%
X151600000Y-138730000D03*
%TD*%
D23*
%TO.N,12VDC+*%
%TO.C,D2*%
X210870000Y-89270000D03*
D26*
%TO.N,Net-(D2-A)*%
X226110000Y-89270000D03*
%TD*%
D27*
%TO.N,3v3A*%
%TO.C,3V3*%
X196450000Y-109440000D03*
%TO.N,GND_POWER*%
X197450000Y-108170000D03*
%TO.N,BUCK_OUT*%
X196450000Y-106900000D03*
%TD*%
D14*
%TO.N,BOOT*%
%TO.C,BOOT*%
X194310000Y-141470000D03*
X194310000Y-147970000D03*
%TO.N,GND*%
X189810000Y-141470000D03*
X189810000Y-147970000D03*
%TD*%
D12*
%TO.N,GREEN*%
%TO.C,BEAM_IN*%
X171710000Y-148180000D03*
D13*
%TO.N,WHITE*%
X174250000Y-148180000D03*
%TO.N,AGND*%
X176790000Y-148180000D03*
%TO.N,3v3A*%
X179330000Y-148180000D03*
%TD*%
D27*
%TO.N,+3.3V*%
%TO.C,3V3A*%
X197380000Y-99350000D03*
%TO.N,GND_POWER*%
X196380000Y-100620000D03*
%TO.N,BUCK_OUT*%
X197380000Y-101890000D03*
%TD*%
D28*
%TO.N,GND_POWER*%
X152000000Y-82000000D03*
X155000000Y-84000000D03*
X156000000Y-82000000D03*
X160000000Y-82000000D03*
X156000000Y-83000000D03*
X162000000Y-83000000D03*
D29*
X138000000Y-84000000D03*
X230000000Y-84000000D03*
D28*
X163000000Y-83000000D03*
X155000000Y-82000000D03*
X154000000Y-83000000D03*
X152000000Y-83000000D03*
X164000000Y-82000000D03*
X164000000Y-83000000D03*
X159000000Y-83000000D03*
X160000000Y-83000000D03*
X153000000Y-83000000D03*
X153000000Y-84000000D03*
X157000000Y-83000000D03*
X157000000Y-82000000D03*
X153000000Y-82000000D03*
X158000000Y-82000000D03*
X161000000Y-82000000D03*
X162000000Y-84000000D03*
X154000000Y-82000000D03*
X163000000Y-82000000D03*
X159000000Y-84000000D03*
X158000000Y-83000000D03*
X155000000Y-83000000D03*
X154000000Y-84000000D03*
X160000000Y-84000000D03*
X163000000Y-84000000D03*
X158000000Y-84000000D03*
X161000000Y-84000000D03*
X156000000Y-84000000D03*
X164000000Y-84000000D03*
X157000000Y-84000000D03*
X161000000Y-83000000D03*
X159000000Y-82000000D03*
X152000000Y-84000000D03*
X162000000Y-82000000D03*
%TO.N,AGND*%
X142050000Y-143730000D03*
X141180000Y-142820000D03*
X141150000Y-143720000D03*
D29*
X138000000Y-145000000D03*
D28*
X142050000Y-142850000D03*
%TO.N,EN*%
X192180000Y-144730000D03*
%TO.N,Net-(CP2102N1-VBUS)*%
X217910000Y-132050000D03*
X223490000Y-132410000D03*
%TO.N,D+*%
X227240000Y-137890000D03*
X225660000Y-136240000D03*
%TO.N,3v3A*%
X205000000Y-112000000D03*
X203000000Y-112000000D03*
X204000000Y-112000000D03*
X206000000Y-114000000D03*
X201000000Y-113000000D03*
X203991963Y-112996613D03*
X161280000Y-120270000D03*
X207000000Y-113000000D03*
X138080000Y-133410000D03*
X201000000Y-112000000D03*
X206000000Y-113000000D03*
X205000000Y-113000000D03*
X207000000Y-114000000D03*
X141310000Y-133440000D03*
X153860000Y-132160000D03*
X204000000Y-114000000D03*
X153860000Y-131490000D03*
X202000000Y-113000000D03*
X162290000Y-120270000D03*
X160990000Y-122940000D03*
X201000000Y-114000000D03*
X203000000Y-113000000D03*
X202000000Y-112000000D03*
X202000000Y-114000000D03*
X205000000Y-114000000D03*
X206000000Y-112000000D03*
X207000000Y-112000000D03*
X203000000Y-114000000D03*
X157030000Y-122640000D03*
X162070000Y-122980000D03*
%TO.N,RTS*%
X208312500Y-132872500D03*
X217990000Y-138350000D03*
%TO.N,GND*%
X217050000Y-128710000D03*
X221170000Y-128730000D03*
X176000000Y-132000000D03*
X173000000Y-129000000D03*
X218220000Y-128680000D03*
X173000000Y-127000000D03*
X173000000Y-128000000D03*
X174000000Y-126000000D03*
X173000000Y-132000000D03*
X178000000Y-128000000D03*
X156519626Y-131027449D03*
X220210000Y-128720000D03*
X177000000Y-132000000D03*
X178000000Y-130000000D03*
X162370000Y-129420000D03*
X178000000Y-132000000D03*
X175000000Y-132000000D03*
X162340000Y-130420000D03*
X178000000Y-129000000D03*
X173000000Y-126000000D03*
X221964000Y-135750000D03*
X178000000Y-127000000D03*
X232250000Y-130150000D03*
X176000000Y-126000000D03*
X155219917Y-128959064D03*
X177000000Y-126000000D03*
X174000000Y-132000000D03*
X170000000Y-122000000D03*
X187930000Y-121030000D03*
X178000000Y-131000000D03*
D29*
X230000000Y-145000000D03*
D28*
X175000000Y-126000000D03*
X232250000Y-132560000D03*
X154510000Y-128960000D03*
X187950000Y-121890000D03*
X173000000Y-131000000D03*
X178000000Y-126000000D03*
X170000000Y-121000000D03*
X232240000Y-133580000D03*
X232290000Y-128900000D03*
X171840000Y-137670000D03*
X173000000Y-130000000D03*
X171030000Y-137630000D03*
%TO.N,+3.3V*%
X225560000Y-127430000D03*
X166570000Y-122550000D03*
X168950000Y-119830000D03*
X155830000Y-132530000D03*
X225730000Y-133760000D03*
X166520000Y-123260000D03*
X192820000Y-93130000D03*
X172960000Y-118170000D03*
X191090000Y-133010000D03*
X155840000Y-128500000D03*
X226370000Y-127430000D03*
X173800000Y-118210000D03*
X191860000Y-132530000D03*
X168980000Y-116030000D03*
X176110000Y-116590000D03*
X226400000Y-126580000D03*
X177030000Y-116560000D03*
X166390000Y-119800000D03*
X227040000Y-131360000D03*
X225600000Y-126600000D03*
X169000000Y-115190000D03*
X155828450Y-131138265D03*
X191900000Y-93110000D03*
X227890000Y-134670000D03*
X163950000Y-120910000D03*
X191900000Y-133680000D03*
X190280000Y-132550000D03*
X168940000Y-118380000D03*
X192930000Y-96550000D03*
X190240000Y-96510000D03*
X226920000Y-134660000D03*
X191160000Y-96530000D03*
X225760000Y-134540000D03*
X155830000Y-126800000D03*
X189270000Y-96500000D03*
X227990000Y-131340000D03*
X189210000Y-93070000D03*
X191100000Y-93100000D03*
X160820000Y-126660000D03*
X190300000Y-133650000D03*
X191960000Y-96540000D03*
X190130000Y-93090000D03*
%TO.N,RDY*%
X155870000Y-122980000D03*
X164530000Y-117340000D03*
X180320000Y-122620000D03*
%TO.N,SCL*%
X154470000Y-122570000D03*
X173480000Y-113240000D03*
X164610000Y-113130000D03*
X183740000Y-126780000D03*
%TO.N,SDA*%
X164590000Y-115240000D03*
X176590000Y-115220000D03*
X184640000Y-130580000D03*
X155238742Y-121969844D03*
%TD*%
%TA.AperFunction,Conductor*%
%TO.N,GND*%
G36*
X171943039Y-110019685D02*
G01*
X171988794Y-110072489D01*
X172000000Y-110124000D01*
X172000000Y-113000000D01*
X172864552Y-113000000D01*
X172931591Y-113019685D01*
X172977346Y-113072489D01*
X172987290Y-113141647D01*
X172984327Y-113156091D01*
X172979500Y-113174103D01*
X172979500Y-113305891D01*
X173013608Y-113433187D01*
X173046554Y-113490250D01*
X173079500Y-113547314D01*
X173172686Y-113640500D01*
X173286814Y-113706392D01*
X173414108Y-113740500D01*
X173414110Y-113740500D01*
X173545890Y-113740500D01*
X173545892Y-113740500D01*
X173673186Y-113706392D01*
X173787314Y-113640500D01*
X173880500Y-113547314D01*
X173946392Y-113433186D01*
X173980500Y-113305892D01*
X173980500Y-113174108D01*
X173980499Y-113174103D01*
X173975673Y-113156091D01*
X173977337Y-113086242D01*
X174016500Y-113028380D01*
X174080729Y-113000877D01*
X174095448Y-113000000D01*
X192876000Y-113000000D01*
X192943039Y-113019685D01*
X192988794Y-113072489D01*
X193000000Y-113124000D01*
X193000000Y-125000000D01*
X233375500Y-125000000D01*
X233442539Y-125019685D01*
X233488294Y-125072489D01*
X233499500Y-125124000D01*
X233499500Y-149375500D01*
X233479815Y-149442539D01*
X233427011Y-149488294D01*
X233375500Y-149499500D01*
X200395648Y-149499500D01*
X200328609Y-149479815D01*
X200282854Y-149427011D01*
X200272910Y-149357853D01*
X200301935Y-149294297D01*
X200357329Y-149257569D01*
X200391306Y-149246529D01*
X200549219Y-149195220D01*
X200731610Y-149102287D01*
X200824590Y-149034732D01*
X200897213Y-148981971D01*
X200897215Y-148981968D01*
X200897219Y-148981966D01*
X201041966Y-148837219D01*
X201041968Y-148837215D01*
X201041971Y-148837213D01*
X201157936Y-148677598D01*
X201162287Y-148671610D01*
X201255220Y-148489219D01*
X201318477Y-148294534D01*
X201350500Y-148092352D01*
X201350500Y-147887648D01*
X201318477Y-147685466D01*
X201317481Y-147682402D01*
X201289127Y-147595137D01*
X201255220Y-147490781D01*
X201255218Y-147490778D01*
X201255218Y-147490776D01*
X201190633Y-147364023D01*
X201162287Y-147308390D01*
X201119181Y-147249059D01*
X201041971Y-147142786D01*
X200897213Y-146998028D01*
X200731613Y-146877715D01*
X200731612Y-146877714D01*
X200731610Y-146877713D01*
X200674653Y-146848691D01*
X200549223Y-146784781D01*
X200354534Y-146721522D01*
X200179995Y-146693878D01*
X200152352Y-146689500D01*
X199947648Y-146689500D01*
X199923329Y-146693351D01*
X199745465Y-146721522D01*
X199550776Y-146784781D01*
X199368386Y-146877715D01*
X199202786Y-146998028D01*
X199058028Y-147142786D01*
X198937715Y-147308386D01*
X198844781Y-147490776D01*
X198781522Y-147685465D01*
X198749500Y-147887648D01*
X198749500Y-148092351D01*
X198781522Y-148294534D01*
X198844781Y-148489223D01*
X198908691Y-148614653D01*
X198927522Y-148651610D01*
X198937715Y-148671613D01*
X199058028Y-148837213D01*
X199202786Y-148981971D01*
X199340858Y-149082284D01*
X199368390Y-149102287D01*
X199484607Y-149161503D01*
X199550776Y-149195218D01*
X199550778Y-149195218D01*
X199550781Y-149195220D01*
X199659362Y-149230500D01*
X199742671Y-149257569D01*
X199800346Y-149297007D01*
X199827544Y-149361366D01*
X199815629Y-149430212D01*
X199768385Y-149481688D01*
X199704352Y-149499500D01*
X194542068Y-149499500D01*
X194475029Y-149479815D01*
X194429274Y-149427011D01*
X194419330Y-149357853D01*
X194448355Y-149294297D01*
X194507133Y-149256523D01*
X194522670Y-149253027D01*
X194614534Y-149238477D01*
X194809219Y-149175220D01*
X194991610Y-149082287D01*
X195084590Y-149014732D01*
X195157213Y-148961971D01*
X195157215Y-148961968D01*
X195157219Y-148961966D01*
X195301966Y-148817219D01*
X195301968Y-148817215D01*
X195301971Y-148817213D01*
X195354732Y-148744590D01*
X195422287Y-148651610D01*
X195515220Y-148469219D01*
X195578477Y-148274534D01*
X195610500Y-148072352D01*
X195610500Y-147867648D01*
X195581645Y-147685465D01*
X195578477Y-147665465D01*
X195521718Y-147490781D01*
X195515220Y-147470781D01*
X195515218Y-147470778D01*
X195515218Y-147470776D01*
X195460824Y-147364023D01*
X195422287Y-147288390D01*
X195393712Y-147249059D01*
X195301971Y-147122786D01*
X195157213Y-146978028D01*
X194991613Y-146857715D01*
X194991612Y-146857714D01*
X194991610Y-146857713D01*
X194934653Y-146828691D01*
X194809223Y-146764781D01*
X194614534Y-146701522D01*
X194439995Y-146673878D01*
X194412352Y-146669500D01*
X194207648Y-146669500D01*
X194183329Y-146673351D01*
X194005465Y-146701522D01*
X193810776Y-146764781D01*
X193628386Y-146857715D01*
X193462786Y-146978028D01*
X193318028Y-147122786D01*
X193197715Y-147288386D01*
X193104781Y-147470776D01*
X193041522Y-147665465D01*
X193009500Y-147867648D01*
X193009500Y-148072351D01*
X193041522Y-148274534D01*
X193104781Y-148469223D01*
X193197715Y-148651613D01*
X193318028Y-148817213D01*
X193462786Y-148961971D01*
X193617749Y-149074556D01*
X193628390Y-149082287D01*
X193744607Y-149141503D01*
X193810776Y-149175218D01*
X193810778Y-149175218D01*
X193810781Y-149175220D01*
X193872329Y-149195218D01*
X194005465Y-149238477D01*
X194097330Y-149253027D01*
X194160465Y-149282956D01*
X194197396Y-149342268D01*
X194196398Y-149412130D01*
X194157788Y-149470363D01*
X194093825Y-149498477D01*
X194077932Y-149499500D01*
X187124000Y-149499500D01*
X187056961Y-149479815D01*
X187011206Y-149427011D01*
X187000000Y-149375500D01*
X187000000Y-145524071D01*
X211429499Y-145524071D01*
X211454497Y-145649738D01*
X211454499Y-145649744D01*
X211503533Y-145768124D01*
X211503538Y-145768133D01*
X211574723Y-145874668D01*
X211574726Y-145874672D01*
X211665327Y-145965273D01*
X211665331Y-145965276D01*
X211771866Y-146036461D01*
X211771872Y-146036464D01*
X211771873Y-146036465D01*
X211890256Y-146085501D01*
X211890260Y-146085501D01*
X211890261Y-146085502D01*
X212015928Y-146110500D01*
X212015931Y-146110500D01*
X212144071Y-146110500D01*
X212228615Y-146093682D01*
X212269744Y-146085501D01*
X212388127Y-146036465D01*
X212494669Y-145965276D01*
X212585276Y-145874669D01*
X212656465Y-145768127D01*
X212705501Y-145649744D01*
X212730500Y-145524071D01*
X216429499Y-145524071D01*
X216454497Y-145649738D01*
X216454499Y-145649744D01*
X216503533Y-145768124D01*
X216503538Y-145768133D01*
X216574723Y-145874668D01*
X216574726Y-145874672D01*
X216665327Y-145965273D01*
X216665331Y-145965276D01*
X216771866Y-146036461D01*
X216771872Y-146036464D01*
X216771873Y-146036465D01*
X216890256Y-146085501D01*
X216890260Y-146085501D01*
X216890261Y-146085502D01*
X217015928Y-146110500D01*
X217015931Y-146110500D01*
X217144071Y-146110500D01*
X217228615Y-146093682D01*
X217269744Y-146085501D01*
X217388127Y-146036465D01*
X217494669Y-145965276D01*
X217585276Y-145874669D01*
X217656465Y-145768127D01*
X217705501Y-145649744D01*
X217730500Y-145524069D01*
X217730500Y-145395931D01*
X217730500Y-145395928D01*
X217705502Y-145270261D01*
X217705501Y-145270260D01*
X217705501Y-145270256D01*
X217656465Y-145151873D01*
X217656464Y-145151872D01*
X217656461Y-145151866D01*
X217585276Y-145045331D01*
X217585273Y-145045327D01*
X217494672Y-144954726D01*
X217494668Y-144954723D01*
X217388133Y-144883538D01*
X217388124Y-144883533D01*
X217269744Y-144834499D01*
X217269738Y-144834497D01*
X217144071Y-144809500D01*
X217144069Y-144809500D01*
X217015931Y-144809500D01*
X217015929Y-144809500D01*
X216890261Y-144834497D01*
X216890255Y-144834499D01*
X216771875Y-144883533D01*
X216771866Y-144883538D01*
X216665331Y-144954723D01*
X216665327Y-144954726D01*
X216574726Y-145045327D01*
X216574723Y-145045331D01*
X216503538Y-145151866D01*
X216503533Y-145151875D01*
X216454499Y-145270255D01*
X216454497Y-145270261D01*
X216429500Y-145395928D01*
X216429500Y-145395931D01*
X216429500Y-145524069D01*
X216429500Y-145524071D01*
X216429499Y-145524071D01*
X212730500Y-145524071D01*
X212730500Y-145524069D01*
X212730500Y-145395931D01*
X212730500Y-145395928D01*
X212705502Y-145270261D01*
X212705501Y-145270260D01*
X212705501Y-145270256D01*
X212656465Y-145151873D01*
X212656464Y-145151872D01*
X212656461Y-145151866D01*
X212585276Y-145045331D01*
X212585273Y-145045327D01*
X212494672Y-144954726D01*
X212494668Y-144954723D01*
X212388133Y-144883538D01*
X212388124Y-144883533D01*
X212269744Y-144834499D01*
X212269738Y-144834497D01*
X212144071Y-144809500D01*
X212144069Y-144809500D01*
X212015931Y-144809500D01*
X212015929Y-144809500D01*
X211890261Y-144834497D01*
X211890255Y-144834499D01*
X211771875Y-144883533D01*
X211771866Y-144883538D01*
X211665331Y-144954723D01*
X211665327Y-144954726D01*
X211574726Y-145045327D01*
X211574723Y-145045331D01*
X211503538Y-145151866D01*
X211503533Y-145151875D01*
X211454499Y-145270255D01*
X211454497Y-145270261D01*
X211429500Y-145395928D01*
X211429500Y-145395931D01*
X211429500Y-145524069D01*
X211429500Y-145524071D01*
X211429499Y-145524071D01*
X187000000Y-145524071D01*
X187000000Y-144664108D01*
X191679500Y-144664108D01*
X191679500Y-144795891D01*
X191713608Y-144923187D01*
X191746554Y-144980250D01*
X191779500Y-145037314D01*
X191872686Y-145130500D01*
X191986814Y-145196392D01*
X192114108Y-145230500D01*
X192114110Y-145230500D01*
X192245890Y-145230500D01*
X192245892Y-145230500D01*
X192373186Y-145196392D01*
X192487314Y-145130500D01*
X192580500Y-145037314D01*
X192646392Y-144923186D01*
X192680500Y-144795892D01*
X192680500Y-144664108D01*
X192646392Y-144536814D01*
X192580500Y-144422686D01*
X192487314Y-144329500D01*
X192430250Y-144296554D01*
X192373187Y-144263608D01*
X192309539Y-144246554D01*
X192245892Y-144229500D01*
X192114108Y-144229500D01*
X191986812Y-144263608D01*
X191872686Y-144329500D01*
X191872683Y-144329502D01*
X191779502Y-144422683D01*
X191779500Y-144422686D01*
X191713608Y-144536812D01*
X191679500Y-144664108D01*
X187000000Y-144664108D01*
X187000000Y-141367648D01*
X193009500Y-141367648D01*
X193009500Y-141572351D01*
X193041522Y-141774534D01*
X193104781Y-141969223D01*
X193197715Y-142151613D01*
X193318028Y-142317213D01*
X193462786Y-142461971D01*
X193617749Y-142574556D01*
X193628390Y-142582287D01*
X193744607Y-142641503D01*
X193810776Y-142675218D01*
X193810778Y-142675218D01*
X193810781Y-142675220D01*
X193872329Y-142695218D01*
X194005465Y-142738477D01*
X194106557Y-142754488D01*
X194207648Y-142770500D01*
X194207649Y-142770500D01*
X194412351Y-142770500D01*
X194412352Y-142770500D01*
X194614534Y-142738477D01*
X194809219Y-142675220D01*
X194991610Y-142582287D01*
X195084590Y-142514732D01*
X195157213Y-142461971D01*
X195157215Y-142461968D01*
X195157219Y-142461966D01*
X195301966Y-142317219D01*
X195301968Y-142317215D01*
X195301971Y-142317213D01*
X195354732Y-142244590D01*
X195422287Y-142151610D01*
X195515220Y-141969219D01*
X195578477Y-141774534D01*
X195610500Y-141572352D01*
X195610500Y-141387648D01*
X198749500Y-141387648D01*
X198749500Y-141592351D01*
X198781522Y-141794534D01*
X198844781Y-141989223D01*
X198908691Y-142114653D01*
X198927522Y-142151610D01*
X198937715Y-142171613D01*
X199058028Y-142337213D01*
X199202786Y-142481971D01*
X199340858Y-142582284D01*
X199368390Y-142602287D01*
X199484607Y-142661503D01*
X199550776Y-142695218D01*
X199550778Y-142695218D01*
X199550781Y-142695220D01*
X199655137Y-142729127D01*
X199745465Y-142758477D01*
X199821375Y-142770500D01*
X199947648Y-142790500D01*
X199947649Y-142790500D01*
X200152351Y-142790500D01*
X200152352Y-142790500D01*
X200354534Y-142758477D01*
X200549219Y-142695220D01*
X200731610Y-142602287D01*
X200824590Y-142534732D01*
X200897213Y-142481971D01*
X200897215Y-142481968D01*
X200897219Y-142481966D01*
X201041966Y-142337219D01*
X201041968Y-142337215D01*
X201041971Y-142337213D01*
X201094732Y-142264590D01*
X201162287Y-142171610D01*
X201255220Y-141989219D01*
X201318477Y-141794534D01*
X201350500Y-141592352D01*
X201350500Y-141387648D01*
X201318477Y-141185466D01*
X201311978Y-141165465D01*
X201255218Y-140990776D01*
X201221503Y-140924607D01*
X201162287Y-140808390D01*
X201147753Y-140788386D01*
X201041971Y-140642786D01*
X200897213Y-140498028D01*
X200731613Y-140377715D01*
X200731612Y-140377714D01*
X200731610Y-140377713D01*
X200674653Y-140348691D01*
X200549223Y-140284781D01*
X200354534Y-140221522D01*
X200179995Y-140193878D01*
X200152352Y-140189500D01*
X199947648Y-140189500D01*
X199923329Y-140193351D01*
X199745465Y-140221522D01*
X199550776Y-140284781D01*
X199368386Y-140377715D01*
X199202786Y-140498028D01*
X199058028Y-140642786D01*
X198937715Y-140808386D01*
X198844781Y-140990776D01*
X198781522Y-141185465D01*
X198749500Y-141387648D01*
X195610500Y-141387648D01*
X195610500Y-141367648D01*
X195578477Y-141165466D01*
X195515220Y-140970781D01*
X195515218Y-140970778D01*
X195515218Y-140970776D01*
X195467123Y-140876386D01*
X195422287Y-140788390D01*
X195414556Y-140777749D01*
X195301971Y-140622786D01*
X195157213Y-140478028D01*
X194991613Y-140357715D01*
X194991612Y-140357714D01*
X194991610Y-140357713D01*
X194934653Y-140328691D01*
X194809223Y-140264781D01*
X194614534Y-140201522D01*
X194439995Y-140173878D01*
X194412352Y-140169500D01*
X194207648Y-140169500D01*
X194183329Y-140173351D01*
X194005465Y-140201522D01*
X193810776Y-140264781D01*
X193628386Y-140357715D01*
X193462786Y-140478028D01*
X193318028Y-140622786D01*
X193197715Y-140788386D01*
X193104781Y-140970776D01*
X193041522Y-141165465D01*
X193009500Y-141367648D01*
X187000000Y-141367648D01*
X187000000Y-141000000D01*
X162114050Y-141000000D01*
X162047011Y-140980315D01*
X162001256Y-140927511D01*
X161990051Y-140876386D01*
X161983740Y-138850499D01*
X161981975Y-138284108D01*
X217489500Y-138284108D01*
X217489500Y-138415891D01*
X217523608Y-138543187D01*
X217556554Y-138600250D01*
X217589500Y-138657314D01*
X217682686Y-138750500D01*
X217796814Y-138816392D01*
X217924108Y-138850500D01*
X217924110Y-138850500D01*
X218055890Y-138850500D01*
X218055892Y-138850500D01*
X218183186Y-138816392D01*
X218297314Y-138750500D01*
X218390500Y-138657314D01*
X218456392Y-138543186D01*
X218490500Y-138415892D01*
X218490500Y-138284108D01*
X218456392Y-138156814D01*
X218390500Y-138042686D01*
X218297314Y-137949500D01*
X218252051Y-137923367D01*
X218252050Y-137923366D01*
X218183189Y-137883609D01*
X218183186Y-137883608D01*
X218055892Y-137849500D01*
X217924108Y-137849500D01*
X217796812Y-137883608D01*
X217682686Y-137949500D01*
X217682683Y-137949502D01*
X217589502Y-138042683D01*
X217589500Y-138042686D01*
X217523608Y-138156812D01*
X217489500Y-138284108D01*
X161981975Y-138284108D01*
X161980542Y-137824108D01*
X226739500Y-137824108D01*
X226739500Y-137955891D01*
X226773608Y-138083187D01*
X226806554Y-138140250D01*
X226839500Y-138197314D01*
X226932686Y-138290500D01*
X227046814Y-138356392D01*
X227174108Y-138390500D01*
X227174110Y-138390500D01*
X227305890Y-138390500D01*
X227305892Y-138390500D01*
X227433186Y-138356392D01*
X227547314Y-138290500D01*
X227640500Y-138197314D01*
X227706392Y-138083186D01*
X227740500Y-137955892D01*
X227740500Y-137824108D01*
X227706392Y-137696814D01*
X227640500Y-137582686D01*
X227547314Y-137489500D01*
X227490250Y-137456554D01*
X227433187Y-137423608D01*
X227369539Y-137406554D01*
X227305892Y-137389500D01*
X227174108Y-137389500D01*
X227046812Y-137423608D01*
X226932686Y-137489500D01*
X226932683Y-137489502D01*
X226839502Y-137582683D01*
X226839500Y-137582686D01*
X226773608Y-137696812D01*
X226739500Y-137824108D01*
X161980542Y-137824108D01*
X161980000Y-137650000D01*
X161979999Y-137649999D01*
X154736687Y-137686955D01*
X154669548Y-137667613D01*
X154623524Y-137615043D01*
X154613539Y-137582088D01*
X154588791Y-137423608D01*
X154393674Y-136174108D01*
X225159500Y-136174108D01*
X225159500Y-136305891D01*
X225193608Y-136433187D01*
X225226554Y-136490250D01*
X225259500Y-136547314D01*
X225352686Y-136640500D01*
X225466814Y-136706392D01*
X225594108Y-136740500D01*
X225594110Y-136740500D01*
X225725890Y-136740500D01*
X225725892Y-136740500D01*
X225853186Y-136706392D01*
X225967314Y-136640500D01*
X226060500Y-136547314D01*
X226126392Y-136433186D01*
X226160500Y-136305892D01*
X226160500Y-136174108D01*
X226126392Y-136046814D01*
X226060500Y-135932686D01*
X225967314Y-135839500D01*
X225910250Y-135806554D01*
X225853187Y-135773608D01*
X225789539Y-135756554D01*
X225725892Y-135739500D01*
X225594108Y-135739500D01*
X225466812Y-135773608D01*
X225352686Y-135839500D01*
X225352683Y-135839502D01*
X225259502Y-135932683D01*
X225259500Y-135932686D01*
X225193608Y-136046812D01*
X225159500Y-136174108D01*
X154393674Y-136174108D01*
X154373796Y-136046812D01*
X154241575Y-135200086D01*
X154240095Y-135179798D01*
X154241114Y-135070497D01*
X154265165Y-132491305D01*
X154269274Y-132476251D01*
X154268697Y-132464108D01*
X155329500Y-132464108D01*
X155329500Y-132595892D01*
X155346554Y-132659539D01*
X155363608Y-132723187D01*
X155396554Y-132780250D01*
X155429500Y-132837314D01*
X155522686Y-132930500D01*
X155636814Y-132996392D01*
X155764108Y-133030500D01*
X155764110Y-133030500D01*
X155895890Y-133030500D01*
X155895892Y-133030500D01*
X156023186Y-132996392D01*
X156137314Y-132930500D01*
X156230500Y-132837314D01*
X156296392Y-132723186D01*
X156330500Y-132595892D01*
X156330500Y-132464108D01*
X156296392Y-132336814D01*
X156230500Y-132222686D01*
X156137314Y-132129500D01*
X156057827Y-132083608D01*
X156023187Y-132063608D01*
X155959539Y-132046554D01*
X155895892Y-132029500D01*
X155764108Y-132029500D01*
X155636812Y-132063608D01*
X155522686Y-132129500D01*
X155522683Y-132129502D01*
X155429502Y-132222683D01*
X155429500Y-132222686D01*
X155363608Y-132336812D01*
X155336606Y-132437587D01*
X155329500Y-132464108D01*
X154268697Y-132464108D01*
X154268655Y-132463231D01*
X154281768Y-132430475D01*
X154326392Y-132353186D01*
X154360500Y-132225892D01*
X154360500Y-132094108D01*
X154326392Y-131966814D01*
X154287874Y-131900100D01*
X154283694Y-131884203D01*
X154275965Y-131871926D01*
X154271267Y-131836950D01*
X154271516Y-131810309D01*
X154288122Y-131749469D01*
X154326392Y-131683186D01*
X154360500Y-131555892D01*
X154360500Y-131424108D01*
X154326392Y-131296814D01*
X154319198Y-131284354D01*
X154294024Y-131240751D01*
X154289843Y-131224855D01*
X154282112Y-131212574D01*
X154277416Y-131177601D01*
X154278397Y-131072373D01*
X155327950Y-131072373D01*
X155327950Y-131204157D01*
X155333496Y-131224855D01*
X155362058Y-131331452D01*
X155395004Y-131388515D01*
X155427950Y-131445579D01*
X155521136Y-131538765D01*
X155635264Y-131604657D01*
X155762558Y-131638765D01*
X155762560Y-131638765D01*
X155894340Y-131638765D01*
X155894342Y-131638765D01*
X156021636Y-131604657D01*
X156135764Y-131538765D01*
X156228950Y-131445579D01*
X156294842Y-131331451D01*
X156328950Y-131204157D01*
X156328950Y-131072373D01*
X156294842Y-130945079D01*
X156228950Y-130830951D01*
X156135764Y-130737765D01*
X156056144Y-130691796D01*
X156021637Y-130671873D01*
X155957989Y-130654819D01*
X155894342Y-130637765D01*
X155762558Y-130637765D01*
X155635262Y-130671873D01*
X155521136Y-130737765D01*
X155521133Y-130737767D01*
X155427952Y-130830948D01*
X155427950Y-130830951D01*
X155362058Y-130945077D01*
X155333226Y-131052683D01*
X155327950Y-131072373D01*
X154278397Y-131072373D01*
X154299169Y-128844842D01*
X154319478Y-128777991D01*
X154372707Y-128732730D01*
X154423164Y-128722000D01*
X155318653Y-128722000D01*
X155385692Y-128741685D01*
X155426037Y-128783996D01*
X155439500Y-128807314D01*
X155532686Y-128900500D01*
X155646814Y-128966392D01*
X155774108Y-129000500D01*
X155774110Y-129000500D01*
X155905890Y-129000500D01*
X155905892Y-129000500D01*
X156033186Y-128966392D01*
X156147314Y-128900500D01*
X156240500Y-128807314D01*
X156253962Y-128783996D01*
X156304528Y-128735784D01*
X156361347Y-128722000D01*
X156678897Y-128722000D01*
X156745936Y-128741685D01*
X156791691Y-128794489D01*
X156802877Y-128848201D01*
X156689999Y-135207500D01*
X156690000Y-135207499D01*
X156690000Y-135207500D01*
X162170000Y-135190000D01*
X162205495Y-132484108D01*
X189779500Y-132484108D01*
X189779500Y-132615892D01*
X189791453Y-132660500D01*
X189813608Y-132743187D01*
X189846554Y-132800250D01*
X189879500Y-132857314D01*
X189972686Y-132950500D01*
X190052173Y-132996392D01*
X190055627Y-132998386D01*
X190103843Y-133048953D01*
X190117066Y-133117560D01*
X190091098Y-133182425D01*
X190055628Y-133213159D01*
X189992692Y-133249496D01*
X189992683Y-133249502D01*
X189899502Y-133342683D01*
X189899500Y-133342686D01*
X189833608Y-133456812D01*
X189824864Y-133489446D01*
X189799500Y-133584108D01*
X189799500Y-133715892D01*
X189816554Y-133779539D01*
X189833608Y-133843187D01*
X189850929Y-133873187D01*
X189899500Y-133957314D01*
X189992686Y-134050500D01*
X190106814Y-134116392D01*
X190234108Y-134150500D01*
X190234110Y-134150500D01*
X190365890Y-134150500D01*
X190365892Y-134150500D01*
X190493186Y-134116392D01*
X190607314Y-134050500D01*
X190700500Y-133957314D01*
X190766392Y-133843186D01*
X190800500Y-133715892D01*
X190800500Y-133612184D01*
X190820185Y-133545145D01*
X190872989Y-133499390D01*
X190942147Y-133489446D01*
X190956580Y-133492406D01*
X191024108Y-133510500D01*
X191024111Y-133510500D01*
X191155889Y-133510500D01*
X191155892Y-133510500D01*
X191243409Y-133487050D01*
X191313256Y-133488713D01*
X191371119Y-133527875D01*
X191398623Y-133592104D01*
X191399500Y-133606825D01*
X191399500Y-133745891D01*
X191433608Y-133873187D01*
X191466554Y-133930250D01*
X191499500Y-133987314D01*
X191592686Y-134080500D01*
X191706814Y-134146392D01*
X191834108Y-134180500D01*
X191834110Y-134180500D01*
X191965890Y-134180500D01*
X191965892Y-134180500D01*
X192093186Y-134146392D01*
X192207314Y-134080500D01*
X192300500Y-133987314D01*
X192366392Y-133873186D01*
X192400500Y-133745892D01*
X192400500Y-133694108D01*
X225229500Y-133694108D01*
X225229500Y-133825891D01*
X225263608Y-133953187D01*
X225265991Y-133957314D01*
X225329500Y-134067314D01*
X225329502Y-134067316D01*
X225341769Y-134079583D01*
X225375254Y-134140906D01*
X225370270Y-134210598D01*
X225361475Y-134229264D01*
X225293609Y-134346810D01*
X225293609Y-134346811D01*
X225293608Y-134346813D01*
X225293608Y-134346814D01*
X225282575Y-134387990D01*
X225259500Y-134474108D01*
X225259500Y-134605891D01*
X225293608Y-134733187D01*
X225295170Y-134735892D01*
X225359500Y-134847314D01*
X225452686Y-134940500D01*
X225566814Y-135006392D01*
X225694108Y-135040500D01*
X225694110Y-135040500D01*
X225825890Y-135040500D01*
X225825892Y-135040500D01*
X225953186Y-135006392D01*
X226067314Y-134940500D01*
X226160500Y-134847314D01*
X226209941Y-134761680D01*
X226260508Y-134713464D01*
X226329115Y-134700242D01*
X226393980Y-134726210D01*
X226434508Y-134783124D01*
X226437103Y-134791587D01*
X226453608Y-134853187D01*
X226459382Y-134863187D01*
X226519500Y-134967314D01*
X226612686Y-135060500D01*
X226726814Y-135126392D01*
X226854108Y-135160500D01*
X226854110Y-135160500D01*
X226985890Y-135160500D01*
X226985892Y-135160500D01*
X227113186Y-135126392D01*
X227227314Y-135060500D01*
X227312319Y-134975495D01*
X227373642Y-134942010D01*
X227443334Y-134946994D01*
X227487681Y-134975495D01*
X227489499Y-134977313D01*
X227489500Y-134977314D01*
X227582686Y-135070500D01*
X227696814Y-135136392D01*
X227824108Y-135170500D01*
X227824110Y-135170500D01*
X227955890Y-135170500D01*
X227955892Y-135170500D01*
X228083186Y-135136392D01*
X228197314Y-135070500D01*
X228290500Y-134977314D01*
X228356392Y-134863186D01*
X228390500Y-134735892D01*
X228390500Y-134604108D01*
X228356392Y-134476814D01*
X228350618Y-134466814D01*
X228334168Y-134438321D01*
X228290500Y-134362686D01*
X228197314Y-134269500D01*
X228140250Y-134236554D01*
X228083187Y-134203608D01*
X227996941Y-134180499D01*
X227955892Y-134169500D01*
X227824108Y-134169500D01*
X227696812Y-134203608D01*
X227582686Y-134269500D01*
X227582683Y-134269502D01*
X227497681Y-134354505D01*
X227436358Y-134387990D01*
X227366666Y-134383006D01*
X227322319Y-134354505D01*
X227227316Y-134259502D01*
X227227314Y-134259500D01*
X227159619Y-134220416D01*
X227113187Y-134193608D01*
X227049539Y-134176554D01*
X226985892Y-134159500D01*
X226854108Y-134159500D01*
X226726812Y-134193608D01*
X226612686Y-134259500D01*
X226612683Y-134259502D01*
X226519502Y-134352683D01*
X226519498Y-134352689D01*
X226470057Y-134438321D01*
X226419489Y-134486535D01*
X226350882Y-134499757D01*
X226286018Y-134473788D01*
X226245490Y-134416874D01*
X226242901Y-134408429D01*
X226226392Y-134346814D01*
X226160500Y-134232686D01*
X226148230Y-134220416D01*
X226114745Y-134159093D01*
X226119729Y-134089401D01*
X226128524Y-134070734D01*
X226130496Y-134067317D01*
X226130500Y-134067314D01*
X226196392Y-133953186D01*
X226230500Y-133825892D01*
X226230500Y-133694108D01*
X226196392Y-133566814D01*
X226130500Y-133452686D01*
X226037314Y-133359500D01*
X225964246Y-133317314D01*
X225923187Y-133293608D01*
X225846264Y-133272997D01*
X225795892Y-133259500D01*
X225664108Y-133259500D01*
X225536812Y-133293608D01*
X225422686Y-133359500D01*
X225422683Y-133359502D01*
X225329502Y-133452683D01*
X225329500Y-133452686D01*
X225263608Y-133566812D01*
X225229500Y-133694108D01*
X192400500Y-133694108D01*
X192400500Y-133614108D01*
X192366392Y-133486814D01*
X192300500Y-133372686D01*
X192207314Y-133279500D01*
X192141421Y-133241456D01*
X192093185Y-133213607D01*
X192085682Y-133210500D01*
X192086715Y-133208005D01*
X192038377Y-133178525D01*
X192007863Y-133115671D01*
X192016175Y-133046298D01*
X192060673Y-132992431D01*
X192068144Y-132987755D01*
X192167314Y-132930500D01*
X192260500Y-132837314D01*
X192278228Y-132806608D01*
X207812000Y-132806608D01*
X207812000Y-132938392D01*
X207815245Y-132950501D01*
X207846108Y-133065687D01*
X207879054Y-133122750D01*
X207912000Y-133179814D01*
X208005186Y-133273000D01*
X208119314Y-133338892D01*
X208246608Y-133373000D01*
X208246610Y-133373000D01*
X208378390Y-133373000D01*
X208378392Y-133373000D01*
X208505686Y-133338892D01*
X208619814Y-133273000D01*
X208713000Y-133179814D01*
X208778892Y-133065686D01*
X208813000Y-132938392D01*
X208813000Y-132806608D01*
X208778892Y-132679314D01*
X208713000Y-132565186D01*
X208619814Y-132472000D01*
X208560209Y-132437587D01*
X208505687Y-132406108D01*
X208442039Y-132389054D01*
X208378392Y-132372000D01*
X208246608Y-132372000D01*
X208119312Y-132406108D01*
X208005186Y-132472000D01*
X208005183Y-132472002D01*
X207912002Y-132565183D01*
X207912000Y-132565186D01*
X207846108Y-132679312D01*
X207828993Y-132743187D01*
X207812000Y-132806608D01*
X192278228Y-132806608D01*
X192309049Y-132753224D01*
X192318717Y-132736480D01*
X192318717Y-132736479D01*
X192326391Y-132723188D01*
X192326392Y-132723186D01*
X192360500Y-132595892D01*
X192360500Y-132464108D01*
X192326392Y-132336814D01*
X192260500Y-132222686D01*
X192167314Y-132129500D01*
X192087410Y-132083367D01*
X192087409Y-132083366D01*
X192053188Y-132063609D01*
X192053187Y-132063608D01*
X192053186Y-132063608D01*
X191925892Y-132029500D01*
X191794108Y-132029500D01*
X191666812Y-132063608D01*
X191552686Y-132129500D01*
X191552683Y-132129502D01*
X191459502Y-132222683D01*
X191459500Y-132222686D01*
X191393608Y-132336814D01*
X191388115Y-132357314D01*
X191366606Y-132437587D01*
X191330240Y-132497247D01*
X191267393Y-132527776D01*
X191214739Y-132525268D01*
X191155892Y-132509500D01*
X191024108Y-132509500D01*
X191024106Y-132509500D01*
X190922939Y-132536607D01*
X190853089Y-132534944D01*
X190795227Y-132495781D01*
X190771073Y-132448928D01*
X190746392Y-132356814D01*
X190680500Y-132242686D01*
X190587314Y-132149500D01*
X190506225Y-132102683D01*
X190473187Y-132083608D01*
X190398544Y-132063608D01*
X190345892Y-132049500D01*
X190214108Y-132049500D01*
X190086812Y-132083608D01*
X189972686Y-132149500D01*
X189972683Y-132149502D01*
X189879502Y-132242683D01*
X189879500Y-132242686D01*
X189813608Y-132356812D01*
X189803650Y-132393977D01*
X189779500Y-132484108D01*
X162205495Y-132484108D01*
X162212054Y-131984108D01*
X217409500Y-131984108D01*
X217409500Y-132115891D01*
X217443608Y-132243187D01*
X217461386Y-132273978D01*
X217509500Y-132357314D01*
X217602686Y-132450500D01*
X217716814Y-132516392D01*
X217844108Y-132550500D01*
X217844110Y-132550500D01*
X217975890Y-132550500D01*
X217975892Y-132550500D01*
X218103186Y-132516392D01*
X218217314Y-132450500D01*
X218310500Y-132357314D01*
X218318125Y-132344108D01*
X222989500Y-132344108D01*
X222989500Y-132475892D01*
X222993630Y-132491305D01*
X223023608Y-132603187D01*
X223037006Y-132626392D01*
X223089500Y-132717314D01*
X223182686Y-132810500D01*
X223296814Y-132876392D01*
X223424108Y-132910500D01*
X223424110Y-132910500D01*
X223555890Y-132910500D01*
X223555892Y-132910500D01*
X223683186Y-132876392D01*
X223797314Y-132810500D01*
X223890500Y-132717314D01*
X223956392Y-132603186D01*
X223990500Y-132475892D01*
X223990500Y-132344108D01*
X223956392Y-132216814D01*
X223890500Y-132102686D01*
X223797314Y-132009500D01*
X223723375Y-131966811D01*
X223683187Y-131943608D01*
X223619539Y-131926554D01*
X223555892Y-131909500D01*
X223424108Y-131909500D01*
X223296812Y-131943608D01*
X223182686Y-132009500D01*
X223182683Y-132009502D01*
X223089502Y-132102683D01*
X223089500Y-132102686D01*
X223023608Y-132216812D01*
X222991455Y-132336812D01*
X222989500Y-132344108D01*
X218318125Y-132344108D01*
X218376392Y-132243186D01*
X218410500Y-132115892D01*
X218410500Y-131984108D01*
X218376392Y-131856814D01*
X218310500Y-131742686D01*
X218217314Y-131649500D01*
X218139642Y-131604656D01*
X218103187Y-131583608D01*
X217999747Y-131555892D01*
X217975892Y-131549500D01*
X217844108Y-131549500D01*
X217716812Y-131583608D01*
X217602686Y-131649500D01*
X217602683Y-131649502D01*
X217509502Y-131742683D01*
X217509500Y-131742686D01*
X217443608Y-131856812D01*
X217409500Y-131984108D01*
X162212054Y-131984108D01*
X162216472Y-131647316D01*
X162221106Y-131294108D01*
X226539500Y-131294108D01*
X226539500Y-131425891D01*
X226573608Y-131553187D01*
X226575170Y-131555892D01*
X226639500Y-131667314D01*
X226732686Y-131760500D01*
X226846814Y-131826392D01*
X226974108Y-131860500D01*
X226974110Y-131860500D01*
X227105890Y-131860500D01*
X227105892Y-131860500D01*
X227233186Y-131826392D01*
X227347314Y-131760500D01*
X227437319Y-131670495D01*
X227498642Y-131637010D01*
X227568334Y-131641994D01*
X227612681Y-131670495D01*
X227682686Y-131740500D01*
X227796814Y-131806392D01*
X227924108Y-131840500D01*
X227924110Y-131840500D01*
X228055890Y-131840500D01*
X228055892Y-131840500D01*
X228183186Y-131806392D01*
X228297314Y-131740500D01*
X228390500Y-131647314D01*
X228456392Y-131533186D01*
X228490500Y-131405892D01*
X228490500Y-131274108D01*
X228456392Y-131146814D01*
X228390500Y-131032686D01*
X228297314Y-130939500D01*
X228206929Y-130887316D01*
X228183187Y-130873608D01*
X228119539Y-130856554D01*
X228055892Y-130839500D01*
X227924108Y-130839500D01*
X227796812Y-130873608D01*
X227682686Y-130939500D01*
X227682683Y-130939502D01*
X227592681Y-131029505D01*
X227531358Y-131062990D01*
X227461666Y-131058006D01*
X227417319Y-131029505D01*
X227347316Y-130959502D01*
X227347314Y-130959500D01*
X227290250Y-130926554D01*
X227233187Y-130893608D01*
X227158544Y-130873608D01*
X227105892Y-130859500D01*
X226974108Y-130859500D01*
X226846812Y-130893608D01*
X226732686Y-130959500D01*
X226732683Y-130959502D01*
X226639502Y-131052683D01*
X226639500Y-131052686D01*
X226573608Y-131166812D01*
X226539500Y-131294108D01*
X162221106Y-131294108D01*
X162221234Y-131284354D01*
X162221234Y-131284353D01*
X162228373Y-130740110D01*
X159791473Y-130704285D01*
X159784046Y-130701985D01*
X159776358Y-130703136D01*
X159751144Y-130691796D01*
X159724730Y-130683617D01*
X159719724Y-130677666D01*
X159712636Y-130674478D01*
X159697556Y-130651308D01*
X159679757Y-130630146D01*
X159677800Y-130620954D01*
X159674523Y-130615919D01*
X159669298Y-130581019D01*
X159668912Y-130514108D01*
X184139500Y-130514108D01*
X184139500Y-130645891D01*
X184173608Y-130773187D01*
X184206554Y-130830250D01*
X184239500Y-130887314D01*
X184332686Y-130980500D01*
X184446814Y-131046392D01*
X184574108Y-131080500D01*
X184574110Y-131080500D01*
X184705890Y-131080500D01*
X184705892Y-131080500D01*
X184833186Y-131046392D01*
X184947314Y-130980500D01*
X185040500Y-130887314D01*
X185106392Y-130773186D01*
X185140500Y-130645892D01*
X185140500Y-130514108D01*
X185106392Y-130386814D01*
X185040500Y-130272686D01*
X184947314Y-130179500D01*
X184890250Y-130146554D01*
X184833187Y-130113608D01*
X184769539Y-130096554D01*
X184705892Y-130079500D01*
X184574108Y-130079500D01*
X184446812Y-130113608D01*
X184332686Y-130179500D01*
X184332683Y-130179502D01*
X184239502Y-130272683D01*
X184239500Y-130272686D01*
X184173608Y-130386812D01*
X184139500Y-130514108D01*
X159668912Y-130514108D01*
X159660719Y-129094707D01*
X159680016Y-129027558D01*
X159732555Y-128981499D01*
X159784708Y-128969994D01*
X162251594Y-128969890D01*
X162254846Y-128722000D01*
X162272658Y-127364108D01*
X225059500Y-127364108D01*
X225059500Y-127495891D01*
X225093608Y-127623187D01*
X225126554Y-127680250D01*
X225159500Y-127737314D01*
X225252686Y-127830500D01*
X225366814Y-127896392D01*
X225494108Y-127930500D01*
X225494110Y-127930500D01*
X225625890Y-127930500D01*
X225625892Y-127930500D01*
X225753186Y-127896392D01*
X225867314Y-127830500D01*
X225877319Y-127820495D01*
X225938642Y-127787010D01*
X226008334Y-127791994D01*
X226052681Y-127820495D01*
X226062686Y-127830500D01*
X226176814Y-127896392D01*
X226304108Y-127930500D01*
X226304110Y-127930500D01*
X226435890Y-127930500D01*
X226435892Y-127930500D01*
X226563186Y-127896392D01*
X226677314Y-127830500D01*
X226770500Y-127737314D01*
X226836392Y-127623186D01*
X226870500Y-127495892D01*
X226870500Y-127364108D01*
X226836392Y-127236814D01*
X226770500Y-127122686D01*
X226755495Y-127107681D01*
X226722010Y-127046358D01*
X226726994Y-126976666D01*
X226755495Y-126932319D01*
X226774054Y-126913760D01*
X226800500Y-126887314D01*
X226866392Y-126773186D01*
X226900500Y-126645892D01*
X226900500Y-126514108D01*
X226866392Y-126386814D01*
X226800500Y-126272686D01*
X226707314Y-126179500D01*
X226627827Y-126133608D01*
X226593187Y-126113608D01*
X226529539Y-126096554D01*
X226465892Y-126079500D01*
X226334108Y-126079500D01*
X226206812Y-126113608D01*
X226092686Y-126179500D01*
X226092683Y-126179502D01*
X226077681Y-126194505D01*
X226016358Y-126227990D01*
X225946666Y-126223006D01*
X225915090Y-126202713D01*
X225913760Y-126204447D01*
X225907316Y-126199502D01*
X225907314Y-126199500D01*
X225838032Y-126159500D01*
X225793187Y-126133608D01*
X225718544Y-126113608D01*
X225665892Y-126099500D01*
X225534108Y-126099500D01*
X225406812Y-126133608D01*
X225292686Y-126199500D01*
X225292683Y-126199502D01*
X225199502Y-126292683D01*
X225199500Y-126292686D01*
X225133608Y-126406812D01*
X225099500Y-126534108D01*
X225099500Y-126665891D01*
X225133608Y-126793187D01*
X225164037Y-126845890D01*
X225199500Y-126907314D01*
X225199503Y-126907317D01*
X225204447Y-126913760D01*
X225203442Y-126914530D01*
X225232989Y-126968641D01*
X225228005Y-127038333D01*
X225199506Y-127082678D01*
X225159503Y-127122682D01*
X225159500Y-127122686D01*
X225093608Y-127236812D01*
X225059500Y-127364108D01*
X162272658Y-127364108D01*
X162281185Y-126714108D01*
X183239500Y-126714108D01*
X183239500Y-126845892D01*
X183252730Y-126895268D01*
X183273608Y-126973187D01*
X183291082Y-127003452D01*
X183339500Y-127087314D01*
X183432686Y-127180500D01*
X183530221Y-127236812D01*
X183546810Y-127246390D01*
X183546814Y-127246392D01*
X183674108Y-127280500D01*
X183674110Y-127280500D01*
X183805890Y-127280500D01*
X183805892Y-127280500D01*
X183933186Y-127246392D01*
X184047314Y-127180500D01*
X184140500Y-127087314D01*
X184206392Y-126973186D01*
X184240500Y-126845892D01*
X184240500Y-126714108D01*
X184206392Y-126586814D01*
X184140500Y-126472686D01*
X184047314Y-126379500D01*
X183967827Y-126333608D01*
X183933187Y-126313608D01*
X183855092Y-126292683D01*
X183805892Y-126279500D01*
X183674108Y-126279500D01*
X183546812Y-126313608D01*
X183432686Y-126379500D01*
X183432683Y-126379502D01*
X183339502Y-126472683D01*
X183339500Y-126472686D01*
X183273608Y-126586812D01*
X183252419Y-126665892D01*
X183239500Y-126714108D01*
X162281185Y-126714108D01*
X162281313Y-126704355D01*
X162303670Y-125000000D01*
X162323592Y-123481252D01*
X162344154Y-123414478D01*
X162372102Y-123384498D01*
X162377306Y-123380504D01*
X162377314Y-123380500D01*
X162470500Y-123287314D01*
X162524313Y-123194108D01*
X166019500Y-123194108D01*
X166019500Y-123325891D01*
X166053608Y-123453187D01*
X166069812Y-123481252D01*
X166119500Y-123567314D01*
X166212686Y-123660500D01*
X166326814Y-123726392D01*
X166454108Y-123760500D01*
X166454110Y-123760500D01*
X166585890Y-123760500D01*
X166585892Y-123760500D01*
X166713186Y-123726392D01*
X166827314Y-123660500D01*
X166920500Y-123567314D01*
X166986392Y-123453186D01*
X167020500Y-123325892D01*
X167020500Y-123194108D01*
X166986392Y-123066814D01*
X166959653Y-123020500D01*
X166951467Y-123006321D01*
X166934994Y-122938421D01*
X166957847Y-122872394D01*
X166969484Y-122858636D01*
X166970492Y-122857321D01*
X166970500Y-122857314D01*
X167036392Y-122743186D01*
X167070500Y-122615892D01*
X167070500Y-122554108D01*
X179819500Y-122554108D01*
X179819500Y-122685891D01*
X179853608Y-122813187D01*
X179865155Y-122833186D01*
X179919500Y-122927314D01*
X180012686Y-123020500D01*
X180126814Y-123086392D01*
X180254108Y-123120500D01*
X180254110Y-123120500D01*
X180385890Y-123120500D01*
X180385892Y-123120500D01*
X180513186Y-123086392D01*
X180627314Y-123020500D01*
X180720500Y-122927314D01*
X180786392Y-122813186D01*
X180820500Y-122685892D01*
X180820500Y-122554108D01*
X180786392Y-122426814D01*
X180720500Y-122312686D01*
X180627314Y-122219500D01*
X180538869Y-122168436D01*
X180513187Y-122153608D01*
X180449539Y-122136554D01*
X180385892Y-122119500D01*
X180254108Y-122119500D01*
X180126812Y-122153608D01*
X180012686Y-122219500D01*
X180012683Y-122219502D01*
X179919502Y-122312683D01*
X179919500Y-122312686D01*
X179853608Y-122426812D01*
X179819500Y-122554108D01*
X167070500Y-122554108D01*
X167070500Y-122484108D01*
X167036392Y-122356814D01*
X166970500Y-122242686D01*
X166877314Y-122149500D01*
X166797827Y-122103608D01*
X166763187Y-122083608D01*
X166699539Y-122066554D01*
X166635892Y-122049500D01*
X166504108Y-122049500D01*
X166376812Y-122083608D01*
X166262686Y-122149500D01*
X166262683Y-122149502D01*
X166169502Y-122242683D01*
X166169500Y-122242686D01*
X166103608Y-122356812D01*
X166079493Y-122446814D01*
X166069500Y-122484108D01*
X166069500Y-122615892D01*
X166093615Y-122705892D01*
X166103609Y-122743188D01*
X166103610Y-122743193D01*
X166138532Y-122803679D01*
X166155005Y-122871579D01*
X166132152Y-122937606D01*
X166120510Y-122951370D01*
X166119500Y-122952686D01*
X166053608Y-123066812D01*
X166019500Y-123194108D01*
X162524313Y-123194108D01*
X162536392Y-123173186D01*
X162570500Y-123045892D01*
X162570500Y-122914108D01*
X162536392Y-122786814D01*
X162470500Y-122672686D01*
X162377314Y-122579500D01*
X162372957Y-122575143D01*
X162339472Y-122513820D01*
X162336650Y-122485846D01*
X162357931Y-120863474D01*
X162363895Y-120844108D01*
X163449500Y-120844108D01*
X163449500Y-120975891D01*
X163483608Y-121103187D01*
X163516554Y-121160250D01*
X163549500Y-121217314D01*
X163642686Y-121310500D01*
X163756814Y-121376392D01*
X163884108Y-121410500D01*
X163884110Y-121410500D01*
X164015890Y-121410500D01*
X164015892Y-121410500D01*
X164143186Y-121376392D01*
X164257314Y-121310500D01*
X164350500Y-121217314D01*
X164416392Y-121103186D01*
X164450500Y-120975892D01*
X164450500Y-120844108D01*
X164416392Y-120716814D01*
X164350500Y-120602686D01*
X164257314Y-120509500D01*
X164177096Y-120463186D01*
X164143187Y-120443608D01*
X164079539Y-120426554D01*
X164015892Y-120409500D01*
X163884108Y-120409500D01*
X163756812Y-120443608D01*
X163642686Y-120509500D01*
X163642683Y-120509502D01*
X163549502Y-120602683D01*
X163549500Y-120602686D01*
X163483608Y-120716812D01*
X163449500Y-120844108D01*
X162363895Y-120844108D01*
X162364116Y-120843391D01*
X162365499Y-120822418D01*
X162374192Y-120810669D01*
X162378493Y-120796702D01*
X162394556Y-120783147D01*
X162407058Y-120766252D01*
X162424956Y-120757496D01*
X162431892Y-120751644D01*
X162437940Y-120749165D01*
X162443769Y-120746953D01*
X162483186Y-120736392D01*
X162597314Y-120670500D01*
X162690500Y-120577314D01*
X162756392Y-120463186D01*
X162790500Y-120335892D01*
X162790500Y-120204108D01*
X162756392Y-120076814D01*
X162690500Y-119962686D01*
X162597314Y-119869500D01*
X162573579Y-119855796D01*
X162539144Y-119835915D01*
X162539139Y-119835912D01*
X162483186Y-119803608D01*
X162454590Y-119795945D01*
X162444485Y-119791169D01*
X162426395Y-119775072D01*
X162405722Y-119762470D01*
X162400764Y-119752264D01*
X162392289Y-119744722D01*
X162389324Y-119734108D01*
X165889500Y-119734108D01*
X165889500Y-119865892D01*
X165906554Y-119929539D01*
X165923608Y-119993187D01*
X165940929Y-120023187D01*
X165989500Y-120107314D01*
X166082686Y-120200500D01*
X166196814Y-120266392D01*
X166324108Y-120300500D01*
X166324110Y-120300500D01*
X166455890Y-120300500D01*
X166455892Y-120300500D01*
X166583186Y-120266392D01*
X166697314Y-120200500D01*
X166790500Y-120107314D01*
X166856392Y-119993186D01*
X166890500Y-119865892D01*
X166890500Y-119764108D01*
X168449500Y-119764108D01*
X168449500Y-119895891D01*
X168483608Y-120023187D01*
X168514569Y-120076812D01*
X168549500Y-120137314D01*
X168642686Y-120230500D01*
X168756814Y-120296392D01*
X168884108Y-120330500D01*
X168884110Y-120330500D01*
X169015890Y-120330500D01*
X169015892Y-120330500D01*
X169143186Y-120296392D01*
X169257314Y-120230500D01*
X169350500Y-120137314D01*
X169416392Y-120023186D01*
X169450500Y-119895892D01*
X169450500Y-119764108D01*
X169416392Y-119636814D01*
X169350500Y-119522686D01*
X169257314Y-119429500D01*
X169200250Y-119396554D01*
X169143187Y-119363608D01*
X169031223Y-119333608D01*
X169015892Y-119329500D01*
X168884108Y-119329500D01*
X168756812Y-119363608D01*
X168642686Y-119429500D01*
X168642683Y-119429502D01*
X168549502Y-119522683D01*
X168549500Y-119522686D01*
X168483608Y-119636812D01*
X168449500Y-119764108D01*
X166890500Y-119764108D01*
X166890500Y-119734108D01*
X166856392Y-119606814D01*
X166790500Y-119492686D01*
X166697314Y-119399500D01*
X166635147Y-119363608D01*
X166583187Y-119333608D01*
X166519539Y-119316554D01*
X166455892Y-119299500D01*
X166324108Y-119299500D01*
X166196812Y-119333608D01*
X166082686Y-119399500D01*
X166082683Y-119399502D01*
X165989502Y-119492683D01*
X165989500Y-119492686D01*
X165923608Y-119606812D01*
X165889500Y-119734108D01*
X162389324Y-119734108D01*
X162385774Y-119721402D01*
X162375195Y-119699622D01*
X162373490Y-119677436D01*
X162374248Y-119619663D01*
X162374247Y-119619662D01*
X162374246Y-119619661D01*
X158728990Y-119677995D01*
X158661644Y-119659386D01*
X158615050Y-119607321D01*
X158603008Y-119554750D01*
X158595646Y-118314108D01*
X168439500Y-118314108D01*
X168439500Y-118445892D01*
X168447920Y-118477316D01*
X168473608Y-118573187D01*
X168495151Y-118610499D01*
X168539500Y-118687314D01*
X168632686Y-118780500D01*
X168746814Y-118846392D01*
X168874108Y-118880500D01*
X168874110Y-118880500D01*
X169005890Y-118880500D01*
X169005892Y-118880500D01*
X169133186Y-118846392D01*
X169247314Y-118780500D01*
X169340500Y-118687314D01*
X169406392Y-118573186D01*
X169440500Y-118445892D01*
X169440500Y-118314108D01*
X169406392Y-118186814D01*
X169389890Y-118158231D01*
X169389747Y-118157983D01*
X169389746Y-118157982D01*
X169366969Y-118118532D01*
X169358641Y-118104108D01*
X172459500Y-118104108D01*
X172459500Y-118235891D01*
X172493608Y-118363187D01*
X172526554Y-118420250D01*
X172559500Y-118477314D01*
X172652686Y-118570500D01*
X172766814Y-118636392D01*
X172894108Y-118670500D01*
X172894110Y-118670500D01*
X173025890Y-118670500D01*
X173025892Y-118670500D01*
X173153186Y-118636392D01*
X173267314Y-118570500D01*
X173272316Y-118565497D01*
X173333635Y-118532011D01*
X173403327Y-118536992D01*
X173447679Y-118565494D01*
X173492682Y-118610496D01*
X173492686Y-118610500D01*
X173606814Y-118676392D01*
X173734108Y-118710500D01*
X173734110Y-118710500D01*
X173865890Y-118710500D01*
X173865892Y-118710500D01*
X173993186Y-118676392D01*
X174107314Y-118610500D01*
X174200500Y-118517314D01*
X174266392Y-118403186D01*
X174300500Y-118275892D01*
X174300500Y-118144108D01*
X174266392Y-118016814D01*
X174200500Y-117902686D01*
X174107314Y-117809500D01*
X174033044Y-117766620D01*
X173993187Y-117743608D01*
X173929539Y-117726554D01*
X173865892Y-117709500D01*
X173734108Y-117709500D01*
X173606812Y-117743608D01*
X173492686Y-117809500D01*
X173492683Y-117809502D01*
X173487681Y-117814505D01*
X173426358Y-117847990D01*
X173356666Y-117843006D01*
X173312319Y-117814505D01*
X173267316Y-117769502D01*
X173267314Y-117769500D01*
X173210250Y-117736554D01*
X173153187Y-117703608D01*
X173089539Y-117686554D01*
X173025892Y-117669500D01*
X172894108Y-117669500D01*
X172766812Y-117703608D01*
X172652686Y-117769500D01*
X172652683Y-117769502D01*
X172559502Y-117862683D01*
X172559500Y-117862686D01*
X172493608Y-117976812D01*
X172459500Y-118104108D01*
X169358641Y-118104108D01*
X169340500Y-118072686D01*
X169247314Y-117979500D01*
X169190250Y-117946554D01*
X169133187Y-117913608D01*
X169069539Y-117896554D01*
X169005892Y-117879500D01*
X168874108Y-117879500D01*
X168746812Y-117913608D01*
X168632686Y-117979500D01*
X168632683Y-117979502D01*
X168539502Y-118072683D01*
X168539500Y-118072686D01*
X168473608Y-118186812D01*
X168455976Y-118252619D01*
X168439500Y-118314108D01*
X158595646Y-118314108D01*
X158590737Y-117486796D01*
X158610024Y-117419644D01*
X158662555Y-117373576D01*
X158714298Y-117362064D01*
X162404032Y-117349135D01*
X162404048Y-117347868D01*
X162405017Y-117274108D01*
X164029500Y-117274108D01*
X164029500Y-117405891D01*
X164063608Y-117533187D01*
X164096554Y-117590250D01*
X164129500Y-117647314D01*
X164222686Y-117740500D01*
X164336814Y-117806392D01*
X164464108Y-117840500D01*
X164464110Y-117840500D01*
X164595890Y-117840500D01*
X164595892Y-117840500D01*
X164723186Y-117806392D01*
X164837314Y-117740500D01*
X164930500Y-117647314D01*
X164996392Y-117533186D01*
X165030500Y-117405892D01*
X165030500Y-117274108D01*
X164996392Y-117146814D01*
X164930500Y-117032686D01*
X164837314Y-116939500D01*
X164780250Y-116906554D01*
X164723187Y-116873608D01*
X164659539Y-116856554D01*
X164595892Y-116839500D01*
X164464108Y-116839500D01*
X164336812Y-116873608D01*
X164222686Y-116939500D01*
X164222683Y-116939502D01*
X164129502Y-117032683D01*
X164129500Y-117032686D01*
X164063608Y-117146812D01*
X164029500Y-117274108D01*
X162405017Y-117274108D01*
X162405145Y-117264354D01*
X162405145Y-117264353D01*
X162422201Y-115964108D01*
X168479500Y-115964108D01*
X168479500Y-116095892D01*
X168496544Y-116159500D01*
X168513608Y-116223187D01*
X168530638Y-116252683D01*
X168579500Y-116337314D01*
X168672686Y-116430500D01*
X168786814Y-116496392D01*
X168914108Y-116530500D01*
X168914110Y-116530500D01*
X169045890Y-116530500D01*
X169045892Y-116530500D01*
X169069747Y-116524108D01*
X175609500Y-116524108D01*
X175609500Y-116655891D01*
X175643608Y-116783187D01*
X175676121Y-116839500D01*
X175709500Y-116897314D01*
X175802686Y-116990500D01*
X175916814Y-117056392D01*
X176044108Y-117090500D01*
X176044110Y-117090500D01*
X176175890Y-117090500D01*
X176175892Y-117090500D01*
X176303186Y-117056392D01*
X176417314Y-116990500D01*
X176497319Y-116910495D01*
X176558642Y-116877010D01*
X176628334Y-116881994D01*
X176672681Y-116910495D01*
X176722686Y-116960500D01*
X176836814Y-117026392D01*
X176964108Y-117060500D01*
X176964110Y-117060500D01*
X177095890Y-117060500D01*
X177095892Y-117060500D01*
X177223186Y-117026392D01*
X177337314Y-116960500D01*
X177430500Y-116867314D01*
X177496392Y-116753186D01*
X177530500Y-116625892D01*
X177530500Y-116494108D01*
X177496392Y-116366814D01*
X177430500Y-116252686D01*
X177337314Y-116159500D01*
X177275147Y-116123608D01*
X177223187Y-116093608D01*
X177159539Y-116076554D01*
X177095892Y-116059500D01*
X176964108Y-116059500D01*
X176836812Y-116093608D01*
X176722686Y-116159500D01*
X176722683Y-116159502D01*
X176642681Y-116239505D01*
X176581358Y-116272990D01*
X176511666Y-116268006D01*
X176467319Y-116239505D01*
X176417316Y-116189502D01*
X176417314Y-116189500D01*
X176360250Y-116156554D01*
X176303187Y-116123608D01*
X176199747Y-116095892D01*
X176175892Y-116089500D01*
X176044108Y-116089500D01*
X175916812Y-116123608D01*
X175802686Y-116189500D01*
X175802683Y-116189502D01*
X175709502Y-116282683D01*
X175709500Y-116282686D01*
X175643608Y-116396812D01*
X175609500Y-116524108D01*
X169069747Y-116524108D01*
X169173186Y-116496392D01*
X169287314Y-116430500D01*
X169380500Y-116337314D01*
X169446392Y-116223186D01*
X169480500Y-116095892D01*
X169480500Y-115964108D01*
X169446392Y-115836814D01*
X169380500Y-115722686D01*
X169378313Y-115720499D01*
X169365493Y-115707678D01*
X169332009Y-115646354D01*
X169336995Y-115576663D01*
X169365494Y-115532319D01*
X169400500Y-115497314D01*
X169466392Y-115383186D01*
X169500500Y-115255892D01*
X169500500Y-115154108D01*
X176089500Y-115154108D01*
X176089500Y-115285892D01*
X176094859Y-115305891D01*
X176123608Y-115413187D01*
X176150925Y-115460500D01*
X176189500Y-115527314D01*
X176282686Y-115620500D01*
X176396814Y-115686392D01*
X176524108Y-115720500D01*
X176524110Y-115720500D01*
X176655890Y-115720500D01*
X176655892Y-115720500D01*
X176783186Y-115686392D01*
X176897314Y-115620500D01*
X176990500Y-115527314D01*
X177056392Y-115413186D01*
X177090500Y-115285892D01*
X177090500Y-115154108D01*
X177056392Y-115026814D01*
X176990500Y-114912686D01*
X176897314Y-114819500D01*
X176817827Y-114773608D01*
X176783187Y-114753608D01*
X176671223Y-114723608D01*
X176655892Y-114719500D01*
X176524108Y-114719500D01*
X176396812Y-114753608D01*
X176282686Y-114819500D01*
X176282683Y-114819502D01*
X176189502Y-114912683D01*
X176189500Y-114912686D01*
X176123608Y-115026812D01*
X176118249Y-115046814D01*
X176089500Y-115154108D01*
X169500500Y-115154108D01*
X169500500Y-115124108D01*
X169466392Y-114996814D01*
X169400500Y-114882686D01*
X169307314Y-114789500D01*
X169220712Y-114739500D01*
X169193187Y-114723608D01*
X169129539Y-114706554D01*
X169065892Y-114689500D01*
X168934108Y-114689500D01*
X168806812Y-114723608D01*
X168692686Y-114789500D01*
X168692683Y-114789502D01*
X168599502Y-114882683D01*
X168599500Y-114882686D01*
X168533608Y-114996812D01*
X168499500Y-115124108D01*
X168499500Y-115255892D01*
X168512897Y-115305890D01*
X168533608Y-115383187D01*
X168562476Y-115433186D01*
X168599500Y-115497314D01*
X168599502Y-115497316D01*
X168614504Y-115512318D01*
X168647989Y-115573641D01*
X168643005Y-115643333D01*
X168614506Y-115687678D01*
X168579503Y-115722681D01*
X168579500Y-115722686D01*
X168513608Y-115836812D01*
X168482113Y-115954355D01*
X168479500Y-115964108D01*
X162422201Y-115964108D01*
X162422329Y-115954355D01*
X162432564Y-115174108D01*
X164089500Y-115174108D01*
X164089500Y-115305891D01*
X164123608Y-115433187D01*
X164156554Y-115490250D01*
X164189500Y-115547314D01*
X164282686Y-115640500D01*
X164396814Y-115706392D01*
X164524108Y-115740500D01*
X164524110Y-115740500D01*
X164655890Y-115740500D01*
X164655892Y-115740500D01*
X164783186Y-115706392D01*
X164897314Y-115640500D01*
X164990500Y-115547314D01*
X165056392Y-115433186D01*
X165090500Y-115305892D01*
X165090500Y-115174108D01*
X165056392Y-115046814D01*
X164990500Y-114932686D01*
X164897314Y-114839500D01*
X164840250Y-114806554D01*
X164783187Y-114773608D01*
X164708544Y-114753608D01*
X164655892Y-114739500D01*
X164524108Y-114739500D01*
X164396812Y-114773608D01*
X164282686Y-114839500D01*
X164282683Y-114839502D01*
X164189502Y-114932683D01*
X164189500Y-114932686D01*
X164123608Y-115046812D01*
X164089500Y-115174108D01*
X162432564Y-115174108D01*
X162432692Y-115164355D01*
X162460242Y-113064108D01*
X164109500Y-113064108D01*
X164109500Y-113195891D01*
X164143608Y-113323187D01*
X164146895Y-113328880D01*
X164209500Y-113437314D01*
X164302686Y-113530500D01*
X164416814Y-113596392D01*
X164544108Y-113630500D01*
X164544110Y-113630500D01*
X164675890Y-113630500D01*
X164675892Y-113630500D01*
X164803186Y-113596392D01*
X164917314Y-113530500D01*
X165010500Y-113437314D01*
X165076392Y-113323186D01*
X165110500Y-113195892D01*
X165110500Y-113064108D01*
X165076392Y-112936814D01*
X165010500Y-112822686D01*
X164917314Y-112729500D01*
X164860250Y-112696554D01*
X164803187Y-112663608D01*
X164739539Y-112646554D01*
X164675892Y-112629500D01*
X164544108Y-112629500D01*
X164416812Y-112663608D01*
X164302686Y-112729500D01*
X164302683Y-112729502D01*
X164209502Y-112822683D01*
X164209500Y-112822686D01*
X164143608Y-112936812D01*
X164109500Y-113064108D01*
X162460242Y-113064108D01*
X162460370Y-113054355D01*
X162498831Y-110122374D01*
X162519393Y-110055598D01*
X162572792Y-110010540D01*
X162622820Y-110000000D01*
X171876000Y-110000000D01*
X171943039Y-110019685D01*
G37*
%TD.AperFunction*%
%TD*%
%TA.AperFunction,Conductor*%
%TO.N,AGND*%
G36*
X134563304Y-110196206D02*
G01*
X134566602Y-110197175D01*
X134624500Y-110205500D01*
X134624503Y-110205500D01*
X162242575Y-110205500D01*
X162277223Y-110219852D01*
X162291575Y-110254500D01*
X162291571Y-110255143D01*
X162254760Y-113061413D01*
X162254370Y-113091160D01*
X162254370Y-113091161D01*
X162227082Y-115171413D01*
X162226692Y-115201160D01*
X162226692Y-115201161D01*
X162216719Y-115961413D01*
X162216329Y-115991160D01*
X162216329Y-115991161D01*
X162208983Y-116551161D01*
X162201833Y-117096155D01*
X162187028Y-117130612D01*
X162153009Y-117144512D01*
X158713573Y-117156565D01*
X158713567Y-117156565D01*
X158669681Y-117161467D01*
X158669674Y-117161468D01*
X158669670Y-117161468D01*
X158669669Y-117161469D01*
X158656798Y-117164332D01*
X158617902Y-117172986D01*
X158607520Y-117175582D01*
X158607514Y-117175584D01*
X158527057Y-117219073D01*
X158474522Y-117265146D01*
X158456685Y-117282830D01*
X158446575Y-117301160D01*
X158446574Y-117301160D01*
X158412511Y-117362910D01*
X158412509Y-117362915D01*
X158393222Y-117430065D01*
X158393221Y-117430070D01*
X158385240Y-117488018D01*
X158390150Y-118315327D01*
X158390150Y-118315328D01*
X158390303Y-118341160D01*
X158397511Y-119555960D01*
X158397513Y-119555980D01*
X158402695Y-119600628D01*
X158402697Y-119600639D01*
X158414738Y-119653204D01*
X158417621Y-119664346D01*
X158417625Y-119664356D01*
X158461914Y-119744360D01*
X158461915Y-119744362D01*
X158476949Y-119761160D01*
X158476949Y-119761161D01*
X158508498Y-119796414D01*
X158508511Y-119796428D01*
X158526389Y-119814100D01*
X158606911Y-119857463D01*
X158674257Y-119876072D01*
X158732278Y-119883469D01*
X161028493Y-119846723D01*
X161063366Y-119860519D01*
X161078271Y-119894933D01*
X161064475Y-119929806D01*
X161053780Y-119938149D01*
X161034087Y-119949520D01*
X161034084Y-119949522D01*
X160959521Y-120024086D01*
X160959520Y-120024086D01*
X160906793Y-120115410D01*
X160906792Y-120115414D01*
X160879500Y-120217269D01*
X160879500Y-120322730D01*
X160906792Y-120424585D01*
X160906793Y-120424589D01*
X160959520Y-120515913D01*
X161034087Y-120590480D01*
X161067513Y-120609778D01*
X161125410Y-120643206D01*
X161125412Y-120643206D01*
X161125413Y-120643207D01*
X161205747Y-120664732D01*
X161227269Y-120670499D01*
X161227270Y-120670500D01*
X161227273Y-120670500D01*
X161332730Y-120670500D01*
X161332730Y-120670499D01*
X161434587Y-120643207D01*
X161434591Y-120643205D01*
X161446823Y-120636142D01*
X161525913Y-120590480D01*
X161600480Y-120515913D01*
X161653207Y-120424587D01*
X161680499Y-120322730D01*
X161680500Y-120322730D01*
X161680500Y-120217270D01*
X161680499Y-120217269D01*
X161653207Y-120115414D01*
X161653206Y-120115410D01*
X161600479Y-120024086D01*
X161525915Y-119949522D01*
X161525913Y-119949520D01*
X161492696Y-119930342D01*
X161469867Y-119900589D01*
X161474763Y-119863407D01*
X161504517Y-119840577D01*
X161516406Y-119838915D01*
X162067286Y-119830099D01*
X162102158Y-119843895D01*
X162117063Y-119878309D01*
X162103267Y-119913182D01*
X162092570Y-119921528D01*
X162044084Y-119949522D01*
X161969521Y-120024086D01*
X161969520Y-120024086D01*
X161916793Y-120115410D01*
X161916792Y-120115414D01*
X161889500Y-120217269D01*
X161889500Y-120322730D01*
X161916792Y-120424585D01*
X161916793Y-120424589D01*
X161969520Y-120515913D01*
X162044087Y-120590480D01*
X162135413Y-120643207D01*
X162157062Y-120649007D01*
X162186814Y-120671835D01*
X162191711Y-120709017D01*
X162190440Y-120713055D01*
X162188527Y-120718324D01*
X162186618Y-120721265D01*
X162182704Y-120734364D01*
X162182451Y-120735063D01*
X162171819Y-120769591D01*
X162171816Y-120769590D01*
X162171817Y-120769591D01*
X162171818Y-120769604D01*
X162167569Y-120783392D01*
X162167512Y-120783577D01*
X162167467Y-120783721D01*
X162161532Y-120802993D01*
X162161290Y-120804532D01*
X162161289Y-120804531D01*
X162160779Y-120807771D01*
X162160444Y-120808896D01*
X162160328Y-120810638D01*
X162159986Y-120812814D01*
X162159986Y-120812823D01*
X162152449Y-120860782D01*
X162152313Y-120871160D01*
X162152313Y-120871161D01*
X162131167Y-122483163D01*
X162132186Y-122506445D01*
X162132187Y-122506459D01*
X162134116Y-122525584D01*
X162123313Y-122561497D01*
X162090279Y-122579253D01*
X162085363Y-122579500D01*
X162017270Y-122579500D01*
X161915414Y-122606792D01*
X161915410Y-122606793D01*
X161824086Y-122659520D01*
X161824086Y-122659521D01*
X161749521Y-122734086D01*
X161749520Y-122734086D01*
X161696793Y-122825410D01*
X161696792Y-122825414D01*
X161669500Y-122927269D01*
X161669500Y-123032730D01*
X161696792Y-123134585D01*
X161696793Y-123134589D01*
X161749520Y-123225913D01*
X161824087Y-123300480D01*
X161846129Y-123313206D01*
X161915410Y-123353206D01*
X161915412Y-123353206D01*
X161915413Y-123353207D01*
X161995747Y-123374732D01*
X162017269Y-123380499D01*
X162017270Y-123380500D01*
X162076220Y-123380500D01*
X162110868Y-123394852D01*
X162125220Y-123429500D01*
X162124626Y-123437099D01*
X162119595Y-123469104D01*
X162118109Y-123478562D01*
X162075703Y-126711412D01*
X162075313Y-126741160D01*
X162075313Y-126741161D01*
X162067176Y-127361414D01*
X162066786Y-127391160D01*
X162066786Y-127391161D01*
X162049406Y-128716043D01*
X162034601Y-128750500D01*
X162000412Y-128764400D01*
X159784693Y-128764493D01*
X159784692Y-128764493D01*
X159740450Y-128769317D01*
X159740434Y-128769320D01*
X159688291Y-128780822D01*
X159677549Y-128783496D01*
X159597088Y-128826970D01*
X159544554Y-128873024D01*
X159526696Y-128890725D01*
X159482511Y-128970795D01*
X159482510Y-128970796D01*
X159463212Y-129037951D01*
X159455222Y-129095893D01*
X159463415Y-130515294D01*
X159463415Y-130515295D01*
X159463564Y-130541161D01*
X159463800Y-130582194D01*
X159463802Y-130582226D01*
X159466061Y-130611432D01*
X159471288Y-130646349D01*
X159474082Y-130653709D01*
X159477810Y-130663531D01*
X159476805Y-130663746D01*
X159478762Y-130672938D01*
X159480671Y-130681086D01*
X159495205Y-130709356D01*
X159496183Y-130711931D01*
X159502288Y-130728014D01*
X159502290Y-130728019D01*
X159512875Y-130744282D01*
X159514243Y-130746384D01*
X159522489Y-130762422D01*
X159532179Y-130773943D01*
X159533814Y-130776455D01*
X159533819Y-130776462D01*
X159540399Y-130786571D01*
X159540402Y-130786575D01*
X159555372Y-130806760D01*
X159564261Y-130813476D01*
X159570223Y-130818797D01*
X159584788Y-130834106D01*
X159584790Y-130834107D01*
X159584791Y-130834108D01*
X159613748Y-130850867D01*
X159628341Y-130861894D01*
X159635429Y-130865082D01*
X159636023Y-130863760D01*
X159663945Y-130879921D01*
X159663947Y-130879921D01*
X159663948Y-130879922D01*
X159663954Y-130879924D01*
X159675468Y-130883490D01*
X159681074Y-130885609D01*
X159692067Y-130890553D01*
X159702419Y-130894466D01*
X159715588Y-130899445D01*
X159715589Y-130899445D01*
X159715592Y-130899446D01*
X159728757Y-130900445D01*
X159732697Y-130900907D01*
X159788452Y-130909763D01*
X161971283Y-130941852D01*
X162005715Y-130956712D01*
X162019557Y-130991489D01*
X162016693Y-131209868D01*
X162015624Y-131291412D01*
X162015234Y-131321161D01*
X162006572Y-131981412D01*
X162006182Y-132011161D01*
X162002202Y-132314587D01*
X162000013Y-132481414D01*
X161999623Y-132511160D01*
X161999623Y-132511161D01*
X161967801Y-134936942D01*
X161952996Y-134971399D01*
X161918961Y-134985299D01*
X156949227Y-135001170D01*
X156914534Y-134986929D01*
X156900071Y-134952326D01*
X156900079Y-134951300D01*
X156903229Y-134773865D01*
X156923334Y-133641162D01*
X157008345Y-128851861D01*
X157008344Y-128851858D01*
X157008345Y-128851848D01*
X157004060Y-128806303D01*
X156992874Y-128752591D01*
X156990007Y-128740627D01*
X156990006Y-128740625D01*
X156990005Y-128740622D01*
X156963192Y-128690306D01*
X156946997Y-128659915D01*
X156946995Y-128659913D01*
X156946995Y-128659912D01*
X156913655Y-128621436D01*
X156901242Y-128607111D01*
X156892907Y-128598604D01*
X156883653Y-128589158D01*
X156883649Y-128589156D01*
X156803837Y-128544511D01*
X156803829Y-128544508D01*
X156736794Y-128524824D01*
X156678899Y-128516500D01*
X156678897Y-128516500D01*
X156361347Y-128516500D01*
X156361332Y-128516500D01*
X156312902Y-128522292D01*
X156312879Y-128522296D01*
X156301049Y-128525166D01*
X156263995Y-128519386D01*
X156241881Y-128489096D01*
X156240500Y-128477547D01*
X156240500Y-128447270D01*
X156240499Y-128447269D01*
X156213207Y-128345414D01*
X156213206Y-128345410D01*
X156160479Y-128254086D01*
X156085913Y-128179520D01*
X155994589Y-128126793D01*
X155994585Y-128126792D01*
X155892730Y-128099500D01*
X155892727Y-128099500D01*
X155787273Y-128099500D01*
X155787270Y-128099500D01*
X155685414Y-128126792D01*
X155685410Y-128126793D01*
X155594086Y-128179520D01*
X155594086Y-128179521D01*
X155519521Y-128254086D01*
X155519520Y-128254086D01*
X155466793Y-128345410D01*
X155466792Y-128345414D01*
X155439500Y-128447269D01*
X155439500Y-128477852D01*
X155425148Y-128512500D01*
X155390500Y-128526852D01*
X155378282Y-128525096D01*
X155378261Y-128525197D01*
X155376853Y-128524890D01*
X155376702Y-128524869D01*
X155376555Y-128524825D01*
X155376550Y-128524824D01*
X155318655Y-128516500D01*
X155318653Y-128516500D01*
X154423164Y-128516500D01*
X154423157Y-128516500D01*
X154380431Y-128520993D01*
X154380420Y-128520994D01*
X154380419Y-128520995D01*
X154380416Y-128520995D01*
X154380408Y-128520997D01*
X154329964Y-128531724D01*
X154320697Y-128533920D01*
X154239585Y-128576176D01*
X154186363Y-128621430D01*
X154168240Y-128638860D01*
X154122852Y-128718253D01*
X154122851Y-128718255D01*
X154102541Y-128785108D01*
X154093678Y-128842923D01*
X154093677Y-128842934D01*
X154072919Y-131069022D01*
X154058245Y-131103535D01*
X154023464Y-131117563D01*
X154011239Y-131115895D01*
X153912730Y-131089500D01*
X153912727Y-131089500D01*
X153807273Y-131089500D01*
X153807270Y-131089500D01*
X153705414Y-131116792D01*
X153705410Y-131116793D01*
X153614086Y-131169520D01*
X153614086Y-131169521D01*
X153539521Y-131244086D01*
X153539520Y-131244086D01*
X153486793Y-131335410D01*
X153486792Y-131335414D01*
X153459500Y-131437269D01*
X153459500Y-131542730D01*
X153486792Y-131644585D01*
X153486793Y-131644589D01*
X153539520Y-131735913D01*
X153593959Y-131790352D01*
X153608311Y-131825000D01*
X153593959Y-131859648D01*
X153539521Y-131914086D01*
X153539520Y-131914086D01*
X153486793Y-132005410D01*
X153486792Y-132005414D01*
X153459500Y-132107269D01*
X153459500Y-132212730D01*
X153486792Y-132314585D01*
X153486793Y-132314589D01*
X153539520Y-132405913D01*
X153614087Y-132480480D01*
X153615705Y-132481414D01*
X153705410Y-132533206D01*
X153705412Y-132533206D01*
X153705413Y-132533207D01*
X153785747Y-132554732D01*
X153807269Y-132560499D01*
X153807270Y-132560500D01*
X153807273Y-132560500D01*
X153912729Y-132560500D01*
X153958547Y-132548222D01*
X153997094Y-132537894D01*
X154034276Y-132542789D01*
X154057106Y-132572541D01*
X154058774Y-132585681D01*
X154034604Y-135177892D01*
X154035139Y-135194747D01*
X154036618Y-135215022D01*
X154038538Y-135231807D01*
X154189908Y-136201162D01*
X154190635Y-136205817D01*
X154410497Y-137613781D01*
X154410498Y-137613788D01*
X154416865Y-137641667D01*
X154416866Y-137641671D01*
X154416868Y-137641677D01*
X154426853Y-137674632D01*
X154426854Y-137674635D01*
X154426855Y-137674636D01*
X154426855Y-137674638D01*
X154460539Y-137735332D01*
X154468906Y-137750408D01*
X154514930Y-137802978D01*
X154532615Y-137820843D01*
X154587471Y-137851161D01*
X154612657Y-137865081D01*
X154612656Y-137865081D01*
X154679796Y-137884424D01*
X154693898Y-137886377D01*
X154737735Y-137892452D01*
X154737736Y-137892451D01*
X154737737Y-137892452D01*
X154875877Y-137891747D01*
X161726045Y-137856796D01*
X161760765Y-137870970D01*
X161775293Y-137905545D01*
X161775294Y-137905642D01*
X161776476Y-138284748D01*
X161776476Y-138284749D01*
X161776558Y-138311160D01*
X161784551Y-140877023D01*
X161789315Y-140920378D01*
X161789315Y-140920380D01*
X161800523Y-140971517D01*
X161802938Y-140981369D01*
X161802940Y-140981374D01*
X161845951Y-141062087D01*
X161852518Y-141069665D01*
X161891705Y-141114889D01*
X161899855Y-141123207D01*
X161909293Y-141132841D01*
X161909295Y-141132842D01*
X161909296Y-141132843D01*
X161989113Y-141177490D01*
X162056152Y-141197175D01*
X162114050Y-141205500D01*
X186745500Y-141205500D01*
X186780148Y-141219852D01*
X186794500Y-141254500D01*
X186794500Y-149375497D01*
X186799195Y-149419171D01*
X186799199Y-149419197D01*
X186803743Y-149440085D01*
X186797084Y-149476992D01*
X186766278Y-149498380D01*
X186755863Y-149499500D01*
X134549500Y-149499500D01*
X134514852Y-149485148D01*
X134500500Y-149450500D01*
X134500500Y-146251455D01*
X150599500Y-146251455D01*
X150599500Y-146448544D01*
X150637947Y-146641827D01*
X150637949Y-146641835D01*
X150713368Y-146823914D01*
X150822861Y-146987782D01*
X150962218Y-147127139D01*
X151126086Y-147236632D01*
X151308165Y-147312051D01*
X151501459Y-147350500D01*
X151698541Y-147350500D01*
X151851396Y-147320095D01*
X170759500Y-147320095D01*
X170759500Y-149039894D01*
X170759501Y-149039898D01*
X170765331Y-149069213D01*
X170765331Y-149069214D01*
X170765332Y-149069215D01*
X170765332Y-149069216D01*
X170781872Y-149093970D01*
X170787543Y-149102457D01*
X170820787Y-149124669D01*
X170850101Y-149130500D01*
X172569898Y-149130499D01*
X172599213Y-149124669D01*
X172632457Y-149102457D01*
X172654669Y-149069213D01*
X172660500Y-149039899D01*
X172660499Y-148086384D01*
X173299500Y-148086384D01*
X173299500Y-148273616D01*
X173322716Y-148390332D01*
X173336026Y-148457248D01*
X173336029Y-148457258D01*
X173407675Y-148630225D01*
X173407676Y-148630227D01*
X173407678Y-148630231D01*
X173511698Y-148785908D01*
X173644092Y-148918302D01*
X173799769Y-149022322D01*
X173799774Y-149022324D01*
X173972741Y-149093970D01*
X173972743Y-149093970D01*
X173972749Y-149093973D01*
X174156384Y-149130500D01*
X174156387Y-149130500D01*
X174343613Y-149130500D01*
X174343616Y-149130500D01*
X174527251Y-149093973D01*
X174700231Y-149022322D01*
X174855908Y-148918302D01*
X174988302Y-148785908D01*
X175092322Y-148630231D01*
X175163973Y-148457251D01*
X175200500Y-148273616D01*
X175200500Y-148086384D01*
X178379500Y-148086384D01*
X178379500Y-148273616D01*
X178402716Y-148390332D01*
X178416026Y-148457248D01*
X178416029Y-148457258D01*
X178487675Y-148630225D01*
X178487676Y-148630227D01*
X178487678Y-148630231D01*
X178591698Y-148785908D01*
X178724092Y-148918302D01*
X178879769Y-149022322D01*
X178879774Y-149022324D01*
X179052741Y-149093970D01*
X179052743Y-149093970D01*
X179052749Y-149093973D01*
X179236384Y-149130500D01*
X179236387Y-149130500D01*
X179423613Y-149130500D01*
X179423616Y-149130500D01*
X179607251Y-149093973D01*
X179780231Y-149022322D01*
X179935908Y-148918302D01*
X180068302Y-148785908D01*
X180172322Y-148630231D01*
X180243973Y-148457251D01*
X180280500Y-148273616D01*
X180280500Y-148086384D01*
X180243973Y-147902749D01*
X180236132Y-147883820D01*
X180172324Y-147729774D01*
X180172322Y-147729769D01*
X180068302Y-147574092D01*
X179935908Y-147441698D01*
X179780231Y-147337678D01*
X179780227Y-147337676D01*
X179780225Y-147337675D01*
X179607258Y-147266029D01*
X179607248Y-147266026D01*
X179533194Y-147251296D01*
X179423616Y-147229500D01*
X179236384Y-147229500D01*
X179144986Y-147247680D01*
X179052751Y-147266026D01*
X179052741Y-147266029D01*
X178879774Y-147337675D01*
X178879770Y-147337677D01*
X178879769Y-147337678D01*
X178860581Y-147350499D01*
X178724092Y-147441697D01*
X178591697Y-147574092D01*
X178514120Y-147690195D01*
X178498491Y-147713587D01*
X178487675Y-147729774D01*
X178416029Y-147902741D01*
X178416026Y-147902751D01*
X178397680Y-147994986D01*
X178379500Y-148086384D01*
X175200500Y-148086384D01*
X175163973Y-147902749D01*
X175156132Y-147883820D01*
X175092324Y-147729774D01*
X175092322Y-147729769D01*
X174988302Y-147574092D01*
X174855908Y-147441698D01*
X174700231Y-147337678D01*
X174700227Y-147337676D01*
X174700225Y-147337675D01*
X174527258Y-147266029D01*
X174527248Y-147266026D01*
X174453194Y-147251296D01*
X174343616Y-147229500D01*
X174156384Y-147229500D01*
X174064986Y-147247680D01*
X173972751Y-147266026D01*
X173972741Y-147266029D01*
X173799774Y-147337675D01*
X173799770Y-147337677D01*
X173799769Y-147337678D01*
X173780581Y-147350499D01*
X173644092Y-147441697D01*
X173511697Y-147574092D01*
X173434120Y-147690195D01*
X173418491Y-147713587D01*
X173407675Y-147729774D01*
X173336029Y-147902741D01*
X173336026Y-147902751D01*
X173317680Y-147994986D01*
X173299500Y-148086384D01*
X172660499Y-148086384D01*
X172660499Y-147320102D01*
X172654669Y-147290787D01*
X172654667Y-147290784D01*
X172654667Y-147290783D01*
X172632457Y-147257543D01*
X172599212Y-147235330D01*
X172569901Y-147229500D01*
X170850105Y-147229500D01*
X170850104Y-147229500D01*
X170850102Y-147229501D01*
X170820787Y-147235331D01*
X170820786Y-147235331D01*
X170820784Y-147235332D01*
X170820783Y-147235332D01*
X170787543Y-147257542D01*
X170765330Y-147290786D01*
X170765330Y-147290787D01*
X170759500Y-147320095D01*
X151851396Y-147320095D01*
X151891835Y-147312051D01*
X152073914Y-147236632D01*
X152237782Y-147127139D01*
X152377139Y-146987782D01*
X152486632Y-146823914D01*
X152562051Y-146641835D01*
X152600500Y-146448541D01*
X152600500Y-146251459D01*
X152562051Y-146058165D01*
X152486632Y-145876086D01*
X152377139Y-145712218D01*
X152237782Y-145572861D01*
X152073914Y-145463368D01*
X152073911Y-145463366D01*
X152073910Y-145463366D01*
X151891836Y-145387949D01*
X151891827Y-145387947D01*
X151698544Y-145349500D01*
X151698541Y-145349500D01*
X151501459Y-145349500D01*
X151501455Y-145349500D01*
X151308172Y-145387947D01*
X151308163Y-145387949D01*
X151126089Y-145463366D01*
X150962218Y-145572860D01*
X150822860Y-145712218D01*
X150713366Y-145876089D01*
X150637949Y-146058163D01*
X150637947Y-146058172D01*
X150599500Y-146251455D01*
X134500500Y-146251455D01*
X134500500Y-143711455D01*
X142789500Y-143711455D01*
X142789500Y-143908544D01*
X142827947Y-144101827D01*
X142827949Y-144101835D01*
X142903368Y-144283914D01*
X143012861Y-144447782D01*
X143152218Y-144587139D01*
X143316086Y-144696632D01*
X143498165Y-144772051D01*
X143691459Y-144810500D01*
X143888541Y-144810500D01*
X144081835Y-144772051D01*
X144263914Y-144696632D01*
X144427782Y-144587139D01*
X144567139Y-144447782D01*
X144676632Y-144283914D01*
X144752051Y-144101835D01*
X144790500Y-143908541D01*
X144790500Y-143711459D01*
X144790499Y-143711455D01*
X150599500Y-143711455D01*
X150599500Y-143908544D01*
X150637947Y-144101827D01*
X150637949Y-144101835D01*
X150713368Y-144283914D01*
X150822861Y-144447782D01*
X150962218Y-144587139D01*
X151126086Y-144696632D01*
X151308165Y-144772051D01*
X151501459Y-144810500D01*
X151698541Y-144810500D01*
X151891835Y-144772051D01*
X152073914Y-144696632D01*
X152237782Y-144587139D01*
X152377139Y-144447782D01*
X152486632Y-144283914D01*
X152562051Y-144101835D01*
X152600500Y-143908541D01*
X152600500Y-143711459D01*
X152562051Y-143518165D01*
X152486632Y-143336086D01*
X152377139Y-143172218D01*
X152237782Y-143032861D01*
X152073914Y-142923368D01*
X152073911Y-142923366D01*
X152073910Y-142923366D01*
X151891836Y-142847949D01*
X151891827Y-142847947D01*
X151698544Y-142809500D01*
X151698541Y-142809500D01*
X151501459Y-142809500D01*
X151501455Y-142809500D01*
X151308172Y-142847947D01*
X151308163Y-142847949D01*
X151126089Y-142923366D01*
X150962218Y-143032860D01*
X150822860Y-143172218D01*
X150713366Y-143336089D01*
X150637949Y-143518163D01*
X150637947Y-143518172D01*
X150599500Y-143711455D01*
X144790499Y-143711455D01*
X144752051Y-143518165D01*
X144676632Y-143336086D01*
X144567139Y-143172218D01*
X144427782Y-143032861D01*
X144263914Y-142923368D01*
X144263911Y-142923366D01*
X144263910Y-142923366D01*
X144081836Y-142847949D01*
X144081827Y-142847947D01*
X143888544Y-142809500D01*
X143888541Y-142809500D01*
X143691459Y-142809500D01*
X143691455Y-142809500D01*
X143498172Y-142847947D01*
X143498163Y-142847949D01*
X143316089Y-142923366D01*
X143152218Y-143032860D01*
X143012860Y-143172218D01*
X142903366Y-143336089D01*
X142827949Y-143518163D01*
X142827947Y-143518172D01*
X142789500Y-143711455D01*
X134500500Y-143711455D01*
X134500500Y-141171455D01*
X142789500Y-141171455D01*
X142789500Y-141368544D01*
X142827947Y-141561827D01*
X142827949Y-141561836D01*
X142833890Y-141576178D01*
X142903368Y-141743914D01*
X142976691Y-141853650D01*
X143001206Y-141890340D01*
X143012861Y-141907782D01*
X143152218Y-142047139D01*
X143316086Y-142156632D01*
X143498165Y-142232051D01*
X143691459Y-142270500D01*
X143888541Y-142270500D01*
X144081835Y-142232051D01*
X144263914Y-142156632D01*
X144427782Y-142047139D01*
X144567139Y-141907782D01*
X144676632Y-141743914D01*
X144752051Y-141561835D01*
X144790500Y-141368541D01*
X144790500Y-141171459D01*
X144790499Y-141171455D01*
X150599500Y-141171455D01*
X150599500Y-141368544D01*
X150637947Y-141561827D01*
X150637949Y-141561836D01*
X150643890Y-141576178D01*
X150713368Y-141743914D01*
X150786691Y-141853650D01*
X150811206Y-141890340D01*
X150822861Y-141907782D01*
X150962218Y-142047139D01*
X151126086Y-142156632D01*
X151308165Y-142232051D01*
X151501459Y-142270500D01*
X151698541Y-142270500D01*
X151891835Y-142232051D01*
X152073914Y-142156632D01*
X152237782Y-142047139D01*
X152377139Y-141907782D01*
X152486632Y-141743914D01*
X152562051Y-141561835D01*
X152600500Y-141368541D01*
X152600500Y-141171459D01*
X152562051Y-140978165D01*
X152486632Y-140796086D01*
X152377139Y-140632218D01*
X152237782Y-140492861D01*
X152211389Y-140475226D01*
X152181457Y-140455226D01*
X152073914Y-140383368D01*
X152073911Y-140383366D01*
X152073910Y-140383366D01*
X151891836Y-140307949D01*
X151891827Y-140307947D01*
X151698544Y-140269500D01*
X151698541Y-140269500D01*
X151501459Y-140269500D01*
X151501455Y-140269500D01*
X151308172Y-140307947D01*
X151308163Y-140307949D01*
X151126089Y-140383366D01*
X150962218Y-140492860D01*
X150822860Y-140632218D01*
X150713366Y-140796089D01*
X150637949Y-140978163D01*
X150637947Y-140978172D01*
X150599500Y-141171455D01*
X144790499Y-141171455D01*
X144752051Y-140978165D01*
X144676632Y-140796086D01*
X144567139Y-140632218D01*
X144427782Y-140492861D01*
X144401389Y-140475226D01*
X144371457Y-140455226D01*
X144263914Y-140383368D01*
X144263911Y-140383366D01*
X144263910Y-140383366D01*
X144081836Y-140307949D01*
X144081827Y-140307947D01*
X143888544Y-140269500D01*
X143888541Y-140269500D01*
X143691459Y-140269500D01*
X143691455Y-140269500D01*
X143498172Y-140307947D01*
X143498163Y-140307949D01*
X143316089Y-140383366D01*
X143152218Y-140492860D01*
X143012860Y-140632218D01*
X142903366Y-140796089D01*
X142827949Y-140978163D01*
X142827947Y-140978172D01*
X142789500Y-141171455D01*
X134500500Y-141171455D01*
X134500500Y-139871384D01*
X134839500Y-139871384D01*
X134839500Y-140058616D01*
X134863740Y-140180479D01*
X134876026Y-140242248D01*
X134876029Y-140242258D01*
X134947675Y-140415225D01*
X134947676Y-140415227D01*
X134947678Y-140415231D01*
X134999548Y-140492860D01*
X135040047Y-140553472D01*
X135051698Y-140570908D01*
X135184092Y-140703302D01*
X135339769Y-140807322D01*
X135339774Y-140807324D01*
X135512741Y-140878970D01*
X135512743Y-140878970D01*
X135512749Y-140878973D01*
X135696384Y-140915500D01*
X135696387Y-140915500D01*
X135883613Y-140915500D01*
X135883616Y-140915500D01*
X136067251Y-140878973D01*
X136240231Y-140807322D01*
X136395908Y-140703302D01*
X136528302Y-140570908D01*
X136632322Y-140415231D01*
X136703973Y-140242251D01*
X136740500Y-140058616D01*
X136740500Y-139871384D01*
X136703973Y-139687749D01*
X136696296Y-139669216D01*
X136632324Y-139514774D01*
X136632322Y-139514769D01*
X136528302Y-139359092D01*
X136395908Y-139226698D01*
X136240231Y-139122678D01*
X136240227Y-139122676D01*
X136240225Y-139122675D01*
X136067258Y-139051029D01*
X136067248Y-139051026D01*
X135993194Y-139036296D01*
X135883616Y-139014500D01*
X135696384Y-139014500D01*
X135604986Y-139032680D01*
X135512751Y-139051026D01*
X135512741Y-139051029D01*
X135339774Y-139122675D01*
X135339770Y-139122677D01*
X135339769Y-139122678D01*
X135300195Y-139149120D01*
X135184092Y-139226697D01*
X135051697Y-139359092D01*
X134947675Y-139514774D01*
X134876029Y-139687741D01*
X134876026Y-139687751D01*
X134867523Y-139730500D01*
X134839500Y-139871384D01*
X134500500Y-139871384D01*
X134500500Y-136565095D01*
X134839500Y-136565095D01*
X134839500Y-138284894D01*
X134839501Y-138284898D01*
X134845331Y-138314213D01*
X134845331Y-138314214D01*
X134845332Y-138314215D01*
X134845332Y-138314216D01*
X134867542Y-138347456D01*
X134867543Y-138347457D01*
X134900787Y-138369669D01*
X134930101Y-138375500D01*
X136649898Y-138375499D01*
X136679213Y-138369669D01*
X136712457Y-138347457D01*
X136734669Y-138314213D01*
X136740500Y-138284899D01*
X136740500Y-137820095D01*
X142789500Y-137820095D01*
X142789500Y-139639894D01*
X142789501Y-139639898D01*
X142795331Y-139669213D01*
X142795331Y-139669214D01*
X142795332Y-139669215D01*
X142795332Y-139669216D01*
X142817542Y-139702456D01*
X142817543Y-139702457D01*
X142850787Y-139724669D01*
X142880101Y-139730500D01*
X144699898Y-139730499D01*
X144729213Y-139724669D01*
X144762457Y-139702457D01*
X144784669Y-139669213D01*
X144790500Y-139639899D01*
X144790499Y-138631455D01*
X150599500Y-138631455D01*
X150599500Y-138828544D01*
X150637947Y-139021827D01*
X150637949Y-139021836D01*
X150650041Y-139051029D01*
X150713368Y-139203914D01*
X150728592Y-139226698D01*
X150817054Y-139359092D01*
X150822861Y-139367782D01*
X150962218Y-139507139D01*
X151126086Y-139616632D01*
X151308165Y-139692051D01*
X151501459Y-139730500D01*
X151698541Y-139730500D01*
X151891835Y-139692051D01*
X152073914Y-139616632D01*
X152237782Y-139507139D01*
X152377139Y-139367782D01*
X152486632Y-139203914D01*
X152562051Y-139021835D01*
X152600500Y-138828541D01*
X152600500Y-138631459D01*
X152562051Y-138438165D01*
X152486632Y-138256086D01*
X152377139Y-138092218D01*
X152237782Y-137952861D01*
X152073914Y-137843368D01*
X152073911Y-137843366D01*
X152073910Y-137843366D01*
X151891836Y-137767949D01*
X151891827Y-137767947D01*
X151698544Y-137729500D01*
X151698541Y-137729500D01*
X151501459Y-137729500D01*
X151501455Y-137729500D01*
X151308172Y-137767947D01*
X151308163Y-137767949D01*
X151126089Y-137843366D01*
X150962218Y-137952860D01*
X150822860Y-138092218D01*
X150713366Y-138256089D01*
X150637949Y-138438163D01*
X150637947Y-138438172D01*
X150599500Y-138631455D01*
X144790499Y-138631455D01*
X144790499Y-137820102D01*
X144784669Y-137790787D01*
X144784667Y-137790784D01*
X144784667Y-137790783D01*
X144762457Y-137757543D01*
X144729212Y-137735330D01*
X144699901Y-137729500D01*
X142880105Y-137729500D01*
X142880104Y-137729500D01*
X142880102Y-137729501D01*
X142850787Y-137735331D01*
X142850786Y-137735331D01*
X142850784Y-137735332D01*
X142850783Y-137735332D01*
X142817543Y-137757542D01*
X142795330Y-137790786D01*
X142795330Y-137790787D01*
X142789500Y-137820095D01*
X136740500Y-137820095D01*
X136740499Y-136565102D01*
X136734669Y-136535787D01*
X136734667Y-136535784D01*
X136734667Y-136535783D01*
X136712457Y-136502543D01*
X136679212Y-136480330D01*
X136649901Y-136474500D01*
X134930105Y-136474500D01*
X134930104Y-136474500D01*
X134930102Y-136474501D01*
X134900787Y-136480331D01*
X134900786Y-136480331D01*
X134900784Y-136480332D01*
X134900783Y-136480332D01*
X134867543Y-136502542D01*
X134845330Y-136535786D01*
X134845330Y-136535787D01*
X134839500Y-136565095D01*
X134500500Y-136565095D01*
X134500500Y-133357269D01*
X137679500Y-133357269D01*
X137679500Y-133462730D01*
X137706792Y-133564585D01*
X137706793Y-133564589D01*
X137753873Y-133646132D01*
X137759520Y-133655913D01*
X137834087Y-133730480D01*
X137867513Y-133749778D01*
X137925410Y-133783206D01*
X137925412Y-133783206D01*
X137925413Y-133783207D01*
X137983746Y-133798837D01*
X138027269Y-133810499D01*
X138027270Y-133810500D01*
X138027273Y-133810500D01*
X138132730Y-133810500D01*
X138132730Y-133810499D01*
X138234587Y-133783207D01*
X138325913Y-133730480D01*
X138400480Y-133655913D01*
X138453207Y-133564587D01*
X138480499Y-133462730D01*
X138480500Y-133462730D01*
X138480500Y-133387269D01*
X140909500Y-133387269D01*
X140909500Y-133492730D01*
X140936792Y-133594585D01*
X140936793Y-133594589D01*
X140972200Y-133655914D01*
X140989520Y-133685913D01*
X141064087Y-133760480D01*
X141097513Y-133779778D01*
X141155410Y-133813206D01*
X141155412Y-133813206D01*
X141155413Y-133813207D01*
X141222322Y-133831135D01*
X141257269Y-133840499D01*
X141257270Y-133840500D01*
X141257273Y-133840500D01*
X141362730Y-133840500D01*
X141362730Y-133840499D01*
X141464587Y-133813207D01*
X141469278Y-133810499D01*
X141476823Y-133806142D01*
X141555913Y-133760480D01*
X141630480Y-133685913D01*
X141683207Y-133594587D01*
X141710499Y-133492730D01*
X141710500Y-133492730D01*
X141710500Y-133387270D01*
X141710499Y-133387269D01*
X141685483Y-133293908D01*
X141683207Y-133285413D01*
X141683206Y-133285412D01*
X141683206Y-133285410D01*
X141649778Y-133227513D01*
X141630480Y-133194087D01*
X141555913Y-133119520D01*
X141550372Y-133116321D01*
X141464589Y-133066793D01*
X141464585Y-133066792D01*
X141362730Y-133039500D01*
X141362727Y-133039500D01*
X141257273Y-133039500D01*
X141257270Y-133039500D01*
X141155414Y-133066792D01*
X141155410Y-133066793D01*
X141064086Y-133119520D01*
X141064086Y-133119521D01*
X140989521Y-133194086D01*
X140989520Y-133194086D01*
X140936793Y-133285410D01*
X140936792Y-133285414D01*
X140909500Y-133387269D01*
X138480500Y-133387269D01*
X138480500Y-133357270D01*
X138480499Y-133357269D01*
X138464077Y-133295982D01*
X138453207Y-133255413D01*
X138453206Y-133255412D01*
X138453206Y-133255410D01*
X138400479Y-133164086D01*
X138325913Y-133089520D01*
X138234589Y-133036793D01*
X138234585Y-133036792D01*
X138132730Y-133009500D01*
X138132727Y-133009500D01*
X138027273Y-133009500D01*
X138027270Y-133009500D01*
X137925414Y-133036792D01*
X137925410Y-133036793D01*
X137834086Y-133089520D01*
X137834086Y-133089521D01*
X137759521Y-133164086D01*
X137759520Y-133164086D01*
X137706793Y-133255410D01*
X137706792Y-133255414D01*
X137679500Y-133357269D01*
X134500500Y-133357269D01*
X134500500Y-131901455D01*
X142444500Y-131901455D01*
X142444500Y-132098544D01*
X142482947Y-132291827D01*
X142482949Y-132291836D01*
X142547981Y-132448838D01*
X142558368Y-132473914D01*
X142624268Y-132572541D01*
X142666965Y-132636442D01*
X142667861Y-132637782D01*
X142807218Y-132777139D01*
X142971086Y-132886632D01*
X143153165Y-132962051D01*
X143346459Y-133000500D01*
X143543541Y-133000500D01*
X143736835Y-132962051D01*
X143918914Y-132886632D01*
X144082782Y-132777139D01*
X144222139Y-132637782D01*
X144331632Y-132473914D01*
X144407051Y-132291835D01*
X144445500Y-132098541D01*
X144445500Y-131901459D01*
X144407051Y-131708165D01*
X144331632Y-131526086D01*
X144222139Y-131362218D01*
X144082782Y-131222861D01*
X144052131Y-131202381D01*
X144002951Y-131169520D01*
X143918914Y-131113368D01*
X143918911Y-131113366D01*
X143918910Y-131113366D01*
X143862728Y-131090095D01*
X150254500Y-131090095D01*
X150254500Y-132909894D01*
X150254501Y-132909898D01*
X150260331Y-132939213D01*
X150260331Y-132939214D01*
X150260332Y-132939215D01*
X150260332Y-132939216D01*
X150282542Y-132972456D01*
X150282543Y-132972457D01*
X150315787Y-132994669D01*
X150345101Y-133000500D01*
X152164898Y-133000499D01*
X152194213Y-132994669D01*
X152227457Y-132972457D01*
X152249669Y-132939213D01*
X152255500Y-132909899D01*
X152255499Y-131090102D01*
X152249669Y-131060787D01*
X152249667Y-131060784D01*
X152249667Y-131060783D01*
X152227457Y-131027543D01*
X152194212Y-131005330D01*
X152164901Y-130999500D01*
X150345105Y-130999500D01*
X150345104Y-130999500D01*
X150345102Y-130999501D01*
X150315787Y-131005331D01*
X150315786Y-131005331D01*
X150315784Y-131005332D01*
X150315783Y-131005332D01*
X150282543Y-131027542D01*
X150260330Y-131060786D01*
X150260330Y-131060787D01*
X150254500Y-131090095D01*
X143862728Y-131090095D01*
X143736836Y-131037949D01*
X143736827Y-131037947D01*
X143543544Y-130999500D01*
X143543541Y-130999500D01*
X143346459Y-130999500D01*
X143346455Y-130999500D01*
X143153172Y-131037947D01*
X143153163Y-131037949D01*
X142971089Y-131113366D01*
X142807218Y-131222860D01*
X142667860Y-131362218D01*
X142558366Y-131526089D01*
X142482949Y-131708163D01*
X142482947Y-131708172D01*
X142444500Y-131901455D01*
X134500500Y-131901455D01*
X134500500Y-129361455D01*
X142444500Y-129361455D01*
X142444500Y-129558544D01*
X142482947Y-129751827D01*
X142482949Y-129751835D01*
X142558368Y-129933914D01*
X142667861Y-130097782D01*
X142807218Y-130237139D01*
X142971086Y-130346632D01*
X143153165Y-130422051D01*
X143346459Y-130460500D01*
X143543541Y-130460500D01*
X143736835Y-130422051D01*
X143918914Y-130346632D01*
X144082782Y-130237139D01*
X144222139Y-130097782D01*
X144331632Y-129933914D01*
X144407051Y-129751835D01*
X144445500Y-129558541D01*
X144445500Y-129361459D01*
X144445499Y-129361455D01*
X150254500Y-129361455D01*
X150254500Y-129558544D01*
X150292947Y-129751827D01*
X150292949Y-129751835D01*
X150368368Y-129933914D01*
X150477861Y-130097782D01*
X150617218Y-130237139D01*
X150781086Y-130346632D01*
X150963165Y-130422051D01*
X151156459Y-130460500D01*
X151353541Y-130460500D01*
X151546835Y-130422051D01*
X151728914Y-130346632D01*
X151892782Y-130237139D01*
X152032139Y-130097782D01*
X152141632Y-129933914D01*
X152217051Y-129751835D01*
X152255500Y-129558541D01*
X152255500Y-129361459D01*
X152217051Y-129168165D01*
X152141632Y-128986086D01*
X152032139Y-128822218D01*
X151892782Y-128682861D01*
X151858436Y-128659912D01*
X151800844Y-128621430D01*
X151728914Y-128573368D01*
X151728911Y-128573366D01*
X151728910Y-128573366D01*
X151546836Y-128497949D01*
X151546827Y-128497947D01*
X151353544Y-128459500D01*
X151353541Y-128459500D01*
X151156459Y-128459500D01*
X151156455Y-128459500D01*
X150963172Y-128497947D01*
X150963163Y-128497949D01*
X150781089Y-128573366D01*
X150617218Y-128682860D01*
X150477860Y-128822218D01*
X150368366Y-128986089D01*
X150292949Y-129168163D01*
X150292947Y-129168172D01*
X150254500Y-129361455D01*
X144445499Y-129361455D01*
X144407051Y-129168165D01*
X144331632Y-128986086D01*
X144222139Y-128822218D01*
X144082782Y-128682861D01*
X144048436Y-128659912D01*
X143990844Y-128621430D01*
X143918914Y-128573368D01*
X143918911Y-128573366D01*
X143918910Y-128573366D01*
X143736836Y-128497949D01*
X143736827Y-128497947D01*
X143543544Y-128459500D01*
X143543541Y-128459500D01*
X143346459Y-128459500D01*
X143346455Y-128459500D01*
X143153172Y-128497947D01*
X143153163Y-128497949D01*
X142971089Y-128573366D01*
X142807218Y-128682860D01*
X142667860Y-128822218D01*
X142558366Y-128986089D01*
X142482949Y-129168163D01*
X142482947Y-129168172D01*
X142444500Y-129361455D01*
X134500500Y-129361455D01*
X134500500Y-126821455D01*
X142444500Y-126821455D01*
X142444500Y-127018544D01*
X142482947Y-127211827D01*
X142482949Y-127211836D01*
X142557228Y-127391162D01*
X142558368Y-127393914D01*
X142667861Y-127557782D01*
X142807218Y-127697139D01*
X142971086Y-127806632D01*
X143153165Y-127882051D01*
X143346459Y-127920500D01*
X143543541Y-127920500D01*
X143736835Y-127882051D01*
X143918914Y-127806632D01*
X144082782Y-127697139D01*
X144222139Y-127557782D01*
X144331632Y-127393914D01*
X144407051Y-127211835D01*
X144445500Y-127018541D01*
X144445500Y-126821459D01*
X144445499Y-126821455D01*
X150254500Y-126821455D01*
X150254500Y-127018544D01*
X150292947Y-127211827D01*
X150292949Y-127211836D01*
X150367228Y-127391162D01*
X150368368Y-127393914D01*
X150477861Y-127557782D01*
X150617218Y-127697139D01*
X150781086Y-127806632D01*
X150963165Y-127882051D01*
X151156459Y-127920500D01*
X151353541Y-127920500D01*
X151546835Y-127882051D01*
X151728914Y-127806632D01*
X151892782Y-127697139D01*
X152032139Y-127557782D01*
X152141632Y-127393914D01*
X152217051Y-127211835D01*
X152255500Y-127018541D01*
X152255500Y-126821459D01*
X152240743Y-126747269D01*
X155429500Y-126747269D01*
X155429500Y-126852730D01*
X155456792Y-126954585D01*
X155456793Y-126954589D01*
X155502184Y-127033207D01*
X155509520Y-127045913D01*
X155584087Y-127120480D01*
X155617513Y-127139778D01*
X155675410Y-127173206D01*
X155675412Y-127173206D01*
X155675413Y-127173207D01*
X155752193Y-127193780D01*
X155777269Y-127200499D01*
X155777270Y-127200500D01*
X155777273Y-127200500D01*
X155882730Y-127200500D01*
X155882730Y-127200499D01*
X155984587Y-127173207D01*
X156075913Y-127120480D01*
X156150480Y-127045913D01*
X156203207Y-126954587D01*
X156230499Y-126852730D01*
X156230500Y-126852730D01*
X156230500Y-126747270D01*
X156230499Y-126747269D01*
X156221244Y-126712730D01*
X156203207Y-126645413D01*
X156203206Y-126645412D01*
X156203206Y-126645410D01*
X156193478Y-126628561D01*
X156181185Y-126607269D01*
X160419500Y-126607269D01*
X160419500Y-126712730D01*
X160446792Y-126814585D01*
X160446793Y-126814589D01*
X160476223Y-126865562D01*
X160499520Y-126905913D01*
X160574087Y-126980480D01*
X160607513Y-126999778D01*
X160665410Y-127033206D01*
X160665412Y-127033206D01*
X160665413Y-127033207D01*
X160745747Y-127054732D01*
X160767269Y-127060499D01*
X160767270Y-127060500D01*
X160767273Y-127060500D01*
X160872730Y-127060500D01*
X160872730Y-127060499D01*
X160974587Y-127033207D01*
X161065913Y-126980480D01*
X161140480Y-126905913D01*
X161186142Y-126826823D01*
X161193206Y-126814589D01*
X161193206Y-126814588D01*
X161193207Y-126814587D01*
X161220499Y-126712730D01*
X161220500Y-126712730D01*
X161220500Y-126607270D01*
X161220499Y-126607269D01*
X161193207Y-126505414D01*
X161193206Y-126505410D01*
X161140479Y-126414086D01*
X161065913Y-126339520D01*
X160974589Y-126286793D01*
X160974585Y-126286792D01*
X160872730Y-126259500D01*
X160872727Y-126259500D01*
X160767273Y-126259500D01*
X160767270Y-126259500D01*
X160665414Y-126286792D01*
X160665410Y-126286793D01*
X160574086Y-126339520D01*
X160574086Y-126339521D01*
X160499521Y-126414086D01*
X160499520Y-126414086D01*
X160446793Y-126505410D01*
X160446792Y-126505414D01*
X160419500Y-126607269D01*
X156181185Y-126607269D01*
X156150479Y-126554086D01*
X156075913Y-126479520D01*
X155984589Y-126426793D01*
X155984585Y-126426792D01*
X155882730Y-126399500D01*
X155882727Y-126399500D01*
X155777273Y-126399500D01*
X155777270Y-126399500D01*
X155675414Y-126426792D01*
X155675410Y-126426793D01*
X155584086Y-126479520D01*
X155584086Y-126479521D01*
X155509521Y-126554086D01*
X155509520Y-126554086D01*
X155456793Y-126645410D01*
X155456792Y-126645414D01*
X155429500Y-126747269D01*
X152240743Y-126747269D01*
X152239528Y-126741161D01*
X152217053Y-126628174D01*
X152217050Y-126628163D01*
X152208396Y-126607270D01*
X152141632Y-126446086D01*
X152032139Y-126282218D01*
X151892782Y-126142861D01*
X151728914Y-126033368D01*
X151728911Y-126033366D01*
X151728910Y-126033366D01*
X151546836Y-125957949D01*
X151546827Y-125957947D01*
X151353544Y-125919500D01*
X151353541Y-125919500D01*
X151156459Y-125919500D01*
X151156455Y-125919500D01*
X150963172Y-125957947D01*
X150963163Y-125957949D01*
X150781089Y-126033366D01*
X150617218Y-126142860D01*
X150477860Y-126282218D01*
X150368366Y-126446089D01*
X150292949Y-126628163D01*
X150292947Y-126628172D01*
X150254500Y-126821455D01*
X144445499Y-126821455D01*
X144407051Y-126628165D01*
X144331632Y-126446086D01*
X144222139Y-126282218D01*
X144082782Y-126142861D01*
X143918914Y-126033368D01*
X143918911Y-126033366D01*
X143918910Y-126033366D01*
X143736836Y-125957949D01*
X143736827Y-125957947D01*
X143543544Y-125919500D01*
X143543541Y-125919500D01*
X143346459Y-125919500D01*
X143346455Y-125919500D01*
X143153172Y-125957947D01*
X143153163Y-125957949D01*
X142971089Y-126033366D01*
X142807218Y-126142860D01*
X142667860Y-126282218D01*
X142558366Y-126446089D01*
X142482949Y-126628163D01*
X142482947Y-126628172D01*
X142444500Y-126821455D01*
X134500500Y-126821455D01*
X134500500Y-124281455D01*
X142444500Y-124281455D01*
X142444500Y-124478544D01*
X142482947Y-124671827D01*
X142482949Y-124671835D01*
X142558368Y-124853914D01*
X142667861Y-125017782D01*
X142807218Y-125157139D01*
X142971086Y-125266632D01*
X143153165Y-125342051D01*
X143346459Y-125380500D01*
X143543541Y-125380500D01*
X143736835Y-125342051D01*
X143918914Y-125266632D01*
X144082782Y-125157139D01*
X144222139Y-125017782D01*
X144331632Y-124853914D01*
X144407051Y-124671835D01*
X144445500Y-124478541D01*
X144445500Y-124281459D01*
X144407051Y-124088165D01*
X144331632Y-123906086D01*
X144222139Y-123742218D01*
X144082782Y-123602861D01*
X143918914Y-123493368D01*
X143918911Y-123493366D01*
X143918910Y-123493366D01*
X143736836Y-123417949D01*
X143736827Y-123417947D01*
X143543544Y-123379500D01*
X143543541Y-123379500D01*
X143346459Y-123379500D01*
X143346455Y-123379500D01*
X143153172Y-123417947D01*
X143153163Y-123417949D01*
X142971089Y-123493366D01*
X142807218Y-123602860D01*
X142667860Y-123742218D01*
X142558366Y-123906089D01*
X142482949Y-124088163D01*
X142482947Y-124088172D01*
X142444500Y-124281455D01*
X134500500Y-124281455D01*
X134500500Y-122517269D01*
X154069500Y-122517269D01*
X154069500Y-122622730D01*
X154096792Y-122724585D01*
X154096793Y-122724589D01*
X154149520Y-122815913D01*
X154224087Y-122890480D01*
X154227458Y-122892426D01*
X154315410Y-122943206D01*
X154315412Y-122943206D01*
X154315413Y-122943207D01*
X154395747Y-122964732D01*
X154417269Y-122970499D01*
X154417270Y-122970500D01*
X154417273Y-122970500D01*
X154522730Y-122970500D01*
X154522730Y-122970499D01*
X154624587Y-122943207D01*
X154652192Y-122927269D01*
X155469500Y-122927269D01*
X155469500Y-123032730D01*
X155496792Y-123134585D01*
X155496793Y-123134589D01*
X155549520Y-123225913D01*
X155624087Y-123300480D01*
X155646129Y-123313206D01*
X155715410Y-123353206D01*
X155715412Y-123353206D01*
X155715413Y-123353207D01*
X155795747Y-123374732D01*
X155817269Y-123380499D01*
X155817270Y-123380500D01*
X155817273Y-123380500D01*
X155922730Y-123380500D01*
X155922730Y-123380499D01*
X156024587Y-123353207D01*
X156115913Y-123300480D01*
X156190480Y-123225913D01*
X156243207Y-123134587D01*
X156270499Y-123032730D01*
X156270500Y-123032730D01*
X156270500Y-122927270D01*
X156270499Y-122927269D01*
X156243207Y-122825414D01*
X156243206Y-122825410D01*
X156190479Y-122734086D01*
X156115913Y-122659520D01*
X156058714Y-122626496D01*
X156024589Y-122606793D01*
X156024585Y-122606792D01*
X155951724Y-122587269D01*
X156629500Y-122587269D01*
X156629500Y-122692730D01*
X156656792Y-122794585D01*
X156656793Y-122794589D01*
X156709520Y-122885913D01*
X156784087Y-122960480D01*
X156817513Y-122979778D01*
X156875410Y-123013206D01*
X156875412Y-123013206D01*
X156875413Y-123013207D01*
X156948275Y-123032730D01*
X156977269Y-123040499D01*
X156977270Y-123040500D01*
X156977273Y-123040500D01*
X157082730Y-123040500D01*
X157082730Y-123040499D01*
X157184587Y-123013207D01*
X157275913Y-122960480D01*
X157349124Y-122887269D01*
X160589500Y-122887269D01*
X160589500Y-122992730D01*
X160616792Y-123094585D01*
X160616793Y-123094589D01*
X160669520Y-123185913D01*
X160744087Y-123260480D01*
X160777513Y-123279778D01*
X160835410Y-123313206D01*
X160835412Y-123313206D01*
X160835413Y-123313207D01*
X160915747Y-123334732D01*
X160937269Y-123340499D01*
X160937270Y-123340500D01*
X160937273Y-123340500D01*
X161042730Y-123340500D01*
X161042730Y-123340499D01*
X161144587Y-123313207D01*
X161235913Y-123260480D01*
X161310480Y-123185913D01*
X161363207Y-123094587D01*
X161390499Y-122992730D01*
X161390500Y-122992730D01*
X161390500Y-122887270D01*
X161390499Y-122887269D01*
X161373924Y-122825410D01*
X161363207Y-122785413D01*
X161363206Y-122785412D01*
X161363206Y-122785410D01*
X161310479Y-122694086D01*
X161235913Y-122619520D01*
X161144589Y-122566793D01*
X161144585Y-122566792D01*
X161042730Y-122539500D01*
X161042727Y-122539500D01*
X160937273Y-122539500D01*
X160937270Y-122539500D01*
X160835414Y-122566792D01*
X160835410Y-122566793D01*
X160744086Y-122619520D01*
X160744086Y-122619521D01*
X160669521Y-122694086D01*
X160669520Y-122694086D01*
X160616793Y-122785410D01*
X160616792Y-122785414D01*
X160589500Y-122887269D01*
X157349124Y-122887269D01*
X157350480Y-122885913D01*
X157403207Y-122794587D01*
X157430499Y-122692730D01*
X157430500Y-122692730D01*
X157430500Y-122587270D01*
X157430499Y-122587269D01*
X157411743Y-122517269D01*
X157403207Y-122485413D01*
X157403206Y-122485412D01*
X157403206Y-122485410D01*
X157362793Y-122415414D01*
X157350480Y-122394087D01*
X157275913Y-122319520D01*
X157184589Y-122266793D01*
X157184585Y-122266792D01*
X157082730Y-122239500D01*
X157082727Y-122239500D01*
X156977273Y-122239500D01*
X156977270Y-122239500D01*
X156875414Y-122266792D01*
X156875410Y-122266793D01*
X156784086Y-122319520D01*
X156784086Y-122319521D01*
X156709521Y-122394086D01*
X156709520Y-122394086D01*
X156656793Y-122485410D01*
X156656792Y-122485414D01*
X156629500Y-122587269D01*
X155951724Y-122587269D01*
X155922730Y-122579500D01*
X155922727Y-122579500D01*
X155817273Y-122579500D01*
X155817270Y-122579500D01*
X155715414Y-122606792D01*
X155715410Y-122606793D01*
X155624086Y-122659520D01*
X155624086Y-122659521D01*
X155549521Y-122734086D01*
X155549520Y-122734086D01*
X155496793Y-122825410D01*
X155496792Y-122825414D01*
X155469500Y-122927269D01*
X154652192Y-122927269D01*
X154715913Y-122890480D01*
X154790480Y-122815913D01*
X154843207Y-122724587D01*
X154870499Y-122622730D01*
X154870500Y-122622730D01*
X154870500Y-122517270D01*
X154870499Y-122517269D01*
X154864732Y-122495747D01*
X154843207Y-122415413D01*
X154843206Y-122415412D01*
X154843206Y-122415410D01*
X154790479Y-122324086D01*
X154715913Y-122249520D01*
X154624589Y-122196793D01*
X154624585Y-122196792D01*
X154522730Y-122169500D01*
X154522727Y-122169500D01*
X154417273Y-122169500D01*
X154417270Y-122169500D01*
X154315414Y-122196792D01*
X154315410Y-122196793D01*
X154224086Y-122249520D01*
X154224086Y-122249521D01*
X154149521Y-122324086D01*
X154149520Y-122324086D01*
X154096793Y-122415410D01*
X154096792Y-122415414D01*
X154069500Y-122517269D01*
X134500500Y-122517269D01*
X134500500Y-121917113D01*
X154838242Y-121917113D01*
X154838242Y-122022574D01*
X154865534Y-122124429D01*
X154865535Y-122124433D01*
X154907313Y-122196793D01*
X154918262Y-122215757D01*
X154992829Y-122290324D01*
X155026255Y-122309622D01*
X155084152Y-122343050D01*
X155084154Y-122343050D01*
X155084155Y-122343051D01*
X155164489Y-122364576D01*
X155186011Y-122370343D01*
X155186012Y-122370344D01*
X155186015Y-122370344D01*
X155291472Y-122370344D01*
X155291472Y-122370343D01*
X155393329Y-122343051D01*
X155484655Y-122290324D01*
X155559222Y-122215757D01*
X155611949Y-122124431D01*
X155639241Y-122022574D01*
X155639242Y-122022574D01*
X155639242Y-121917114D01*
X155639241Y-121917113D01*
X155611949Y-121815258D01*
X155611948Y-121815254D01*
X155559221Y-121723930D01*
X155484655Y-121649364D01*
X155393331Y-121596637D01*
X155393327Y-121596636D01*
X155291472Y-121569344D01*
X155291469Y-121569344D01*
X155186015Y-121569344D01*
X155186012Y-121569344D01*
X155084156Y-121596636D01*
X155084152Y-121596637D01*
X154992828Y-121649364D01*
X154992828Y-121649365D01*
X154918263Y-121723930D01*
X154918262Y-121723930D01*
X154865535Y-121815254D01*
X154865534Y-121815258D01*
X154838242Y-121917113D01*
X134500500Y-121917113D01*
X134500500Y-110243221D01*
X134514852Y-110208573D01*
X134549500Y-110194221D01*
X134563304Y-110196206D01*
G37*
%TD.AperFunction*%
%TD*%
%TA.AperFunction,Conductor*%
%TO.N,GND_POWER*%
G36*
X233442539Y-80520185D02*
G01*
X233488294Y-80572989D01*
X233499500Y-80624500D01*
X233499500Y-124670500D01*
X233479815Y-124737539D01*
X233427011Y-124783294D01*
X233375500Y-124794500D01*
X193329500Y-124794500D01*
X193262461Y-124774815D01*
X193216706Y-124722011D01*
X193205500Y-124670500D01*
X193205500Y-116560247D01*
X208714500Y-116560247D01*
X208714500Y-118099752D01*
X208726131Y-118158229D01*
X208726132Y-118158230D01*
X208770447Y-118224552D01*
X208836769Y-118268867D01*
X208836770Y-118268868D01*
X208895247Y-118280499D01*
X208895250Y-118280500D01*
X208895252Y-118280500D01*
X209984750Y-118280500D01*
X209984751Y-118280499D01*
X209999568Y-118277552D01*
X210043229Y-118268868D01*
X210043229Y-118268867D01*
X210043231Y-118268867D01*
X210109552Y-118224552D01*
X210132222Y-118190624D01*
X210185832Y-118145821D01*
X210255157Y-118137112D01*
X210304213Y-118156414D01*
X210366335Y-118197922D01*
X210366345Y-118197928D01*
X210366347Y-118197929D01*
X210498380Y-118252619D01*
X210498384Y-118252619D01*
X210498385Y-118252620D01*
X210638542Y-118280500D01*
X210638545Y-118280500D01*
X210781457Y-118280500D01*
X210875751Y-118261742D01*
X210921620Y-118252619D01*
X211053653Y-118197929D01*
X211172479Y-118118532D01*
X211273532Y-118017479D01*
X211352929Y-117898653D01*
X211407619Y-117766620D01*
X211435500Y-117626455D01*
X211435500Y-117033545D01*
X211435500Y-117033542D01*
X211407620Y-116893385D01*
X211407619Y-116893384D01*
X211407619Y-116893380D01*
X211352929Y-116761347D01*
X211352928Y-116761346D01*
X211352925Y-116761340D01*
X211273532Y-116642521D01*
X211273529Y-116642517D01*
X211172482Y-116541470D01*
X211172478Y-116541467D01*
X211053659Y-116462074D01*
X211053650Y-116462069D01*
X210921620Y-116407381D01*
X210921614Y-116407379D01*
X210781457Y-116379500D01*
X210781455Y-116379500D01*
X210638545Y-116379500D01*
X210638543Y-116379500D01*
X210498385Y-116407379D01*
X210498379Y-116407381D01*
X210366349Y-116462069D01*
X210366337Y-116462076D01*
X210304212Y-116503586D01*
X210237535Y-116524463D01*
X210170155Y-116505978D01*
X210132221Y-116469374D01*
X210109552Y-116435447D01*
X210043230Y-116391132D01*
X210043229Y-116391131D01*
X209984752Y-116379500D01*
X209984748Y-116379500D01*
X208895252Y-116379500D01*
X208895247Y-116379500D01*
X208836770Y-116391131D01*
X208836769Y-116391132D01*
X208770447Y-116435447D01*
X208726132Y-116501769D01*
X208726131Y-116501770D01*
X208714500Y-116560247D01*
X193205500Y-116560247D01*
X193205500Y-113124008D01*
X193205499Y-113123992D01*
X193201969Y-113091161D01*
X193200803Y-113080316D01*
X193196691Y-113061413D01*
X193189602Y-113028825D01*
X193189348Y-113027789D01*
X193187110Y-113018627D01*
X193144100Y-112937915D01*
X193098345Y-112885111D01*
X193098339Y-112885104D01*
X193080757Y-112867160D01*
X193080756Y-112867159D01*
X193080754Y-112867157D01*
X193080752Y-112867156D01*
X193080750Y-112867154D01*
X193000940Y-112822511D01*
X193000935Y-112822509D01*
X192933903Y-112802826D01*
X192933899Y-112802825D01*
X192933898Y-112802825D01*
X192876000Y-112794500D01*
X174095448Y-112794500D01*
X174083210Y-112794864D01*
X174068511Y-112795740D01*
X174068507Y-112795740D01*
X174068506Y-112795741D01*
X174054512Y-112799047D01*
X173999835Y-112811967D01*
X173935614Y-112839467D01*
X173935597Y-112839475D01*
X173915468Y-112849594D01*
X173846729Y-112862116D01*
X173795462Y-112841639D01*
X173794352Y-112843564D01*
X173787315Y-112839501D01*
X173787314Y-112839500D01*
X173723791Y-112802825D01*
X173673187Y-112773608D01*
X173609539Y-112756554D01*
X173545892Y-112739500D01*
X173414108Y-112739500D01*
X173286814Y-112773608D01*
X173286813Y-112773608D01*
X173286811Y-112773609D01*
X173286810Y-112773609D01*
X173165648Y-112843563D01*
X173164955Y-112842363D01*
X173107833Y-112864438D01*
X173039390Y-112850389D01*
X173037000Y-112849086D01*
X173019804Y-112839467D01*
X172989489Y-112822510D01*
X172989488Y-112822509D01*
X172989487Y-112822509D01*
X172922455Y-112802826D01*
X172922451Y-112802825D01*
X172922450Y-112802825D01*
X172864552Y-112794500D01*
X172864548Y-112794500D01*
X172329500Y-112794500D01*
X172262461Y-112774815D01*
X172216706Y-112722011D01*
X172205500Y-112670500D01*
X172205500Y-111934108D01*
X200499500Y-111934108D01*
X200499500Y-112065891D01*
X200533608Y-112193187D01*
X200566554Y-112250250D01*
X200599500Y-112307314D01*
X200599502Y-112307316D01*
X200692687Y-112400501D01*
X200694158Y-112401630D01*
X200695083Y-112402897D01*
X200698433Y-112406247D01*
X200697910Y-112406769D01*
X200735356Y-112458060D01*
X200739506Y-112527807D01*
X200705289Y-112588725D01*
X200694158Y-112598370D01*
X200692687Y-112599498D01*
X200599502Y-112692683D01*
X200599500Y-112692686D01*
X200533608Y-112806812D01*
X200507005Y-112906098D01*
X200499500Y-112934108D01*
X200499500Y-113065892D01*
X200506271Y-113091161D01*
X200533608Y-113193187D01*
X200566554Y-113250250D01*
X200599500Y-113307314D01*
X200599502Y-113307316D01*
X200692687Y-113400501D01*
X200694158Y-113401630D01*
X200695083Y-113402897D01*
X200698433Y-113406247D01*
X200697910Y-113406769D01*
X200735356Y-113458060D01*
X200739506Y-113527807D01*
X200705289Y-113588725D01*
X200694158Y-113598370D01*
X200692687Y-113599498D01*
X200599502Y-113692683D01*
X200599500Y-113692686D01*
X200533608Y-113806812D01*
X200499500Y-113934108D01*
X200499500Y-114065891D01*
X200533608Y-114193187D01*
X200566554Y-114250250D01*
X200599500Y-114307314D01*
X200692686Y-114400500D01*
X200806814Y-114466392D01*
X200934108Y-114500500D01*
X200934110Y-114500500D01*
X201065890Y-114500500D01*
X201065892Y-114500500D01*
X201193186Y-114466392D01*
X201307314Y-114400500D01*
X201400500Y-114307314D01*
X201400504Y-114307306D01*
X201401625Y-114305847D01*
X201402892Y-114304921D01*
X201406247Y-114301567D01*
X201406770Y-114302090D01*
X201458053Y-114264645D01*
X201527799Y-114260491D01*
X201588719Y-114294704D01*
X201598375Y-114305847D01*
X201599498Y-114307311D01*
X201599500Y-114307314D01*
X201692686Y-114400500D01*
X201806814Y-114466392D01*
X201934108Y-114500500D01*
X201934110Y-114500500D01*
X202065890Y-114500500D01*
X202065892Y-114500500D01*
X202193186Y-114466392D01*
X202307314Y-114400500D01*
X202400500Y-114307314D01*
X202400504Y-114307306D01*
X202401625Y-114305847D01*
X202402892Y-114304921D01*
X202406247Y-114301567D01*
X202406770Y-114302090D01*
X202458053Y-114264645D01*
X202527799Y-114260491D01*
X202588719Y-114294704D01*
X202598375Y-114305847D01*
X202599498Y-114307311D01*
X202599500Y-114307314D01*
X202692686Y-114400500D01*
X202806814Y-114466392D01*
X202934108Y-114500500D01*
X202934110Y-114500500D01*
X203065890Y-114500500D01*
X203065892Y-114500500D01*
X203193186Y-114466392D01*
X203307314Y-114400500D01*
X203400500Y-114307314D01*
X203400504Y-114307306D01*
X203401625Y-114305847D01*
X203402892Y-114304921D01*
X203406247Y-114301567D01*
X203406770Y-114302090D01*
X203458053Y-114264645D01*
X203527799Y-114260491D01*
X203588719Y-114294704D01*
X203598375Y-114305847D01*
X203599498Y-114307311D01*
X203599500Y-114307314D01*
X203692686Y-114400500D01*
X203806814Y-114466392D01*
X203934108Y-114500500D01*
X203934110Y-114500500D01*
X204065890Y-114500500D01*
X204065892Y-114500500D01*
X204193186Y-114466392D01*
X204307314Y-114400500D01*
X204400500Y-114307314D01*
X204400504Y-114307306D01*
X204401625Y-114305847D01*
X204402892Y-114304921D01*
X204406247Y-114301567D01*
X204406770Y-114302090D01*
X204458053Y-114264645D01*
X204527799Y-114260491D01*
X204588719Y-114294704D01*
X204598375Y-114305847D01*
X204599498Y-114307311D01*
X204599500Y-114307314D01*
X204692686Y-114400500D01*
X204806814Y-114466392D01*
X204934108Y-114500500D01*
X204934110Y-114500500D01*
X205065890Y-114500500D01*
X205065892Y-114500500D01*
X205193186Y-114466392D01*
X205307314Y-114400500D01*
X205400500Y-114307314D01*
X205400504Y-114307306D01*
X205401625Y-114305847D01*
X205402892Y-114304921D01*
X205406247Y-114301567D01*
X205406770Y-114302090D01*
X205458053Y-114264645D01*
X205527799Y-114260491D01*
X205588719Y-114294704D01*
X205598375Y-114305847D01*
X205599498Y-114307311D01*
X205599500Y-114307314D01*
X205692686Y-114400500D01*
X205806814Y-114466392D01*
X205934108Y-114500500D01*
X205934110Y-114500500D01*
X206065890Y-114500500D01*
X206065892Y-114500500D01*
X206193186Y-114466392D01*
X206307314Y-114400500D01*
X206400500Y-114307314D01*
X206400504Y-114307306D01*
X206401625Y-114305847D01*
X206402892Y-114304921D01*
X206406247Y-114301567D01*
X206406770Y-114302090D01*
X206458053Y-114264645D01*
X206527799Y-114260491D01*
X206588719Y-114294704D01*
X206598375Y-114305847D01*
X206599498Y-114307311D01*
X206599500Y-114307314D01*
X206692686Y-114400500D01*
X206806814Y-114466392D01*
X206934108Y-114500500D01*
X206934110Y-114500500D01*
X207065890Y-114500500D01*
X207065892Y-114500500D01*
X207193186Y-114466392D01*
X207307314Y-114400500D01*
X207400500Y-114307314D01*
X207466392Y-114193186D01*
X207500500Y-114065892D01*
X207500500Y-113934108D01*
X207466392Y-113806814D01*
X207400500Y-113692686D01*
X207307314Y-113599500D01*
X207307311Y-113599498D01*
X207305847Y-113598375D01*
X207304921Y-113597107D01*
X207301567Y-113593753D01*
X207302090Y-113593229D01*
X207264645Y-113541947D01*
X207260491Y-113472201D01*
X207287740Y-113418661D01*
X207299705Y-113404893D01*
X207307314Y-113400500D01*
X207378942Y-113328872D01*
X217459500Y-113328872D01*
X217459500Y-113591127D01*
X217486123Y-113793339D01*
X217493730Y-113851116D01*
X217551279Y-114065891D01*
X217561602Y-114104418D01*
X217561605Y-114104428D01*
X217661953Y-114346690D01*
X217661958Y-114346700D01*
X217793075Y-114573803D01*
X217952718Y-114781851D01*
X217952726Y-114781860D01*
X218138140Y-114967274D01*
X218138148Y-114967281D01*
X218346196Y-115126924D01*
X218573299Y-115258041D01*
X218573309Y-115258046D01*
X218815571Y-115358394D01*
X218815581Y-115358398D01*
X219068884Y-115426270D01*
X219328880Y-115460500D01*
X219328887Y-115460500D01*
X219591113Y-115460500D01*
X219591120Y-115460500D01*
X219851116Y-115426270D01*
X220104419Y-115358398D01*
X220346697Y-115258043D01*
X220573803Y-115126924D01*
X220781851Y-114967282D01*
X220781855Y-114967277D01*
X220781860Y-114967274D01*
X220967274Y-114781860D01*
X220967277Y-114781855D01*
X220967282Y-114781851D01*
X221126924Y-114573803D01*
X221258043Y-114346697D01*
X221276737Y-114301567D01*
X221358394Y-114104428D01*
X221358398Y-114104419D01*
X221426270Y-113851116D01*
X221460500Y-113591120D01*
X221460500Y-113328880D01*
X221426270Y-113068884D01*
X221358398Y-112815581D01*
X221307492Y-112692683D01*
X221258046Y-112573309D01*
X221258041Y-112573299D01*
X221126924Y-112346196D01*
X220967281Y-112138148D01*
X220967274Y-112138140D01*
X220781860Y-111952726D01*
X220781851Y-111952718D01*
X220573803Y-111793075D01*
X220346700Y-111661958D01*
X220346690Y-111661953D01*
X220104428Y-111561605D01*
X220104421Y-111561603D01*
X220104419Y-111561602D01*
X219851116Y-111493730D01*
X219793339Y-111486123D01*
X219591127Y-111459500D01*
X219591120Y-111459500D01*
X219328880Y-111459500D01*
X219328872Y-111459500D01*
X219097772Y-111489926D01*
X219068884Y-111493730D01*
X218920057Y-111533608D01*
X218815581Y-111561602D01*
X218815571Y-111561605D01*
X218573309Y-111661953D01*
X218573299Y-111661958D01*
X218346196Y-111793075D01*
X218138148Y-111952718D01*
X217952718Y-112138148D01*
X217793075Y-112346196D01*
X217661958Y-112573299D01*
X217661953Y-112573309D01*
X217561605Y-112815571D01*
X217561602Y-112815581D01*
X217494533Y-113065890D01*
X217493730Y-113068885D01*
X217459500Y-113328872D01*
X207378942Y-113328872D01*
X207400500Y-113307314D01*
X207466392Y-113193186D01*
X207500500Y-113065892D01*
X207500500Y-112934108D01*
X207466392Y-112806814D01*
X207459282Y-112794500D01*
X207427528Y-112739500D01*
X207400500Y-112692686D01*
X207307314Y-112599500D01*
X207307311Y-112599498D01*
X207305847Y-112598375D01*
X207304921Y-112597107D01*
X207301567Y-112593753D01*
X207302090Y-112593229D01*
X207264645Y-112541947D01*
X207260491Y-112472201D01*
X207294704Y-112411281D01*
X207305847Y-112401625D01*
X207307306Y-112400504D01*
X207307314Y-112400500D01*
X207400500Y-112307314D01*
X207466392Y-112193186D01*
X207500500Y-112065892D01*
X207500500Y-111934108D01*
X207466392Y-111806814D01*
X207400500Y-111692686D01*
X207307314Y-111599500D01*
X207241673Y-111561602D01*
X207193187Y-111533608D01*
X207129539Y-111516554D01*
X207065892Y-111499500D01*
X206934108Y-111499500D01*
X206806812Y-111533608D01*
X206692686Y-111599500D01*
X206692683Y-111599502D01*
X206599498Y-111692687D01*
X206598370Y-111694158D01*
X206597102Y-111695083D01*
X206593753Y-111698433D01*
X206593230Y-111697910D01*
X206541940Y-111735356D01*
X206472193Y-111739506D01*
X206411275Y-111705289D01*
X206401630Y-111694158D01*
X206400501Y-111692687D01*
X206307316Y-111599502D01*
X206307314Y-111599500D01*
X206241673Y-111561602D01*
X206193187Y-111533608D01*
X206129539Y-111516554D01*
X206065892Y-111499500D01*
X205934108Y-111499500D01*
X205806812Y-111533608D01*
X205692686Y-111599500D01*
X205692683Y-111599502D01*
X205599498Y-111692687D01*
X205598370Y-111694158D01*
X205597102Y-111695083D01*
X205593753Y-111698433D01*
X205593230Y-111697910D01*
X205541940Y-111735356D01*
X205472193Y-111739506D01*
X205411275Y-111705289D01*
X205401630Y-111694158D01*
X205400501Y-111692687D01*
X205307316Y-111599502D01*
X205307314Y-111599500D01*
X205241673Y-111561602D01*
X205193187Y-111533608D01*
X205129539Y-111516554D01*
X205065892Y-111499500D01*
X204934108Y-111499500D01*
X204806812Y-111533608D01*
X204692686Y-111599500D01*
X204692683Y-111599502D01*
X204599498Y-111692687D01*
X204598370Y-111694158D01*
X204597102Y-111695083D01*
X204593753Y-111698433D01*
X204593230Y-111697910D01*
X204541940Y-111735356D01*
X204472193Y-111739506D01*
X204411275Y-111705289D01*
X204401630Y-111694158D01*
X204400501Y-111692687D01*
X204307316Y-111599502D01*
X204307314Y-111599500D01*
X204241673Y-111561602D01*
X204193187Y-111533608D01*
X204129539Y-111516554D01*
X204065892Y-111499500D01*
X203934108Y-111499500D01*
X203806812Y-111533608D01*
X203692686Y-111599500D01*
X203692683Y-111599502D01*
X203599498Y-111692687D01*
X203598370Y-111694158D01*
X203597102Y-111695083D01*
X203593753Y-111698433D01*
X203593230Y-111697910D01*
X203541940Y-111735356D01*
X203472193Y-111739506D01*
X203411275Y-111705289D01*
X203401630Y-111694158D01*
X203400501Y-111692687D01*
X203307316Y-111599502D01*
X203307314Y-111599500D01*
X203241673Y-111561602D01*
X203193187Y-111533608D01*
X203129539Y-111516554D01*
X203065892Y-111499500D01*
X202934108Y-111499500D01*
X202806812Y-111533608D01*
X202692686Y-111599500D01*
X202692683Y-111599502D01*
X202599498Y-111692687D01*
X202598370Y-111694158D01*
X202597102Y-111695083D01*
X202593753Y-111698433D01*
X202593230Y-111697910D01*
X202541940Y-111735356D01*
X202472193Y-111739506D01*
X202411275Y-111705289D01*
X202401630Y-111694158D01*
X202400501Y-111692687D01*
X202307316Y-111599502D01*
X202307314Y-111599500D01*
X202241673Y-111561602D01*
X202193187Y-111533608D01*
X202129539Y-111516554D01*
X202065892Y-111499500D01*
X201934108Y-111499500D01*
X201806812Y-111533608D01*
X201692686Y-111599500D01*
X201692683Y-111599502D01*
X201599498Y-111692687D01*
X201598370Y-111694158D01*
X201597102Y-111695083D01*
X201593753Y-111698433D01*
X201593230Y-111697910D01*
X201541940Y-111735356D01*
X201472193Y-111739506D01*
X201411275Y-111705289D01*
X201401630Y-111694158D01*
X201400501Y-111692687D01*
X201307316Y-111599502D01*
X201307314Y-111599500D01*
X201241673Y-111561602D01*
X201193187Y-111533608D01*
X201129539Y-111516554D01*
X201065892Y-111499500D01*
X200934108Y-111499500D01*
X200806812Y-111533608D01*
X200692686Y-111599500D01*
X200692683Y-111599502D01*
X200599502Y-111692683D01*
X200599500Y-111692686D01*
X200533608Y-111806812D01*
X200499500Y-111934108D01*
X172205500Y-111934108D01*
X172205500Y-110124008D01*
X172205499Y-110123992D01*
X172205035Y-110119679D01*
X172200803Y-110080316D01*
X172196796Y-110061898D01*
X172189602Y-110028825D01*
X172189348Y-110027789D01*
X172187110Y-110018627D01*
X172144100Y-109937915D01*
X172098345Y-109885111D01*
X172098339Y-109885104D01*
X172080757Y-109867160D01*
X172080756Y-109867159D01*
X172080754Y-109867157D01*
X172080752Y-109867156D01*
X172080750Y-109867154D01*
X172000940Y-109822511D01*
X172000935Y-109822509D01*
X171933903Y-109802826D01*
X171933899Y-109802825D01*
X171933898Y-109802825D01*
X171876000Y-109794500D01*
X162622820Y-109794500D01*
X162622810Y-109794500D01*
X162580465Y-109798912D01*
X162580456Y-109798913D01*
X162580455Y-109798914D01*
X162561887Y-109802826D01*
X162530431Y-109809453D01*
X162521536Y-109811535D01*
X162521533Y-109811536D01*
X162440268Y-109853480D01*
X162440260Y-109853485D01*
X162386882Y-109898527D01*
X162386871Y-109898536D01*
X162368685Y-109915893D01*
X162368684Y-109915894D01*
X162368683Y-109915896D01*
X162355964Y-109937948D01*
X162305423Y-109986188D01*
X162248549Y-110000000D01*
X134624500Y-110000000D01*
X134557461Y-109980315D01*
X134511706Y-109927511D01*
X134500500Y-109876000D01*
X134500500Y-109346379D01*
X195499500Y-109346379D01*
X195499500Y-109533620D01*
X195536025Y-109717243D01*
X195536027Y-109717251D01*
X195607676Y-109890228D01*
X195607681Y-109890237D01*
X195711697Y-110045907D01*
X195711700Y-110045911D01*
X195844088Y-110178299D01*
X195844092Y-110178302D01*
X195999762Y-110282318D01*
X195999768Y-110282321D01*
X195999769Y-110282322D01*
X196172749Y-110353973D01*
X196356379Y-110390499D01*
X196356383Y-110390500D01*
X196356384Y-110390500D01*
X196543617Y-110390500D01*
X196543618Y-110390499D01*
X196727251Y-110353973D01*
X196900231Y-110282322D01*
X197055908Y-110178302D01*
X197188302Y-110045908D01*
X197292322Y-109890231D01*
X197363973Y-109717251D01*
X197400500Y-109533616D01*
X197400500Y-109346384D01*
X197363973Y-109162749D01*
X197292322Y-108989769D01*
X197292321Y-108989768D01*
X197292318Y-108989762D01*
X197188302Y-108834092D01*
X197188299Y-108834088D01*
X197055911Y-108701700D01*
X197055907Y-108701697D01*
X196900237Y-108597681D01*
X196900228Y-108597676D01*
X196727251Y-108526027D01*
X196727243Y-108526025D01*
X196543620Y-108489500D01*
X196543616Y-108489500D01*
X196356384Y-108489500D01*
X196356379Y-108489500D01*
X196172756Y-108526025D01*
X196172748Y-108526027D01*
X195999771Y-108597676D01*
X195999762Y-108597681D01*
X195844092Y-108701697D01*
X195844088Y-108701700D01*
X195711700Y-108834088D01*
X195711697Y-108834092D01*
X195607681Y-108989762D01*
X195607676Y-108989771D01*
X195536027Y-109162748D01*
X195536025Y-109162756D01*
X195499500Y-109346379D01*
X134500500Y-109346379D01*
X134500500Y-106806379D01*
X195499500Y-106806379D01*
X195499500Y-106993620D01*
X195536025Y-107177243D01*
X195536027Y-107177251D01*
X195607676Y-107350228D01*
X195607681Y-107350237D01*
X195711697Y-107505907D01*
X195711700Y-107505911D01*
X195844088Y-107638299D01*
X195844092Y-107638302D01*
X195999762Y-107742318D01*
X195999768Y-107742321D01*
X195999769Y-107742322D01*
X196172749Y-107813973D01*
X196356379Y-107850499D01*
X196356383Y-107850500D01*
X196356384Y-107850500D01*
X196543617Y-107850500D01*
X196543618Y-107850499D01*
X196727251Y-107813973D01*
X196900231Y-107742322D01*
X197055908Y-107638302D01*
X197188302Y-107505908D01*
X197292322Y-107350231D01*
X197363973Y-107177251D01*
X197400500Y-106993616D01*
X197400500Y-106806384D01*
X197363973Y-106622749D01*
X197299947Y-106468177D01*
X197292323Y-106449771D01*
X197292318Y-106449762D01*
X197188302Y-106294092D01*
X197188299Y-106294088D01*
X197055911Y-106161700D01*
X197055907Y-106161697D01*
X196900237Y-106057681D01*
X196900228Y-106057676D01*
X196727251Y-105986027D01*
X196727243Y-105986025D01*
X196543620Y-105949500D01*
X196543616Y-105949500D01*
X196356384Y-105949500D01*
X196356379Y-105949500D01*
X196172756Y-105986025D01*
X196172748Y-105986027D01*
X195999771Y-106057676D01*
X195999762Y-106057681D01*
X195844092Y-106161697D01*
X195844088Y-106161700D01*
X195711700Y-106294088D01*
X195711697Y-106294092D01*
X195607681Y-106449762D01*
X195607676Y-106449771D01*
X195536027Y-106622748D01*
X195536025Y-106622756D01*
X195499500Y-106806379D01*
X134500500Y-106806379D01*
X134500500Y-103047924D01*
X167989500Y-103047924D01*
X167989500Y-106287429D01*
X168001131Y-106345906D01*
X168001132Y-106345907D01*
X168045447Y-106412229D01*
X168111769Y-106456544D01*
X168111770Y-106456545D01*
X168170247Y-106468176D01*
X168170250Y-106468177D01*
X168170252Y-106468177D01*
X171409750Y-106468177D01*
X171409751Y-106468176D01*
X171424568Y-106465229D01*
X171468229Y-106456545D01*
X171468229Y-106456544D01*
X171468231Y-106456544D01*
X171534552Y-106412229D01*
X171578867Y-106345908D01*
X171578867Y-106345906D01*
X171578868Y-106345906D01*
X171590499Y-106287429D01*
X171590500Y-106287427D01*
X171590500Y-103047926D01*
X171590499Y-103047924D01*
X171578868Y-102989447D01*
X171578867Y-102989446D01*
X171534552Y-102923124D01*
X171468230Y-102878809D01*
X171468229Y-102878808D01*
X171409752Y-102867177D01*
X171409748Y-102867177D01*
X168170252Y-102867177D01*
X168170247Y-102867177D01*
X168111770Y-102878808D01*
X168111769Y-102878809D01*
X168045447Y-102923124D01*
X168001132Y-102989446D01*
X168001131Y-102989447D01*
X167989500Y-103047924D01*
X134500500Y-103047924D01*
X134500500Y-101796379D01*
X196429500Y-101796379D01*
X196429500Y-101983620D01*
X196466025Y-102167243D01*
X196466027Y-102167251D01*
X196537676Y-102340228D01*
X196537681Y-102340237D01*
X196641697Y-102495907D01*
X196641700Y-102495911D01*
X196774088Y-102628299D01*
X196774092Y-102628302D01*
X196929762Y-102732318D01*
X196929768Y-102732321D01*
X196929769Y-102732322D01*
X197102749Y-102803973D01*
X197286379Y-102840499D01*
X197286383Y-102840500D01*
X197286384Y-102840500D01*
X197473617Y-102840500D01*
X197473618Y-102840499D01*
X197657251Y-102803973D01*
X197830231Y-102732322D01*
X197985908Y-102628302D01*
X198118302Y-102495908D01*
X198222322Y-102340231D01*
X198293973Y-102167251D01*
X198330500Y-101983616D01*
X198330500Y-101796384D01*
X198293973Y-101612749D01*
X198222322Y-101439769D01*
X198222321Y-101439768D01*
X198222318Y-101439762D01*
X198118302Y-101284092D01*
X198118299Y-101284088D01*
X197985911Y-101151700D01*
X197985907Y-101151697D01*
X197830237Y-101047681D01*
X197830228Y-101047676D01*
X197657251Y-100976027D01*
X197657243Y-100976025D01*
X197473620Y-100939500D01*
X197473616Y-100939500D01*
X197286384Y-100939500D01*
X197286379Y-100939500D01*
X197102756Y-100976025D01*
X197102748Y-100976027D01*
X196929771Y-101047676D01*
X196929762Y-101047681D01*
X196774092Y-101151697D01*
X196774088Y-101151700D01*
X196641700Y-101284088D01*
X196641697Y-101284092D01*
X196537681Y-101439762D01*
X196537676Y-101439771D01*
X196466027Y-101612748D01*
X196466025Y-101612756D01*
X196429500Y-101796379D01*
X134500500Y-101796379D01*
X134500500Y-99256379D01*
X196429500Y-99256379D01*
X196429500Y-99443620D01*
X196466025Y-99627243D01*
X196466027Y-99627251D01*
X196537676Y-99800228D01*
X196537681Y-99800237D01*
X196641697Y-99955907D01*
X196641700Y-99955911D01*
X196774088Y-100088299D01*
X196774092Y-100088302D01*
X196929762Y-100192318D01*
X196929768Y-100192321D01*
X196929769Y-100192322D01*
X197102749Y-100263973D01*
X197286379Y-100300499D01*
X197286383Y-100300500D01*
X197286384Y-100300500D01*
X197473617Y-100300500D01*
X197473618Y-100300499D01*
X197657251Y-100263973D01*
X197830231Y-100192322D01*
X197985908Y-100088302D01*
X198118302Y-99955908D01*
X198222322Y-99800231D01*
X198293973Y-99627251D01*
X198330500Y-99443616D01*
X198330500Y-99256384D01*
X198293973Y-99072749D01*
X198222322Y-98899769D01*
X198222321Y-98899768D01*
X198222318Y-98899762D01*
X198118302Y-98744092D01*
X198118299Y-98744088D01*
X197985911Y-98611700D01*
X197985907Y-98611697D01*
X197830237Y-98507681D01*
X197830228Y-98507676D01*
X197657251Y-98436027D01*
X197657243Y-98436025D01*
X197473620Y-98399500D01*
X197473616Y-98399500D01*
X197286384Y-98399500D01*
X197286379Y-98399500D01*
X197102756Y-98436025D01*
X197102748Y-98436027D01*
X196929771Y-98507676D01*
X196929762Y-98507681D01*
X196774092Y-98611697D01*
X196774088Y-98611700D01*
X196641700Y-98744088D01*
X196641697Y-98744092D01*
X196537681Y-98899762D01*
X196537676Y-98899771D01*
X196466027Y-99072748D01*
X196466025Y-99072756D01*
X196429500Y-99256379D01*
X134500500Y-99256379D01*
X134500500Y-96434108D01*
X188769500Y-96434108D01*
X188769500Y-96565891D01*
X188803608Y-96693187D01*
X188821547Y-96724257D01*
X188869500Y-96807314D01*
X188962686Y-96900500D01*
X189076814Y-96966392D01*
X189204108Y-97000500D01*
X189204110Y-97000500D01*
X189335890Y-97000500D01*
X189335892Y-97000500D01*
X189463186Y-96966392D01*
X189577314Y-96900500D01*
X189662319Y-96815495D01*
X189723642Y-96782010D01*
X189793334Y-96786994D01*
X189837681Y-96815495D01*
X189839500Y-96817314D01*
X189932686Y-96910500D01*
X190046814Y-96976392D01*
X190174108Y-97010500D01*
X190174110Y-97010500D01*
X190305890Y-97010500D01*
X190305892Y-97010500D01*
X190433186Y-96976392D01*
X190547314Y-96910500D01*
X190602319Y-96855495D01*
X190663642Y-96822010D01*
X190733334Y-96826994D01*
X190777681Y-96855495D01*
X190852686Y-96930500D01*
X190966814Y-96996392D01*
X191094108Y-97030500D01*
X191094110Y-97030500D01*
X191225890Y-97030500D01*
X191225892Y-97030500D01*
X191353186Y-96996392D01*
X191467314Y-96930500D01*
X191467316Y-96930497D01*
X191467321Y-96930495D01*
X191473765Y-96925551D01*
X191474536Y-96926555D01*
X191528631Y-96897012D01*
X191598323Y-96901990D01*
X191642681Y-96930495D01*
X191652686Y-96940500D01*
X191766814Y-97006392D01*
X191894108Y-97040500D01*
X191894110Y-97040500D01*
X192025890Y-97040500D01*
X192025892Y-97040500D01*
X192153186Y-97006392D01*
X192267314Y-96940500D01*
X192352319Y-96855495D01*
X192413642Y-96822010D01*
X192483334Y-96826994D01*
X192527681Y-96855495D01*
X192529499Y-96857313D01*
X192529500Y-96857314D01*
X192622686Y-96950500D01*
X192736814Y-97016392D01*
X192864108Y-97050500D01*
X192864110Y-97050500D01*
X192995890Y-97050500D01*
X192995892Y-97050500D01*
X193123186Y-97016392D01*
X193237314Y-96950500D01*
X193330500Y-96857314D01*
X193396392Y-96743186D01*
X193418211Y-96661757D01*
X218307000Y-96661757D01*
X218307000Y-96938243D01*
X218319378Y-97016391D01*
X218335391Y-97117496D01*
X218335391Y-97117499D01*
X218391471Y-97290095D01*
X218391473Y-97290098D01*
X218473866Y-97451804D01*
X218580541Y-97598629D01*
X218708871Y-97726959D01*
X218855696Y-97833634D01*
X218943219Y-97878229D01*
X219017404Y-97916028D01*
X219190001Y-97972108D01*
X219190002Y-97972108D01*
X219190005Y-97972109D01*
X219369257Y-98000500D01*
X219369258Y-98000500D01*
X219550742Y-98000500D01*
X219550743Y-98000500D01*
X219729995Y-97972109D01*
X219729998Y-97972108D01*
X219729999Y-97972108D01*
X219902595Y-97916028D01*
X219902595Y-97916027D01*
X219902598Y-97916027D01*
X220064304Y-97833634D01*
X220211129Y-97726959D01*
X220339459Y-97598629D01*
X220446134Y-97451804D01*
X220528527Y-97290098D01*
X220584609Y-97117495D01*
X220600527Y-97016992D01*
X220630456Y-96953858D01*
X220689768Y-96916927D01*
X220759630Y-96917925D01*
X220817863Y-96956535D01*
X220845977Y-97020498D01*
X220847000Y-97036391D01*
X220847000Y-97819752D01*
X220858631Y-97878229D01*
X220858632Y-97878230D01*
X220902947Y-97944552D01*
X220969269Y-97988867D01*
X220969270Y-97988868D01*
X221027747Y-98000499D01*
X221027750Y-98000500D01*
X221027752Y-98000500D01*
X222972250Y-98000500D01*
X222972251Y-98000499D01*
X222987068Y-97997552D01*
X223030729Y-97988868D01*
X223030729Y-97988867D01*
X223030731Y-97988867D01*
X223097052Y-97944552D01*
X223141367Y-97878231D01*
X223141367Y-97878229D01*
X223141368Y-97878229D01*
X223152999Y-97819752D01*
X223153000Y-97819750D01*
X223153000Y-95780249D01*
X223152999Y-95780247D01*
X223141368Y-95721770D01*
X223141367Y-95721769D01*
X223097052Y-95655447D01*
X223030730Y-95611132D01*
X223030729Y-95611131D01*
X222972252Y-95599500D01*
X222972248Y-95599500D01*
X221027752Y-95599500D01*
X221027747Y-95599500D01*
X220969270Y-95611131D01*
X220969269Y-95611132D01*
X220902947Y-95655447D01*
X220858632Y-95721769D01*
X220858631Y-95721770D01*
X220847000Y-95780247D01*
X220847000Y-96563608D01*
X220827315Y-96630647D01*
X220774511Y-96676402D01*
X220705353Y-96686346D01*
X220641797Y-96657321D01*
X220604023Y-96598543D01*
X220600527Y-96583006D01*
X220597816Y-96565891D01*
X220584609Y-96482505D01*
X220584608Y-96482501D01*
X220584608Y-96482500D01*
X220528528Y-96309904D01*
X220490110Y-96234505D01*
X220446134Y-96148196D01*
X220339459Y-96001371D01*
X220211129Y-95873041D01*
X220064304Y-95766366D01*
X219902595Y-95683971D01*
X219729998Y-95627891D01*
X219595556Y-95606597D01*
X219550743Y-95599500D01*
X219369257Y-95599500D01*
X219309506Y-95608963D01*
X219190003Y-95627891D01*
X219190000Y-95627891D01*
X219017404Y-95683971D01*
X218855695Y-95766366D01*
X218805282Y-95802994D01*
X218708871Y-95873041D01*
X218708869Y-95873043D01*
X218708868Y-95873043D01*
X218580543Y-96001368D01*
X218580543Y-96001369D01*
X218580541Y-96001371D01*
X218552839Y-96039500D01*
X218473866Y-96148195D01*
X218391471Y-96309904D01*
X218335391Y-96482500D01*
X218335391Y-96482503D01*
X218314264Y-96615892D01*
X218307000Y-96661757D01*
X193418211Y-96661757D01*
X193430500Y-96615892D01*
X193430500Y-96484108D01*
X193396392Y-96356814D01*
X193390618Y-96346814D01*
X193345109Y-96267990D01*
X193330500Y-96242686D01*
X193237314Y-96149500D01*
X193168032Y-96109500D01*
X193123187Y-96083608D01*
X193048544Y-96063608D01*
X192995892Y-96049500D01*
X192864108Y-96049500D01*
X192736812Y-96083608D01*
X192622686Y-96149500D01*
X192622683Y-96149502D01*
X192537681Y-96234505D01*
X192476358Y-96267990D01*
X192406666Y-96263006D01*
X192362319Y-96234505D01*
X192267316Y-96139502D01*
X192267314Y-96139500D01*
X192198032Y-96099500D01*
X192153187Y-96073608D01*
X192089539Y-96056554D01*
X192025892Y-96039500D01*
X191894108Y-96039500D01*
X191766813Y-96073608D01*
X191721964Y-96099502D01*
X191670007Y-96129500D01*
X191652683Y-96139502D01*
X191652674Y-96139512D01*
X191652661Y-96139518D01*
X191646236Y-96144449D01*
X191645466Y-96143446D01*
X191591348Y-96172992D01*
X191521656Y-96168001D01*
X191477322Y-96139507D01*
X191467318Y-96129504D01*
X191467314Y-96129500D01*
X191387827Y-96083608D01*
X191353187Y-96063608D01*
X191278544Y-96043608D01*
X191225892Y-96029500D01*
X191094108Y-96029500D01*
X190966812Y-96063608D01*
X190852686Y-96129500D01*
X190797679Y-96184506D01*
X190736355Y-96217990D01*
X190666664Y-96213004D01*
X190622318Y-96184504D01*
X190547316Y-96109502D01*
X190547314Y-96109500D01*
X190467827Y-96063608D01*
X190433187Y-96043608D01*
X190369539Y-96026554D01*
X190305892Y-96009500D01*
X190174108Y-96009500D01*
X190046812Y-96043608D01*
X189932686Y-96109500D01*
X189932683Y-96109502D01*
X189847681Y-96194505D01*
X189786358Y-96227990D01*
X189716666Y-96223006D01*
X189672319Y-96194505D01*
X189577316Y-96099502D01*
X189577314Y-96099500D01*
X189490712Y-96049500D01*
X189463187Y-96033608D01*
X189397378Y-96015975D01*
X189335892Y-95999500D01*
X189204108Y-95999500D01*
X189076812Y-96033608D01*
X188962686Y-96099500D01*
X188962683Y-96099502D01*
X188869502Y-96192683D01*
X188869500Y-96192686D01*
X188803608Y-96306812D01*
X188769500Y-96434108D01*
X134500500Y-96434108D01*
X134500500Y-95096530D01*
X138439500Y-95096530D01*
X138439500Y-95303469D01*
X138472508Y-95469409D01*
X138479870Y-95506420D01*
X138559059Y-95697598D01*
X138575210Y-95721770D01*
X138674024Y-95869657D01*
X138820342Y-96015975D01*
X138820345Y-96015977D01*
X138992402Y-96130941D01*
X139183580Y-96210130D01*
X139386530Y-96250499D01*
X139386534Y-96250500D01*
X139386535Y-96250500D01*
X139593466Y-96250500D01*
X139593467Y-96250499D01*
X139796420Y-96210130D01*
X139987598Y-96130941D01*
X140159655Y-96015977D01*
X140305977Y-95869655D01*
X140420941Y-95697598D01*
X140500130Y-95506420D01*
X140540500Y-95303465D01*
X140540500Y-95109448D01*
X142839500Y-95109448D01*
X142839500Y-95290551D01*
X142867829Y-95469410D01*
X142923787Y-95641636D01*
X142923788Y-95641639D01*
X142964618Y-95721770D01*
X142994416Y-95780252D01*
X143006006Y-95802997D01*
X143112441Y-95949494D01*
X143112445Y-95949499D01*
X143240500Y-96077554D01*
X143240505Y-96077558D01*
X143325787Y-96139518D01*
X143387006Y-96183996D01*
X143453723Y-96217990D01*
X143548360Y-96266211D01*
X143548363Y-96266212D01*
X143634476Y-96294191D01*
X143720591Y-96322171D01*
X143803429Y-96335291D01*
X143899449Y-96350500D01*
X143899454Y-96350500D01*
X144080551Y-96350500D01*
X144188120Y-96333462D01*
X144259409Y-96322171D01*
X144302870Y-96308050D01*
X144302871Y-96308050D01*
X144431636Y-96266212D01*
X144431639Y-96266211D01*
X144462475Y-96250499D01*
X144592994Y-96183996D01*
X144739501Y-96077553D01*
X144867553Y-95949501D01*
X144973996Y-95802994D01*
X145056211Y-95641639D01*
X145112171Y-95469409D01*
X145126765Y-95377259D01*
X145140500Y-95290551D01*
X145140500Y-95109448D01*
X145124019Y-95005397D01*
X145112171Y-94930591D01*
X145056211Y-94758361D01*
X145056211Y-94758360D01*
X145027698Y-94702402D01*
X144973996Y-94597006D01*
X144925562Y-94530342D01*
X144867558Y-94450505D01*
X144867554Y-94450500D01*
X144739499Y-94322445D01*
X144739494Y-94322441D01*
X144592997Y-94216006D01*
X144592996Y-94216005D01*
X144592994Y-94216004D01*
X144541300Y-94189664D01*
X144431639Y-94133788D01*
X144431636Y-94133787D01*
X144259410Y-94077829D01*
X144080551Y-94049500D01*
X144080546Y-94049500D01*
X143899454Y-94049500D01*
X143899449Y-94049500D01*
X143720589Y-94077829D01*
X143548363Y-94133787D01*
X143548360Y-94133788D01*
X143387002Y-94216006D01*
X143240505Y-94322441D01*
X143240500Y-94322445D01*
X143112445Y-94450500D01*
X143112441Y-94450505D01*
X143006006Y-94597002D01*
X142923788Y-94758360D01*
X142923787Y-94758363D01*
X142867829Y-94930589D01*
X142839500Y-95109448D01*
X140540500Y-95109448D01*
X140540500Y-95096535D01*
X140500130Y-94893580D01*
X140420941Y-94702402D01*
X140305977Y-94530345D01*
X140305975Y-94530342D01*
X140159657Y-94384024D01*
X140067490Y-94322441D01*
X139987598Y-94269059D01*
X139796420Y-94189870D01*
X139796412Y-94189868D01*
X139593469Y-94149500D01*
X139593465Y-94149500D01*
X139386535Y-94149500D01*
X139386530Y-94149500D01*
X139183587Y-94189868D01*
X139183579Y-94189870D01*
X138992403Y-94269058D01*
X138820342Y-94384024D01*
X138674024Y-94530342D01*
X138559058Y-94702403D01*
X138479870Y-94893579D01*
X138479868Y-94893587D01*
X138439500Y-95096530D01*
X134500500Y-95096530D01*
X134500500Y-90950247D01*
X157619500Y-90950247D01*
X157619500Y-93489752D01*
X157631131Y-93548229D01*
X157631132Y-93548230D01*
X157675447Y-93614552D01*
X157741769Y-93658867D01*
X157741770Y-93658868D01*
X157800247Y-93670499D01*
X157800250Y-93670500D01*
X157800252Y-93670500D01*
X160339750Y-93670500D01*
X160339751Y-93670499D01*
X160354568Y-93667552D01*
X160398229Y-93658868D01*
X160398229Y-93658867D01*
X160398231Y-93658867D01*
X160464552Y-93614552D01*
X160508867Y-93548231D01*
X160508867Y-93548229D01*
X160508868Y-93548229D01*
X160520350Y-93490500D01*
X160520500Y-93489748D01*
X160520500Y-93098543D01*
X181999499Y-93098543D01*
X182037947Y-93291829D01*
X182037950Y-93291839D01*
X182113364Y-93473907D01*
X182113371Y-93473920D01*
X182222860Y-93637781D01*
X182222863Y-93637785D01*
X182362214Y-93777136D01*
X182362218Y-93777139D01*
X182526079Y-93886628D01*
X182526092Y-93886635D01*
X182708160Y-93962049D01*
X182708165Y-93962051D01*
X182708169Y-93962051D01*
X182708170Y-93962052D01*
X182901456Y-94000500D01*
X182901459Y-94000500D01*
X183098543Y-94000500D01*
X183228582Y-93974632D01*
X183291835Y-93962051D01*
X183473914Y-93886632D01*
X183637782Y-93777139D01*
X183777139Y-93637782D01*
X183886632Y-93473914D01*
X183962051Y-93291835D01*
X183976591Y-93218739D01*
X184000500Y-93098543D01*
X184000500Y-93004108D01*
X188709500Y-93004108D01*
X188709500Y-93135891D01*
X188743608Y-93263187D01*
X188776554Y-93320250D01*
X188809500Y-93377314D01*
X188902686Y-93470500D01*
X188971968Y-93510500D01*
X189006603Y-93530497D01*
X189016814Y-93536392D01*
X189144108Y-93570500D01*
X189144110Y-93570500D01*
X189275890Y-93570500D01*
X189275892Y-93570500D01*
X189403186Y-93536392D01*
X189517314Y-93470500D01*
X189572319Y-93415495D01*
X189633642Y-93382010D01*
X189703334Y-93386994D01*
X189747681Y-93415495D01*
X189822686Y-93490500D01*
X189936814Y-93556392D01*
X190064108Y-93590500D01*
X190064110Y-93590500D01*
X190195890Y-93590500D01*
X190195892Y-93590500D01*
X190323186Y-93556392D01*
X190437314Y-93490500D01*
X190522319Y-93405495D01*
X190583642Y-93372010D01*
X190653334Y-93376994D01*
X190697681Y-93405495D01*
X190699500Y-93407314D01*
X190792686Y-93500500D01*
X190906814Y-93566392D01*
X191034108Y-93600500D01*
X191034110Y-93600500D01*
X191165890Y-93600500D01*
X191165892Y-93600500D01*
X191293186Y-93566392D01*
X191407314Y-93500500D01*
X191407316Y-93500497D01*
X191407321Y-93500495D01*
X191413765Y-93495551D01*
X191414536Y-93496555D01*
X191468631Y-93467012D01*
X191538323Y-93471990D01*
X191582681Y-93500495D01*
X191592686Y-93510500D01*
X191706814Y-93576392D01*
X191834108Y-93610500D01*
X191834110Y-93610500D01*
X191965890Y-93610500D01*
X191965892Y-93610500D01*
X192093186Y-93576392D01*
X192207314Y-93510500D01*
X192262319Y-93455495D01*
X192323642Y-93422010D01*
X192393334Y-93426994D01*
X192437681Y-93455495D01*
X192512686Y-93530500D01*
X192626814Y-93596392D01*
X192754108Y-93630500D01*
X192754110Y-93630500D01*
X192885890Y-93630500D01*
X192885892Y-93630500D01*
X193013186Y-93596392D01*
X193127314Y-93530500D01*
X193220500Y-93437314D01*
X193286392Y-93323186D01*
X193320500Y-93195892D01*
X193320500Y-93064108D01*
X193286392Y-92936814D01*
X193220500Y-92822686D01*
X193127314Y-92729500D01*
X193058032Y-92689500D01*
X193013187Y-92663608D01*
X192901223Y-92633608D01*
X192885892Y-92629500D01*
X192754108Y-92629500D01*
X192626812Y-92663608D01*
X192512686Y-92729500D01*
X192457679Y-92784506D01*
X192396355Y-92817990D01*
X192326664Y-92813004D01*
X192282318Y-92784504D01*
X192207316Y-92709502D01*
X192207314Y-92709500D01*
X192127827Y-92663608D01*
X192093187Y-92643608D01*
X192018544Y-92623608D01*
X191965892Y-92609500D01*
X191834108Y-92609500D01*
X191706813Y-92643608D01*
X191661964Y-92669502D01*
X191594999Y-92708165D01*
X191592683Y-92709502D01*
X191592674Y-92709512D01*
X191592661Y-92709518D01*
X191586236Y-92714449D01*
X191585466Y-92713446D01*
X191531348Y-92742992D01*
X191461656Y-92738001D01*
X191417322Y-92709507D01*
X191407318Y-92699504D01*
X191407316Y-92699502D01*
X191407314Y-92699500D01*
X191345147Y-92663608D01*
X191293187Y-92633608D01*
X191229539Y-92616554D01*
X191165892Y-92599500D01*
X191034108Y-92599500D01*
X190906812Y-92633608D01*
X190792686Y-92699500D01*
X190792683Y-92699502D01*
X190707681Y-92784505D01*
X190646358Y-92817990D01*
X190576666Y-92813006D01*
X190532319Y-92784505D01*
X190437316Y-92689502D01*
X190437314Y-92689500D01*
X190357827Y-92643608D01*
X190323187Y-92623608D01*
X190248544Y-92603608D01*
X190195892Y-92589500D01*
X190064108Y-92589500D01*
X189936812Y-92623608D01*
X189822686Y-92689500D01*
X189767679Y-92744506D01*
X189706355Y-92777990D01*
X189636664Y-92773004D01*
X189592318Y-92744504D01*
X189517316Y-92669502D01*
X189517314Y-92669500D01*
X189437827Y-92623608D01*
X189403187Y-92603608D01*
X189339539Y-92586554D01*
X189275892Y-92569500D01*
X189144108Y-92569500D01*
X189016812Y-92603608D01*
X188902686Y-92669500D01*
X188902683Y-92669502D01*
X188809502Y-92762683D01*
X188809500Y-92762686D01*
X188743608Y-92876812D01*
X188709500Y-93004108D01*
X184000500Y-93004108D01*
X184000500Y-92901456D01*
X183962052Y-92708170D01*
X183962051Y-92708169D01*
X183962051Y-92708165D01*
X183954320Y-92689500D01*
X183886635Y-92526092D01*
X183886628Y-92526079D01*
X183777139Y-92362218D01*
X183777136Y-92362214D01*
X183637785Y-92222863D01*
X183637781Y-92222860D01*
X183473920Y-92113371D01*
X183473907Y-92113364D01*
X183291839Y-92037950D01*
X183291829Y-92037947D01*
X183098543Y-91999500D01*
X183098541Y-91999500D01*
X182901459Y-91999500D01*
X182901457Y-91999500D01*
X182708170Y-92037947D01*
X182708160Y-92037950D01*
X182526092Y-92113364D01*
X182526079Y-92113371D01*
X182362218Y-92222860D01*
X182362214Y-92222863D01*
X182222863Y-92362214D01*
X182222860Y-92362218D01*
X182113371Y-92526079D01*
X182113364Y-92526092D01*
X182037950Y-92708160D01*
X182037947Y-92708170D01*
X181999500Y-92901456D01*
X181999500Y-92901459D01*
X181999500Y-93098541D01*
X181999500Y-93098543D01*
X181999499Y-93098543D01*
X160520500Y-93098543D01*
X160520500Y-90950252D01*
X160520500Y-90950249D01*
X160520499Y-90950247D01*
X160508868Y-90891770D01*
X160508867Y-90891769D01*
X160464552Y-90825447D01*
X160398230Y-90781132D01*
X160398229Y-90781131D01*
X160339752Y-90769500D01*
X160339748Y-90769500D01*
X157800252Y-90769500D01*
X157800247Y-90769500D01*
X157741770Y-90781131D01*
X157741769Y-90781132D01*
X157675447Y-90825447D01*
X157631132Y-90891769D01*
X157631131Y-90891770D01*
X157619500Y-90950247D01*
X134500500Y-90950247D01*
X134500500Y-87650247D01*
X209069500Y-87650247D01*
X209069500Y-90889752D01*
X209081131Y-90948229D01*
X209081132Y-90948230D01*
X209125447Y-91014552D01*
X209191769Y-91058867D01*
X209191770Y-91058868D01*
X209250247Y-91070499D01*
X209250250Y-91070500D01*
X209250252Y-91070500D01*
X212489750Y-91070500D01*
X212489751Y-91070499D01*
X212504568Y-91067552D01*
X212548229Y-91058868D01*
X212548229Y-91058867D01*
X212548231Y-91058867D01*
X212614552Y-91014552D01*
X212658867Y-90948231D01*
X212658867Y-90948229D01*
X212658868Y-90948229D01*
X212670499Y-90889752D01*
X212670500Y-90889750D01*
X212670500Y-89151995D01*
X224309500Y-89151995D01*
X224309500Y-89388004D01*
X224309501Y-89388020D01*
X224340306Y-89622010D01*
X224401394Y-89849993D01*
X224491714Y-90068045D01*
X224491719Y-90068056D01*
X224562677Y-90190957D01*
X224609727Y-90272450D01*
X224609729Y-90272453D01*
X224609730Y-90272454D01*
X224753406Y-90459697D01*
X224753412Y-90459704D01*
X224920295Y-90626587D01*
X224920301Y-90626592D01*
X225107550Y-90770273D01*
X225203116Y-90825448D01*
X225311943Y-90888280D01*
X225311948Y-90888282D01*
X225311951Y-90888284D01*
X225530007Y-90978606D01*
X225757986Y-91039693D01*
X225991989Y-91070500D01*
X225991996Y-91070500D01*
X226228004Y-91070500D01*
X226228011Y-91070500D01*
X226462014Y-91039693D01*
X226689993Y-90978606D01*
X226908049Y-90888284D01*
X227112450Y-90770273D01*
X227299699Y-90626592D01*
X227466592Y-90459699D01*
X227610273Y-90272450D01*
X227728284Y-90068049D01*
X227818606Y-89849993D01*
X227879693Y-89622014D01*
X227910500Y-89388011D01*
X227910500Y-89151989D01*
X227879693Y-88917986D01*
X227818606Y-88690007D01*
X227728284Y-88471951D01*
X227728282Y-88471948D01*
X227728280Y-88471943D01*
X227686118Y-88398918D01*
X227610273Y-88267550D01*
X227466592Y-88080301D01*
X227466587Y-88080295D01*
X227299704Y-87913412D01*
X227299697Y-87913406D01*
X227112454Y-87769730D01*
X227112453Y-87769729D01*
X227112450Y-87769727D01*
X227030957Y-87722677D01*
X226908056Y-87651719D01*
X226908045Y-87651714D01*
X226689993Y-87561394D01*
X226462010Y-87500306D01*
X226228020Y-87469501D01*
X226228017Y-87469500D01*
X226228011Y-87469500D01*
X225991989Y-87469500D01*
X225991983Y-87469500D01*
X225991979Y-87469501D01*
X225757989Y-87500306D01*
X225530006Y-87561394D01*
X225311954Y-87651714D01*
X225311943Y-87651719D01*
X225107545Y-87769730D01*
X224920302Y-87913406D01*
X224920295Y-87913412D01*
X224753412Y-88080295D01*
X224753406Y-88080302D01*
X224609730Y-88267545D01*
X224491719Y-88471943D01*
X224491714Y-88471954D01*
X224401394Y-88690006D01*
X224340306Y-88917989D01*
X224309501Y-89151979D01*
X224309500Y-89151995D01*
X212670500Y-89151995D01*
X212670500Y-87650249D01*
X212670499Y-87650247D01*
X212658868Y-87591770D01*
X212658867Y-87591769D01*
X212614552Y-87525447D01*
X212548230Y-87481132D01*
X212548229Y-87481131D01*
X212489752Y-87469500D01*
X212489748Y-87469500D01*
X209250252Y-87469500D01*
X209250247Y-87469500D01*
X209191770Y-87481131D01*
X209191769Y-87481132D01*
X209125447Y-87525447D01*
X209081132Y-87591769D01*
X209081131Y-87591770D01*
X209069500Y-87650247D01*
X134500500Y-87650247D01*
X134500500Y-80930247D01*
X215999500Y-80930247D01*
X215999500Y-82669752D01*
X216011131Y-82728229D01*
X216011132Y-82728230D01*
X216055447Y-82794552D01*
X216121769Y-82838867D01*
X216121770Y-82838868D01*
X216180247Y-82850499D01*
X216180250Y-82850500D01*
X216180252Y-82850500D01*
X217919750Y-82850500D01*
X217919751Y-82850499D01*
X217934568Y-82847552D01*
X217978229Y-82838868D01*
X217978229Y-82838867D01*
X217978231Y-82838867D01*
X218044552Y-82794552D01*
X218088867Y-82728231D01*
X218088867Y-82728229D01*
X218088868Y-82728229D01*
X218100499Y-82669752D01*
X218100500Y-82669750D01*
X218100500Y-81696530D01*
X218539500Y-81696530D01*
X218539500Y-81903469D01*
X218579868Y-82106412D01*
X218579870Y-82106420D01*
X218659058Y-82297596D01*
X218774024Y-82469657D01*
X218920342Y-82615975D01*
X218920345Y-82615977D01*
X219092402Y-82730941D01*
X219283580Y-82810130D01*
X219428052Y-82838867D01*
X219486530Y-82850499D01*
X219486534Y-82850500D01*
X219486535Y-82850500D01*
X219693466Y-82850500D01*
X219693467Y-82850499D01*
X219896420Y-82810130D01*
X220087598Y-82730941D01*
X220259655Y-82615977D01*
X220405977Y-82469655D01*
X220520941Y-82297598D01*
X220600130Y-82106420D01*
X220640500Y-81903465D01*
X220640500Y-81696535D01*
X220600130Y-81493580D01*
X220520941Y-81302402D01*
X220405977Y-81130345D01*
X220405975Y-81130342D01*
X220259657Y-80984024D01*
X220091655Y-80871770D01*
X220087598Y-80869059D01*
X219896420Y-80789870D01*
X219896412Y-80789868D01*
X219693469Y-80749500D01*
X219693465Y-80749500D01*
X219486535Y-80749500D01*
X219486530Y-80749500D01*
X219283587Y-80789868D01*
X219283579Y-80789870D01*
X219092403Y-80869058D01*
X218920342Y-80984024D01*
X218774024Y-81130342D01*
X218659058Y-81302403D01*
X218579870Y-81493579D01*
X218579868Y-81493587D01*
X218539500Y-81696530D01*
X218100500Y-81696530D01*
X218100500Y-80930249D01*
X218100499Y-80930247D01*
X218088868Y-80871770D01*
X218088867Y-80871769D01*
X218044552Y-80805447D01*
X217978230Y-80761132D01*
X217978229Y-80761131D01*
X217919752Y-80749500D01*
X217919748Y-80749500D01*
X216180252Y-80749500D01*
X216180247Y-80749500D01*
X216121770Y-80761131D01*
X216121769Y-80761132D01*
X216055447Y-80805447D01*
X216011132Y-80871769D01*
X216011131Y-80871770D01*
X215999500Y-80930247D01*
X134500500Y-80930247D01*
X134500500Y-80624500D01*
X134520185Y-80557461D01*
X134572989Y-80511706D01*
X134624500Y-80500500D01*
X233375500Y-80500500D01*
X233442539Y-80520185D01*
G37*
%TD.AperFunction*%
%TD*%
M02*
