#VRML V2.0 utf8

Transform {
  translation 0 0 0.80
  children [
    Shape {
      appearance Appearance {
        material Material {
          diffuseColor 0.10 0.39 0.18
          specularColor 0.07 0.07 0.07
          shininess 0.18
        }
      }
      geometry Box { size 20.32 25.40 1.60 }
    }
  ]
}

Transform {
  translation 0 0 1.78
  children [
    Shape {
      appearance Appearance {
        material Material {
          diffuseColor 0.12 0.12 0.12
          specularColor 0.18 0.18 0.18
          shininess 0.28
        }
      }
      geometry Box { size 4.40 5.00 0.36 }
    }
  ]
}

Transform {
  translation -6.35 -10.25 1.95
  children [
    Shape {
      appearance Appearance {
        material Material {
          diffuseColor 0.05 0.05 0.05
          specularColor 0.12 0.12 0.12
          shininess 0.20
        }
      }
      geometry Box { size 7.00 3.80 0.70 }
    }
  ]
}

Transform {
  translation 6.35 -10.25 1.95
  children [
    Shape {
      appearance Appearance {
        material Material {
          diffuseColor 0.05 0.05 0.05
          specularColor 0.12 0.12 0.12
          shininess 0.20
        }
      }
      geometry Box { size 7.00 3.80 0.70 }
    }
  ]
}
