ISO-10303-21;
HEADER;
FILE_DESCRIPTION (( 'STEP AP203' ),
    '1' );
FILE_NAME ('mocowanie elektromagnesu.STEP',
    '2026-02-28T17:15:00',
    ( '' ),
    ( '' ),
    'SwSTEP 2.0',
    'SolidWorks 2025',
    '' );
FILE_SCHEMA (( 'CONFIG_CONTROL_DESIGN' ));
ENDSEC;

DATA;
#1 = CARTESIAN_POINT ( 'NONE',  ( 25.50000000000000355, 5.000000000000000000, -30.00000000000000000 ) ) ;
#2 = APPROVAL_ROLE ( '' ) ;
#3 = CIRCLE ( 'NONE', #469, 10.00000000000000533 ) ;
#4 = CARTESIAN_POINT ( 'NONE',  ( 2.038094024356008367E-14, 5.000000000000000000, 4.999999999999995559 ) ) ;
#5 = ADVANCED_FACE ( 'NONE', ( #412 ), #167, .F. ) ;
#6 = VECTOR ( 'NONE', #40, 1000.000000000000000 ) ;
#7 = FACE_BOUND ( 'NONE', #298, .T. ) ;
#8 = VERTEX_POINT ( 'NONE', #408 ) ;
#9 = PERSON_AND_ORGANIZATION ( #590, #80 ) ;
#10 = CARTESIAN_POINT ( 'NONE',  ( 0.5000000000000004441, 5.000000000000000000, 5.000000000000000888 ) ) ;
#11 = VECTOR ( 'NONE', #582, 1000.000000000000000 ) ;
#12 = ORIENTED_EDGE ( 'NONE', *, *, #418, .F. ) ;
#13 = PERSON_AND_ORGANIZATION ( #590, #80 ) ;
#14 = DIRECTION ( 'NONE',  ( 0.000000000000000000, 1.000000000000000000, 0.000000000000000000 ) ) ;
#15 = ORIENTED_EDGE ( 'NONE', *, *, #366, .F. ) ;
#16 = EDGE_CURVE ( 'NONE', #8, #191, #36, .T. ) ;
#17 = VECTOR ( 'NONE', #53, 1000.000000000000000 ) ;
#18 = FACE_OUTER_BOUND ( 'NONE', #201, .T. ) ;
#19 = EDGE_LOOP ( 'NONE', ( #502, #548, #208, #114 ) ) ;
#20 = CARTESIAN_POINT ( 'NONE',  ( 0.5000000000000004441, 0.000000000000000000, 5.000000000000000888 ) ) ;
#21 = ORIENTED_EDGE ( 'NONE', *, *, #325, .F. ) ;
#22 = CIRCLE ( 'NONE', #100, 10.00000000000000533 ) ;
#23 = LINE ( 'NONE', #579, #11 ) ;
#24 = APPROVAL ( #411, 'UNSPECIFIED' ) ;
#25 = EDGE_LOOP ( 'NONE', ( #112, #295, #597, #520 ) ) ;
#26 = EDGE_CURVE ( 'NONE', #198, #492, #595, .T. ) ;
#27 = CARTESIAN_POINT ( 'NONE',  ( 25.50000000000000355, 5.000000000000000000, 30.00000000000000000 ) ) ;
#28 = ORIENTED_EDGE ( 'NONE', *, *, #276, .F. ) ;
#29 = CARTESIAN_POINT ( 'NONE',  ( 5.510910596163091528E-16, 5.000000000000000000, -19.49999999999999645 ) ) ;
#30 = CARTESIAN_POINT ( 'NONE',  ( -25.49999999999999645, 15.00000000000000000, 0.000000000000000000 ) ) ;
#31 = DIRECTION ( 'NONE',  ( 0.000000000000000000, 0.000000000000000000, 1.000000000000000000 ) ) ;
#32 = CYLINDRICAL_SURFACE ( 'NONE', #568, 25.00000000000000000 ) ;
#33 = APPROVAL_PERSON_ORGANIZATION ( #179, #24, #2 ) ;
#34 = EDGE_CURVE ( 'NONE', #452, #8, #125, .T. ) ;
#35 = DIRECTION ( 'NONE',  ( -0.000000000000000000, -0.000000000000000000, 1.000000000000000000 ) ) ;
#36 = LINE ( 'NONE', #30, #321 ) ;
#37 = CIRCLE ( 'NONE', #451, 4.500000000000000888 ) ;
#38 = EDGE_LOOP ( 'NONE', ( #337, #576 ) ) ;
#39 = CARTESIAN_POINT ( 'NONE',  ( -25.49999999999999645, 5.000000000000000000, -29.99999999999999289 ) ) ;
#40 = DIRECTION ( 'NONE',  ( 0.000000000000000000, -1.000000000000000000, 0.000000000000000000 ) ) ;
#41 = ORIENTED_EDGE ( 'NONE', *, *, #372, .F. ) ;
#42 = FACE_OUTER_BOUND ( 'NONE', #25, .T. ) ;
#43 = CC_DESIGN_PERSON_AND_ORGANIZATION_ASSIGNMENT ( #9, #574, ( #455 ) ) ;
#44 = ORIENTED_EDGE ( 'NONE', *, *, #461, .F. ) ;
#45 = DIRECTION ( 'NONE',  ( 0.000000000000000000, 0.000000000000000000, 1.000000000000000000 ) ) ;
#46 = AXIS2_PLACEMENT_3D ( 'NONE', #94, #464, #555 ) ;
#47 = DIRECTION ( 'NONE',  ( -0.000000000000000000, -1.000000000000000000, -0.000000000000000000 ) ) ;
#48 = CARTESIAN_POINT ( 'NONE',  ( 0.000000000000000000, 0.000000000000000000, 0.000000000000000000 ) ) ;
#49 = DIRECTION ( 'NONE',  ( 0.000000000000000000, 1.000000000000000000, 0.000000000000000000 ) ) ;
#50 = AXIS2_PLACEMENT_3D ( 'NONE', #407, #160, #260 ) ;
#51 = DIRECTION ( 'NONE',  ( -0.000000000000000000, -1.000000000000000000, -0.000000000000000000 ) ) ;
#52 = EDGE_LOOP ( 'NONE', ( #488, #274 ) ) ;
#53 = DIRECTION ( 'NONE',  ( 0.000000000000000000, -1.000000000000000000, 0.000000000000000000 ) ) ;
#54 = ORIENTED_EDGE ( 'NONE', *, *, #34, .F. ) ;
#55 = LINE ( 'NONE', #190, #549 ) ;
#56 = VERTEX_POINT ( 'NONE', #174 ) ;
#57 = EDGE_CURVE ( 'NONE', #106, #476, #61, .T. ) ;
#58 = CARTESIAN_POINT ( 'NONE',  ( 25.50000000000000355, 5.000000000000000000, -30.00000000000000000 ) ) ;
#59 = ORIENTED_EDGE ( 'NONE', *, *, #16, .F. ) ;
#60 = DATE_TIME_ROLE ( 'classification_date' ) ;
#61 = CIRCLE ( 'NONE', #330, 4.500000000000000888 ) ;
#62 = LINE ( 'NONE', #434, #273 ) ;
#63 = VERTEX_POINT ( 'NONE', #541 ) ;
#64 = SECURITY_CLASSIFICATION_LEVEL ( 'unclassified' ) ;
#65 = EDGE_CURVE ( 'NONE', #410, #95, #402, .T. ) ;
#66 = DIRECTION ( 'NONE',  ( 0.000000000000000000, -1.000000000000000000, -0.000000000000000000 ) ) ;
#67 = EDGE_CURVE ( 'NONE', #146, #70, #403, .T. ) ;
#68 = ORIENTED_EDGE ( 'NONE', *, *, #355, .T. ) ;
#69 = CARTESIAN_POINT ( 'NONE',  ( 3.851859888774471706E-31, 5.000000000000000000, -23.99999999999999645 ) ) ;
#70 = VERTEX_POINT ( 'NONE', #399 ) ;
#71 = DIRECTION ( 'NONE',  ( 0.000000000000000000, 0.000000000000000000, 1.000000000000000000 ) ) ;
#72 = CIRCLE ( 'NONE', #414, 10.00000000000000533 ) ;
#73 = DIRECTION ( 'NONE',  ( -0.000000000000000000, -1.000000000000000000, -0.000000000000000000 ) ) ;
#74 = DIRECTION ( 'NONE',  ( -0.000000000000000000, -1.000000000000000000, -0.000000000000000000 ) ) ;
#75 = PLANE ( 'NONE',  #98 ) ;
#76 = CC_DESIGN_PERSON_AND_ORGANIZATION_ASSIGNMENT ( #183, #89, ( #332 ) ) ;
#77 = ADVANCED_FACE ( 'NONE', ( #547 ), #32, .T. ) ;
#78 = FACE_BOUND ( 'NONE', #324, .T. ) ;
#79 = DIRECTION ( 'NONE',  ( -0.000000000000000000, -1.000000000000000000, -0.000000000000000000 ) ) ;
#80 = ORGANIZATION ( 'UNSPECIFIED', 'UNSPECIFIED', '' ) ;
#81 = VECTOR ( 'NONE', #533, 1000.000000000000000 ) ;
#82 = CARTESIAN_POINT ( 'NONE',  ( 3.851859888774471706E-31, 5.000000000000000000, -23.99999999999999645 ) ) ;
#83 = CARTESIAN_POINT ( 'NONE',  ( 2.038094024356008367E-14, 15.00000000000000000, 15.00000000000000355 ) ) ;
#84 = ORIENTED_EDGE ( 'NONE', *, *, #137, .F. ) ;
#85 = DIRECTION ( 'NONE',  ( 0.000000000000000000, 1.000000000000000000, 0.000000000000000000 ) ) ;
#86 = CARTESIAN_POINT ( 'NONE',  ( 25.50000000000000355, 5.000000000000000000, 30.00000000000000000 ) ) ;
#87 = ADVANCED_FACE ( 'NONE', ( #42 ), #75, .T. ) ;
#88 = ORIENTED_EDGE ( 'NONE', *, *, #376, .T. ) ;
#89 = PERSON_AND_ORGANIZATION_ROLE ( 'creator' ) ;
#90 = CARTESIAN_POINT ( 'NONE',  ( 25.50000000000000355, 15.00000000000000000, -18.00000000000000355 ) ) ;
#91 = CARTESIAN_POINT ( 'NONE',  ( -0.4999999999999935052, 15.00000000000000000, 5.000000000000000888 ) ) ;
#92 = LINE ( 'NONE', #90, #484 ) ;
#93 = CC_DESIGN_PERSON_AND_ORGANIZATION_ASSIGNMENT ( #292, #149, ( #182 ) ) ;
#94 = CARTESIAN_POINT ( 'NONE',  ( 0.000000000000000000, 0.000000000000000000, 0.000000000000000000 ) ) ;
#95 = VERTEX_POINT ( 'NONE', #302 ) ;
#96 = DIRECTION ( 'NONE',  ( 0.000000000000000000, 1.000000000000000000, 0.000000000000000000 ) ) ;
#97 = ORIENTED_EDGE ( 'NONE', *, *, #306, .T. ) ;
#98 = AXIS2_PLACEMENT_3D ( 'NONE', #171, #224, #307 ) ;
#99 = CALENDAR_DATE ( 2026, 28, 2 ) ;
#100 = AXIS2_PLACEMENT_3D ( 'NONE', #124, #120, #71 ) ;
#101 = ADVANCED_FACE ( 'NONE', ( #168 ), #501, .F. ) ;
#102 = DIRECTION ( 'NONE',  ( -1.000000000000000000, 0.000000000000000000, 1.360567432138672328E-16 ) ) ;
#103 = CC_DESIGN_APPROVAL ( #561, ( #455 ) ) ;
#104 = ORIENTED_EDGE ( 'NONE', *, *, #504, .F. ) ;
#105 = DIRECTION ( 'NONE',  ( 0.000000000000000000, 0.000000000000000000, -1.000000000000000000 ) ) ;
#106 = VERTEX_POINT ( 'NONE', #454 ) ;
#107 = CALENDAR_DATE ( 2026, 28, 2 ) ;
#108 = CARTESIAN_POINT ( 'NONE',  ( -25.49999999999999645, 15.00000000000000000, -18.00000000000000000 ) ) ;
#109 = EDGE_LOOP ( 'NONE', ( #468, #341, #588, #485 ) ) ;
#110 = VECTOR ( 'NONE', #357, 1000.000000000000000 ) ;
#111 = LINE ( 'NONE', #253, #477 ) ;
#112 = ORIENTED_EDGE ( 'NONE', *, *, #465, .F. ) ;
#113 = CARTESIAN_POINT ( 'NONE',  ( 25.50000000000000355, 5.000000000000000000, 30.00000000000000000 ) ) ;
#114 = ORIENTED_EDGE ( 'NONE', *, *, #530, .F. ) ;
#115 = LINE ( 'NONE', #397, #126 ) ;
#116 = DIRECTION ( 'NONE',  ( 0.000000000000000000, 0.000000000000000000, 1.000000000000000000 ) ) ;
#117 = DIRECTION ( 'NONE',  ( 0.000000000000000000, 0.000000000000000000, -1.000000000000000000 ) ) ;
#118 = AXIS2_PLACEMENT_3D ( 'NONE', #327, #367, #515 ) ;
#119 = FACE_OUTER_BOUND ( 'NONE', #19, .T. ) ;
#120 = DIRECTION ( 'NONE',  ( 0.000000000000000000, 1.000000000000000000, 0.000000000000000000 ) ) ;
#121 = DIRECTION ( 'NONE',  ( -1.000000000000000000, 0.000000000000000000, 0.000000000000000000 ) ) ;
#122 = AXIS2_PLACEMENT_3D ( 'NONE', #503, #85, #165 ) ;
#123 = AXIS2_PLACEMENT_3D ( 'NONE', #82, #404, #262 ) ;
#124 = CARTESIAN_POINT ( 'NONE',  ( 2.038094024356008367E-14, 5.000000000000000000, 15.00000000000000355 ) ) ;
#125 = LINE ( 'NONE', #218, #110 ) ;
#126 = VECTOR ( 'NONE', #301, 1000.000000000000000 ) ;
#127 = CC_DESIGN_PERSON_AND_ORGANIZATION_ASSIGNMENT ( #13, #252, ( #182 ) ) ;
#128 = ORIENTED_EDGE ( 'NONE', *, *, #67, .T. ) ;
#129 = CARTESIAN_POINT ( 'NONE',  ( 25.50000000000000355, 15.00000000000000000, -18.00000000000000355 ) ) ;
#130 = CARTESIAN_POINT ( 'NONE',  ( 3.851859888774471706E-31, 5.000000000000000000, -23.99999999999999645 ) ) ;
#131 = ORIENTED_EDGE ( 'NONE', *, *, #244, .F. ) ;
#132 = CALENDAR_DATE ( 2026, 28, 2 ) ;
#133 = LINE ( 'NONE', #227, #342 ) ;
#134 = DATE_TIME_ROLE ( 'creation_date' ) ;
#135 = CARTESIAN_POINT ( 'NONE',  ( 0.5000000000000038858, 5.000000000000000000, 30.00000000000000355 ) ) ;
#136 = FACE_OUTER_BOUND ( 'NONE', #539, .T. ) ;
#137 = EDGE_CURVE ( 'NONE', #492, #525, #164, .T. ) ;
#138 = AXIS2_PLACEMENT_3D ( 'NONE', #83, #73, #443 ) ;
#139 = ADVANCED_FACE ( 'NONE', ( #119 ), #216, .F. ) ;
#140 = LINE ( 'NONE', #323, #353 ) ;
#141 = ORIENTED_EDGE ( 'NONE', *, *, #57, .F. ) ;
#142 = VECTOR ( 'NONE', #74, 1000.000000000000000 ) ;
#143 = DIRECTION ( 'NONE',  ( 0.000000000000000000, 0.000000000000000000, -1.000000000000000000 ) ) ;
#144 = ORIENTED_EDGE ( 'NONE', *, *, #401, .F. ) ;
#145 = DIRECTION ( 'NONE',  ( 1.000000000000000000, -0.000000000000000000, -1.360567432138672328E-16 ) ) ;
#146 = VERTEX_POINT ( 'NONE', #495 ) ;
#147 = DIRECTION ( 'NONE',  ( 0.000000000000000000, 0.000000000000000000, -1.000000000000000000 ) ) ;
#148 = ORIENTED_EDGE ( 'NONE', *, *, #482, .F. ) ;
#149 = PERSON_AND_ORGANIZATION_ROLE ( 'design_supplier' ) ;
#150 = ADVANCED_BREP_SHAPE_REPRESENTATION ( 'mocowanie elektromagnesu', ( #189, #371 ), #556 ) ;
#151 = CYLINDRICAL_SURFACE ( 'NONE', #375, 4.500000000000000888 ) ;
#152 = ORIENTED_EDGE ( 'NONE', *, *, #372, .T. ) ;
#153 = ADVANCED_FACE ( 'NONE', ( #313 ), #261, .F. ) ;
#154 = CARTESIAN_POINT ( 'NONE',  ( 2.160558704270743831E-14, 5.000000000000000000, 25.00000000000000711 ) ) ;
#155 = CC_DESIGN_APPROVAL ( #24, ( #332 ) ) ;
#156 = ORIENTED_EDGE ( 'NONE', *, *, #16, .T. ) ;
#157 = APPROVAL_DATE_TIME ( #578, #561 ) ;
#158 = DIRECTION ( 'NONE',  ( 0.000000000000000000, 0.000000000000000000, -1.000000000000000000 ) ) ;
#159 = VERTEX_POINT ( 'NONE', #421 ) ;
#160 = DIRECTION ( 'NONE',  ( -0.000000000000000000, -1.000000000000000000, -0.000000000000000000 ) ) ;
#161 = ORIENTED_EDGE ( 'NONE', *, *, #268, .T. ) ;
#162 = AXIS2_PLACEMENT_3D ( 'NONE', #20, #200, #575 ) ;
#163 = DIRECTION ( 'NONE',  ( -0.000000000000000000, -0.000000000000000000, 1.000000000000000000 ) ) ;
#164 = LINE ( 'NONE', #350, #6 ) ;
#165 = DIRECTION ( 'NONE',  ( 0.000000000000000000, 0.000000000000000000, 1.000000000000000000 ) ) ;
#166 = CIRCLE ( 'NONE', #217, 10.00000000000000533 ) ;
#167 = PLANE ( 'NONE',  #248 ) ;
#168 = FACE_OUTER_BOUND ( 'NONE', #359, .T. ) ;
#169 = ORIENTED_EDGE ( 'NONE', *, *, #526, .F. ) ;
#170 = DIRECTION ( 'NONE',  ( 0.000000000000000000, 0.000000000000000000, -1.000000000000000000 ) ) ;
#171 = CARTESIAN_POINT ( 'NONE',  ( -1.224510688924804996E-15, 15.00000000000000000, -18.00000000000000000 ) ) ;
#172 = EDGE_LOOP ( 'NONE', ( #567, #263, #517, #311 ) ) ;
#173 = APPLICATION_PROTOCOL_DEFINITION ( 'international standard', 'config_control_design', 1994, #358 ) ;
#174 = CARTESIAN_POINT ( 'NONE',  ( 2.038094024356008367E-14, 15.00000000000000000, 2.000000000000001776 ) ) ;
#175 = VECTOR ( 'NONE', #309, 1000.000000000000000 ) ;
#176 = ORIENTED_EDGE ( 'NONE', *, *, #530, .T. ) ;
#177 = APPROVAL_PERSON_ORGANIZATION ( #241, #561, #565 ) ;
#178 = LINE ( 'NONE', #369, #257 ) ;
#179 = PERSON_AND_ORGANIZATION ( #590, #80 ) ;
#180 = CARTESIAN_POINT ( 'NONE',  ( 25.50000000000000355, 0.000000000000000000, -30.00000000000000000 ) ) ;
#181 = EDGE_CURVE ( 'NONE', #191, #430, #133, .T. ) ;
#182 = PRODUCT_DEFINITION_FORMATION_WITH_SPECIFIED_SOURCE ( 'ANY', '', #226, .NOT_KNOWN. ) ;
#183 = PERSON_AND_ORGANIZATION ( #590, #80 ) ;
#184 = FACE_BOUND ( 'NONE', #52, .T. ) ;
#185 = LOCAL_TIME ( 18, 15, 0.000000000000000000, #335 ) ;
#186 = CYLINDRICAL_SURFACE ( 'NONE', #432, 25.00000000000000000 ) ;
#187 = VERTEX_POINT ( 'NONE', #316 ) ;
#188 = EDGE_CURVE ( 'NONE', #430, #187, #92, .T. ) ;
#189 = MANIFOLD_SOLID_BREP ( 'Zaokr\X2\0105\X0\glenie1', #364 ) ;
#190 = CARTESIAN_POINT ( 'NONE',  ( 25.50000000000000355, 0.000000000000000000, 30.00000000000000000 ) ) ;
#191 = VERTEX_POINT ( 'NONE', #417 ) ;
#192 = FACE_OUTER_BOUND ( 'NONE', #390, .T. ) ;
#193 = ORIENTED_EDGE ( 'NONE', *, *, #219, .F. ) ;
#194 = COORDINATED_UNIVERSAL_TIME_OFFSET ( 1, 0, .AHEAD. ) ;
#195 = FACE_BOUND ( 'NONE', #254, .T. ) ;
#196 = ADVANCED_FACE ( 'NONE', ( #320 ), #239, .F. ) ;
#197 = ADVANCED_FACE ( 'NONE', ( #136 ), #280, .F. ) ;
#198 = VERTEX_POINT ( 'NONE', #554 ) ;
#199 = CC_DESIGN_PERSON_AND_ORGANIZATION_ASSIGNMENT ( #562, #508, ( #226 ) ) ;
#200 = DIRECTION ( 'NONE',  ( -0.000000000000000000, -1.000000000000000000, -0.000000000000000000 ) ) ;
#201 = EDGE_LOOP ( 'NONE', ( #282, #243, #15, #583, #59, #435 ) ) ;
#202 = VECTOR ( 'NONE', #550, 1000.000000000000000 ) ;
#203 = DIRECTION ( 'NONE',  ( 0.000000000000000000, -0.000000000000000000, 1.000000000000000000 ) ) ;
#204 = AXIS2_PLACEMENT_3D ( 'NONE', #499, #214, #543 ) ;
#205 = AXIS2_PLACEMENT_3D ( 'NONE', #246, #569, #147 ) ;
#206 = VERTEX_POINT ( 'NONE', #601 ) ;
#207 = DIRECTION ( 'NONE',  ( 0.000000000000000000, 0.000000000000000000, 1.000000000000000000 ) ) ;
#208 = ORIENTED_EDGE ( 'NONE', *, *, #67, .F. ) ;
#209 = CC_DESIGN_APPROVAL ( #444, ( #182 ) ) ;
#210 = CARTESIAN_POINT ( 'NONE',  ( -25.49999999999999645, 5.000000000000000000, 30.00000000000000711 ) ) ;
#211 = PRODUCT_DEFINITION_SHAPE ( 'NONE', 'NONE',  #332 ) ;
#212 = DIRECTION ( 'NONE',  ( 0.000000000000000000, 0.000000000000000000, -1.000000000000000000 ) ) ;
#213 = CIRCLE ( 'NONE', #123, 4.500000000000000888 ) ;
#214 = DIRECTION ( 'NONE',  ( 0.000000000000000000, 1.000000000000000000, 0.000000000000000000 ) ) ;
#215 = APPLICATION_CONTEXT ( 'configuration controlled 3d designs of mechanical parts and assemblies' ) ;
#216 = CYLINDRICAL_SURFACE ( 'NONE', #228, 4.500000000000000888 ) ;
#217 = AXIS2_PLACEMENT_3D ( 'NONE', #519, #96, #284 ) ;
#218 = CARTESIAN_POINT ( 'NONE',  ( -25.49999999999999645, 5.000000000000000000, 5.000000000000000888 ) ) ;
#219 = EDGE_CURVE ( 'NONE', #476, #70, #178, .T. ) ;
#220 = VERTEX_POINT ( 'NONE', #278 ) ;
#221 = CARTESIAN_POINT ( 'NONE',  ( -25.49999999999999645, 0.000000000000000000, 30.00000000000000711 ) ) ;
#222 = VERTEX_POINT ( 'NONE', #466 ) ;
#223 = VERTEX_POINT ( 'NONE', #510 ) ;
#224 = DIRECTION ( 'NONE',  ( -6.802837160693361638E-17, 0.000000000000000000, -1.000000000000000000 ) ) ;
#225 = DATE_AND_TIME ( #132, #447 ) ;
#226 = PRODUCT ( 'mocowanie elektromagnesu', 'mocowanie elektromagnesu', '', ( #377 ) ) ;
#227 = CARTESIAN_POINT ( 'NONE',  ( -1.224510688924804996E-15, 15.00000000000000000, -18.00000000000000000 ) ) ;
#228 = AXIS2_PLACEMENT_3D ( 'NONE', #361, #79, #305 ) ;
#229 = CC_DESIGN_DATE_AND_TIME_ASSIGNMENT ( #481, #60, ( #455 ) ) ;
#230 = LINE ( 'NONE', #1, #279 ) ;
#231 = CIRCLE ( 'NONE', #122, 13.00000000000000178 ) ;
#232 = DIRECTION ( 'NONE',  ( 1.000000000000000000, 0.000000000000000000, 0.000000000000000000 ) ) ;
#233 = VECTOR ( 'NONE', #170, 1000.000000000000000 ) ;
#234 = DIRECTION ( 'NONE',  ( 0.000000000000000000, 0.000000000000000000, -1.000000000000000000 ) ) ;
#235 = LOCAL_TIME ( 18, 15, 0.000000000000000000, #373 ) ;
#236 = DIRECTION ( 'NONE',  ( -0.000000000000000000, -1.000000000000000000, -0.000000000000000000 ) ) ;
#237 = VERTEX_POINT ( 'NONE', #370 ) ;
#238 = APPROVAL_DATE_TIME ( #386, #444 ) ;
#239 = CYLINDRICAL_SURFACE ( 'NONE', #118, 10.00000000000000711 ) ;
#240 = ORIENTED_EDGE ( 'NONE', *, *, #504, .T. ) ;
#241 = PERSON_AND_ORGANIZATION ( #590, #80 ) ;
#242 = DIRECTION ( 'NONE',  ( 0.000000000000000000, -0.000000000000000000, 1.000000000000000000 ) ) ;
#243 = ORIENTED_EDGE ( 'NONE', *, *, #526, .T. ) ;
#244 = EDGE_CURVE ( 'NONE', #8, #492, #598, .T. ) ;
#245 = EDGE_CURVE ( 'NONE', #95, #63, #72, .T. ) ;
#246 = CARTESIAN_POINT ( 'NONE',  ( -25.49999999999999645, 5.000000000000000000, 30.00000000000000711 ) ) ;
#247 = VERTEX_POINT ( 'NONE', #180 ) ;
#248 = AXIS2_PLACEMENT_3D ( 'NONE', #86, #450, #269 ) ;
#249 = CALENDAR_DATE ( 2026, 28, 2 ) ;
#250 = FACE_OUTER_BOUND ( 'NONE', #441, .T. ) ;
#251 = ORIENTED_EDGE ( 'NONE', *, *, #137, .T. ) ;
#252 = PERSON_AND_ORGANIZATION_ROLE ( 'creator' ) ;
#253 = CARTESIAN_POINT ( 'NONE',  ( 2.197298108245164376E-14, 15.00000000000000000, 28.00000000000000355 ) ) ;
#254 = EDGE_LOOP ( 'NONE', ( #41, #104 ) ) ;
#255 = DIRECTION ( 'NONE',  ( -0.000000000000000000, -1.000000000000000000, -0.000000000000000000 ) ) ;
#256 = VERTEX_POINT ( 'NONE', #4 ) ;
#257 = VECTOR ( 'NONE', #51, 1000.000000000000000 ) ;
#258 = LINE ( 'NONE', #494, #202 ) ;
#259 = CARTESIAN_POINT ( 'NONE',  ( 3.851859888774471706E-31, 0.000000000000000000, -23.99999999999999645 ) ) ;
#260 = DIRECTION ( 'NONE',  ( 0.000000000000000000, 0.000000000000000000, 1.000000000000000000 ) ) ;
#261 = CYLINDRICAL_SURFACE ( 'NONE', #513, 10.00000000000000711 ) ;
#262 = DIRECTION ( 'NONE',  ( 0.000000000000000000, 0.000000000000000000, 1.000000000000000000 ) ) ;
#263 = ORIENTED_EDGE ( 'NONE', *, *, #473, .T. ) ;
#264 = ORIENTED_EDGE ( 'NONE', *, *, #366, .T. ) ;
#265 = ADVANCED_FACE ( 'NONE', ( #419, #7, #184 ), #374, .F. ) ;
#266 = DIRECTION ( 'NONE',  ( 0.000000000000000000, -0.000000000000000000, 1.000000000000000000 ) ) ;
#267 = AXIS2_PLACEMENT_3D ( 'NONE', #286, #255, #158 ) ;
#268 = EDGE_CURVE ( 'NONE', #348, #237, #281, .T. ) ;
#269 = DIRECTION ( 'NONE',  ( -1.000000000000000000, 0.000000000000000000, 1.360567432138672328E-16 ) ) ;
#270 = EDGE_LOOP ( 'NONE', ( #44, #479, #300, #599, #148, #144 ) ) ;
#271 = LINE ( 'NONE', #221, #570 ) ;
#272 = DIRECTION ( 'NONE',  ( 0.000000000000000000, 1.000000000000000000, 0.000000000000000000 ) ) ;
#273 = VECTOR ( 'NONE', #393, 1000.000000000000000 ) ;
#274 = ORIENTED_EDGE ( 'NONE', *, *, #245, .T. ) ;
#275 = DIRECTION ( 'NONE',  ( 0.000000000000000000, 1.000000000000000000, 0.000000000000000000 ) ) ;
#276 = EDGE_CURVE ( 'NONE', #222, #198, #471, .T. ) ;
#277 = APPROVAL_STATUS ( 'not_yet_approved' ) ;
#278 = CARTESIAN_POINT ( 'NONE',  ( -25.49999999999999645, 5.000000000000000000, -29.99999999999999289 ) ) ;
#279 = VECTOR ( 'NONE', #426, 1000.000000000000000 ) ;
#280 = PLANE ( 'NONE',  #521 ) ;
#281 = LINE ( 'NONE', #559, #17 ) ;
#282 = ORIENTED_EDGE ( 'NONE', *, *, #26, .F. ) ;
#283 = AXIS2_PLACEMENT_3D ( 'NONE', #487, #66, #483 ) ;
#284 = DIRECTION ( 'NONE',  ( 0.000000000000000000, 0.000000000000000000, 1.000000000000000000 ) ) ;
#285 = ORIENTED_EDGE ( 'NONE', *, *, #276, .T. ) ;
#286 = CARTESIAN_POINT ( 'NONE',  ( 2.038094024356008367E-14, 15.00000000000000000, 15.00000000000000355 ) ) ;
#287 = ORIENTED_EDGE ( 'NONE', *, *, #26, .T. ) ;
#288 = DIRECTION ( 'NONE',  ( -0.000000000000000000, -1.000000000000000000, -0.000000000000000000 ) ) ;
#289 = ORIENTED_EDGE ( 'NONE', *, *, #439, .F. ) ;
#290 = PRODUCT_RELATED_PRODUCT_CATEGORY ( 'detail', '', ( #226 ) ) ;
#291 = EDGE_CURVE ( 'NONE', #381, #247, #230, .T. ) ;
#292 = PERSON_AND_ORGANIZATION ( #590, #80 ) ;
#293 = CIRCLE ( 'NONE', #392, 25.00000000000000000 ) ;
#294 = CARTESIAN_POINT ( 'NONE',  ( 25.50000000000000355, 5.000000000000000000, -30.00000000000000000 ) ) ;
#295 = ORIENTED_EDGE ( 'NONE', *, *, #376, .F. ) ;
#296 = COORDINATED_UNIVERSAL_TIME_OFFSET ( 1, 0, .AHEAD. ) ;
#297 = LINE ( 'NONE', #113, #558 ) ;
#298 = EDGE_LOOP ( 'NONE', ( #128, #406 ) ) ;
#299 = CARTESIAN_POINT ( 'NONE',  ( 0.000000000000000000, 5.000000000000000000, 0.000000000000000000 ) ) ;
#300 = ORIENTED_EDGE ( 'NONE', *, *, #355, .F. ) ;
#301 = DIRECTION ( 'NONE',  ( -0.000000000000000000, -1.000000000000000000, -0.000000000000000000 ) ) ;
#302 = CARTESIAN_POINT ( 'NONE',  ( 2.160558704270743831E-14, 0.000000000000000000, 25.00000000000000711 ) ) ;
#303 = DESIGN_CONTEXT ( 'detailed design', #215, 'design' ) ;
#304 = DIRECTION ( 'NONE',  ( 0.000000000000000000, 1.000000000000000000, 0.000000000000000000 ) ) ;
#305 = DIRECTION ( 'NONE',  ( 0.000000000000000000, 0.000000000000000000, -1.000000000000000000 ) ) ;
#306 = EDGE_CURVE ( 'NONE', #56, #206, #140, .T. ) ;
#307 = DIRECTION ( 'NONE',  ( -1.000000000000000000, 0.000000000000000000, 6.802837160693361638E-17 ) ) ;
#308 = LINE ( 'NONE', #210, #480 ) ;
#309 = DIRECTION ( 'NONE',  ( -0.000000000000000000, -1.000000000000000000, -0.000000000000000000 ) ) ;
#310 = LOCAL_TIME ( 18, 15, 0.000000000000000000, #194 ) ;
#311 = ORIENTED_EDGE ( 'NONE', *, *, #245, .F. ) ;
#312 = CARTESIAN_POINT ( 'NONE',  ( 0.000000000000000000, 5.000000000000000000, 0.000000000000000000 ) ) ;
#313 = FACE_OUTER_BOUND ( 'NONE', #109, .T. ) ;
#314 = ORIENTED_EDGE ( 'NONE', *, *, #188, .F. ) ;
#315 = ADVANCED_FACE ( 'NONE', ( #423 ), #186, .T. ) ;
#316 = CARTESIAN_POINT ( 'NONE',  ( 25.50000000000000355, 5.000000000000000000, -18.00000000000000355 ) ) ;
#317 = PERSON_AND_ORGANIZATION ( #590, #80 ) ;
#318 = DIRECTION ( 'NONE',  ( 1.360567432138672328E-16, -0.000000000000000000, 1.000000000000000000 ) ) ;
#319 =( NAMED_UNIT ( * ) PLANE_ANGLE_UNIT ( ) SI_UNIT ( $, .RADIAN. ) );
#320 = FACE_OUTER_BOUND ( 'NONE', #172, .T. ) ;
#321 = VECTOR ( 'NONE', #212, 1000.000000000000000 ) ;
#322 = EDGE_CURVE ( 'NONE', #63, #95, #166, .T. ) ;
#323 = CARTESIAN_POINT ( 'NONE',  ( 2.038094024356008367E-14, 15.00000000000000000, 2.000000000000001776 ) ) ;
#324 = EDGE_LOOP ( 'NONE', ( #346, #328 ) ) ;
#325 = EDGE_CURVE ( 'NONE', #187, #381, #297, .T. ) ;
#326 = ADVANCED_FACE ( 'NONE', ( #389 ), #151, .F. ) ;
#327 = CARTESIAN_POINT ( 'NONE',  ( 2.038094024356008367E-14, 5.000000000000000000, 15.00000000000000355 ) ) ;
#328 = ORIENTED_EDGE ( 'NONE', *, *, #473, .F. ) ;
#329 = LINE ( 'NONE', #294, #339 ) ;
#330 = AXIS2_PLACEMENT_3D ( 'NONE', #130, #505, #116 ) ;
#331 = ORIENTED_EDGE ( 'NONE', *, *, #362, .F. ) ;
#332 = PRODUCT_DEFINITION ( 'UNKNOWN', '', #182, #303 ) ;
#333 = DIRECTION ( 'NONE',  ( 0.000000000000000000, 0.000000000000000000, 1.000000000000000000 ) ) ;
#334 = ORIENTED_EDGE ( 'NONE', *, *, #461, .T. ) ;
#335 = COORDINATED_UNIVERSAL_TIME_OFFSET ( 1, 0, .AHEAD. ) ;
#336 = DIRECTION ( 'NONE',  ( 0.000000000000000000, 0.000000000000000000, 1.000000000000000000 ) ) ;
#337 = ORIENTED_EDGE ( 'NONE', *, *, #581, .T. ) ;
#338 = CIRCLE ( 'NONE', #50, 25.00000000000000000 ) ;
#339 = VECTOR ( 'NONE', #102, 1000.000000000000000 ) ;
#340 = CARTESIAN_POINT ( 'NONE',  ( 25.50000000000000355, 15.00000000000000000, 0.000000000000000000 ) ) ;
#341 = ORIENTED_EDGE ( 'NONE', *, *, #65, .T. ) ;
#342 = VECTOR ( 'NONE', #557, 1000.000000000000000 ) ;
#343 = EDGE_CURVE ( 'NONE', #70, #146, #37, .T. ) ;
#344 = CARTESIAN_POINT ( 'NONE',  ( 2.038094024356008367E-14, 15.00000000000000000, 15.00000000000000355 ) ) ;
#345 = CC_DESIGN_SECURITY_CLASSIFICATION ( #455, ( #182 ) ) ;
#346 = ORIENTED_EDGE ( 'NONE', *, *, #545, .F. ) ;
#347 = CARTESIAN_POINT ( 'NONE',  ( 0.5000000000000004441, 15.00000000000000000, 5.000000000000000888 ) ) ;
#348 = VERTEX_POINT ( 'NONE', #380 ) ;
#349 = CARTESIAN_POINT ( 'NONE',  ( -0.4999999999999901190, 15.00000000000000000, 30.00000000000000000 ) ) ;
#350 = CARTESIAN_POINT ( 'NONE',  ( -0.4999999999999900080, 5.000000000000000000, 30.00000000000000355 ) ) ;
#351 = ADVANCED_FACE ( 'NONE', ( #250 ), #572, .F. ) ;
#352 = ADVANCED_FACE ( 'NONE', ( #566, #440 ), #478, .T. ) ;
#353 = VECTOR ( 'NONE', #236, 1000.000000000000000 ) ;
#354 = PLANE ( 'NONE',  #584 ) ;
#355 = EDGE_CURVE ( 'NONE', #525, #222, #55, .T. ) ;
#356 = DIRECTION ( 'NONE',  ( -0.000000000000000000, -1.000000000000000000, -0.000000000000000000 ) ) ;
#357 = DIRECTION ( 'NONE',  ( 0.000000000000000000, 1.000000000000000000, -0.000000000000000000 ) ) ;
#358 = APPLICATION_CONTEXT ( 'configuration controlled 3d designs of mechanical parts and assemblies' ) ;
#359 = EDGE_LOOP ( 'NONE', ( #152, #379, #564, #456 ) ) ;
#360 = FACE_OUTER_BOUND ( 'NONE', #38, .T. ) ;
#361 = CARTESIAN_POINT ( 'NONE',  ( 3.851859888774471706E-31, 5.000000000000000000, -23.99999999999999645 ) ) ;
#362 = EDGE_CURVE ( 'NONE', #381, #220, #329, .T. ) ;
#363 = ORIENTED_EDGE ( 'NONE', *, *, #343, .F. ) ;
#364 = CLOSED_SHELL ( 'NONE', ( #101, #153, #139, #352, #436, #265, #383, #5, #518, #197, #326, #196, #398, #87, #351, #315, #77 ) ) ;
#365 = COORDINATED_UNIVERSAL_TIME_OFFSET ( 1, 0, .AHEAD. ) ;
#366 = EDGE_CURVE ( 'NONE', #430, #348, #382, .T. ) ;
#367 = DIRECTION ( 'NONE',  ( -0.000000000000000000, -1.000000000000000000, -0.000000000000000000 ) ) ;
#368 = VERTEX_POINT ( 'NONE', #429 ) ;
#369 = CARTESIAN_POINT ( 'NONE',  ( 5.510910596163092514E-16, 5.000000000000000000, -19.49999999999999645 ) ) ;
#370 = CARTESIAN_POINT ( 'NONE',  ( 25.50000000000000355, 0.000000000000000000, 5.000000000000000888 ) ) ;
#371 = AXIS2_PLACEMENT_3D ( 'NONE', #48, #553, #232 ) ;
#372 = EDGE_CURVE ( 'NONE', #56, #385, #532, .T. ) ;
#373 = COORDINATED_UNIVERSAL_TIME_OFFSET ( 1, 0, .AHEAD. ) ;
#374 = PLANE ( 'NONE',  #46 ) ;
#375 = AXIS2_PLACEMENT_3D ( 'NONE', #69, #288, #536 ) ;
#376 = EDGE_CURVE ( 'NONE', #191, #159, #528, .T. ) ;
#377 = MECHANICAL_CONTEXT ( 'NONE', #358, 'mechanical' ) ;
#378 = DIRECTION ( 'NONE',  ( 0.000000000000000000, -1.000000000000000000, 0.000000000000000000 ) ) ;
#379 = ORIENTED_EDGE ( 'NONE', *, *, #418, .T. ) ;
#380 = CARTESIAN_POINT ( 'NONE',  ( 25.50000000000000355, 15.00000000000000000, 5.000000000000000888 ) ) ;
#381 = VERTEX_POINT ( 'NONE', #58 ) ;
#382 = LINE ( 'NONE', #340, #448 ) ;
#383 = ADVANCED_FACE ( 'NONE', ( #192 ), #524, .F. ) ;
#384 = VECTOR ( 'NONE', #563, 1000.000000000000000 ) ;
#385 = VERTEX_POINT ( 'NONE', #431 ) ;
#386 = DATE_AND_TIME ( #107, #310 ) ;
#387 = PLANE ( 'NONE',  #283 ) ;
#388 = ORIENTED_EDGE ( 'NONE', *, *, #325, .T. ) ;
#389 = FACE_OUTER_BOUND ( 'NONE', #573, .T. ) ;
#390 = EDGE_LOOP ( 'NONE', ( #396, #413, #156, #88, #593, #394 ) ) ;
#391 = APPROVAL_STATUS ( 'not_yet_approved' ) ;
#392 = AXIS2_PLACEMENT_3D ( 'NONE', #347, #587, #117 ) ;
#393 = DIRECTION ( 'NONE',  ( -1.000000000000000000, 0.000000000000000000, 1.360567432138672328E-16 ) ) ;
#394 = ORIENTED_EDGE ( 'NONE', *, *, #500, .T. ) ;
#395 = CARTESIAN_POINT ( 'NONE',  ( -0.4999999999999900080, 0.000000000000000000, 30.00000000000000355 ) ) ;
#396 = ORIENTED_EDGE ( 'NONE', *, *, #482, .T. ) ;
#397 = CARTESIAN_POINT ( 'NONE',  ( 3.851859888774471706E-31, 5.000000000000000000, -28.49999999999999645 ) ) ;
#398 = ADVANCED_FACE ( 'NONE', ( #18, #195 ), #387, .F. ) ;
#399 = CARTESIAN_POINT ( 'NONE',  ( 5.510910596163091528E-16, 0.000000000000000000, -19.49999999999999645 ) ) ;
#400 = FACE_OUTER_BOUND ( 'NONE', #537, .T. ) ;
#401 = EDGE_CURVE ( 'NONE', #247, #368, #62, .T. ) ;
#402 = LINE ( 'NONE', #405, #175 ) ;
#403 = CIRCLE ( 'NONE', #462, 4.500000000000000888 ) ;
#404 = DIRECTION ( 'NONE',  ( 0.000000000000000000, 1.000000000000000000, 0.000000000000000000 ) ) ;
#405 = CARTESIAN_POINT ( 'NONE',  ( 2.160558704270743831E-14, 5.000000000000000000, 25.00000000000000711 ) ) ;
#406 = ORIENTED_EDGE ( 'NONE', *, *, #343, .T. ) ;
#407 = CARTESIAN_POINT ( 'NONE',  ( -0.4999999999999935052, 0.000000000000000000, 5.000000000000000888 ) ) ;
#408 = CARTESIAN_POINT ( 'NONE',  ( -25.49999999999999645, 15.00000000000000000, 5.000000000000000888 ) ) ;
#409 = EDGE_CURVE ( 'NONE', #237, #222, #527, .T. ) ;
#410 = VERTEX_POINT ( 'NONE', #154 ) ;
#411 = APPROVAL_STATUS ( 'not_yet_approved' ) ;
#412 = FACE_OUTER_BOUND ( 'NONE', #427, .T. ) ;
#413 = ORIENTED_EDGE ( 'NONE', *, *, #34, .T. ) ;
#414 = AXIS2_PLACEMENT_3D ( 'NONE', #460, #49, #45 ) ;
#415 = APPROVAL_DATE_TIME ( #225, #24 ) ;
#416 = AXIS2_PLACEMENT_3D ( 'NONE', #442, #453, #540 ) ;
#417 = CARTESIAN_POINT ( 'NONE',  ( -25.49999999999999645, 15.00000000000000000, -18.00000000000000000 ) ) ;
#418 = EDGE_CURVE ( 'NONE', #385, #223, #111, .T. ) ;
#419 = FACE_OUTER_BOUND ( 'NONE', #270, .T. ) ;
#420 = APPLICATION_PROTOCOL_DEFINITION ( 'international standard', 'config_control_design', 1994, #215 ) ;
#421 = CARTESIAN_POINT ( 'NONE',  ( -25.49999999999999645, 5.000000000000000000, -18.00000000000000000 ) ) ;
#422 = AXIS2_PLACEMENT_3D ( 'NONE', #27, #591, #207 ) ;
#423 = FACE_OUTER_BOUND ( 'NONE', #425, .T. ) ;
#424 = AXIS2_PLACEMENT_3D ( 'NONE', #91, #275, #467 ) ;
#425 = EDGE_LOOP ( 'NONE', ( #169, #28, #544, #523 ) ) ;
#426 = DIRECTION ( 'NONE',  ( -0.000000000000000000, -1.000000000000000000, -0.000000000000000000 ) ) ;
#427 = EDGE_LOOP ( 'NONE', ( #68, #285, #287, #251 ) ) ;
#428 = EDGE_CURVE ( 'NONE', #256, #63, #23, .T. ) ;
#429 = CARTESIAN_POINT ( 'NONE',  ( -25.49999999999999645, 0.000000000000000000, -29.99999999999999289 ) ) ;
#430 = VERTEX_POINT ( 'NONE', #129 ) ;
#431 = CARTESIAN_POINT ( 'NONE',  ( 2.197298108245164376E-14, 15.00000000000000000, 28.00000000000000355 ) ) ;
#432 = AXIS2_PLACEMENT_3D ( 'NONE', #10, #378, #143 ) ;
#433 = ORIENTED_EDGE ( 'NONE', *, *, #291, .T. ) ;
#434 = CARTESIAN_POINT ( 'NONE',  ( 25.50000000000000355, 0.000000000000000000, -30.00000000000000000 ) ) ;
#435 = ORIENTED_EDGE ( 'NONE', *, *, #244, .T. ) ;
#436 = ADVANCED_FACE ( 'NONE', ( #78, #360 ), #354, .T. ) ;
#437 = DIRECTION ( 'NONE',  ( -0.000000000000000000, -1.000000000000000000, -0.000000000000000000 ) ) ;
#438 = ORIENTED_EDGE ( 'NONE', *, *, #291, .F. ) ;
#439 = EDGE_CURVE ( 'NONE', #476, #106, #213, .T. ) ;
#440 = FACE_OUTER_BOUND ( 'NONE', #596, .T. ) ;
#441 = EDGE_LOOP ( 'NONE', ( #12, #240, #97, #580 ) ) ;
#442 = CARTESIAN_POINT ( 'NONE',  ( 2.038094024356008367E-14, 5.000000000000000000, 15.00000000000000355 ) ) ;
#443 = DIRECTION ( 'NONE',  ( 0.000000000000000000, 0.000000000000000000, -1.000000000000000000 ) ) ;
#444 = APPROVAL ( #277, 'UNSPECIFIED' ) ;
#445 = PLANE ( 'NONE',  #422 ) ;
#446 = CARTESIAN_POINT ( 'NONE',  ( 2.038094024356008367E-14, 5.000000000000000000, 15.00000000000000355 ) ) ;
#447 = LOCAL_TIME ( 18, 15, 0.000000000000000000, #365 ) ;
#448 = VECTOR ( 'NONE', #242, 1000.000000000000000 ) ;
#449 = LINE ( 'NONE', #39, #142 ) ;
#450 = DIRECTION ( 'NONE',  ( -1.360567432138672328E-16, 0.000000000000000000, -1.000000000000000000 ) ) ;
#451 = AXIS2_PLACEMENT_3D ( 'NONE', #489, #522, #333 ) ;
#452 = VERTEX_POINT ( 'NONE', #491 ) ;
#453 = DIRECTION ( 'NONE',  ( 0.000000000000000000, 1.000000000000000000, 0.000000000000000000 ) ) ;
#454 = CARTESIAN_POINT ( 'NONE',  ( 3.851859888774471706E-31, 5.000000000000000000, -28.49999999999999645 ) ) ;
#455 = SECURITY_CLASSIFICATION ( '', '', #64 ) ;
#456 = ORIENTED_EDGE ( 'NONE', *, *, #306, .F. ) ;
#457 = CARTESIAN_POINT ( 'NONE',  ( -0.4999999999999935052, 5.000000000000000000, 5.000000000000000888 ) ) ;
#458 = ORIENTED_EDGE ( 'NONE', *, *, #362, .T. ) ;
#459 = CALENDAR_DATE ( 2026, 28, 2 ) ;
#460 = CARTESIAN_POINT ( 'NONE',  ( 2.038094024356008367E-14, 0.000000000000000000, 15.00000000000000355 ) ) ;
#461 = EDGE_CURVE ( 'NONE', #237, #247, #594, .T. ) ;
#462 = AXIS2_PLACEMENT_3D ( 'NONE', #259, #272, #498 ) ;
#463 = APPROVAL_ROLE ( '' ) ;
#464 = DIRECTION ( 'NONE',  ( 0.000000000000000000, 1.000000000000000000, 0.000000000000000000 ) ) ;
#465 = EDGE_CURVE ( 'NONE', #159, #187, #258, .T. ) ;
#466 = CARTESIAN_POINT ( 'NONE',  ( 0.5000000000000038858, 0.000000000000000000, 30.00000000000000355 ) ) ;
#467 = DIRECTION ( 'NONE',  ( 0.000000000000000000, 0.000000000000000000, -1.000000000000000000 ) ) ;
#468 = ORIENTED_EDGE ( 'NONE', *, *, #545, .T. ) ;
#469 = AXIS2_PLACEMENT_3D ( 'NONE', #585, #304, #31 ) ;
#470 = AXIS2_PLACEMENT_3D ( 'NONE', #344, #14, #336 ) ;
#471 = LINE ( 'NONE', #135, #384 ) ;
#472 = ORIENTED_EDGE ( 'NONE', *, *, #511, .T. ) ;
#473 = EDGE_CURVE ( 'NONE', #410, #256, #22, .T. ) ;
#474 = SHAPE_DEFINITION_REPRESENTATION ( #211, #150 ) ;
#475 = DIRECTION ( 'NONE',  ( 0.000000000000000000, 1.000000000000000000, 0.000000000000000000 ) ) ;
#476 = VERTEX_POINT ( 'NONE', #29 ) ;
#477 = VECTOR ( 'NONE', #437, 1000.000000000000000 ) ;
#478 = PLANE ( 'NONE',  #534 ) ;
#479 = ORIENTED_EDGE ( 'NONE', *, *, #409, .T. ) ;
#480 = VECTOR ( 'NONE', #35, 1000.000000000000000 ) ;
#481 = DATE_AND_TIME ( #99, #185 ) ;
#482 = EDGE_CURVE ( 'NONE', #368, #452, #271, .T. ) ;
#483 = DIRECTION ( 'NONE',  ( 0.000000000000000000, 0.000000000000000000, -1.000000000000000000 ) ) ;
#484 = VECTOR ( 'NONE', #47, 1000.000000000000000 ) ;
#485 = ORIENTED_EDGE ( 'NONE', *, *, #428, .F. ) ;
#486 = CC_DESIGN_DATE_AND_TIME_ASSIGNMENT ( #600, #134, ( #332 ) ) ;
#487 = CARTESIAN_POINT ( 'NONE',  ( 0.000000000000000000, 15.00000000000000000, 0.000000000000000000 ) ) ;
#488 = ORIENTED_EDGE ( 'NONE', *, *, #322, .T. ) ;
#489 = CARTESIAN_POINT ( 'NONE',  ( 3.851859888774471706E-31, 0.000000000000000000, -23.99999999999999645 ) ) ;
#490 = ORIENTED_EDGE ( 'NONE', *, *, #500, .F. ) ;
#491 = CARTESIAN_POINT ( 'NONE',  ( -25.49999999999999645, 0.000000000000000000, 5.000000000000000888 ) ) ;
#492 = VERTEX_POINT ( 'NONE', #349 ) ;
#493 = EDGE_CURVE ( 'NONE', #223, #206, #542, .T. ) ;
#494 = CARTESIAN_POINT ( 'NONE',  ( -1.224510688924804996E-15, 5.000000000000000000, -18.00000000000000000 ) ) ;
#495 = CARTESIAN_POINT ( 'NONE',  ( 3.851859888774471706E-31, 0.000000000000000000, -28.49999999999999645 ) ) ;
#496 = UNCERTAINTY_MEASURE_WITH_UNIT (LENGTH_MEASURE( 1.000000000000000082E-05 ), #497, 'distance_accuracy_value', 'NONE');
#497 =( LENGTH_UNIT ( ) NAMED_UNIT ( * ) SI_UNIT ( .MILLI., .METRE. ) );
#498 = DIRECTION ( 'NONE',  ( 0.000000000000000000, 0.000000000000000000, 1.000000000000000000 ) ) ;
#499 = CARTESIAN_POINT ( 'NONE',  ( 2.038094024356008367E-14, 5.000000000000000000, 15.00000000000000355 ) ) ;
#500 = EDGE_CURVE ( 'NONE', #220, #368, #449, .T. ) ;
#501 = CYLINDRICAL_SURFACE ( 'NONE', #138, 13.00000000000000178 ) ;
#502 = ORIENTED_EDGE ( 'NONE', *, *, #57, .T. ) ;
#503 = CARTESIAN_POINT ( 'NONE',  ( 2.038094024356008367E-14, 15.00000000000000000, 15.00000000000000355 ) ) ;
#504 = EDGE_CURVE ( 'NONE', #385, #56, #231, .T. ) ;
#505 = DIRECTION ( 'NONE',  ( 0.000000000000000000, 1.000000000000000000, 0.000000000000000000 ) ) ;
#506 = LOCAL_TIME ( 18, 15, 0.000000000000000000, #296 ) ;
#507 = ORIENTED_EDGE ( 'NONE', *, *, #465, .T. ) ;
#508 = PERSON_AND_ORGANIZATION_ROLE ( 'design_owner' ) ;
#509 = DIRECTION ( 'NONE',  ( 1.000000000000000000, 0.000000000000000000, -1.360567432138672328E-16 ) ) ;
#510 = CARTESIAN_POINT ( 'NONE',  ( 2.197298108245164376E-14, 5.000000000000000000, 28.00000000000000355 ) ) ;
#511 = EDGE_CURVE ( 'NONE', #220, #159, #308, .T. ) ;
#512 = EDGE_CURVE ( 'NONE', #525, #452, #338, .T. ) ;
#513 = AXIS2_PLACEMENT_3D ( 'NONE', #446, #356, #234 ) ;
#514 =( NAMED_UNIT ( * ) SI_UNIT ( $, .STERADIAN. ) SOLID_ANGLE_UNIT ( ) );
#515 = DIRECTION ( 'NONE',  ( 0.000000000000000000, 0.000000000000000000, -1.000000000000000000 ) ) ;
#516 = CARTESIAN_POINT ( 'NONE',  ( 25.50000000000000355, 5.000000000000000000, -30.00000000000000000 ) ) ;
#517 = ORIENTED_EDGE ( 'NONE', *, *, #428, .T. ) ;
#518 = ADVANCED_FACE ( 'NONE', ( #400 ), #445, .F. ) ;
#519 = CARTESIAN_POINT ( 'NONE',  ( 2.038094024356008367E-14, 0.000000000000000000, 15.00000000000000355 ) ) ;
#520 = ORIENTED_EDGE ( 'NONE', *, *, #188, .T. ) ;
#521 = AXIS2_PLACEMENT_3D ( 'NONE', #516, #318, #509 ) ;
#522 = DIRECTION ( 'NONE',  ( 0.000000000000000000, 1.000000000000000000, 0.000000000000000000 ) ) ;
#523 = ORIENTED_EDGE ( 'NONE', *, *, #268, .F. ) ;
#524 = PLANE ( 'NONE',  #205 ) ;
#525 = VERTEX_POINT ( 'NONE', #395 ) ;
#526 = EDGE_CURVE ( 'NONE', #198, #348, #293, .T. ) ;
#527 = CIRCLE ( 'NONE', #162, 25.00000000000000000 ) ;
#528 = LINE ( 'NONE', #108, #81 ) ;
#529 = ORIENTED_EDGE ( 'NONE', *, *, #439, .T. ) ;
#530 = EDGE_CURVE ( 'NONE', #106, #146, #115, .T. ) ;
#531 = CIRCLE ( 'NONE', #204, 13.00000000000000178 ) ;
#532 = CIRCLE ( 'NONE', #470, 13.00000000000000178 ) ;
#533 = DIRECTION ( 'NONE',  ( -0.000000000000000000, -1.000000000000000000, -0.000000000000000000 ) ) ;
#534 = AXIS2_PLACEMENT_3D ( 'NONE', #299, #475, #203 ) ;
#535 = EDGE_LOOP ( 'NONE', ( #131, #54, #560, #84 ) ) ;
#536 = DIRECTION ( 'NONE',  ( 0.000000000000000000, 0.000000000000000000, -1.000000000000000000 ) ) ;
#537 = EDGE_LOOP ( 'NONE', ( #264, #161, #334, #438, #21, #314 ) ) ;
#538 = CARTESIAN_POINT ( 'NONE',  ( 25.50000000000000355, 0.000000000000000000, 30.00000000000000000 ) ) ;
#539 = EDGE_LOOP ( 'NONE', ( #552, #490, #331, #433 ) ) ;
#540 = DIRECTION ( 'NONE',  ( 0.000000000000000000, 0.000000000000000000, 1.000000000000000000 ) ) ;
#541 = CARTESIAN_POINT ( 'NONE',  ( 2.038094024356008367E-14, 0.000000000000000000, 4.999999999999995559 ) ) ;
#542 = CIRCLE ( 'NONE', #416, 13.00000000000000178 ) ;
#543 = DIRECTION ( 'NONE',  ( 0.000000000000000000, 0.000000000000000000, 1.000000000000000000 ) ) ;
#544 = ORIENTED_EDGE ( 'NONE', *, *, #409, .F. ) ;
#545 = EDGE_CURVE ( 'NONE', #256, #410, #3, .T. ) ;
#546 = DIRECTION ( 'NONE',  ( 0.000000000000000000, 1.000000000000000000, 0.000000000000000000 ) ) ;
#547 = FACE_OUTER_BOUND ( 'NONE', #535, .T. ) ;
#548 = ORIENTED_EDGE ( 'NONE', *, *, #219, .T. ) ;
#549 = VECTOR ( 'NONE', #145, 1000.000000000000000 ) ;
#550 = DIRECTION ( 'NONE',  ( 1.000000000000000000, 0.000000000000000000, -6.802837160693361638E-17 ) ) ;
#551 = DIRECTION ( 'NONE',  ( 0.000000000000000000, 0.000000000000000000, -1.000000000000000000 ) ) ;
#552 = ORIENTED_EDGE ( 'NONE', *, *, #401, .T. ) ;
#553 = DIRECTION ( 'NONE',  ( 0.000000000000000000, 0.000000000000000000, 1.000000000000000000 ) ) ;
#554 = CARTESIAN_POINT ( 'NONE',  ( 0.5000000000000037748, 15.00000000000000000, 30.00000000000000000 ) ) ;
#555 = DIRECTION ( 'NONE',  ( 0.000000000000000000, -0.000000000000000000, 1.000000000000000000 ) ) ;
#556 =( GEOMETRIC_REPRESENTATION_CONTEXT ( 3 ) GLOBAL_UNCERTAINTY_ASSIGNED_CONTEXT ( ( #496 ) ) GLOBAL_UNIT_ASSIGNED_CONTEXT ( ( #497, #319, #514 ) ) REPRESENTATION_CONTEXT ( 'NONE', 'WORKASPACE' ) );
#557 = DIRECTION ( 'NONE',  ( 1.000000000000000000, 0.000000000000000000, -6.802837160693361638E-17 ) ) ;
#558 = VECTOR ( 'NONE', #105, 1000.000000000000000 ) ;
#559 = CARTESIAN_POINT ( 'NONE',  ( 25.50000000000000355, 5.000000000000000000, 5.000000000000000888 ) ) ;
#560 = ORIENTED_EDGE ( 'NONE', *, *, #512, .F. ) ;
#561 = APPROVAL ( #391, 'UNSPECIFIED' ) ;
#562 = PERSON_AND_ORGANIZATION ( #590, #80 ) ;
#563 = DIRECTION ( 'NONE',  ( -0.000000000000000000, 1.000000000000000000, -0.000000000000000000 ) ) ;
#564 = ORIENTED_EDGE ( 'NONE', *, *, #581, .F. ) ;
#565 = APPROVAL_ROLE ( '' ) ;
#566 = FACE_BOUND ( 'NONE', #571, .T. ) ;
#567 = ORIENTED_EDGE ( 'NONE', *, *, #65, .F. ) ;
#568 = AXIS2_PLACEMENT_3D ( 'NONE', #457, #586, #551 ) ;
#569 = DIRECTION ( 'NONE',  ( 1.000000000000000000, -0.000000000000000000, 0.000000000000000000 ) ) ;
#570 = VECTOR ( 'NONE', #163, 1000.000000000000000 ) ;
#571 = EDGE_LOOP ( 'NONE', ( #141, #289 ) ) ;
#572 = CYLINDRICAL_SURFACE ( 'NONE', #267, 13.00000000000000178 ) ;
#573 = EDGE_LOOP ( 'NONE', ( #193, #529, #176, #363 ) ) ;
#574 = PERSON_AND_ORGANIZATION_ROLE ( 'classification_officer' ) ;
#575 = DIRECTION ( 'NONE',  ( -8.890457814381136359E-16, 0.000000000000000000, 1.000000000000000000 ) ) ;
#576 = ORIENTED_EDGE ( 'NONE', *, *, #493, .T. ) ;
#577 = APPROVAL_PERSON_ORGANIZATION ( #317, #444, #463 ) ;
#578 = DATE_AND_TIME ( #249, #506 ) ;
#579 = CARTESIAN_POINT ( 'NONE',  ( 2.038094024356008367E-14, 5.000000000000000000, 4.999999999999995559 ) ) ;
#580 = ORIENTED_EDGE ( 'NONE', *, *, #493, .F. ) ;
#581 = EDGE_CURVE ( 'NONE', #206, #223, #531, .T. ) ;
#582 = DIRECTION ( 'NONE',  ( -0.000000000000000000, -1.000000000000000000, -0.000000000000000000 ) ) ;
#583 = ORIENTED_EDGE ( 'NONE', *, *, #181, .F. ) ;
#584 = AXIS2_PLACEMENT_3D ( 'NONE', #312, #546, #266 ) ;
#585 = CARTESIAN_POINT ( 'NONE',  ( 2.038094024356008367E-14, 5.000000000000000000, 15.00000000000000355 ) ) ;
#586 = DIRECTION ( 'NONE',  ( 0.000000000000000000, -1.000000000000000000, 0.000000000000000000 ) ) ;
#587 = DIRECTION ( 'NONE',  ( 0.000000000000000000, 1.000000000000000000, 0.000000000000000000 ) ) ;
#588 = ORIENTED_EDGE ( 'NONE', *, *, #322, .F. ) ;
#589 = VECTOR ( 'NONE', #121, 1000.000000000000000 ) ;
#590 = PERSON ( 'UNSPECIFIED', 'UNSPECIFIED', 'UNSPECIFIED', ('UNSPECIFIED'), ('UNSPECIFIED'), ('UNSPECIFIED') ) ;
#591 = DIRECTION ( 'NONE',  ( -1.000000000000000000, 0.000000000000000000, 0.000000000000000000 ) ) ;
#592 = CARTESIAN_POINT ( 'NONE',  ( 0.000000000000000000, 15.00000000000000000, 30.00000000000000000 ) ) ;
#593 = ORIENTED_EDGE ( 'NONE', *, *, #511, .F. ) ;
#594 = LINE ( 'NONE', #538, #233 ) ;
#595 = LINE ( 'NONE', #592, #589 ) ;
#596 = EDGE_LOOP ( 'NONE', ( #472, #507, #388, #458 ) ) ;
#597 = ORIENTED_EDGE ( 'NONE', *, *, #181, .T. ) ;
#598 = CIRCLE ( 'NONE', #424, 25.00000000000000000 ) ;
#599 = ORIENTED_EDGE ( 'NONE', *, *, #512, .T. ) ;
#600 = DATE_AND_TIME ( #459, #235 ) ;
#601 = CARTESIAN_POINT ( 'NONE',  ( 2.038094024356008367E-14, 5.000000000000000000, 2.000000000000001776 ) ) ;
ENDSEC;
END-ISO-10303-21;
