M48
; DRILL file {KiCad 9.0.7} date 2026-04-11T12:24:58+0200
; FORMAT={-:-/ absolute / metric / decimal}
; #@! TF.CreationDate,2026-04-11T12:24:58+02:00
; #@! TF.GenerationSoftware,Kicad,Pcbnew,9.0.7
; #@! TF.FileFunction,Plated,1,4,PTH
FMAT,2
METRIC
; #@! TA.AperFunction,Plated,PTH,ViaDrill
T1C0.300
; #@! TA.AperFunction,Plated,PTH,ComponentDrill
T2C0.550
; #@! TA.AperFunction,Plated,PTH,ComponentDrill
T3C0.750
; #@! TA.AperFunction,Plated,PTH,ComponentDrill
T4C0.759
; #@! TA.AperFunction,Plated,PTH,ComponentDrill
T5C0.800
; #@! TA.AperFunction,Plated,PTH,ComponentDrill
T6C0.850
; #@! TA.AperFunction,Plated,PTH,ComponentDrill
T7C0.900
; #@! TA.AperFunction,Plated,PTH,ComponentDrill
T8C1.000
; #@! TA.AperFunction,Plated,PTH,ComponentDrill
T9C1.100
; #@! TA.AperFunction,Plated,PTH,ComponentDrill
T10C1.600
; #@! TA.AperFunction,Plated,PTH,ViaDrill
T11C3.900
%
G90
G05
T1
X109.6Y-111.95
X110.5Y-111.95
X111.132Y-94.73
X111.152Y-95.83
X111.302Y-97.57
X111.332Y-98.51
X111.42Y-99.83
X111.45Y-100.77
X111.62Y-109.71
X111.65Y-110.65
X111.9Y-65.01
X111.93Y-65.95
X112.122Y-95.22
X112.483Y-97.57
X112.483Y-99.87
X112.512Y-98.51
X112.63Y-100.77
X112.8Y-109.71
X112.83Y-110.65
X113.08Y-65.01
X113.11Y-65.95
X113.85Y-97.0
X113.93Y-95.11
X114.77Y-77.66
X114.8Y-78.6
X114.9Y-94.5
X114.9Y-97.0
X114.92Y-95.6
X115.95Y-77.66
X115.95Y-96.95
X115.98Y-78.6
X117.24Y-64.94
X117.27Y-65.88
X118.18Y-112.34
X118.21Y-113.28
X118.42Y-64.94
X118.45Y-65.88
X119.36Y-112.34
X119.39Y-113.28
X120.11Y-96.88
X123.41Y-112.08
X123.44Y-113.02
X123.54Y-67.9
X123.56Y-69.0
X124.53Y-68.39
X124.59Y-112.08
X124.62Y-113.02
X125.41Y-69.04
X125.47Y-67.91
X125.72Y-96.67
X125.75Y-97.61
X126.45Y-108.45
X126.5Y-112.215
X126.52Y-113.535
X126.9Y-96.67
X126.93Y-97.61
X127.58Y-112.225
X127.64Y-113.565
X128.88Y-113.18
X128.91Y-114.12
X129.46Y-91.12
X129.52Y-89.99
X130.06Y-113.18
X130.09Y-114.12
X130.3Y-92.09
X130.32Y-93.89
X130.33Y-93.03
X130.35Y-94.83
X130.4Y-90.64
X131.37Y-90.03
X131.39Y-91.13
X131.48Y-92.09
X131.5Y-93.89
X131.51Y-93.03
X131.53Y-94.83
X134.65Y-81.06
X134.68Y-82.0
X135.83Y-81.06
X135.86Y-82.0
X137.72Y-85.08
X137.73Y-83.15
X138.01Y-91.88
X138.04Y-92.82
X138.21Y-84.09
X138.78Y-102.88
X138.82Y-85.06
X138.83Y-104.45
X138.86Y-83.21
X139.19Y-91.88
X139.22Y-92.82
X139.54Y-105.26
X139.61Y-103.67
X139.76Y-83.72
X139.79Y-84.66
X140.22Y-91.9
X140.25Y-92.84
X140.86Y-79.67
X140.92Y-78.54
X140.94Y-83.72
X140.97Y-84.66
X141.18Y-89.1
X141.19Y-87.17
X141.4Y-91.9
X141.43Y-92.84
X141.67Y-88.11
X141.69Y-86.28
X141.8Y-79.19
X142.2Y-87.11
X142.28Y-89.08
X142.34Y-97.39
X142.37Y-98.33
X142.38Y-99.27
X142.41Y-100.21
X142.41Y-101.21
X142.44Y-102.15
X142.77Y-78.58
X142.79Y-79.68
X142.85Y-90.4
X143.52Y-97.39
X143.55Y-98.33
X143.56Y-99.27
X143.59Y-100.21
X143.59Y-101.21
X143.62Y-102.15
X145.7Y-89.75
X151.53Y-109.39
X151.56Y-110.33
X152.71Y-109.39
X152.74Y-110.33
X153.85Y-83.06
X153.88Y-84.0
X153.98Y-85.24
X154.01Y-86.18
X154.18Y-96.81
X154.21Y-97.75
X155.03Y-83.06
X155.06Y-84.0
X155.16Y-85.24
X155.19Y-86.18
X155.36Y-96.81
X155.39Y-97.75
X155.97Y-81.26
X156.0Y-82.2
X157.15Y-81.26
X157.18Y-82.2
X158.1Y-81.24
X158.13Y-82.18
X159.28Y-81.24
X159.31Y-82.18
X160.22Y-83.66
X160.25Y-84.6
X160.33Y-86.08
X160.36Y-87.02
X161.0Y-76.92
X161.03Y-77.86
X161.4Y-83.66
X161.43Y-84.6
X161.51Y-86.08
X161.54Y-87.02
X162.18Y-76.92
X162.21Y-77.86
X162.48Y-94.48
X162.73Y-93.3
X163.1Y-92.21
X163.46Y-91.22
X163.71Y-99.65
X163.74Y-100.59
X164.02Y-93.87
X164.05Y-94.81
X164.89Y-99.65
X164.92Y-100.59
X165.2Y-93.87
X165.23Y-94.81
X166.11Y-93.86
X166.14Y-94.8
X167.29Y-93.86
X167.32Y-94.8
X170.4Y-92.9
X170.44Y-91.05
X170.57Y-84.44
X170.6Y-85.38
X171.05Y-92.02
X171.53Y-92.96
X171.54Y-91.03
X171.75Y-84.44
X171.78Y-85.38
X176.06Y-60.28
X176.09Y-61.22
X177.24Y-60.28
X177.27Y-61.22
X178.86Y-60.11
X178.89Y-61.05
X180.04Y-60.11
X180.07Y-61.05
X182.91Y-82.46
X182.94Y-83.4
X182.94Y-84.62
X182.95Y-86.63
X182.97Y-85.56
X182.98Y-87.57
X182.98Y-88.59
X183.01Y-89.53
X184.09Y-82.46
X184.12Y-83.4
X184.12Y-84.62
X184.13Y-86.63
X184.15Y-85.56
X184.16Y-87.57
X184.16Y-88.59
X184.19Y-89.53
X186.42Y-85.49
X186.45Y-86.43
X187.6Y-85.49
X187.63Y-86.43
X188.13Y-60.24
X188.16Y-61.18
X188.4Y-79.85
X188.4Y-81.6
X189.31Y-60.24
X189.34Y-61.18
X189.5Y-80.55
X190.55Y-79.9
X190.6Y-81.55
X191.3Y-62.18
X191.33Y-63.12
X192.48Y-62.18
X192.51Y-63.12
X193.92Y-111.45
X193.95Y-112.39
X194.09Y-62.18
X194.12Y-63.12
X195.1Y-111.45
X195.13Y-112.39
X195.27Y-62.18
X195.3Y-63.12
X208.04Y-91.6
X208.07Y-92.54
X209.22Y-91.6
X209.25Y-92.54
T3
X182.59Y-104.645
X182.59Y-105.915
X182.59Y-107.185
T4
X106.8Y-67.33
X106.8Y-69.87
X106.8Y-72.41
X106.8Y-74.95
X106.812Y-103.5
X106.812Y-106.04
X116.24Y-100.195
X116.24Y-108.005
X118.11Y-84.25
X118.11Y-92.06
X118.78Y-100.195
X118.78Y-108.005
X120.65Y-84.25
X120.65Y-92.06
X121.32Y-100.195
X121.32Y-108.005
X123.19Y-84.25
X123.19Y-92.06
X123.86Y-100.195
X123.86Y-108.005
X125.73Y-84.25
X125.73Y-92.06
T5
X183.86Y-75.705
X187.36Y-75.705
T7
X187.2Y-67.83
X188.2Y-66.56
X188.2Y-69.1
T8
X187.96Y-93.805
X187.96Y-98.805
X212.3Y-109.375
X212.3Y-111.915
T9
X147.2Y-66.5
X147.2Y-71.0
X153.7Y-66.5
X153.7Y-71.0
X158.6Y-66.35
X158.6Y-70.85
X165.1Y-66.35
X165.1Y-70.85
X194.14Y-116.285
X194.14Y-118.825
X194.14Y-121.365
T10
X195.83Y-83.2
X199.61Y-104.365
X199.61Y-119.605
X211.07Y-83.2
T11
X110.0Y-60.0
X110.0Y-120.0
X209.0Y-60.0
X209.0Y-119.0
T2
G00X144.35Y-122.875
M15
G01X144.35Y-123.525
M16
G05
G00X152.1Y-122.875
M15
G01X152.1Y-123.525
M16
G05
T6
G00X144.5Y-119.125
M15
G01X144.5Y-119.675
M16
G05
G00X151.95Y-119.125
M15
G01X151.95Y-119.675
M16
G05
M30
