%TF.GenerationSoftware,KiCad,Pcbnew,9.0.7*%
%TF.CreationDate,2026-04-11T12:24:50+02:00*%
%TF.ProjectId,piezoTester v2.2,7069657a-6f54-4657-9374-65722076322e,rev?*%
%TF.SameCoordinates,Original*%
%TF.FileFunction,Soldermask,Bot*%
%TF.FilePolarity,Negative*%
%FSLAX46Y46*%
G04 Gerber Fmt 4.6, Leading zero omitted, Abs format (unit mm)*
G04 Created by KiCad (PCBNEW 9.0.7) date 2026-04-11 12:24:50*
%MOMM*%
%LPD*%
G01*
G04 APERTURE LIST*
%ADD10C,0.120000*%
%ADD11C,2.000000*%
%ADD12R,3.200000X3.200000*%
%ADD13O,3.200000X3.200000*%
%ADD14R,2.000000X2.000000*%
%ADD15O,2.000000X2.000000*%
%ADD16O,0.800000X0.800000*%
%ADD17O,1.150000X1.800000*%
%ADD18O,1.450000X2.000000*%
%ADD19C,1.400000*%
%ADD20C,1.800000*%
%ADD21C,1.600000*%
%ADD22R,1.600000X1.600000*%
%ADD23C,3.500000*%
%ADD24R,2.200000X2.200000*%
%ADD25O,2.200000X2.200000*%
%ADD26O,2.000000X1.100000*%
G04 APERTURE END LIST*
D10*
%TO.C,12VDC_IN1*%
X204950000Y-95344823D02*
G75*
G02*
X203150000Y-95344823I-900000J0D01*
G01*
X203150000Y-95344823D02*
G75*
G02*
X204950000Y-95344823I900000J0D01*
G01*
X209350000Y-95344823D02*
G75*
G02*
X207750000Y-95344823I-800000J0D01*
G01*
X207750000Y-95344823D02*
G75*
G02*
X209350000Y-95344823I800000J0D01*
G01*
%TD*%
D11*
%TO.C,RST*%
X165100000Y-70850000D03*
X158600000Y-70850000D03*
X165100000Y-66350000D03*
X158600000Y-66350000D03*
%TD*%
D12*
%TO.C,D1*%
X195830000Y-83200000D03*
D13*
X211070000Y-83200000D03*
%TD*%
D11*
%TO.C,TENS_IN1*%
X106800000Y-74950000D03*
X106800000Y-72410000D03*
X106800000Y-69870000D03*
X106800000Y-67330000D03*
%TD*%
D14*
%TO.C,MAGNET_IN1*%
X212300000Y-109374823D03*
D15*
X212300000Y-111914823D03*
%TD*%
D14*
%TO.C,MCP6002*%
X123860000Y-100195000D03*
D11*
X121320000Y-100195000D03*
X118780000Y-100195000D03*
X116240000Y-100195000D03*
X116240000Y-108005000D03*
X118780000Y-108005000D03*
X121320000Y-108005000D03*
X123860000Y-108005000D03*
%TD*%
D12*
%TO.C,D2*%
X199610000Y-104364823D03*
D13*
X199610000Y-119604823D03*
%TD*%
D16*
%TO.C,J1*%
X145725000Y-120450000D03*
X150725000Y-120450000D03*
D17*
X144350000Y-123200000D03*
D18*
X144500000Y-119400000D03*
X151950000Y-119400000D03*
D17*
X152100000Y-123200000D03*
%TD*%
D19*
%TO.C,LDO*%
X188200000Y-66560000D03*
X187200000Y-67830000D03*
X188200000Y-69100000D03*
%TD*%
D20*
%TO.C,12VDC_IN1*%
X204050000Y-95344823D03*
D21*
X208550000Y-95344823D03*
%TD*%
D11*
%TO.C,SENSOR_IN*%
X106812500Y-106040000D03*
X106812500Y-103500000D03*
%TD*%
%TO.C,LM358*%
X125730000Y-84250000D03*
X123190000Y-84250000D03*
X120650000Y-84250000D03*
X118110000Y-84250000D03*
X118110000Y-92060000D03*
X120650000Y-92060000D03*
X123190000Y-92060000D03*
X125730000Y-92060000D03*
%TD*%
D22*
%TO.C,C2*%
X183860000Y-75704823D03*
D21*
X187360000Y-75704823D03*
%TD*%
D14*
%TO.C,C1*%
X187960000Y-98804823D03*
D11*
X187960000Y-93804823D03*
%TD*%
D23*
%TO.C,Q4*%
X177480000Y-118824823D03*
D24*
X194140000Y-121364823D03*
D25*
X194140000Y-118824823D03*
X194140000Y-116284823D03*
%TD*%
D26*
%TO.C,Q3*%
X182590000Y-107184823D03*
X182590000Y-105914823D03*
X182590000Y-104644823D03*
%TD*%
D11*
%TO.C,BOOT*%
X153700000Y-71000000D03*
X147200000Y-71000000D03*
X153700000Y-66500000D03*
X147200000Y-66500000D03*
%TD*%
M02*
