ISO-10303-21;
HEADER;
FILE_DESCRIPTION (( 'STEP AP203' ),
    '1' );
FILE_NAME ('mocowanie elektromagnesu ofc.STEP',
    '2026-03-01T11:31:03',
    ( '' ),
    ( '' ),
    'SwSTEP 2.0',
    'SolidWorks 2025',
    '' );
FILE_SCHEMA (( 'CONFIG_CONTROL_DESIGN' ));
ENDSEC;

DATA;
#1 = EDGE_CURVE ( 'NONE', #55, #420, #350, .T. ) ;
#2 = CARTESIAN_POINT ( 'NONE',  ( 2.160558704270743831E-14, 0.000000000000000000, 25.00000000000000711 ) ) ;
#3 = ORIENTED_EDGE ( 'NONE', *, *, #89, .F. ) ;
#4 = DIRECTION ( 'NONE',  ( 0.000000000000000000, 0.000000000000000000, -1.000000000000000000 ) ) ;
#5 = CIRCLE ( 'NONE', #552, 25.00000000000000000 ) ;
#6 = EDGE_LOOP ( 'NONE', ( #372, #197, #108, #276 ) ) ;
#7 = PERSON_AND_ORGANIZATION ( #307, #583 ) ;
#8 = VERTEX_POINT ( 'NONE', #20 ) ;
#9 = LINE ( 'NONE', #228, #403 ) ;
#10 = FACE_OUTER_BOUND ( 'NONE', #426, .T. ) ;
#11 = EDGE_CURVE ( 'NONE', #192, #446, #299, .T. ) ;
#12 = VERTEX_POINT ( 'NONE', #354 ) ;
#13 = PLANE ( 'NONE',  #83 ) ;
#14 = EDGE_LOOP ( 'NONE', ( #366, #417, #335, #392 ) ) ;
#15 = DIRECTION ( 'NONE',  ( 0.000000000000000000, 0.000000000000000000, -1.000000000000000000 ) ) ;
#16 = ORIENTED_EDGE ( 'NONE', *, *, #375, .T. ) ;
#17 = DIRECTION ( 'NONE',  ( 0.000000000000000000, -1.000000000000000000, 0.000000000000000000 ) ) ;
#18 = CIRCLE ( 'NONE', #272, 13.00000000000000178 ) ;
#19 = ORIENTED_EDGE ( 'NONE', *, *, #441, .T. ) ;
#20 = CARTESIAN_POINT ( 'NONE',  ( 2.197298108245164376E-14, 5.000000000000000000, 28.00000000000000355 ) ) ;
#21 = AXIS2_PLACEMENT_3D ( 'NONE', #311, #38, #500 ) ;
#22 = DIRECTION ( 'NONE',  ( 0.000000000000000000, 0.000000000000000000, 1.000000000000000000 ) ) ;
#23 = EDGE_CURVE ( 'NONE', #532, #285, #530, .T. ) ;
#24 = ORIENTED_EDGE ( 'NONE', *, *, #317, .F. ) ;
#25 = FACE_OUTER_BOUND ( 'NONE', #14, .T. ) ;
#26 = DIRECTION ( 'NONE',  ( -0.000000000000000000, -1.000000000000000000, -0.000000000000000000 ) ) ;
#27 = DIRECTION ( 'NONE',  ( -0.000000000000000000, -0.000000000000000000, 1.000000000000000000 ) ) ;
#28 = EDGE_CURVE ( 'NONE', #420, #241, #251, .T. ) ;
#29 = VECTOR ( 'NONE', #59, 1000.000000000000000 ) ;
#30 = APPROVAL_DATE_TIME ( #215, #218 ) ;
#31 = LINE ( 'NONE', #528, #334 ) ;
#32 = AXIS2_PLACEMENT_3D ( 'NONE', #222, #131, #547 ) ;
#33 = CARTESIAN_POINT ( 'NONE',  ( 2.038094024356008367E-14, 5.000000000000000000, 15.00000000000000355 ) ) ;
#34 = VECTOR ( 'NONE', #149, 1000.000000000000000 ) ;
#35 = EDGE_CURVE ( 'NONE', #522, #561, #112, .T. ) ;
#36 = CARTESIAN_POINT ( 'NONE',  ( 2.038094024356008367E-14, 5.000000000000000000, 4.999999999999995559 ) ) ;
#37 = APPROVAL_STATUS ( 'not_yet_approved' ) ;
#38 = DIRECTION ( 'NONE',  ( 0.000000000000000000, 1.000000000000000000, 0.000000000000000000 ) ) ;
#39 = PRODUCT_RELATED_PRODUCT_CATEGORY ( 'detail', '', ( #178 ) ) ;
#40 = PLANE ( 'NONE',  #123 ) ;
#41 = ADVANCED_FACE ( 'NONE', ( #444 ), #346, .F. ) ;
#42 = DIRECTION ( 'NONE',  ( 0.000000000000000000, 0.000000000000000000, -1.000000000000000000 ) ) ;
#43 = CARTESIAN_POINT ( 'NONE',  ( 2.038094024356008367E-14, 5.000000000000000000, 15.00000000000000355 ) ) ;
#44 = VECTOR ( 'NONE', #184, 1000.000000000000000 ) ;
#45 = DIRECTION ( 'NONE',  ( 0.000000000000000000, 0.000000000000000000, -1.000000000000000000 ) ) ;
#46 = ORIENTED_EDGE ( 'NONE', *, *, #494, .T. ) ;
#47 = DIRECTION ( 'NONE',  ( 0.000000000000000000, 1.000000000000000000, 0.000000000000000000 ) ) ;
#48 = ORIENTED_EDGE ( 'NONE', *, *, #254, .T. ) ;
#49 = VECTOR ( 'NONE', #68, 1000.000000000000000 ) ;
#50 = DIRECTION ( 'NONE',  ( -0.000000000000000000, 1.000000000000000000, -0.000000000000000000 ) ) ;
#51 = ORIENTED_EDGE ( 'NONE', *, *, #586, .F. ) ;
#52 = CC_DESIGN_PERSON_AND_ORGANIZATION_ASSIGNMENT ( #496, #455, ( #169 ) ) ;
#53 = ORIENTED_EDGE ( 'NONE', *, *, #208, .T. ) ;
#54 = LINE ( 'NONE', #467, #264 ) ;
#55 = VERTEX_POINT ( 'NONE', #438 ) ;
#56 = ORIENTED_EDGE ( 'NONE', *, *, #143, .F. ) ;
#57 =( NAMED_UNIT ( * ) PLANE_ANGLE_UNIT ( ) SI_UNIT ( $, .RADIAN. ) );
#58 = ORIENTED_EDGE ( 'NONE', *, *, #138, .F. ) ;
#59 = DIRECTION ( 'NONE',  ( -0.000000000000000000, -1.000000000000000000, -0.000000000000000000 ) ) ;
#60 = ORIENTED_EDGE ( 'NONE', *, *, #230, .F. ) ;
#61 = DATE_AND_TIME ( #527, #104 ) ;
#62 = ORIENTED_EDGE ( 'NONE', *, *, #268, .F. ) ;
#63 = DIRECTION ( 'NONE',  ( 0.000000000000000000, 1.000000000000000000, 0.000000000000000000 ) ) ;
#64 = EDGE_LOOP ( 'NONE', ( #200, #190, #153, #204 ) ) ;
#65 = CARTESIAN_POINT ( 'NONE',  ( -25.49999999999999645, 0.000000000000000000, 5.000000000000000888 ) ) ;
#66 = LINE ( 'NONE', #571, #362 ) ;
#67 = ORIENTED_EDGE ( 'NONE', *, *, #424, .T. ) ;
#68 = DIRECTION ( 'NONE',  ( -0.000000000000000000, -1.000000000000000000, -0.000000000000000000 ) ) ;
#69 = LINE ( 'NONE', #198, #344 ) ;
#70 = LINE ( 'NONE', #203, #509 ) ;
#71 = EDGE_CURVE ( 'NONE', #420, #90, #221, .T. ) ;
#72 = EDGE_LOOP ( 'NONE', ( #148, #558, #412, #58 ) ) ;
#73 = APPLICATION_PROTOCOL_DEFINITION ( 'international standard', 'config_control_design', 1994, #269 ) ;
#74 = DIRECTION ( 'NONE',  ( 0.000000000000000000, 1.000000000000000000, 0.000000000000000000 ) ) ;
#75 = PERSON_AND_ORGANIZATION ( #307, #583 ) ;
#76 = CYLINDRICAL_SURFACE ( 'NONE', #436, 13.00000000000000178 ) ;
#77 = ADVANCED_FACE ( 'NONE', ( #25 ), #294, .F. ) ;
#78 = VECTOR ( 'NONE', #414, 1000.000000000000000 ) ;
#79 = DIRECTION ( 'NONE',  ( -1.000000000000000000, 0.000000000000000000, 1.360567432138672328E-16 ) ) ;
#80 = DIRECTION ( 'NONE',  ( 0.000000000000000000, 0.000000000000000000, 1.000000000000000000 ) ) ;
#81 = CARTESIAN_POINT ( 'NONE',  ( 25.50000000000000355, 15.00000000000000000, -18.00000000000000355 ) ) ;
#82 = DESIGN_CONTEXT ( 'detailed design', #269, 'design' ) ;
#83 = AXIS2_PLACEMENT_3D ( 'NONE', #247, #336, #534 ) ;
#84 = LINE ( 'NONE', #177, #589 ) ;
#85 = CARTESIAN_POINT ( 'NONE',  ( 25.50000000000000355, 5.000000000000000000, 30.00000000000000000 ) ) ;
#86 = ORIENTED_EDGE ( 'NONE', *, *, #462, .F. ) ;
#87 = PRODUCT_DEFINITION_SHAPE ( 'NONE', 'NONE',  #227 ) ;
#88 = DIRECTION ( 'NONE',  ( 1.000000000000000000, 0.000000000000000000, -6.802837160693361638E-17 ) ) ;
#89 = EDGE_CURVE ( 'NONE', #470, #192, #145, .T. ) ;
#90 = VERTEX_POINT ( 'NONE', #533 ) ;
#91 = AXIS2_PLACEMENT_3D ( 'NONE', #313, #175, #80 ) ;
#92 = CARTESIAN_POINT ( 'NONE',  ( 2.038094024356008367E-14, 15.00000000000000000, 15.00000000000000355 ) ) ;
#93 = FACE_OUTER_BOUND ( 'NONE', #106, .T. ) ;
#94 = ORIENTED_EDGE ( 'NONE', *, *, #408, .F. ) ;
#95 = AXIS2_PLACEMENT_3D ( 'NONE', #525, #107, #103 ) ;
#96 = ADVANCED_FACE ( 'NONE', ( #398 ), #290, .F. ) ;
#97 = CARTESIAN_POINT ( 'NONE',  ( 2.038094024356008367E-14, 5.000000000000000000, 4.999999999999995559 ) ) ;
#98 = FACE_OUTER_BOUND ( 'NONE', #102, .T. ) ;
#99 = VERTEX_POINT ( 'NONE', #479 ) ;
#100 = CARTESIAN_POINT ( 'NONE',  ( -0.4999999999999900080, 5.000000000000000000, 30.00000000000000355 ) ) ;
#101 = ADVANCED_FACE ( 'NONE', ( #98 ), #284, .F. ) ;
#102 = EDGE_LOOP ( 'NONE', ( #237, #521, #233, #529 ) ) ;
#103 = DIRECTION ( 'NONE',  ( -8.890457814381136359E-16, 0.000000000000000000, 1.000000000000000000 ) ) ;
#104 = LOCAL_TIME ( 12, 31, 3.000000000000000000, #256 ) ;
#105 = ORIENTED_EDGE ( 'NONE', *, *, #329, .T. ) ;
#106 = EDGE_LOOP ( 'NONE', ( #194, #189, #339, #229 ) ) ;
#107 = DIRECTION ( 'NONE',  ( -0.000000000000000000, -1.000000000000000000, -0.000000000000000000 ) ) ;
#108 = ORIENTED_EDGE ( 'NONE', *, *, #321, .F. ) ;
#109 = CARTESIAN_POINT ( 'NONE',  ( -0.4999999999999935052, 0.000000000000000000, 5.000000000000000888 ) ) ;
#110 = LINE ( 'NONE', #164, #540 ) ;
#111 = EDGE_LOOP ( 'NONE', ( #19, #142, #463, #48 ) ) ;
#112 = LINE ( 'NONE', #488, #548 ) ;
#113 = CC_DESIGN_APPROVAL ( #405, ( #456 ) ) ;
#114 = ADVANCED_FACE ( 'NONE', ( #10 ), #191, .T. ) ;
#115 = CARTESIAN_POINT ( 'NONE',  ( -25.49999999999999645, 5.000000000000000000, -18.00000000000000000 ) ) ;
#116 = DIRECTION ( 'NONE',  ( -0.000000000000000000, -1.000000000000000000, -0.000000000000000000 ) ) ;
#117 = ORIENTED_EDGE ( 'NONE', *, *, #321, .T. ) ;
#118 = CARTESIAN_POINT ( 'NONE',  ( 0.000000000000000000, 0.000000000000000000, 0.000000000000000000 ) ) ;
#119 = DIRECTION ( 'NONE',  ( 0.000000000000000000, -0.000000000000000000, 1.000000000000000000 ) ) ;
#120 = DATE_TIME_ROLE ( 'classification_date' ) ;
#121 = DIRECTION ( 'NONE',  ( -0.000000000000000000, -1.000000000000000000, -0.000000000000000000 ) ) ;
#122 = PERSON_AND_ORGANIZATION_ROLE ( 'classification_officer' ) ;
#123 = AXIS2_PLACEMENT_3D ( 'NONE', #364, #545, #180 ) ;
#124 = DIRECTION ( 'NONE',  ( 0.000000000000000000, 0.000000000000000000, 1.000000000000000000 ) ) ;
#125 = CALENDAR_DATE ( 2026, 1, 3 ) ;
#126 = AXIS2_PLACEMENT_3D ( 'NONE', #300, #253, #584 ) ;
#127 = FACE_OUTER_BOUND ( 'NONE', #64, .T. ) ;
#128 = ADVANCED_FACE ( 'NONE', ( #340, #248 ), #262, .F. ) ;
#129 = DIRECTION ( 'NONE',  ( -1.000000000000000000, 0.000000000000000000, 1.360567432138672328E-16 ) ) ;
#130 = CIRCLE ( 'NONE', #477, 25.00000000000000000 ) ;
#131 = DIRECTION ( 'NONE',  ( 0.000000000000000000, 1.000000000000000000, 0.000000000000000000 ) ) ;
#132 = CC_DESIGN_DATE_AND_TIME_ASSIGNMENT ( #588, #120, ( #456 ) ) ;
#133 = CARTESIAN_POINT ( 'NONE',  ( 2.197298108245164376E-14, 15.00000000000000000, 28.00000000000000355 ) ) ;
#134 = EDGE_LOOP ( 'NONE', ( #24, #94 ) ) ;
#135 = ORIENTED_EDGE ( 'NONE', *, *, #424, .F. ) ;
#136 = CARTESIAN_POINT ( 'NONE',  ( 0.000000000000000000, 0.000000000000000000, 0.000000000000000000 ) ) ;
#137 = CARTESIAN_POINT ( 'NONE',  ( -25.49999999999999645, 0.000000000000000000, -29.99999999999999289 ) ) ;
#138 = EDGE_CURVE ( 'NONE', #569, #244, #31, .T. ) ;
#139 = VERTEX_POINT ( 'NONE', #445 ) ;
#140 = LINE ( 'NONE', #185, #511 ) ;
#141 = CARTESIAN_POINT ( 'NONE',  ( 2.038094024356008367E-14, 5.000000000000000000, 15.00000000000000355 ) ) ;
#142 = ORIENTED_EDGE ( 'NONE', *, *, #329, .F. ) ;
#143 = EDGE_CURVE ( 'NONE', #192, #470, #413, .T. ) ;
#144 = CALENDAR_DATE ( 2026, 1, 3 ) ;
#145 = CIRCLE ( 'NONE', #176, 10.00000000000000533 ) ;
#146 = ORIENTED_EDGE ( 'NONE', *, *, #566, .T. ) ;
#147 = CARTESIAN_POINT ( 'NONE',  ( 25.50000000000000355, 5.000000000000000000, 5.000000000000000888 ) ) ;
#148 = ORIENTED_EDGE ( 'NONE', *, *, #317, .T. ) ;
#149 = DIRECTION ( 'NONE',  ( 0.000000000000000000, 0.000000000000000000, -1.000000000000000000 ) ) ;
#150 = ORIENTED_EDGE ( 'NONE', *, *, #429, .T. ) ;
#151 = AXIS2_PLACEMENT_3D ( 'NONE', #459, #368, #409 ) ;
#152 = ORIENTED_EDGE ( 'NONE', *, *, #581, .T. ) ;
#153 = ORIENTED_EDGE ( 'NONE', *, *, #351, .T. ) ;
#154 = FACE_OUTER_BOUND ( 'NONE', #384, .T. ) ;
#155 = LINE ( 'NONE', #348, #580 ) ;
#156 = ORIENTED_EDGE ( 'NONE', *, *, #28, .T. ) ;
#157 = CARTESIAN_POINT ( 'NONE',  ( 5.510910596163092514E-16, 5.000000000000000000, -19.49999999999999645 ) ) ;
#158 = PERSON_AND_ORGANIZATION ( #307, #583 ) ;
#159 = DIRECTION ( 'NONE',  ( 0.000000000000000000, -1.000000000000000000, 0.000000000000000000 ) ) ;
#160 = ORIENTED_EDGE ( 'NONE', *, *, #418, .T. ) ;
#161 = ORIENTED_EDGE ( 'NONE', *, *, #494, .F. ) ;
#162 = LOCAL_TIME ( 12, 31, 3.000000000000000000, #210 ) ;
#163 = CARTESIAN_POINT ( 'NONE',  ( 3.851859888774471706E-31, 5.000000000000000000, -28.49999999999999645 ) ) ;
#164 = CARTESIAN_POINT ( 'NONE',  ( 25.50000000000000355, 15.00000000000000000, 0.000000000000000000 ) ) ;
#165 = COORDINATED_UNIVERSAL_TIME_OFFSET ( 1, 0, .AHEAD. ) ;
#166 = ADVANCED_FACE ( 'NONE', ( #357 ), #214, .F. ) ;
#167 = DIRECTION ( 'NONE',  ( 0.000000000000000000, 0.000000000000000000, -1.000000000000000000 ) ) ;
#168 = FACE_OUTER_BOUND ( 'NONE', #6, .T. ) ;
#169 = PRODUCT_DEFINITION_FORMATION_WITH_SPECIFIED_SOURCE ( 'ANY', '', #178, .NOT_KNOWN. ) ;
#170 = CC_DESIGN_PERSON_AND_ORGANIZATION_ASSIGNMENT ( #439, #296, ( #178 ) ) ;
#171 = DIRECTION ( 'NONE',  ( -1.360567432138672328E-16, 0.000000000000000000, -1.000000000000000000 ) ) ;
#172 = PERSON_AND_ORGANIZATION_ROLE ( 'design_supplier' ) ;
#173 = AXIS2_PLACEMENT_3D ( 'NONE', #365, #47, #473 ) ;
#174 = EDGE_CURVE ( 'NONE', #353, #55, #110, .T. ) ;
#175 = DIRECTION ( 'NONE',  ( 0.000000000000000000, 1.000000000000000000, 0.000000000000000000 ) ) ;
#176 = AXIS2_PLACEMENT_3D ( 'NONE', #568, #63, #195 ) ;
#177 = CARTESIAN_POINT ( 'NONE',  ( -25.49999999999999645, 5.000000000000000000, -29.99999999999999289 ) ) ;
#178 = PRODUCT ( 'mocowanie elektromagnesu ofc', 'mocowanie elektromagnesu ofc', '', ( #302 ) ) ;
#179 = AXIS2_PLACEMENT_3D ( 'NONE', #407, #454, #461 ) ;
#180 = DIRECTION ( 'NONE',  ( 0.000000000000000000, -0.000000000000000000, 1.000000000000000000 ) ) ;
#181 = AXIS2_PLACEMENT_3D ( 'NONE', #136, #328, #510 ) ;
#182 = CARTESIAN_POINT ( 'NONE',  ( 25.50000000000000355, 5.000000000000000000, -30.00000000000000000 ) ) ;
#183 = EDGE_LOOP ( 'NONE', ( #468, #484, #16, #152 ) ) ;
#184 = DIRECTION ( 'NONE',  ( -1.000000000000000000, 0.000000000000000000, 1.360567432138672328E-16 ) ) ;
#185 = CARTESIAN_POINT ( 'NONE',  ( -1.224510688924804996E-15, 5.000000000000000000, -18.00000000000000000 ) ) ;
#186 = VERTEX_POINT ( 'NONE', #579 ) ;
#187 = CARTESIAN_POINT ( 'NONE',  ( 5.510910596163091528E-16, 5.000000000000000000, -19.49999999999999645 ) ) ;
#188 = EDGE_CURVE ( 'NONE', #514, #8, #70, .T. ) ;
#189 = ORIENTED_EDGE ( 'NONE', *, *, #230, .T. ) ;
#190 = ORIENTED_EDGE ( 'NONE', *, *, #143, .T. ) ;
#191 = CYLINDRICAL_SURFACE ( 'NONE', #399, 25.00000000000000000 ) ;
#192 = VERTEX_POINT ( 'NONE', #486 ) ;
#193 = APPROVAL_STATUS ( 'not_yet_approved' ) ;
#194 = ORIENTED_EDGE ( 'NONE', *, *, #188, .F. ) ;
#195 = DIRECTION ( 'NONE',  ( 0.000000000000000000, 0.000000000000000000, 1.000000000000000000 ) ) ;
#196 = AXIS2_PLACEMENT_3D ( 'NONE', #297, #451, #401 ) ;
#197 = ORIENTED_EDGE ( 'NONE', *, *, #188, .T. ) ;
#198 = CARTESIAN_POINT ( 'NONE',  ( -1.224510688924804996E-15, 15.00000000000000000, -18.00000000000000000 ) ) ;
#199 = EDGE_CURVE ( 'NONE', #8, #186, #18, .T. ) ;
#200 = ORIENTED_EDGE ( 'NONE', *, *, #11, .F. ) ;
#201 = CIRCLE ( 'NONE', #263, 4.500000000000000888 ) ;
#202 = CARTESIAN_POINT ( 'NONE',  ( 25.50000000000000355, 0.000000000000000000, 30.00000000000000000 ) ) ;
#203 = CARTESIAN_POINT ( 'NONE',  ( 2.197298108245164376E-14, 15.00000000000000000, 28.00000000000000355 ) ) ;
#204 = ORIENTED_EDGE ( 'NONE', *, *, #304, .F. ) ;
#205 = DIRECTION ( 'NONE',  ( 0.000000000000000000, 0.000000000000000000, -1.000000000000000000 ) ) ;
#206 = CARTESIAN_POINT ( 'NONE',  ( 3.851859888774471706E-31, 0.000000000000000000, -28.49999999999999645 ) ) ;
#207 = VECTOR ( 'NONE', #239, 1000.000000000000000 ) ;
#208 = EDGE_CURVE ( 'NONE', #443, #595, #66, .T. ) ;
#209 = VECTOR ( 'NONE', #79, 1000.000000000000000 ) ;
#210 = COORDINATED_UNIVERSAL_TIME_OFFSET ( 1, 0, .AHEAD. ) ;
#211 = CARTESIAN_POINT ( 'NONE',  ( 2.038094024356008367E-14, 5.000000000000000000, 15.00000000000000355 ) ) ;
#212 = ADVANCED_FACE ( 'NONE', ( #168 ), #76, .F. ) ;
#213 = AXIS2_PLACEMENT_3D ( 'NONE', #92, #380, #324 ) ;
#214 = PLANE ( 'NONE',  #196 ) ;
#215 = DATE_AND_TIME ( #447, #326 ) ;
#216 = FACE_OUTER_BOUND ( 'NONE', #111, .T. ) ;
#217 = LOCAL_TIME ( 12, 31, 3.000000000000000000, #314 ) ;
#218 = APPROVAL ( #565, 'UNSPECIFIED' ) ;
#219 = DIRECTION ( 'NONE',  ( 0.000000000000000000, 0.000000000000000000, 1.000000000000000000 ) ) ;
#220 = DIRECTION ( 'NONE',  ( 0.000000000000000000, 1.000000000000000000, 0.000000000000000000 ) ) ;
#221 = CIRCLE ( 'NONE', #95, 25.00000000000000000 ) ;
#222 = CARTESIAN_POINT ( 'NONE',  ( 2.038094024356008367E-14, 0.000000000000000000, 15.00000000000000355 ) ) ;
#223 = ADVANCED_FACE ( 'NONE', ( #490 ), #440, .T. ) ;
#224 = PLANE ( 'NONE',  #151 ) ;
#225 = AXIS2_PLACEMENT_3D ( 'NONE', #283, #464, #226 ) ;
#226 = DIRECTION ( 'NONE',  ( 0.000000000000000000, 0.000000000000000000, 1.000000000000000000 ) ) ;
#227 = PRODUCT_DEFINITION ( 'UNKNOWN', '', #169, #82 ) ;
#228 = CARTESIAN_POINT ( 'NONE',  ( -25.49999999999999645, 15.00000000000000000, 0.000000000000000000 ) ) ;
#229 = ORIENTED_EDGE ( 'NONE', *, *, #199, .F. ) ;
#230 = EDGE_CURVE ( 'NONE', #514, #139, #231, .T. ) ;
#231 = CIRCLE ( 'NONE', #260, 13.00000000000000178 ) ;
#232 = CARTESIAN_POINT ( 'NONE',  ( 0.000000000000000000, 5.000000000000000000, 0.000000000000000000 ) ) ;
#233 = ORIENTED_EDGE ( 'NONE', *, *, #138, .T. ) ;
#234 = ORIENTED_EDGE ( 'NONE', *, *, #586, .T. ) ;
#235 = FACE_OUTER_BOUND ( 'NONE', #572, .T. ) ;
#236 = DIRECTION ( 'NONE',  ( -0.000000000000000000, -1.000000000000000000, -0.000000000000000000 ) ) ;
#237 = ORIENTED_EDGE ( 'NONE', *, *, #23, .F. ) ;
#238 = ORIENTED_EDGE ( 'NONE', *, *, #174, .T. ) ;
#239 = DIRECTION ( 'NONE',  ( 0.000000000000000000, 0.000000000000000000, -1.000000000000000000 ) ) ;
#240 = APPROVAL ( #193, 'UNSPECIFIED' ) ;
#241 = VERTEX_POINT ( 'NONE', #582 ) ;
#242 = LINE ( 'NONE', #523, #34 ) ;
#243 = APPROVAL_PERSON_ORGANIZATION ( #261, #405, #450 ) ;
#244 = VERTEX_POINT ( 'NONE', #206 ) ;
#245 = CARTESIAN_POINT ( 'NONE',  ( -25.49999999999999645, 5.000000000000000000, 30.00000000000000711 ) ) ;
#246 = VERTEX_POINT ( 'NONE', #257 ) ;
#247 = CARTESIAN_POINT ( 'NONE',  ( -1.224510688924804996E-15, 15.00000000000000000, -18.00000000000000000 ) ) ;
#248 = FACE_BOUND ( 'NONE', #301, .T. ) ;
#249 = VERTEX_POINT ( 'NONE', #359 ) ;
#250 = CIRCLE ( 'NONE', #91, 4.500000000000000888 ) ;
#251 = LINE ( 'NONE', #202, #207 ) ;
#252 = PERSON_AND_ORGANIZATION ( #307, #583 ) ;
#253 = DIRECTION ( 'NONE',  ( 0.000000000000000000, -1.000000000000000000, -0.000000000000000000 ) ) ;
#254 = EDGE_CURVE ( 'NONE', #246, #241, #537, .T. ) ;
#255 = ORIENTED_EDGE ( 'NONE', *, *, #512, .F. ) ;
#256 = COORDINATED_UNIVERSAL_TIME_OFFSET ( 1, 0, .AHEAD. ) ;
#257 = CARTESIAN_POINT ( 'NONE',  ( 25.50000000000000355, 5.000000000000000000, -30.00000000000000000 ) ) ;
#258 = CLOSED_SHELL ( 'NONE', ( #212, #77, #96, #369, #506, #515, #41, #396, #166, #355, #101, #309, #128, #601, #535, #223, #114 ) ) ;
#259 = EDGE_CURVE ( 'NONE', #139, #186, #305, .T. ) ;
#260 = AXIS2_PLACEMENT_3D ( 'NONE', #493, #74, #352 ) ;
#261 = PERSON_AND_ORGANIZATION ( #307, #583 ) ;
#262 = PLANE ( 'NONE',  #126 ) ;
#263 = AXIS2_PLACEMENT_3D ( 'NONE', #507, #553, #124 ) ;
#264 = VECTOR ( 'NONE', #469, 1000.000000000000000 ) ;
#265 = DIRECTION ( 'NONE',  ( 0.000000000000000000, 1.000000000000000000, 0.000000000000000000 ) ) ;
#266 = CARTESIAN_POINT ( 'NONE',  ( 25.50000000000000355, 0.000000000000000000, 5.000000000000000888 ) ) ;
#267 = LINE ( 'NONE', #374, #465 ) ;
#268 = EDGE_CURVE ( 'NONE', #595, #12, #155, .T. ) ;
#269 = APPLICATION_CONTEXT ( 'configuration controlled 3d designs of mechanical parts and assemblies' ) ;
#270 = FACE_BOUND ( 'NONE', #134, .T. ) ;
#271 = CARTESIAN_POINT ( 'NONE',  ( 5.510910596163091528E-16, 0.000000000000000000, -19.49999999999999645 ) ) ;
#272 = AXIS2_PLACEMENT_3D ( 'NONE', #33, #303, #406 ) ;
#273 = LINE ( 'NONE', #559, #416 ) ;
#274 = CIRCLE ( 'NONE', #21, 4.500000000000000888 ) ;
#275 = DIRECTION ( 'NONE',  ( 0.000000000000000000, 1.000000000000000000, 0.000000000000000000 ) ) ;
#276 = ORIENTED_EDGE ( 'NONE', *, *, #259, .F. ) ;
#277 = EDGE_CURVE ( 'NONE', #246, #522, #460, .T. ) ;
#278 = MANIFOLD_SOLID_BREP ( 'Zaokr\X2\0105\X0\glenie1', #258 ) ;
#279 = APPLICATION_CONTEXT ( 'configuration controlled 3d designs of mechanical parts and assemblies' ) ;
#280 = CYLINDRICAL_SURFACE ( 'NONE', #213, 13.00000000000000178 ) ;
#281 = VECTOR ( 'NONE', #393, 1000.000000000000000 ) ;
#282 = EDGE_LOOP ( 'NONE', ( #382, #388 ) ) ;
#283 = CARTESIAN_POINT ( 'NONE',  ( 2.038094024356008367E-14, 15.00000000000000000, 15.00000000000000355 ) ) ;
#284 = CYLINDRICAL_SURFACE ( 'NONE', #495, 4.500000000000000888 ) ;
#285 = VERTEX_POINT ( 'NONE', #271 ) ;
#286 =( NAMED_UNIT ( * ) SI_UNIT ( $, .STERADIAN. ) SOLID_ANGLE_UNIT ( ) );
#287 =( GEOMETRIC_REPRESENTATION_CONTEXT ( 3 ) GLOBAL_UNCERTAINTY_ASSIGNED_CONTEXT ( ( #542 ) ) GLOBAL_UNIT_ASSIGNED_CONTEXT ( ( #342, #57, #286 ) ) REPRESENTATION_CONTEXT ( 'NONE', 'WORKASPACE' ) );
#288 = EDGE_CURVE ( 'NONE', #397, #446, #316, .T. ) ;
#289 = ORIENTED_EDGE ( 'NONE', *, *, #538, .F. ) ;
#290 = CYLINDRICAL_SURFACE ( 'NONE', #592, 4.500000000000000888 ) ;
#291 = EDGE_LOOP ( 'NONE', ( #160, #323 ) ) ;
#292 = DIRECTION ( 'NONE',  ( 1.000000000000000000, 0.000000000000000000, 0.000000000000000000 ) ) ;
#293 = ORIENTED_EDGE ( 'NONE', *, *, #254, .F. ) ;
#294 = CYLINDRICAL_SURFACE ( 'NONE', #306, 10.00000000000000711 ) ;
#295 = ORIENTED_EDGE ( 'NONE', *, *, #581, .F. ) ;
#296 = PERSON_AND_ORGANIZATION_ROLE ( 'design_owner' ) ;
#297 = CARTESIAN_POINT ( 'NONE',  ( 25.50000000000000355, 5.000000000000000000, 30.00000000000000000 ) ) ;
#298 = ORIENTED_EDGE ( 'NONE', *, *, #566, .F. ) ;
#299 = LINE ( 'NONE', #573, #49 ) ;
#300 = CARTESIAN_POINT ( 'NONE',  ( 0.000000000000000000, 15.00000000000000000, 0.000000000000000000 ) ) ;
#301 = EDGE_LOOP ( 'NONE', ( #390, #60 ) ) ;
#302 = MECHANICAL_CONTEXT ( 'NONE', #279, 'mechanical' ) ;
#303 = DIRECTION ( 'NONE',  ( 0.000000000000000000, 1.000000000000000000, 0.000000000000000000 ) ) ;
#304 = EDGE_CURVE ( 'NONE', #446, #397, #370, .T. ) ;
#305 = LINE ( 'NONE', #497, #593 ) ;
#306 = AXIS2_PLACEMENT_3D ( 'NONE', #141, #483, #205 ) ;
#307 = PERSON ( 'UNSPECIFIED', 'UNSPECIFIED', 'UNSPECIFIED', ('UNSPECIFIED'), ('UNSPECIFIED'), ('UNSPECIFIED') ) ;
#308 = APPROVAL_ROLE ( '' ) ;
#309 = ADVANCED_FACE ( 'NONE', ( #127 ), #315, .F. ) ;
#310 = AXIS2_PLACEMENT_3D ( 'NONE', #85, #171, #129 ) ;
#311 = CARTESIAN_POINT ( 'NONE',  ( 3.851859888774471706E-31, 0.000000000000000000, -23.99999999999999645 ) ) ;
#312 = DATE_AND_TIME ( #125, #162 ) ;
#313 = CARTESIAN_POINT ( 'NONE',  ( 3.851859888774471706E-31, 0.000000000000000000, -23.99999999999999645 ) ) ;
#314 = COORDINATED_UNIVERSAL_TIME_OFFSET ( 1, 0, .AHEAD. ) ;
#315 = CYLINDRICAL_SURFACE ( 'NONE', #570, 10.00000000000000711 ) ;
#316 = CIRCLE ( 'NONE', #32, 10.00000000000000533 ) ;
#317 = EDGE_CURVE ( 'NONE', #569, #532, #596, .T. ) ;
#318 = LINE ( 'NONE', #458, #543 ) ;
#319 = ORIENTED_EDGE ( 'NONE', *, *, #28, .F. ) ;
#320 = VECTOR ( 'NONE', #578, 1000.000000000000000 ) ;
#321 = EDGE_CURVE ( 'NONE', #186, #8, #391, .T. ) ;
#322 = PLANE ( 'NONE',  #310 ) ;
#323 = ORIENTED_EDGE ( 'NONE', *, *, #410, .T. ) ;
#324 = DIRECTION ( 'NONE',  ( 0.000000000000000000, 0.000000000000000000, -1.000000000000000000 ) ) ;
#325 = ORIENTED_EDGE ( 'NONE', *, *, #1, .F. ) ;
#326 = LOCAL_TIME ( 12, 31, 3.000000000000000000, #165 ) ;
#327 = AXIS2_PLACEMENT_3D ( 'NONE', #211, #536, #22 ) ;
#328 = DIRECTION ( 'NONE',  ( 0.000000000000000000, 1.000000000000000000, 0.000000000000000000 ) ) ;
#329 = EDGE_CURVE ( 'NONE', #522, #443, #84, .T. ) ;
#330 = CARTESIAN_POINT ( 'NONE',  ( 25.50000000000000355, 0.000000000000000000, -30.00000000000000000 ) ) ;
#331 = ORIENTED_EDGE ( 'NONE', *, *, #381, .T. ) ;
#332 = LINE ( 'NONE', #330, #44 ) ;
#333 = DIRECTION ( 'NONE',  ( -0.000000000000000000, -1.000000000000000000, -0.000000000000000000 ) ) ;
#334 = VECTOR ( 'NONE', #402, 1000.000000000000000 ) ;
#335 = ORIENTED_EDGE ( 'NONE', *, *, #288, .F. ) ;
#336 = DIRECTION ( 'NONE',  ( -6.802837160693361638E-17, 0.000000000000000000, -1.000000000000000000 ) ) ;
#337 = ADVANCED_BREP_SHAPE_REPRESENTATION ( 'mocowanie elektromagnesu ofc', ( #278, #505 ), #287 ) ;
#338 = CC_DESIGN_PERSON_AND_ORGANIZATION_ASSIGNMENT ( #7, #394, ( #227 ) ) ;
#339 = ORIENTED_EDGE ( 'NONE', *, *, #259, .T. ) ;
#340 = FACE_OUTER_BOUND ( 'NONE', #482, .T. ) ;
#341 = ORIENTED_EDGE ( 'NONE', *, *, #35, .T. ) ;
#342 =( LENGTH_UNIT ( ) NAMED_UNIT ( * ) SI_UNIT ( .MILLI., .METRE. ) );
#343 = AXIS2_PLACEMENT_3D ( 'NONE', #597, #265, #219 ) ;
#344 = VECTOR ( 'NONE', #476, 1000.000000000000000 ) ;
#345 = ORIENTED_EDGE ( 'NONE', *, *, #375, .F. ) ;
#346 = PLANE ( 'NONE',  #367 ) ;
#347 = VERTEX_POINT ( 'NONE', #504 ) ;
#348 = CARTESIAN_POINT ( 'NONE',  ( -25.49999999999999645, 5.000000000000000000, 5.000000000000000888 ) ) ;
#349 = ORIENTED_EDGE ( 'NONE', *, *, #277, .T. ) ;
#350 = LINE ( 'NONE', #147, #281 ) ;
#351 = EDGE_CURVE ( 'NONE', #470, #397, #591, .T. ) ;
#352 = DIRECTION ( 'NONE',  ( 0.000000000000000000, 0.000000000000000000, 1.000000000000000000 ) ) ;
#353 = VERTEX_POINT ( 'NONE', #81 ) ;
#354 = CARTESIAN_POINT ( 'NONE',  ( -25.49999999999999645, 15.00000000000000000, 5.000000000000000888 ) ) ;
#355 = ADVANCED_FACE ( 'NONE', ( #216 ), #224, .F. ) ;
#356 = APPLICATION_PROTOCOL_DEFINITION ( 'international standard', 'config_control_design', 1994, #279 ) ;
#357 = FACE_OUTER_BOUND ( 'NONE', #491, .T. ) ;
#358 = VECTOR ( 'NONE', #17, 1000.000000000000000 ) ;
#359 = CARTESIAN_POINT ( 'NONE',  ( 0.5000000000000037748, 15.00000000000000000, 30.00000000000000000 ) ) ;
#360 = CARTESIAN_POINT ( 'NONE',  ( 25.50000000000000355, 5.000000000000000000, -30.00000000000000000 ) ) ;
#361 = CC_DESIGN_PERSON_AND_ORGANIZATION_ASSIGNMENT ( #498, #122, ( #456 ) ) ;
#362 = VECTOR ( 'NONE', #27, 1000.000000000000000 ) ;
#363 = AXIS2_PLACEMENT_3D ( 'NONE', #411, #220, #551 ) ;
#364 = CARTESIAN_POINT ( 'NONE',  ( 0.000000000000000000, 5.000000000000000000, 0.000000000000000000 ) ) ;
#365 = CARTESIAN_POINT ( 'NONE',  ( -0.4999999999999935052, 15.00000000000000000, 5.000000000000000888 ) ) ;
#366 = ORIENTED_EDGE ( 'NONE', *, *, #89, .T. ) ;
#367 = AXIS2_PLACEMENT_3D ( 'NONE', #245, #560, #15 ) ;
#368 = DIRECTION ( 'NONE',  ( 1.360567432138672328E-16, -0.000000000000000000, 1.000000000000000000 ) ) ;
#369 = ADVANCED_FACE ( 'NONE', ( #270, #594 ), #40, .T. ) ;
#370 = CIRCLE ( 'NONE', #179, 10.00000000000000533 ) ;
#371 = FACE_OUTER_BOUND ( 'NONE', #183, .T. ) ;
#372 = ORIENTED_EDGE ( 'NONE', *, *, #471, .T. ) ;
#373 = APPROVAL_PERSON_ORGANIZATION ( #252, #240, #574 ) ;
#374 = CARTESIAN_POINT ( 'NONE',  ( -25.49999999999999645, 15.00000000000000000, -18.00000000000000000 ) ) ;
#375 = EDGE_CURVE ( 'NONE', #249, #487, #318, .T. ) ;
#376 = FACE_BOUND ( 'NONE', #379, .T. ) ;
#377 = LOCAL_TIME ( 12, 31, 3.000000000000000000, #383 ) ;
#378 = CARTESIAN_POINT ( 'NONE',  ( -25.49999999999999645, 5.000000000000000000, -29.99999999999999289 ) ) ;
#379 = EDGE_LOOP ( 'NONE', ( #3, #56 ) ) ;
#380 = DIRECTION ( 'NONE',  ( -0.000000000000000000, -1.000000000000000000, -0.000000000000000000 ) ) ;
#381 = EDGE_CURVE ( 'NONE', #99, #561, #267, .T. ) ;
#382 = ORIENTED_EDGE ( 'NONE', *, *, #288, .T. ) ;
#383 = COORDINATED_UNIVERSAL_TIME_OFFSET ( 1, 0, .AHEAD. ) ;
#384 = EDGE_LOOP ( 'NONE', ( #432, #520, #234, #478 ) ) ;
#385 = CARTESIAN_POINT ( 'NONE',  ( -0.4999999999999935052, 5.000000000000000000, 5.000000000000000888 ) ) ;
#386 = ORIENTED_EDGE ( 'NONE', *, *, #538, .T. ) ;
#387 = DATE_TIME_ROLE ( 'creation_date' ) ;
#388 = ORIENTED_EDGE ( 'NONE', *, *, #304, .T. ) ;
#389 = DIRECTION ( 'NONE',  ( 0.000000000000000000, -1.000000000000000000, 0.000000000000000000 ) ) ;
#390 = ORIENTED_EDGE ( 'NONE', *, *, #471, .F. ) ;
#391 = CIRCLE ( 'NONE', #363, 13.00000000000000178 ) ;
#392 = ORIENTED_EDGE ( 'NONE', *, *, #351, .F. ) ;
#393 = DIRECTION ( 'NONE',  ( 0.000000000000000000, -1.000000000000000000, 0.000000000000000000 ) ) ;
#394 = PERSON_AND_ORGANIZATION_ROLE ( 'creator' ) ;
#395 = DIRECTION ( 'NONE',  ( -0.000000000000000000, -1.000000000000000000, -0.000000000000000000 ) ) ;
#396 = ADVANCED_FACE ( 'NONE', ( #371 ), #322, .F. ) ;
#397 = VERTEX_POINT ( 'NONE', #587 ) ;
#398 = FACE_OUTER_BOUND ( 'NONE', #72, .T. ) ;
#399 = AXIS2_PLACEMENT_3D ( 'NONE', #385, #389, #563 ) ;
#400 = DIRECTION ( 'NONE',  ( 0.000000000000000000, 0.000000000000000000, 1.000000000000000000 ) ) ;
#401 = DIRECTION ( 'NONE',  ( 0.000000000000000000, 0.000000000000000000, 1.000000000000000000 ) ) ;
#402 = DIRECTION ( 'NONE',  ( -0.000000000000000000, -1.000000000000000000, -0.000000000000000000 ) ) ;
#403 = VECTOR ( 'NONE', #4, 1000.000000000000000 ) ;
#404 = CALENDAR_DATE ( 2026, 1, 3 ) ;
#405 = APPROVAL ( #37, 'UNSPECIFIED' ) ;
#406 = DIRECTION ( 'NONE',  ( 0.000000000000000000, 0.000000000000000000, 1.000000000000000000 ) ) ;
#407 = CARTESIAN_POINT ( 'NONE',  ( 2.038094024356008367E-14, 0.000000000000000000, 15.00000000000000355 ) ) ;
#408 = EDGE_CURVE ( 'NONE', #532, #569, #201, .T. ) ;
#409 = DIRECTION ( 'NONE',  ( 1.000000000000000000, 0.000000000000000000, -1.360567432138672328E-16 ) ) ;
#410 = EDGE_CURVE ( 'NONE', #285, #244, #274, .T. ) ;
#411 = CARTESIAN_POINT ( 'NONE',  ( 2.038094024356008367E-14, 5.000000000000000000, 15.00000000000000355 ) ) ;
#412 = ORIENTED_EDGE ( 'NONE', *, *, #418, .F. ) ;
#413 = CIRCLE ( 'NONE', #327, 10.00000000000000533 ) ;
#414 = DIRECTION ( 'NONE',  ( -0.000000000000000000, -1.000000000000000000, -0.000000000000000000 ) ) ;
#415 = DIRECTION ( 'NONE',  ( -0.000000000000000000, -1.000000000000000000, -0.000000000000000000 ) ) ;
#416 = VECTOR ( 'NONE', #50, 1000.000000000000000 ) ;
#417 = ORIENTED_EDGE ( 'NONE', *, *, #11, .T. ) ;
#418 = EDGE_CURVE ( 'NONE', #244, #285, #250, .T. ) ;
#419 = FACE_OUTER_BOUND ( 'NONE', #567, .T. ) ;
#420 = VERTEX_POINT ( 'NONE', #266 ) ;
#421 = FACE_BOUND ( 'NONE', #282, .T. ) ;
#422 = ORIENTED_EDGE ( 'NONE', *, *, #502, .F. ) ;
#423 = CC_DESIGN_SECURITY_CLASSIFICATION ( #456, ( #169 ) ) ;
#424 = EDGE_CURVE ( 'NONE', #12, #487, #442, .T. ) ;
#425 = FACE_BOUND ( 'NONE', #291, .T. ) ;
#426 = EDGE_LOOP ( 'NONE', ( #135, #62, #289, #295 ) ) ;
#427 = ORIENTED_EDGE ( 'NONE', *, *, #35, .F. ) ;
#428 = PLANE ( 'NONE',  #598 ) ;
#429 = EDGE_CURVE ( 'NONE', #561, #347, #140, .T. ) ;
#430 = DIRECTION ( 'NONE',  ( 0.000000000000000000, 0.000000000000000000, -1.000000000000000000 ) ) ;
#431 = ORIENTED_EDGE ( 'NONE', *, *, #71, .T. ) ;
#432 = ORIENTED_EDGE ( 'NONE', *, *, #429, .F. ) ;
#433 = DIRECTION ( 'NONE',  ( -0.000000000000000000, -0.000000000000000000, 1.000000000000000000 ) ) ;
#434 = EDGE_LOOP ( 'NONE', ( #341, #150, #146, #349 ) ) ;
#435 = LINE ( 'NONE', #100, #358 ) ;
#436 = AXIS2_PLACEMENT_3D ( 'NONE', #531, #116, #167 ) ;
#437 = EDGE_LOOP ( 'NONE', ( #161, #86, #480, #325 ) ) ;
#438 = CARTESIAN_POINT ( 'NONE',  ( 25.50000000000000355, 15.00000000000000000, 5.000000000000000888 ) ) ;
#439 = PERSON_AND_ORGANIZATION ( #307, #583 ) ;
#440 = CYLINDRICAL_SURFACE ( 'NONE', #457, 25.00000000000000000 ) ;
#441 = EDGE_CURVE ( 'NONE', #241, #443, #332, .T. ) ;
#442 = CIRCLE ( 'NONE', #173, 25.00000000000000000 ) ;
#443 = VERTEX_POINT ( 'NONE', #137 ) ;
#444 = FACE_OUTER_BOUND ( 'NONE', #466, .T. ) ;
#445 = CARTESIAN_POINT ( 'NONE',  ( 2.038094024356008367E-14, 15.00000000000000000, 2.000000000000001776 ) ) ;
#446 = VERTEX_POINT ( 'NONE', #2 ) ;
#447 = CALENDAR_DATE ( 2026, 1, 3 ) ;
#448 = DIRECTION ( 'NONE',  ( 0.000000000000000000, 0.000000000000000000, -1.000000000000000000 ) ) ;
#449 = CC_DESIGN_PERSON_AND_ORGANIZATION_ASSIGNMENT ( #75, #172, ( #169 ) ) ;
#450 = APPROVAL_ROLE ( '' ) ;
#451 = DIRECTION ( 'NONE',  ( -1.000000000000000000, 0.000000000000000000, 0.000000000000000000 ) ) ;
#452 = CC_DESIGN_APPROVAL ( #240, ( #227 ) ) ;
#453 = SHAPE_DEFINITION_REPRESENTATION ( #87, #337 ) ;
#454 = DIRECTION ( 'NONE',  ( 0.000000000000000000, 1.000000000000000000, 0.000000000000000000 ) ) ;
#455 = PERSON_AND_ORGANIZATION_ROLE ( 'creator' ) ;
#456 = SECURITY_CLASSIFICATION ( '', '', #541 ) ;
#457 = AXIS2_PLACEMENT_3D ( 'NONE', #575, #159, #448 ) ;
#458 = CARTESIAN_POINT ( 'NONE',  ( 0.000000000000000000, 15.00000000000000000, 30.00000000000000000 ) ) ;
#459 = CARTESIAN_POINT ( 'NONE',  ( 25.50000000000000355, 5.000000000000000000, -30.00000000000000000 ) ) ;
#460 = LINE ( 'NONE', #182, #209 ) ;
#461 = DIRECTION ( 'NONE',  ( 0.000000000000000000, 0.000000000000000000, 1.000000000000000000 ) ) ;
#462 = EDGE_CURVE ( 'NONE', #90, #249, #273, .T. ) ;
#463 = ORIENTED_EDGE ( 'NONE', *, *, #277, .F. ) ;
#464 = DIRECTION ( 'NONE',  ( 0.000000000000000000, 1.000000000000000000, 0.000000000000000000 ) ) ;
#465 = VECTOR ( 'NONE', #550, 1000.000000000000000 ) ;
#466 = EDGE_LOOP ( 'NONE', ( #53, #524, #576, #331, #427, #105 ) ) ;
#467 = CARTESIAN_POINT ( 'NONE',  ( 25.50000000000000355, 0.000000000000000000, 30.00000000000000000 ) ) ;
#468 = ORIENTED_EDGE ( 'NONE', *, *, #502, .T. ) ;
#469 = DIRECTION ( 'NONE',  ( 1.000000000000000000, -0.000000000000000000, -1.360567432138672328E-16 ) ) ;
#470 = VERTEX_POINT ( 'NONE', #97 ) ;
#471 = EDGE_CURVE ( 'NONE', #139, #514, #499, .T. ) ;
#472 = ORIENTED_EDGE ( 'NONE', *, *, #174, .F. ) ;
#473 = DIRECTION ( 'NONE',  ( 0.000000000000000000, 0.000000000000000000, -1.000000000000000000 ) ) ;
#474 = CARTESIAN_POINT ( 'NONE',  ( 3.851859888774471706E-31, 5.000000000000000000, -23.99999999999999645 ) ) ;
#475 = ORIENTED_EDGE ( 'NONE', *, *, #441, .F. ) ;
#476 = DIRECTION ( 'NONE',  ( 1.000000000000000000, 0.000000000000000000, -6.802837160693361638E-17 ) ) ;
#477 = AXIS2_PLACEMENT_3D ( 'NONE', #109, #26, #400 ) ;
#478 = ORIENTED_EDGE ( 'NONE', *, *, #557, .T. ) ;
#479 = CARTESIAN_POINT ( 'NONE',  ( -25.49999999999999645, 15.00000000000000000, -18.00000000000000000 ) ) ;
#480 = ORIENTED_EDGE ( 'NONE', *, *, #71, .F. ) ;
#481 = DATE_AND_TIME ( #144, #377 ) ;
#482 = EDGE_LOOP ( 'NONE', ( #345, #46, #472, #51, #255, #67 ) ) ;
#483 = DIRECTION ( 'NONE',  ( -0.000000000000000000, -1.000000000000000000, -0.000000000000000000 ) ) ;
#484 = ORIENTED_EDGE ( 'NONE', *, *, #462, .T. ) ;
#485 = LINE ( 'NONE', #492, #320 ) ;
#486 = CARTESIAN_POINT ( 'NONE',  ( 2.160558704270743831E-14, 5.000000000000000000, 25.00000000000000711 ) ) ;
#487 = VERTEX_POINT ( 'NONE', #508 ) ;
#488 = CARTESIAN_POINT ( 'NONE',  ( -25.49999999999999645, 5.000000000000000000, 30.00000000000000711 ) ) ;
#489 = DIRECTION ( 'NONE',  ( 0.000000000000000000, 0.000000000000000000, 1.000000000000000000 ) ) ;
#490 = FACE_OUTER_BOUND ( 'NONE', #437, .T. ) ;
#491 = EDGE_LOOP ( 'NONE', ( #238, #564, #156, #293, #298, #526 ) ) ;
#492 = CARTESIAN_POINT ( 'NONE',  ( 25.50000000000000355, 15.00000000000000000, -18.00000000000000355 ) ) ;
#493 = CARTESIAN_POINT ( 'NONE',  ( 2.038094024356008367E-14, 15.00000000000000000, 15.00000000000000355 ) ) ;
#494 = EDGE_CURVE ( 'NONE', #249, #55, #5, .T. ) ;
#495 = AXIS2_PLACEMENT_3D ( 'NONE', #474, #236, #430 ) ;
#496 = PERSON_AND_ORGANIZATION ( #307, #583 ) ;
#497 = CARTESIAN_POINT ( 'NONE',  ( 2.038094024356008367E-14, 15.00000000000000000, 2.000000000000001776 ) ) ;
#498 = PERSON_AND_ORGANIZATION ( #307, #583 ) ;
#499 = CIRCLE ( 'NONE', #225, 13.00000000000000178 ) ;
#500 = DIRECTION ( 'NONE',  ( 0.000000000000000000, 0.000000000000000000, 1.000000000000000000 ) ) ;
#501 = DIRECTION ( 'NONE',  ( 0.000000000000000000, 1.000000000000000000, -0.000000000000000000 ) ) ;
#502 = EDGE_CURVE ( 'NONE', #518, #90, #54, .T. ) ;
#503 = DIRECTION ( 'NONE',  ( -0.000000000000000000, -1.000000000000000000, -0.000000000000000000 ) ) ;
#504 = CARTESIAN_POINT ( 'NONE',  ( 25.50000000000000355, 5.000000000000000000, -18.00000000000000355 ) ) ;
#505 = AXIS2_PLACEMENT_3D ( 'NONE', #118, #489, #292 ) ;
#506 = ADVANCED_FACE ( 'NONE', ( #376, #235 ), #428, .T. ) ;
#507 = CARTESIAN_POINT ( 'NONE',  ( 3.851859888774471706E-31, 5.000000000000000000, -23.99999999999999645 ) ) ;
#508 = CARTESIAN_POINT ( 'NONE',  ( -0.4999999999999901190, 15.00000000000000000, 30.00000000000000000 ) ) ;
#509 = VECTOR ( 'NONE', #395, 1000.000000000000000 ) ;
#510 = DIRECTION ( 'NONE',  ( 0.000000000000000000, -0.000000000000000000, 1.000000000000000000 ) ) ;
#511 = VECTOR ( 'NONE', #88, 1000.000000000000000 ) ;
#512 = EDGE_CURVE ( 'NONE', #12, #99, #9, .T. ) ;
#513 = DIRECTION ( 'NONE',  ( 0.000000000000000000, 1.000000000000000000, 0.000000000000000000 ) ) ;
#514 = VERTEX_POINT ( 'NONE', #133 ) ;
#515 = ADVANCED_FACE ( 'NONE', ( #419, #425, #421 ), #554, .F. ) ;
#516 = CARTESIAN_POINT ( 'NONE',  ( 0.5000000000000004441, 15.00000000000000000, 5.000000000000000888 ) ) ;
#517 = DIRECTION ( 'NONE',  ( 0.000000000000000000, 0.000000000000000000, -1.000000000000000000 ) ) ;
#518 = VERTEX_POINT ( 'NONE', #556 ) ;
#519 = APPROVAL_DATE_TIME ( #61, #240 ) ;
#520 = ORIENTED_EDGE ( 'NONE', *, *, #381, .F. ) ;
#521 = ORIENTED_EDGE ( 'NONE', *, *, #408, .T. ) ;
#522 = VERTEX_POINT ( 'NONE', #378 ) ;
#523 = CARTESIAN_POINT ( 'NONE',  ( 25.50000000000000355, 5.000000000000000000, 30.00000000000000000 ) ) ;
#524 = ORIENTED_EDGE ( 'NONE', *, *, #268, .T. ) ;
#525 = CARTESIAN_POINT ( 'NONE',  ( 0.5000000000000004441, 0.000000000000000000, 5.000000000000000888 ) ) ;
#526 = ORIENTED_EDGE ( 'NONE', *, *, #557, .F. ) ;
#527 = CALENDAR_DATE ( 2026, 1, 3 ) ;
#528 = CARTESIAN_POINT ( 'NONE',  ( 3.851859888774471706E-31, 5.000000000000000000, -28.49999999999999645 ) ) ;
#529 = ORIENTED_EDGE ( 'NONE', *, *, #410, .F. ) ;
#530 = LINE ( 'NONE', #157, #29 ) ;
#531 = CARTESIAN_POINT ( 'NONE',  ( 2.038094024356008367E-14, 15.00000000000000000, 15.00000000000000355 ) ) ;
#532 = VERTEX_POINT ( 'NONE', #187 ) ;
#533 = CARTESIAN_POINT ( 'NONE',  ( 0.5000000000000038858, 0.000000000000000000, 30.00000000000000355 ) ) ;
#534 = DIRECTION ( 'NONE',  ( -1.000000000000000000, 0.000000000000000000, 6.802837160693361638E-17 ) ) ;
#535 = ADVANCED_FACE ( 'NONE', ( #93 ), #280, .F. ) ;
#536 = DIRECTION ( 'NONE',  ( 0.000000000000000000, 1.000000000000000000, 0.000000000000000000 ) ) ;
#537 = LINE ( 'NONE', #360, #549 ) ;
#538 = EDGE_CURVE ( 'NONE', #518, #595, #130, .T. ) ;
#539 = DIRECTION ( 'NONE',  ( -0.000000000000000000, -1.000000000000000000, -0.000000000000000000 ) ) ;
#540 = VECTOR ( 'NONE', #119, 1000.000000000000000 ) ;
#541 = SECURITY_CLASSIFICATION_LEVEL ( 'unclassified' ) ;
#542 = UNCERTAINTY_MEASURE_WITH_UNIT (LENGTH_MEASURE( 1.000000000000000082E-05 ), #342, 'distance_accuracy_value', 'NONE');
#543 = VECTOR ( 'NONE', #590, 1000.000000000000000 ) ;
#544 = CC_DESIGN_DATE_AND_TIME_ASSIGNMENT ( #481, #387, ( #227 ) ) ;
#545 = DIRECTION ( 'NONE',  ( 0.000000000000000000, 1.000000000000000000, 0.000000000000000000 ) ) ;
#546 = APPROVAL_DATE_TIME ( #312, #405 ) ;
#547 = DIRECTION ( 'NONE',  ( 0.000000000000000000, 0.000000000000000000, 1.000000000000000000 ) ) ;
#548 = VECTOR ( 'NONE', #433, 1000.000000000000000 ) ;
#549 = VECTOR ( 'NONE', #121, 1000.000000000000000 ) ;
#550 = DIRECTION ( 'NONE',  ( -0.000000000000000000, -1.000000000000000000, -0.000000000000000000 ) ) ;
#551 = DIRECTION ( 'NONE',  ( 0.000000000000000000, 0.000000000000000000, 1.000000000000000000 ) ) ;
#552 = AXIS2_PLACEMENT_3D ( 'NONE', #516, #275, #45 ) ;
#553 = DIRECTION ( 'NONE',  ( 0.000000000000000000, 1.000000000000000000, 0.000000000000000000 ) ) ;
#554 = PLANE ( 'NONE',  #181 ) ;
#555 = CC_DESIGN_APPROVAL ( #218, ( #169 ) ) ;
#556 = CARTESIAN_POINT ( 'NONE',  ( -0.4999999999999900080, 0.000000000000000000, 30.00000000000000355 ) ) ;
#557 = EDGE_CURVE ( 'NONE', #353, #347, #485, .T. ) ;
#558 = ORIENTED_EDGE ( 'NONE', *, *, #23, .T. ) ;
#559 = CARTESIAN_POINT ( 'NONE',  ( 0.5000000000000038858, 5.000000000000000000, 30.00000000000000355 ) ) ;
#560 = DIRECTION ( 'NONE',  ( 1.000000000000000000, -0.000000000000000000, 0.000000000000000000 ) ) ;
#561 = VERTEX_POINT ( 'NONE', #115 ) ;
#562 = ORIENTED_EDGE ( 'NONE', *, *, #208, .F. ) ;
#563 = DIRECTION ( 'NONE',  ( 0.000000000000000000, 0.000000000000000000, -1.000000000000000000 ) ) ;
#564 = ORIENTED_EDGE ( 'NONE', *, *, #1, .T. ) ;
#565 = APPROVAL_STATUS ( 'not_yet_approved' ) ;
#566 = EDGE_CURVE ( 'NONE', #347, #246, #242, .T. ) ;
#567 = EDGE_LOOP ( 'NONE', ( #319, #431, #422, #386, #562, #475 ) ) ;
#568 = CARTESIAN_POINT ( 'NONE',  ( 2.038094024356008367E-14, 5.000000000000000000, 15.00000000000000355 ) ) ;
#569 = VERTEX_POINT ( 'NONE', #163 ) ;
#570 = AXIS2_PLACEMENT_3D ( 'NONE', #43, #415, #42 ) ;
#571 = CARTESIAN_POINT ( 'NONE',  ( -25.49999999999999645, 0.000000000000000000, 30.00000000000000711 ) ) ;
#572 = EDGE_LOOP ( 'NONE', ( #117, #599 ) ) ;
#573 = CARTESIAN_POINT ( 'NONE',  ( 2.160558704270743831E-14, 5.000000000000000000, 25.00000000000000711 ) ) ;
#574 = APPROVAL_ROLE ( '' ) ;
#575 = CARTESIAN_POINT ( 'NONE',  ( 0.5000000000000004441, 5.000000000000000000, 5.000000000000000888 ) ) ;
#576 = ORIENTED_EDGE ( 'NONE', *, *, #512, .T. ) ;
#577 = CARTESIAN_POINT ( 'NONE',  ( 3.851859888774471706E-31, 5.000000000000000000, -23.99999999999999645 ) ) ;
#578 = DIRECTION ( 'NONE',  ( -0.000000000000000000, -1.000000000000000000, -0.000000000000000000 ) ) ;
#579 = CARTESIAN_POINT ( 'NONE',  ( 2.038094024356008367E-14, 5.000000000000000000, 2.000000000000001776 ) ) ;
#580 = VECTOR ( 'NONE', #501, 1000.000000000000000 ) ;
#581 = EDGE_CURVE ( 'NONE', #487, #518, #435, .T. ) ;
#582 = CARTESIAN_POINT ( 'NONE',  ( 25.50000000000000355, 0.000000000000000000, -30.00000000000000000 ) ) ;
#583 = ORGANIZATION ( 'UNSPECIFIED', 'UNSPECIFIED', '' ) ;
#584 = DIRECTION ( 'NONE',  ( 0.000000000000000000, 0.000000000000000000, -1.000000000000000000 ) ) ;
#585 = APPROVAL_PERSON_ORGANIZATION ( #158, #218, #308 ) ;
#586 = EDGE_CURVE ( 'NONE', #99, #353, #69, .T. ) ;
#587 = CARTESIAN_POINT ( 'NONE',  ( 2.038094024356008367E-14, 0.000000000000000000, 4.999999999999995559 ) ) ;
#588 = DATE_AND_TIME ( #404, #217 ) ;
#589 = VECTOR ( 'NONE', #503, 1000.000000000000000 ) ;
#590 = DIRECTION ( 'NONE',  ( -1.000000000000000000, 0.000000000000000000, 0.000000000000000000 ) ) ;
#591 = LINE ( 'NONE', #36, #78 ) ;
#592 = AXIS2_PLACEMENT_3D ( 'NONE', #577, #333, #517 ) ;
#593 = VECTOR ( 'NONE', #539, 1000.000000000000000 ) ;
#594 = FACE_OUTER_BOUND ( 'NONE', #434, .T. ) ;
#595 = VERTEX_POINT ( 'NONE', #65 ) ;
#596 = CIRCLE ( 'NONE', #343, 4.500000000000000888 ) ;
#597 = CARTESIAN_POINT ( 'NONE',  ( 3.851859888774471706E-31, 5.000000000000000000, -23.99999999999999645 ) ) ;
#598 = AXIS2_PLACEMENT_3D ( 'NONE', #232, #513, #600 ) ;
#599 = ORIENTED_EDGE ( 'NONE', *, *, #199, .T. ) ;
#600 = DIRECTION ( 'NONE',  ( 0.000000000000000000, -0.000000000000000000, 1.000000000000000000 ) ) ;
#601 = ADVANCED_FACE ( 'NONE', ( #154 ), #13, .T. ) ;
ENDSEC;
END-ISO-10303-21;
