ISO-10303-21;
HEADER;
FILE_DESCRIPTION (( 'STEP AP203' ),
    '1' );
FILE_NAME ('stolik.STEP',
    '2026-02-24T17:40:49',
    ( '' ),
    ( '' ),
    'SwSTEP 2.0',
    'SolidWorks 2025',
    '' );
FILE_SCHEMA (( 'CONFIG_CONTROL_DESIGN' ));
ENDSEC;

DATA;
#1 = DIRECTION ( 'NONE',  ( 0.000000000000000000, 0.000000000000000000, 1.000000000000000000 ) ) ;
#2 = VERTEX_POINT ( 'NONE', #639 ) ;
#3 = EDGE_CURVE ( 'NONE', #214, #604, #690, .T. ) ;
#4 = CYLINDRICAL_SURFACE ( 'NONE', #236, 5.000000000000004441 ) ;
#5 = FACE_BOUND ( 'NONE', #210, .T. ) ;
#6 = ORIENTED_EDGE ( 'NONE', *, *, #140, .T. ) ;
#7 = AXIS2_PLACEMENT_3D ( 'NONE', #332, #255, #477 ) ;
#8 = AXIS2_PLACEMENT_3D ( 'NONE', #253, #824, #334 ) ;
#9 = DIRECTION ( 'NONE',  ( -0.000000000000000000, -1.000000000000000000, -0.000000000000000000 ) ) ;
#10 = AXIS2_PLACEMENT_3D ( 'NONE', #65, #838, #495 ) ;
#11 = CARTESIAN_POINT ( 'NONE',  ( 69.99999999999998579, 0.000000000000000000, -77.50000000000002842 ) ) ;
#12 = EDGE_LOOP ( 'NONE', ( #358, #762 ) ) ;
#13 = CARTESIAN_POINT ( 'NONE',  ( 69.99999999999998579, 20.00000000000000000, -77.50000000000002842 ) ) ;
#14 = DIRECTION ( 'NONE',  ( -0.000000000000000000, -1.000000000000000000, 0.000000000000000000 ) ) ;
#15 = EDGE_CURVE ( 'NONE', #483, #522, #407, .T. ) ;
#16 = LINE ( 'NONE', #552, #323 ) ;
#17 = APPROVAL_ROLE ( '' ) ;
#18 = DIRECTION ( 'NONE',  ( -1.000000000000000000, 0.000000000000000000, 7.709882115452476934E-17 ) ) ;
#19 = ORIENTED_EDGE ( 'NONE', *, *, #240, .T. ) ;
#20 = ORIENTED_EDGE ( 'NONE', *, *, #96, .T. ) ;
#21 = VECTOR ( 'NONE', #543, 1000.000000000000000 ) ;
#22 = CARTESIAN_POINT ( 'NONE',  ( 69.99999999999998579, 0.000000000000000000, 77.50000000000002842 ) ) ;
#23 = DIRECTION ( 'NONE',  ( -0.000000000000000000, -1.000000000000000000, -0.000000000000000000 ) ) ;
#24 = DIRECTION ( 'NONE',  ( 0.000000000000000000, 0.000000000000000000, 1.000000000000000000 ) ) ;
#25 = DIRECTION ( 'NONE',  ( 0.000000000000000000, 1.000000000000000000, -0.000000000000000000 ) ) ;
#26 = VERTEX_POINT ( 'NONE', #301 ) ;
#27 = DATE_AND_TIME ( #725, #472 ) ;
#28 = PRODUCT ( 'stolik', 'stolik', '', ( #91 ) ) ;
#29 = FACE_OUTER_BOUND ( 'NONE', #219, .T. ) ;
#30 = CARTESIAN_POINT ( 'NONE',  ( -69.99999999999998579, 3.000000000000000000, 77.50000000000002842 ) ) ;
#31 = ORIENTED_EDGE ( 'NONE', *, *, #528, .F. ) ;
#32 = CALENDAR_DATE ( 2026, 24, 2 ) ;
#33 = CIRCLE ( 'NONE', #177, 2.750000000000002665 ) ;
#34 = DIRECTION ( 'NONE',  ( 0.000000000000000000, 0.000000000000000000, 1.000000000000000000 ) ) ;
#35 = AXIS2_PLACEMENT_3D ( 'NONE', #671, #54, #401 ) ;
#36 = AXIS2_PLACEMENT_3D ( 'NONE', #642, #491, #142 ) ;
#37 = CARTESIAN_POINT ( 'NONE',  ( 90.00000000000001421, 0.000000000000000000, -87.49999999999998579 ) ) ;
#38 = CC_DESIGN_APPROVAL ( #329, ( #202 ) ) ;
#39 = EDGE_LOOP ( 'NONE', ( #373, #416, #307, #430, #431, #321, #732, #350, #654, #754 ) ) ;
#40 = DIRECTION ( 'NONE',  ( 0.000000000000000000, 0.000000000000000000, 1.000000000000000000 ) ) ;
#41 = DIRECTION ( 'NONE',  ( -0.000000000000000000, -1.000000000000000000, -0.000000000000000000 ) ) ;
#42 = EDGE_CURVE ( 'NONE', #636, #287, #454, .T. ) ;
#43 = EDGE_LOOP ( 'NONE', ( #193, #700, #689, #398 ) ) ;
#44 = DIRECTION ( 'NONE',  ( 0.000000000000000000, 1.000000000000000000, -0.000000000000000000 ) ) ;
#45 = PLANE ( 'NONE',  #793 ) ;
#46 = ORIENTED_EDGE ( 'NONE', *, *, #274, .T. ) ;
#47 = CARTESIAN_POINT ( 'NONE',  ( 0.000000000000000000, 3.000000000000000000, 0.000000000000000000 ) ) ;
#48 = CIRCLE ( 'NONE', #877, 2.750000000000002665 ) ;
#49 = CARTESIAN_POINT ( 'NONE',  ( -69.99999999999998579, 3.000000000000000000, 74.75000000000002842 ) ) ;
#50 = AXIS2_PLACEMENT_3D ( 'NONE', #686, #59, #615 ) ;
#51 = ORIENTED_EDGE ( 'NONE', *, *, #499, .T. ) ;
#52 = EDGE_CURVE ( 'NONE', #724, #26, #891, .T. ) ;
#53 = CARTESIAN_POINT ( 'NONE',  ( -69.99999999999998579, 20.00000000000000000, 72.50000000000002842 ) ) ;
#54 = DIRECTION ( 'NONE',  ( -0.000000000000000000, -1.000000000000000000, -0.000000000000000000 ) ) ;
#55 = ORIENTED_EDGE ( 'NONE', *, *, #859, .F. ) ;
#56 = DIRECTION ( 'NONE',  ( 7.930164461608259947E-17, 0.000000000000000000, -1.000000000000000000 ) ) ;
#57 = CARTESIAN_POINT ( 'NONE',  ( -89.99999999999998579, 20.00000000000000000, 82.50000000000002842 ) ) ;
#58 = VERTEX_POINT ( 'NONE', #244 ) ;
#59 = DIRECTION ( 'NONE',  ( -0.000000000000000000, -1.000000000000000000, 0.000000000000000000 ) ) ;
#60 = CARTESIAN_POINT ( 'NONE',  ( 90.00000000000001421, 3.000000000000000000, -87.49999999999998579 ) ) ;
#61 = AXIS2_PLACEMENT_3D ( 'NONE', #88, #587, #860 ) ;
#62 = EDGE_CURVE ( 'NONE', #803, #636, #247, .T. ) ;
#63 = ORIENTED_EDGE ( 'NONE', *, *, #318, .F. ) ;
#64 = VECTOR ( 'NONE', #682, 1000.000000000000000 ) ;
#65 = CARTESIAN_POINT ( 'NONE',  ( 90.00000000000001421, 3.000000000000000000, 0.000000000000000000 ) ) ;
#66 = CARTESIAN_POINT ( 'NONE',  ( 69.99999999999998579, 2.999999999999999112, 82.50000000000002842 ) ) ;
#67 = VERTEX_POINT ( 'NONE', #807 ) ;
#68 = EDGE_CURVE ( 'NONE', #579, #462, #368, .T. ) ;
#69 =( LENGTH_UNIT ( ) NAMED_UNIT ( * ) SI_UNIT ( .MILLI., .METRE. ) );
#70 = DIRECTION ( 'NONE',  ( -0.000000000000000000, -1.000000000000000000, -0.000000000000000000 ) ) ;
#71 = ORIENTED_EDGE ( 'NONE', *, *, #318, .T. ) ;
#72 = ADVANCED_FACE ( 'NONE', ( #795 ), #790, .F. ) ;
#73 = MANIFOLD_SOLID_BREP ( 'Zaokr\X2\0105\X0\glenie1', #176 ) ;
#74 = LINE ( 'NONE', #83, #634 ) ;
#75 = LINE ( 'NONE', #635, #439 ) ;
#76 = ORIENTED_EDGE ( 'NONE', *, *, #399, .F. ) ;
#77 = VECTOR ( 'NONE', #831, 1000.000000000000000 ) ;
#78 = AXIS2_PLACEMENT_3D ( 'NONE', #379, #437, #371 ) ;
#79 = DIRECTION ( 'NONE',  ( -0.000000000000000000, -1.000000000000000000, -0.000000000000000000 ) ) ;
#80 = ADVANCED_FACE ( 'NONE', ( #461 ), #593, .F. ) ;
#81 = DIRECTION ( 'NONE',  ( 1.000000000000000000, -0.000000000000000000, -7.709882115452476934E-17 ) ) ;
#82 = ORIENTED_EDGE ( 'NONE', *, *, #322, .T. ) ;
#83 = CARTESIAN_POINT ( 'NONE',  ( 90.00000000000001421, 0.000000000000000000, 0.000000000000000000 ) ) ;
#84 = EDGE_CURVE ( 'NONE', #579, #270, #296, .T. ) ;
#85 = DIRECTION ( 'NONE',  ( 0.000000000000000000, 0.000000000000000000, -1.000000000000000000 ) ) ;
#86 = CARTESIAN_POINT ( 'NONE',  ( -69.99999999999998579, 3.000000000000000000, -77.50000000000002842 ) ) ;
#87 = CARTESIAN_POINT ( 'NONE',  ( 90.00000000000001421, 20.00000000000000000, 82.50000000000001421 ) ) ;
#88 = CARTESIAN_POINT ( 'NONE',  ( 69.99999999999998579, 20.00000000000000000, -77.50000000000002842 ) ) ;
#89 = ORIENTED_EDGE ( 'NONE', *, *, #650, .T. ) ;
#90 = CIRCLE ( 'NONE', #276, 5.000000000000004441 ) ;
#91 = MECHANICAL_CONTEXT ( 'NONE', #641, 'mechanical' ) ;
#92 = AXIS2_PLACEMENT_3D ( 'NONE', #620, #566, #417 ) ;
#93 = CARTESIAN_POINT ( 'NONE',  ( 69.99999999999998579, 3.000000000000000000, -74.75000000000002842 ) ) ;
#94 = PLANE ( 'NONE',  #632 ) ;
#95 = EDGE_LOOP ( 'NONE', ( #614, #797 ) ) ;
#96 = EDGE_CURVE ( 'NONE', #170, #213, #119, .T. ) ;
#97 = DATE_AND_TIME ( #32, #564 ) ;
#98 = DIRECTION ( 'NONE',  ( 0.000000000000000000, 0.000000000000000000, -1.000000000000000000 ) ) ;
#99 = DIRECTION ( 'NONE',  ( 0.000000000000000000, 0.000000000000000000, 1.000000000000000000 ) ) ;
#100 = ORIENTED_EDGE ( 'NONE', *, *, #612, .T. ) ;
#101 = PERSON_AND_ORGANIZATION_ROLE ( 'creator' ) ;
#102 = DIRECTION ( 'NONE',  ( 0.000000000000000000, 1.000000000000000000, -0.000000000000000000 ) ) ;
#103 = DIRECTION ( 'NONE',  ( 0.000000000000000000, 0.000000000000000000, 1.000000000000000000 ) ) ;
#104 = VERTEX_POINT ( 'NONE', #37 ) ;
#105 = AXIS2_PLACEMENT_3D ( 'NONE', #541, #812, #341 ) ;
#106 = DIRECTION ( 'NONE',  ( 0.000000000000000000, 0.000000000000000000, 1.000000000000000000 ) ) ;
#107 = CIRCLE ( 'NONE', #410, 5.000000000000004441 ) ;
#108 = EDGE_CURVE ( 'NONE', #887, #286, #577, .T. ) ;
#109 = FACE_OUTER_BOUND ( 'NONE', #297, .T. ) ;
#110 = ORIENTED_EDGE ( 'NONE', *, *, #389, .T. ) ;
#111 = FACE_BOUND ( 'NONE', #489, .T. ) ;
#112 = CARTESIAN_POINT ( 'NONE',  ( -89.99999999999998579, 0.000000000000000000, -87.49999999999997158 ) ) ;
#113 = ORIENTED_EDGE ( 'NONE', *, *, #399, .T. ) ;
#114 = CYLINDRICAL_SURFACE ( 'NONE', #764, 5.000000000000004441 ) ;
#115 = FACE_OUTER_BOUND ( 'NONE', #813, .T. ) ;
#116 = EDGE_LOOP ( 'NONE', ( #786, #490 ) ) ;
#117 = ADVANCED_FACE ( 'NONE', ( #583 ), #657, .F. ) ;
#118 = DIRECTION ( 'NONE',  ( -1.000000000000000000, 0.000000000000000000, 7.709882115452476934E-17 ) ) ;
#119 = CIRCLE ( 'NONE', #605, 2.750000000000002665 ) ;
#120 = CARTESIAN_POINT ( 'NONE',  ( -69.99999999999998579, 0.000000000000000000, 77.50000000000002842 ) ) ;
#121 = EDGE_LOOP ( 'NONE', ( #440, #851 ) ) ;
#122 = EDGE_CURVE ( 'NONE', #584, #419, #33, .T. ) ;
#123 = PLANE ( 'NONE',  #192 ) ;
#124 = CYLINDRICAL_SURFACE ( 'NONE', #159, 5.000000000000004441 ) ;
#125 = EDGE_LOOP ( 'NONE', ( #844, #896, #517, #728 ) ) ;
#126 = CARTESIAN_POINT ( 'NONE',  ( -90.00000000000000000, 0.000000000000000000, 87.50000000000005684 ) ) ;
#127 = DIRECTION ( 'NONE',  ( 0.000000000000000000, 1.000000000000000000, -0.000000000000000000 ) ) ;
#128 = ORIENTED_EDGE ( 'NONE', *, *, #554, .F. ) ;
#129 = DIRECTION ( 'NONE',  ( 0.000000000000000000, 1.000000000000000000, -0.000000000000000000 ) ) ;
#130 = EDGE_CURVE ( 'NONE', #26, #724, #409, .T. ) ;
#131 = CARTESIAN_POINT ( 'NONE',  ( 6.746146851020920072E-15, 3.000000000000000000, 87.50000000000004263 ) ) ;
#132 = VERTEX_POINT ( 'NONE', #653 ) ;
#133 = CIRCLE ( 'NONE', #50, 2.750000000000002665 ) ;
#134 = CARTESIAN_POINT ( 'NONE',  ( 69.99999999999998579, 20.00000000000000000, 82.50000000000002842 ) ) ;
#135 = DIRECTION ( 'NONE',  ( 0.000000000000000000, 1.000000000000000000, -0.000000000000000000 ) ) ;
#136 = ORIENTED_EDGE ( 'NONE', *, *, #156, .T. ) ;
#137 = DIRECTION ( 'NONE',  ( -0.000000000000000000, -1.000000000000000000, -0.000000000000000000 ) ) ;
#138 = DIRECTION ( 'NONE',  ( -0.000000000000000000, -1.000000000000000000, 0.000000000000000000 ) ) ;
#139 = ORIENTED_EDGE ( 'NONE', *, *, #864, .F. ) ;
#140 = EDGE_CURVE ( 'NONE', #617, #143, #691, .T. ) ;
#141 = CARTESIAN_POINT ( 'NONE',  ( -69.99999999999998579, 20.00000000000000000, -72.50000000000002842 ) ) ;
#142 = DIRECTION ( 'NONE',  ( 0.000000000000000000, 0.000000000000000000, -1.000000000000000000 ) ) ;
#143 = VERTEX_POINT ( 'NONE', #600 ) ;
#144 = VECTOR ( 'NONE', #413, 1000.000000000000000 ) ;
#145 = CIRCLE ( 'NONE', #179, 2.750000000000002665 ) ;
#146 = DIRECTION ( 'NONE',  ( -0.000000000000000000, -1.000000000000000000, -0.000000000000000000 ) ) ;
#147 = AXIS2_PLACEMENT_3D ( 'NONE', #198, #479, #427 ) ;
#148 = CYLINDRICAL_SURFACE ( 'NONE', #548, 5.000000000000004441 ) ;
#149 = ORIENTED_EDGE ( 'NONE', *, *, #592, .T. ) ;
#150 = APPROVAL_DATE_TIME ( #27, #329 ) ;
#151 = DIRECTION ( 'NONE',  ( 0.000000000000000000, 1.000000000000000000, -0.000000000000000000 ) ) ;
#152 = CC_DESIGN_DATE_AND_TIME_ASSIGNMENT ( #590, #360, ( #551 ) ) ;
#153 = DIRECTION ( 'NONE',  ( 0.000000000000000000, 1.000000000000000000, -0.000000000000000000 ) ) ;
#154 = ORIENTED_EDGE ( 'NONE', *, *, #687, .T. ) ;
#155 = CARTESIAN_POINT ( 'NONE',  ( 90.00000000000001421, 15.00000000000000000, 82.50000000000001421 ) ) ;
#156 = EDGE_CURVE ( 'NONE', #143, #317, #169, .T. ) ;
#157 = DIRECTION ( 'NONE',  ( 0.000000000000000000, 0.000000000000000000, 1.000000000000000000 ) ) ;
#158 = ORIENTED_EDGE ( 'NONE', *, *, #487, .F. ) ;
#159 = AXIS2_PLACEMENT_3D ( 'NONE', #744, #757, #613 ) ;
#160 = DIRECTION ( 'NONE',  ( 1.000000000000000000, 0.000000000000000000, 0.000000000000000000 ) ) ;
#161 = CIRCLE ( 'NONE', #278, 2.750000000000002665 ) ;
#162 = CARTESIAN_POINT ( 'NONE',  ( 90.00000000000001421, 15.00000000000000000, 87.50000000000002842 ) ) ;
#163 = DIRECTION ( 'NONE',  ( 0.000000000000000000, 0.000000000000000000, -1.000000000000000000 ) ) ;
#164 = CC_DESIGN_PERSON_AND_ORGANIZATION_ASSIGNMENT ( #309, #729, ( #678 ) ) ;
#165 = ORIENTED_EDGE ( 'NONE', *, *, #62, .T. ) ;
#166 = ADVANCED_FACE ( 'NONE', ( #736, #313, #648 ), #94, .T. ) ;
#167 = APPROVAL_DATE_TIME ( #97, #788 ) ;
#168 = CARTESIAN_POINT ( 'NONE',  ( 69.99999999999998579, 3.000000000000000000, -80.25000000000002842 ) ) ;
#169 = LINE ( 'NONE', #450, #532 ) ;
#170 = VERTEX_POINT ( 'NONE', #385 ) ;
#171 = ADVANCED_FACE ( 'NONE', ( #109 ), #668, .F. ) ;
#172 = DATE_AND_TIME ( #378, #442 ) ;
#173 = DIRECTION ( 'NONE',  ( 0.000000000000000000, 0.000000000000000000, 1.000000000000000000 ) ) ;
#174 = DIRECTION ( 'NONE',  ( 0.000000000000000000, 1.000000000000000000, -0.000000000000000000 ) ) ;
#175 = EDGE_LOOP ( 'NONE', ( #880, #892 ) ) ;
#176 = CLOSED_SHELL ( 'NONE', ( #197, #784, #171, #821, #72, #494, #745, #117, #475, #890, #633, #293, #331, #885, #607, #480, #428, #209, #755, #514, #187, #80, #362, #734, #447, #166, #415 ) ) ;
#177 = AXIS2_PLACEMENT_3D ( 'NONE', #306, #865, #157 ) ;
#178 = LINE ( 'NONE', #679, #578 ) ;
#179 = AXIS2_PLACEMENT_3D ( 'NONE', #798, #595, #106 ) ;
#180 = DIRECTION ( 'NONE',  ( -0.000000000000000000, -1.000000000000000000, 0.000000000000000000 ) ) ;
#181 = ORIENTED_EDGE ( 'NONE', *, *, #267, .T. ) ;
#182 = LINE ( 'NONE', #194, #794 ) ;
#183 = DIRECTION ( 'NONE',  ( 0.000000000000000000, 1.000000000000000000, -0.000000000000000000 ) ) ;
#184 = ORIENTED_EDGE ( 'NONE', *, *, #312, .T. ) ;
#185 = DIRECTION ( 'NONE',  ( -0.000000000000000000, -1.000000000000000000, 0.000000000000000000 ) ) ;
#186 = CARTESIAN_POINT ( 'NONE',  ( -69.99999999999998579, 20.00000000000000000, 77.50000000000002842 ) ) ;
#187 = ADVANCED_FACE ( 'NONE', ( #603, #684, #115, #464, #336 ), #688, .F. ) ;
#188 = ORIENTED_EDGE ( 'NONE', *, *, #695, .T. ) ;
#189 = FACE_OUTER_BOUND ( 'NONE', #738, .T. ) ;
#190 = AXIS2_PLACEMENT_3D ( 'NONE', #537, #127, #895 ) ;
#191 = CARTESIAN_POINT ( 'NONE',  ( 90.00000000000001421, 0.000000000000000000, 87.50000000000002842 ) ) ;
#192 = AXIS2_PLACEMENT_3D ( 'NONE', #47, #44, #459 ) ;
#193 = ORIENTED_EDGE ( 'NONE', *, *, #335, .T. ) ;
#194 = CARTESIAN_POINT ( 'NONE',  ( -69.99999999999998579, 3.000000000000000000, -74.75000000000002842 ) ) ;
#195 = DIRECTION ( 'NONE',  ( -0.000000000000000000, -1.000000000000000000, 0.000000000000000000 ) ) ;
#196 = VERTEX_POINT ( 'NONE', #57 ) ;
#197 = ADVANCED_FACE ( 'NONE', ( #741 ), #124, .F. ) ;
#198 = CARTESIAN_POINT ( 'NONE',  ( 69.99999999999998579, 0.000000000000000000, 77.50000000000002842 ) ) ;
#199 = DIRECTION ( 'NONE',  ( 0.000000000000000000, 0.000000000000000000, 1.000000000000000000 ) ) ;
#200 = EDGE_LOOP ( 'NONE', ( #139, #696, #51, #570 ) ) ;
#201 = DIRECTION ( 'NONE',  ( 1.000000000000000000, -0.000000000000000000, -7.709882115452476934E-17 ) ) ;
#202 = PRODUCT_DEFINITION ( 'UNKNOWN', '', #678, #697 ) ;
#203 = DIRECTION ( 'NONE',  ( -1.000000000000000000, 0.000000000000000000, -7.930164461608259947E-17 ) ) ;
#204 = VECTOR ( 'NONE', #748, 1000.000000000000000 ) ;
#205 = EDGE_LOOP ( 'NONE', ( #867, #769 ) ) ;
#206 = AXIS2_PLACEMENT_3D ( 'NONE', #243, #666, #40 ) ;
#207 = CC_DESIGN_SECURITY_CLASSIFICATION ( #551, ( #678 ) ) ;
#208 = DIRECTION ( 'NONE',  ( 0.000000000000000000, 0.000000000000000000, 1.000000000000000000 ) ) ;
#209 = ADVANCED_FACE ( 'NONE', ( #544 ), #45, .F. ) ;
#210 = EDGE_LOOP ( 'NONE', ( #154, #386 ) ) ;
#211 = CARTESIAN_POINT ( 'NONE',  ( 69.99999999999998579, 3.000000000000000000, 80.25000000000002842 ) ) ;
#212 = DIRECTION ( 'NONE',  ( 0.000000000000000000, 0.000000000000000000, 1.000000000000000000 ) ) ;
#213 = VERTEX_POINT ( 'NONE', #251 ) ;
#214 = VERTEX_POINT ( 'NONE', #882 ) ;
#215 = CARTESIAN_POINT ( 'NONE',  ( 69.99999999999998579, 20.00000000000000000, 72.50000000000002842 ) ) ;
#216 = CYLINDRICAL_SURFACE ( 'NONE', #707, 5.000000000000004441 ) ;
#217 = ORIENTED_EDGE ( 'NONE', *, *, #62, .F. ) ;
#218 = AXIS2_PLACEMENT_3D ( 'NONE', #842, #135, #212 ) ;
#219 = EDGE_LOOP ( 'NONE', ( #623, #883 ) ) ;
#220 = VECTOR ( 'NONE', #118, 1000.000000000000000 ) ;
#221 = APPROVAL_DATE_TIME ( #714, #481 ) ;
#222 = LINE ( 'NONE', #506, #893 ) ;
#223 = DIRECTION ( 'NONE',  ( 0.000000000000000000, 0.000000000000000000, 1.000000000000000000 ) ) ;
#224 = EDGE_LOOP ( 'NONE', ( #630, #498, #573, #856 ) ) ;
#225 = COORDINATED_UNIVERSAL_TIME_OFFSET ( 1, 0, .AHEAD. ) ;
#226 = EDGE_CURVE ( 'NONE', #143, #617, #235, .T. ) ;
#227 = DIRECTION ( 'NONE',  ( 0.000000000000000000, 1.000000000000000000, -0.000000000000000000 ) ) ;
#228 = CARTESIAN_POINT ( 'NONE',  ( -69.99999999999998579, 0.000000000000000000, -77.50000000000002842 ) ) ;
#229 = EDGE_LOOP ( 'NONE', ( #63, #468, #414, #627 ) ) ;
#230 = COORDINATED_UNIVERSAL_TIME_OFFSET ( 1, 0, .AHEAD. ) ;
#231 = EDGE_CURVE ( 'NONE', #837, #104, #878, .T. ) ;
#232 = DIRECTION ( 'NONE',  ( -0.000000000000000000, -1.000000000000000000, -0.000000000000000000 ) ) ;
#233 = DIRECTION ( 'NONE',  ( -0.000000000000000000, -1.000000000000000000, 0.000000000000000000 ) ) ;
#234 = VERTEX_POINT ( 'NONE', #191 ) ;
#235 = CIRCLE ( 'NONE', #190, 2.750000000000002665 ) ;
#236 = AXIS2_PLACEMENT_3D ( 'NONE', #284, #79, #271 ) ;
#237 = APPROVAL_PERSON_ORGANIZATION ( #298, #329, #448 ) ;
#238 = CYLINDRICAL_SURFACE ( 'NONE', #663, 2.750000000000002665 ) ;
#239 = CARTESIAN_POINT ( 'NONE',  ( 69.99999999999998579, 3.000000000000000000, 77.50000000000002842 ) ) ;
#240 = EDGE_CURVE ( 'NONE', #852, #2, #339, .T. ) ;
#241 = ORIENTED_EDGE ( 'NONE', *, *, #226, .T. ) ;
#242 = PERSON_AND_ORGANIZATION_ROLE ( 'design_supplier' ) ;
#243 = CARTESIAN_POINT ( 'NONE',  ( 69.99999999999998579, 2.999999999999999112, -77.50000000000002842 ) ) ;
#244 = CARTESIAN_POINT ( 'NONE',  ( 69.99999999999998579, 0.000000000000000000, 80.25000000000002842 ) ) ;
#245 = ORIENTED_EDGE ( 'NONE', *, *, #42, .F. ) ;
#246 = CARTESIAN_POINT ( 'NONE',  ( 6.746146851020920072E-15, 0.000000000000000000, 87.50000000000004263 ) ) ;
#247 = LINE ( 'NONE', #515, #750 ) ;
#248 = ORIENTED_EDGE ( 'NONE', *, *, #469, .T. ) ;
#249 = AXIS2_PLACEMENT_3D ( 'NONE', #186, #183, #199 ) ;
#250 = DIRECTION ( 'NONE',  ( 0.000000000000000000, 0.000000000000000000, 1.000000000000000000 ) ) ;
#251 = CARTESIAN_POINT ( 'NONE',  ( -69.99999999999998579, 0.000000000000000000, -74.75000000000002842 ) ) ;
#252 = VERTEX_POINT ( 'NONE', #49 ) ;
#253 = CARTESIAN_POINT ( 'NONE',  ( 69.99999999999998579, 2.999999999999999112, 77.50000000000002842 ) ) ;
#254 = EDGE_CURVE ( 'NONE', #887, #522, #889, .T. ) ;
#255 = DIRECTION ( 'NONE',  ( 0.000000000000000000, 1.000000000000000000, -0.000000000000000000 ) ) ;
#256 = ORIENTED_EDGE ( 'NONE', *, *, #540, .F. ) ;
#257 = CARTESIAN_POINT ( 'NONE',  ( 69.99999999999998579, 20.00000000000000000, 77.50000000000002842 ) ) ;
#258 = DIRECTION ( 'NONE',  ( 1.000000000000000000, -0.000000000000000000, -7.709882115452476934E-17 ) ) ;
#259 = EDGE_CURVE ( 'NONE', #132, #2, #16, .T. ) ;
#260 = ORIENTED_EDGE ( 'NONE', *, *, #351, .T. ) ;
#261 = CARTESIAN_POINT ( 'NONE',  ( -6.746146851020914550E-15, 20.00000000000000000, -87.49999999999997158 ) ) ;
#262 = AXIS2_PLACEMENT_3D ( 'NONE', #239, #25, #799 ) ;
#263 = CIRCLE ( 'NONE', #457, 2.750000000000002665 ) ;
#264 = CARTESIAN_POINT ( 'NONE',  ( -69.99999999999998579, 20.00000000000000000, -72.50000000000002842 ) ) ;
#265 = ORIENTED_EDGE ( 'NONE', *, *, #299, .F. ) ;
#266 = APPROVAL_PERSON_ORGANIZATION ( #640, #481, #17 ) ;
#267 = EDGE_CURVE ( 'NONE', #446, #377, #846, .T. ) ;
#268 = DIRECTION ( 'NONE',  ( 0.000000000000000000, 0.000000000000000000, 1.000000000000000000 ) ) ;
#269 = CARTESIAN_POINT ( 'NONE',  ( -69.99999999999998579, 20.00000000000000000, 82.50000000000002842 ) ) ;
#270 = VERTEX_POINT ( 'NONE', #405 ) ;
#271 = DIRECTION ( 'NONE',  ( 0.000000000000000000, 0.000000000000000000, -1.000000000000000000 ) ) ;
#272 = LINE ( 'NONE', #563, #502 ) ;
#273 = ORIENTED_EDGE ( 'NONE', *, *, #624, .F. ) ;
#274 = EDGE_CURVE ( 'NONE', #132, #672, #646, .T. ) ;
#275 = DIRECTION ( 'NONE',  ( 7.709882115452476934E-17, -0.000000000000000000, 1.000000000000000000 ) ) ;
#276 = AXIS2_PLACEMENT_3D ( 'NONE', #357, #203, #1 ) ;
#277 = VERTEX_POINT ( 'NONE', #473 ) ;
#278 = AXIS2_PLACEMENT_3D ( 'NONE', #830, #129, #571 ) ;
#279 = DIRECTION ( 'NONE',  ( 0.000000000000000000, 0.000000000000000000, 1.000000000000000000 ) ) ;
#280 = EDGE_CURVE ( 'NONE', #132, #724, #622, .T. ) ;
#281 = CARTESIAN_POINT ( 'NONE',  ( 90.00000000000001421, 3.000000000000000000, 87.50000000000002842 ) ) ;
#282 = ORIENTED_EDGE ( 'NONE', *, *, #592, .F. ) ;
#283 = EDGE_LOOP ( 'NONE', ( #601, #772 ) ) ;
#284 = CARTESIAN_POINT ( 'NONE',  ( 69.99999999999998579, 20.00000000000000000, 77.50000000000002842 ) ) ;
#285 = CARTESIAN_POINT ( 'NONE',  ( -89.99999999999998579, 3.000000000000000000, -87.49999999999997158 ) ) ;
#286 = VERTEX_POINT ( 'NONE', #556 ) ;
#287 = VERTEX_POINT ( 'NONE', #112 ) ;
#288 = DATE_TIME_ROLE ( 'creation_date' ) ;
#289 = LINE ( 'NONE', #285, #144 ) ;
#290 = ORIENTED_EDGE ( 'NONE', *, *, #68, .F. ) ;
#291 = AXIS2_PLACEMENT_3D ( 'NONE', #30, #511, #366 ) ;
#292 = AXIS2_PLACEMENT_3D ( 'NONE', #403, #884, #814 ) ;
#293 = ADVANCED_FACE ( 'NONE', ( #388 ), #392, .T. ) ;
#294 = CARTESIAN_POINT ( 'NONE',  ( 0.000000000000000000, 0.000000000000000000, 0.000000000000000000 ) ) ;
#295 = CARTESIAN_POINT ( 'NONE',  ( -69.99999999999998579, 0.000000000000000000, 80.25000000000002842 ) ) ;
#296 = LINE ( 'NONE', #445, #706 ) ;
#297 = EDGE_LOOP ( 'NONE', ( #110, #709, #767, #265 ) ) ;
#298 = PERSON_AND_ORGANIZATION ( #364, #342 ) ;
#299 = EDGE_CURVE ( 'NONE', #672, #26, #815, .T. ) ;
#300 = CARTESIAN_POINT ( 'NONE',  ( -69.99999999999998579, 20.00000000000000000, -82.50000000000002842 ) ) ;
#301 = CARTESIAN_POINT ( 'NONE',  ( -69.99999999999998579, 2.999999999999999112, 72.50000000000002842 ) ) ;
#302 = ORIENTED_EDGE ( 'NONE', *, *, #716, .T. ) ;
#303 = COORDINATED_UNIVERSAL_TIME_OFFSET ( 1, 0, .AHEAD. ) ;
#304 = CARTESIAN_POINT ( 'NONE',  ( -69.99999999999998579, 2.999999999999999112, -72.50000000000002842 ) ) ;
#305 = EDGE_CURVE ( 'NONE', #333, #565, #763, .T. ) ;
#306 = CARTESIAN_POINT ( 'NONE',  ( 69.99999999999998579, 3.000000000000000000, -77.50000000000002842 ) ) ;
#307 = ORIENTED_EDGE ( 'NONE', *, *, #389, .F. ) ;
#308 = AXIS2_PLACEMENT_3D ( 'NONE', #376, #855, #802 ) ;
#309 = PERSON_AND_ORGANIZATION ( #364, #342 ) ;
#310 = AXIS2_PLACEMENT_3D ( 'NONE', #602, #670, #250 ) ;
#311 = FACE_OUTER_BOUND ( 'NONE', #426, .T. ) ;
#312 = EDGE_CURVE ( 'NONE', #512, #234, #482, .T. ) ;
#313 = FACE_BOUND ( 'NONE', #775, .T. ) ;
#314 = ORIENTED_EDGE ( 'NONE', *, *, #650, .F. ) ;
#315 = DIRECTION ( 'NONE',  ( 0.000000000000000000, 0.000000000000000000, 1.000000000000000000 ) ) ;
#316 = DIRECTION ( 'NONE',  ( -0.000000000000000000, -1.000000000000000000, -0.000000000000000000 ) ) ;
#317 = VERTEX_POINT ( 'NONE', #708 ) ;
#318 = EDGE_CURVE ( 'NONE', #800, #565, #75, .T. ) ;
#319 = DIRECTION ( 'NONE',  ( -0.000000000000000000, -1.000000000000000000, -0.000000000000000000 ) ) ;
#320 = DIRECTION ( 'NONE',  ( 1.000000000000000000, 0.000000000000000000, -7.709882115452476934E-17 ) ) ;
#321 = ORIENTED_EDGE ( 'NONE', *, *, #240, .F. ) ;
#322 = EDGE_CURVE ( 'NONE', #604, #214, #422, .T. ) ;
#323 = VECTOR ( 'NONE', #258, 1000.000000000000000 ) ;
#324 = LINE ( 'NONE', #261, #220 ) ;
#325 = CIRCLE ( 'NONE', #808, 5.000000000000004441 ) ;
#326 = VECTOR ( 'NONE', #408, 1000.000000000000000 ) ;
#327 = DIRECTION ( 'NONE',  ( -1.000000000000000000, 0.000000000000000000, -7.930164461608259947E-17 ) ) ;
#328 = VERTEX_POINT ( 'NONE', #761 ) ;
#329 = APPROVAL ( #581, 'UNSPECIFIED' ) ;
#330 = CARTESIAN_POINT ( 'NONE',  ( -69.99999999999998579, 2.999999999999999112, 82.50000000000002842 ) ) ;
#331 = ADVANCED_FACE ( 'NONE', ( #567 ), #771, .T. ) ;
#332 = CARTESIAN_POINT ( 'NONE',  ( 0.000000000000000000, 0.000000000000000000, 0.000000000000000000 ) ) ;
#333 = VERTEX_POINT ( 'NONE', #626 ) ;
#334 = DIRECTION ( 'NONE',  ( 0.000000000000000000, 0.000000000000000000, 1.000000000000000000 ) ) ;
#335 = EDGE_CURVE ( 'NONE', #104, #287, #272, .T. ) ;
#336 = FACE_BOUND ( 'NONE', #175, .T. ) ;
#337 = ORIENTED_EDGE ( 'NONE', *, *, #871, .T. ) ;
#338 = DIRECTION ( 'NONE',  ( -0.000000000000000000, -1.000000000000000000, -0.000000000000000000 ) ) ;
#339 = CIRCLE ( 'NONE', #105, 5.000000000000004441 ) ;
#340 = CIRCLE ( 'NONE', #78, 5.000000000000004441 ) ;
#341 = DIRECTION ( 'NONE',  ( 0.000000000000000000, 0.000000000000000000, 1.000000000000000000 ) ) ;
#342 = ORGANIZATION ( 'UNSPECIFIED', 'UNSPECIFIED', '' ) ;
#343 = CC_DESIGN_PERSON_AND_ORGANIZATION_ASSIGNMENT ( #659, #242, ( #678 ) ) ;
#344 = ORIENTED_EDGE ( 'NONE', *, *, #3, .F. ) ;
#345 = CARTESIAN_POINT ( 'NONE',  ( 90.00000000000001421, 20.00000000000000000, -87.49999999999998579 ) ) ;
#346 = LINE ( 'NONE', #839, #547 ) ;
#347 = ORIENTED_EDGE ( 'NONE', *, *, #897, .F. ) ;
#348 = PLANE ( 'NONE',  #10 ) ;
#349 = DIRECTION ( 'NONE',  ( 1.000000000000000000, 0.000000000000000000, -7.709882115452476934E-17 ) ) ;
#350 = ORIENTED_EDGE ( 'NONE', *, *, #859, .T. ) ;
#351 = EDGE_CURVE ( 'NONE', #560, #67, #48, .T. ) ;
#352 = CARTESIAN_POINT ( 'NONE',  ( 69.99999999999998579, 20.00000000000000000, -77.50000000000002842 ) ) ;
#353 = DIRECTION ( 'NONE',  ( 0.000000000000000000, 0.000000000000000000, 1.000000000000000000 ) ) ;
#354 = AXIS2_PLACEMENT_3D ( 'NONE', #873, #596, #103 ) ;
#355 = ORIENTED_EDGE ( 'NONE', *, *, #130, .T. ) ;
#356 = CYLINDRICAL_SURFACE ( 'NONE', #458, 5.000000000000004441 ) ;
#357 = CARTESIAN_POINT ( 'NONE',  ( -89.99999999999998579, 15.00000000000000000, 82.50000000000002842 ) ) ;
#358 = ORIENTED_EDGE ( 'NONE', *, *, #96, .F. ) ;
#359 = APPLICATION_CONTEXT ( 'configuration controlled 3d designs of mechanical parts and assemblies' ) ;
#360 = DATE_TIME_ROLE ( 'classification_date' ) ;
#361 = CARTESIAN_POINT ( 'NONE',  ( 69.99999999999998579, 2.999999999999999112, 72.50000000000002842 ) ) ;
#362 = ADVANCED_FACE ( 'NONE', ( #429 ), #148, .F. ) ;
#363 = EDGE_LOOP ( 'NONE', ( #188, #553 ) ) ;
#364 = PERSON ( 'UNSPECIFIED', 'UNSPECIFIED', 'UNSPECIFIED', ('UNSPECIFIED'), ('UNSPECIFIED'), ('UNSPECIFIED') ) ;
#365 = CARTESIAN_POINT ( 'NONE',  ( 69.99999999999998579, 0.000000000000000000, -74.75000000000002842 ) ) ;
#366 = DIRECTION ( 'NONE',  ( 0.000000000000000000, 0.000000000000000000, -1.000000000000000000 ) ) ;
#367 = EDGE_CURVE ( 'NONE', #196, #132, #346, .T. ) ;
#368 = CIRCLE ( 'NONE', #61, 5.000000000000004441 ) ;
#369 = AXIS2_PLACEMENT_3D ( 'NONE', #352, #558, #279 ) ;
#370 = CALENDAR_DATE ( 2026, 24, 2 ) ;
#371 = DIRECTION ( 'NONE',  ( 0.000000000000000000, 0.000000000000000000, 1.000000000000000000 ) ) ;
#372 = DIRECTION ( 'NONE',  ( 0.000000000000000000, 0.000000000000000000, 1.000000000000000000 ) ) ;
#373 = ORIENTED_EDGE ( 'NONE', *, *, #612, .F. ) ;
#374 = COORDINATED_UNIVERSAL_TIME_OFFSET ( 1, 0, .AHEAD. ) ;
#375 = CARTESIAN_POINT ( 'NONE',  ( 0.000000000000000000, 3.000000000000000000, 0.000000000000000000 ) ) ;
#376 = CARTESIAN_POINT ( 'NONE',  ( -69.99999999999998579, 20.00000000000000000, -77.50000000000002842 ) ) ;
#377 = VERTEX_POINT ( 'NONE', #361 ) ;
#378 = CALENDAR_DATE ( 2026, 24, 2 ) ;
#379 = CARTESIAN_POINT ( 'NONE',  ( 69.99999999999998579, 20.00000000000000000, 77.50000000000002842 ) ) ;
#380 = DIRECTION ( 'NONE',  ( -0.000000000000000000, -1.000000000000000000, -0.000000000000000000 ) ) ;
#381 = ORIENTED_EDGE ( 'NONE', *, *, #585, .F. ) ;
#382 = CIRCLE ( 'NONE', #206, 5.000000000000004441 ) ;
#383 =( GEOMETRIC_REPRESENTATION_CONTEXT ( 3 ) GLOBAL_UNCERTAINTY_ASSIGNED_CONTEXT ( ( #768 ) ) GLOBAL_UNIT_ASSIGNED_CONTEXT ( ( #69, #835, #770 ) ) REPRESENTATION_CONTEXT ( 'NONE', 'WORKASPACE' ) );
#384 = DIRECTION ( 'NONE',  ( -0.000000000000000000, -1.000000000000000000, -0.000000000000000000 ) ) ;
#385 = CARTESIAN_POINT ( 'NONE',  ( -69.99999999999998579, 0.000000000000000000, -80.25000000000002842 ) ) ;
#386 = ORIENTED_EDGE ( 'NONE', *, *, #122, .T. ) ;
#387 = LINE ( 'NONE', #400, #64 ) ;
#388 = FACE_OUTER_BOUND ( 'NONE', #538, .T. ) ;
#389 = EDGE_CURVE ( 'NONE', #672, #132, #776, .T. ) ;
#390 = ORIENTED_EDGE ( 'NONE', *, *, #554, .T. ) ;
#391 = CARTESIAN_POINT ( 'NONE',  ( 69.99999999999998579, 3.000000000000000000, -77.50000000000002842 ) ) ;
#392 = PLANE ( 'NONE',  #470 ) ;
#393 = EDGE_LOOP ( 'NONE', ( #598, #46, #508, #355 ) ) ;
#394 = VECTOR ( 'NONE', #828, 1000.000000000000000 ) ;
#395 = LINE ( 'NONE', #804, #396 ) ;
#396 = VECTOR ( 'NONE', #56, 1000.000000000000000 ) ;
#397 = DIRECTION ( 'NONE',  ( 0.000000000000000000, 1.000000000000000000, -0.000000000000000000 ) ) ;
#398 = ORIENTED_EDGE ( 'NONE', *, *, #231, .T. ) ;
#399 = EDGE_CURVE ( 'NONE', #803, #196, #90, .T. ) ;
#400 = CARTESIAN_POINT ( 'NONE',  ( 90.00000000000001421, 20.00000000000000000, 0.000000000000000000 ) ) ;
#401 = DIRECTION ( 'NONE',  ( 0.000000000000000000, 0.000000000000000000, -1.000000000000000000 ) ) ;
#402 = ORIENTED_EDGE ( 'NONE', *, *, #845, .F. ) ;
#403 = CARTESIAN_POINT ( 'NONE',  ( 69.99999999999998579, 3.000000000000000000, -77.50000000000002842 ) ) ;
#404 = CC_DESIGN_PERSON_AND_ORGANIZATION_ASSIGNMENT ( #783, #801, ( #28 ) ) ;
#405 = CARTESIAN_POINT ( 'NONE',  ( 69.99999999999998579, 2.999999999999999112, -82.50000000000002842 ) ) ;
#406 = EDGE_LOOP ( 'NONE', ( #128, #699 ) ) ;
#407 = CIRCLE ( 'NONE', #806, 5.000000000000004441 ) ;
#408 = DIRECTION ( 'NONE',  ( -0.000000000000000000, -1.000000000000000000, -0.000000000000000000 ) ) ;
#409 = CIRCLE ( 'NONE', #354, 5.000000000000004441 ) ;
#410 = AXIS2_PLACEMENT_3D ( 'NONE', #155, #652, #24 ) ;
#411 = DIRECTION ( 'NONE',  ( -1.000000000000000000, 0.000000000000000000, 7.709882115452476934E-17 ) ) ;
#412 = ORIENTED_EDGE ( 'NONE', *, *, #259, .F. ) ;
#413 = DIRECTION ( 'NONE',  ( -0.000000000000000000, -1.000000000000000000, -0.000000000000000000 ) ) ;
#414 = ORIENTED_EDGE ( 'NONE', *, *, #487, .T. ) ;
#415 = ADVANCED_FACE ( 'NONE', ( #488 ), #216, .T. ) ;
#416 = ORIENTED_EDGE ( 'NONE', *, *, #367, .T. ) ;
#417 = DIRECTION ( 'NONE',  ( 0.000000000000000000, 0.000000000000000000, 1.000000000000000000 ) ) ;
#418 = CARTESIAN_POINT ( 'NONE',  ( 6.360652745248296361E-15, 15.00000000000000000, 82.50000000000002842 ) ) ;
#419 = VERTEX_POINT ( 'NONE', #421 ) ;
#420 = DIRECTION ( 'NONE',  ( 0.000000000000000000, 1.000000000000000000, -0.000000000000000000 ) ) ;
#421 = CARTESIAN_POINT ( 'NONE',  ( 69.99999999999998579, 3.000000000000000000, -80.25000000000002842 ) ) ;
#422 = CIRCLE ( 'NONE', #618, 2.750000000000002665 ) ;
#423 = EDGE_LOOP ( 'NONE', ( #347, #843, #248, #574 ) ) ;
#424 = CIRCLE ( 'NONE', #503, 5.000000000000004441 ) ;
#425 = AXIS2_PLACEMENT_3D ( 'NONE', #294, #733, #160 ) ;
#426 = EDGE_LOOP ( 'NONE', ( #874, #870 ) ) ;
#427 = DIRECTION ( 'NONE',  ( 0.000000000000000000, 0.000000000000000000, 1.000000000000000000 ) ) ;
#428 = ADVANCED_FACE ( 'NONE', ( #694 ), #501, .F. ) ;
#429 = FACE_OUTER_BOUND ( 'NONE', #393, .T. ) ;
#430 = ORIENTED_EDGE ( 'NONE', *, *, #274, .F. ) ;
#431 = ORIENTED_EDGE ( 'NONE', *, *, #259, .T. ) ;
#432 = PERSON_AND_ORGANIZATION_ROLE ( 'classification_officer' ) ;
#433 = DIRECTION ( 'NONE',  ( 0.000000000000000000, 0.000000000000000000, 1.000000000000000000 ) ) ;
#434 = DIRECTION ( 'NONE',  ( 0.000000000000000000, 0.000000000000000000, 1.000000000000000000 ) ) ;
#435 = ORIENTED_EDGE ( 'NONE', *, *, #84, .T. ) ;
#436 = PERSON_AND_ORGANIZATION ( #364, #342 ) ;
#437 = DIRECTION ( 'NONE',  ( 0.000000000000000000, 1.000000000000000000, -0.000000000000000000 ) ) ;
#438 = CARTESIAN_POINT ( 'NONE',  ( -89.99999999999998579, 0.000000000000000000, -7.137148015447432423E-15 ) ) ;
#439 = VECTOR ( 'NONE', #850, 1000.000000000000000 ) ;
#440 = ORIENTED_EDGE ( 'NONE', *, *, #226, .F. ) ;
#441 = AXIS2_PLACEMENT_3D ( 'NONE', #549, #319, #747 ) ;
#442 = LOCAL_TIME ( 18, 40, 49.00000000000000000, #575 ) ;
#443 = CALENDAR_DATE ( 2026, 24, 2 ) ;
#444 = DIRECTION ( 'NONE',  ( -0.000000000000000000, -1.000000000000000000, -0.000000000000000000 ) ) ;
#445 = CARTESIAN_POINT ( 'NONE',  ( 69.99999999999998579, 20.00000000000000000, -82.50000000000002842 ) ) ;
#446 = VERTEX_POINT ( 'NONE', #66 ) ;
#447 = ADVANCED_FACE ( 'NONE', ( #703 ), #766, .F. ) ;
#448 = APPROVAL_ROLE ( '' ) ;
#449 = DIRECTION ( 'NONE',  ( -0.000000000000000000, -1.000000000000000000, -0.000000000000000000 ) ) ;
#450 = CARTESIAN_POINT ( 'NONE',  ( 69.99999999999998579, 3.000000000000000000, 74.75000000000002842 ) ) ;
#451 = ORIENTED_EDGE ( 'NONE', *, *, #712, .T. ) ;
#452 = APPROVAL_STATUS ( 'not_yet_approved' ) ;
#453 = DIRECTION ( 'NONE',  ( 0.000000000000000000, 0.000000000000000000, -1.000000000000000000 ) ) ;
#454 = LINE ( 'NONE', #438, #485 ) ;
#455 = ORIENTED_EDGE ( 'NONE', *, *, #796, .F. ) ;
#456 = AXIS2_PLACEMENT_3D ( 'NONE', #723, #23, #662 ) ;
#457 = AXIS2_PLACEMENT_3D ( 'NONE', #22, #660, #34 ) ;
#458 = AXIS2_PLACEMENT_3D ( 'NONE', #13, #137, #759 ) ;
#459 = DIRECTION ( 'NONE',  ( 0.000000000000000000, 0.000000000000000000, 1.000000000000000000 ) ) ;
#460 = EDGE_CURVE ( 'NONE', #277, #287, #289, .T. ) ;
#461 = FACE_OUTER_BOUND ( 'NONE', #644, .T. ) ;
#462 = VERTEX_POINT ( 'NONE', #572 ) ;
#463 = DIRECTION ( 'NONE',  ( 0.000000000000000000, 0.000000000000000000, 1.000000000000000000 ) ) ;
#464 = FACE_BOUND ( 'NONE', #95, .T. ) ;
#465 = EDGE_LOOP ( 'NONE', ( #19, #675, #181, #569 ) ) ;
#466 = DIRECTION ( 'NONE',  ( -1.000000000000000000, 0.000000000000000000, 7.709882115452476934E-17 ) ) ;
#467 = CARTESIAN_POINT ( 'NONE',  ( -69.99999999999998579, 20.00000000000000000, 72.50000000000002842 ) ) ;
#468 = ORIENTED_EDGE ( 'NONE', *, *, #777, .T. ) ;
#469 = EDGE_CURVE ( 'NONE', #852, #377, #781, .T. ) ;
#470 = AXIS2_PLACEMENT_3D ( 'NONE', #674, #327, #609 ) ;
#471 = CYLINDRICAL_SURFACE ( 'NONE', #677, 2.750000000000002665 ) ;
#472 = LOCAL_TIME ( 18, 40, 49.00000000000000000, #225 ) ;
#473 = CARTESIAN_POINT ( 'NONE',  ( -89.99999999999998579, 20.00000000000000000, -87.49999999999997158 ) ) ;
#474 = ORIENTED_EDGE ( 'NONE', *, *, #845, .T. ) ;
#475 = ADVANCED_FACE ( 'NONE', ( #5, #311 ), #599, .T. ) ;
#476 = DIRECTION ( 'NONE',  ( 0.000000000000000000, 0.000000000000000000, -1.000000000000000000 ) ) ;
#477 = DIRECTION ( 'NONE',  ( 0.000000000000000000, 0.000000000000000000, 1.000000000000000000 ) ) ;
#478 = ORIENTED_EDGE ( 'NONE', *, *, #312, .F. ) ;
#479 = DIRECTION ( 'NONE',  ( 0.000000000000000000, 1.000000000000000000, -0.000000000000000000 ) ) ;
#480 = ADVANCED_FACE ( 'NONE', ( #582 ), #238, .F. ) ;
#481 = APPROVAL ( #719, 'UNSPECIFIED' ) ;
#482 = LINE ( 'NONE', #281, #77 ) ;
#483 = VERTEX_POINT ( 'NONE', #858 ) ;
#484 = LINE ( 'NONE', #134, #780 ) ;
#485 = VECTOR ( 'NONE', #521, 1000.000000000000000 ) ;
#486 = CIRCLE ( 'NONE', #8, 5.000000000000004441 ) ;
#487 = EDGE_CURVE ( 'NONE', #252, #333, #656, .T. ) ;
#488 = FACE_OUTER_BOUND ( 'NONE', #658, .T. ) ;
#489 = EDGE_LOOP ( 'NONE', ( #82, #749 ) ) ;
#490 = ORIENTED_EDGE ( 'NONE', *, *, #568, .T. ) ;
#491 = DIRECTION ( 'NONE',  ( -0.000000000000000000, -1.000000000000000000, -0.000000000000000000 ) ) ;
#492 = EDGE_CURVE ( 'NONE', #67, #560, #145, .T. ) ;
#493 = ORIENTED_EDGE ( 'NONE', *, *, #335, .F. ) ;
#494 = ADVANCED_FACE ( 'NONE', ( #520 ), #645, .F. ) ;
#495 = DIRECTION ( 'NONE',  ( 0.000000000000000000, 0.000000000000000000, 1.000000000000000000 ) ) ;
#496 = CARTESIAN_POINT ( 'NONE',  ( -69.99999999999998579, 3.000000000000000000, -77.50000000000002842 ) ) ;
#497 = EDGE_LOOP ( 'NONE', ( #594, #746, #260, #542 ) ) ;
#498 = ORIENTED_EDGE ( 'NONE', *, *, #254, .T. ) ;
#499 = EDGE_CURVE ( 'NONE', #419, #67, #513, .T. ) ;
#500 = LINE ( 'NONE', #778, #866 ) ;
#501 = CYLINDRICAL_SURFACE ( 'NONE', #822, 2.750000000000002665 ) ;
#502 = VECTOR ( 'NONE', #18, 1000.000000000000000 ) ;
#503 = AXIS2_PLACEMENT_3D ( 'NONE', #854, #227, #510 ) ;
#504 = EDGE_LOOP ( 'NONE', ( #390, #71, #816, #158 ) ) ;
#505 = PRODUCT_DEFINITION_SHAPE ( 'NONE', 'NONE',  #202 ) ;
#506 = CARTESIAN_POINT ( 'NONE',  ( 6.746146851020920072E-15, 15.00000000000000000, 87.50000000000004263 ) ) ;
#507 = CARTESIAN_POINT ( 'NONE',  ( -69.99999999999998579, 2.999999999999999112, -77.50000000000002842 ) ) ;
#508 = ORIENTED_EDGE ( 'NONE', *, *, #299, .T. ) ;
#509 = APPLICATION_PROTOCOL_DEFINITION ( 'international standard', 'config_control_design', 1994, #641 ) ;
#510 = DIRECTION ( 'NONE',  ( 0.000000000000000000, 0.000000000000000000, 1.000000000000000000 ) ) ;
#511 = DIRECTION ( 'NONE',  ( -0.000000000000000000, -1.000000000000000000, -0.000000000000000000 ) ) ;
#512 = VERTEX_POINT ( 'NONE', #162 ) ;
#513 = LINE ( 'NONE', #168, #834 ) ;
#514 = ADVANCED_FACE ( 'NONE', ( #29, #715 ), #730, .T. ) ;
#515 = CARTESIAN_POINT ( 'NONE',  ( -90.00000000000000000, 3.000000000000000000, 87.50000000000005684 ) ) ;
#516 = AXIS2_PLACEMENT_3D ( 'NONE', #530, #233, #731 ) ;
#517 = ORIENTED_EDGE ( 'NONE', *, *, #535, .T. ) ;
#518 = CC_DESIGN_APPROVAL ( #481, ( #551 ) ) ;
#519 = PERSON_AND_ORGANIZATION ( #364, #342 ) ;
#520 = FACE_OUTER_BOUND ( 'NONE', #527, .T. ) ;
#521 = DIRECTION ( 'NONE',  ( 7.930164461608259947E-17, 0.000000000000000000, -1.000000000000000000 ) ) ;
#522 = VERTEX_POINT ( 'NONE', #304 ) ;
#523 = EDGE_CURVE ( 'NONE', #2, #852, #340, .T. ) ;
#524 = PRODUCT_RELATED_PRODUCT_CATEGORY ( 'detail', '', ( #28 ) ) ;
#525 = CARTESIAN_POINT ( 'NONE',  ( -69.99999999999998579, 3.000000000000000000, -77.50000000000002842 ) ) ;
#526 = CARTESIAN_POINT ( 'NONE',  ( 69.99999999999998579, 20.00000000000000000, -77.50000000000002842 ) ) ;
#527 = EDGE_LOOP ( 'NONE', ( #344, #89, #302, #589 ) ) ;
#528 = EDGE_CURVE ( 'NONE', #58, #317, #263, .T. ) ;
#529 = FACE_OUTER_BOUND ( 'NONE', #423, .T. ) ;
#530 = CARTESIAN_POINT ( 'NONE',  ( -69.99999999999998579, 2.999999999999999112, 77.50000000000002842 ) ) ;
#531 = ORIENTED_EDGE ( 'NONE', *, *, #156, .F. ) ;
#532 = VECTOR ( 'NONE', #380, 1000.000000000000000 ) ;
#533 = VECTOR ( 'NONE', #232, 1000.000000000000000 ) ;
#534 = CIRCLE ( 'NONE', #369, 5.000000000000004441 ) ;
#535 = EDGE_CURVE ( 'NONE', #286, #483, #868, .T. ) ;
#536 = FACE_OUTER_BOUND ( 'NONE', #229, .T. ) ;
#537 = CARTESIAN_POINT ( 'NONE',  ( 69.99999999999998579, 3.000000000000000000, 77.50000000000002842 ) ) ;
#538 = EDGE_LOOP ( 'NONE', ( #217, #113, #100, #681, #245 ) ) ;
#539 = DIRECTION ( 'NONE',  ( -0.000000000000000000, -1.000000000000000000, -0.000000000000000000 ) ) ;
#540 = EDGE_CURVE ( 'NONE', #270, #328, #382, .T. ) ;
#541 = CARTESIAN_POINT ( 'NONE',  ( 69.99999999999998579, 20.00000000000000000, 77.50000000000002842 ) ) ;
#542 = ORIENTED_EDGE ( 'NONE', *, *, #499, .F. ) ;
#543 = DIRECTION ( 'NONE',  ( -0.000000000000000000, -1.000000000000000000, -0.000000000000000000 ) ) ;
#544 = FACE_OUTER_BOUND ( 'NONE', #43, .T. ) ;
#545 = EDGE_CURVE ( 'NONE', #512, #803, #222, .T. ) ;
#546 = EDGE_LOOP ( 'NONE', ( #832, #829, #184, #861, #758 ) ) ;
#547 = VECTOR ( 'NONE', #81, 1000.000000000000000 ) ;
#548 = AXIS2_PLACEMENT_3D ( 'NONE', #638, #836, #559 ) ;
#549 = CARTESIAN_POINT ( 'NONE',  ( -69.99999999999998579, 3.000000000000000000, 77.50000000000002842 ) ) ;
#550 = AXIS2_PLACEMENT_3D ( 'NONE', #720, #151, #433 ) ;
#551 = SECURITY_CLASSIFICATION ( '', '', #787 ) ;
#552 = CARTESIAN_POINT ( 'NONE',  ( 6.360652745248296361E-15, 20.00000000000000000, 82.50000000000002842 ) ) ;
#553 = ORIENTED_EDGE ( 'NONE', *, *, #108, .T. ) ;
#554 = EDGE_CURVE ( 'NONE', #252, #800, #722, .T. ) ;
#555 = FACE_OUTER_BOUND ( 'NONE', #465, .T. ) ;
#556 = CARTESIAN_POINT ( 'NONE',  ( -69.99999999999998579, 20.00000000000000000, -82.50000000000002842 ) ) ;
#557 = VERTEX_POINT ( 'NONE', #87 ) ;
#558 = DIRECTION ( 'NONE',  ( -0.000000000000000000, -1.000000000000000000, 0.000000000000000000 ) ) ;
#559 = DIRECTION ( 'NONE',  ( 0.000000000000000000, 0.000000000000000000, -1.000000000000000000 ) ) ;
#560 = VERTEX_POINT ( 'NONE', #365 ) ;
#561 = VECTOR ( 'NONE', #753, 1000.000000000000000 ) ;
#562 = AXIS2_PLACEMENT_3D ( 'NONE', #391, #881, #817 ) ;
#563 = CARTESIAN_POINT ( 'NONE',  ( -6.746146851020914550E-15, 0.000000000000000000, -87.49999999999997158 ) ) ;
#564 = LOCAL_TIME ( 18, 40, 49.00000000000000000, #230 ) ;
#565 = VERTEX_POINT ( 'NONE', #295 ) ;
#566 = DIRECTION ( 'NONE',  ( 0.000000000000000000, 1.000000000000000000, -0.000000000000000000 ) ) ;
#567 = FACE_OUTER_BOUND ( 'NONE', #826, .T. ) ;
#568 = EDGE_CURVE ( 'NONE', #522, #483, #424, .T. ) ;
#569 = ORIENTED_EDGE ( 'NONE', *, *, #469, .F. ) ;
#570 = ORIENTED_EDGE ( 'NONE', *, *, #492, .T. ) ;
#571 = DIRECTION ( 'NONE',  ( 0.000000000000000000, 0.000000000000000000, 1.000000000000000000 ) ) ;
#572 = CARTESIAN_POINT ( 'NONE',  ( 69.99999999999998579, 20.00000000000000000, -72.50000000000002842 ) ) ;
#573 = ORIENTED_EDGE ( 'NONE', *, *, #15, .F. ) ;
#574 = ORIENTED_EDGE ( 'NONE', *, *, #661, .T. ) ;
#575 = COORDINATED_UNIVERSAL_TIME_OFFSET ( 1, 0, .AHEAD. ) ;
#576 = CARTESIAN_POINT ( 'NONE',  ( 69.99999999999998579, 20.00000000000000000, 72.50000000000002842 ) ) ;
#577 = CIRCLE ( 'NONE', #308, 5.000000000000004441 ) ;
#578 = VECTOR ( 'NONE', #539, 1000.000000000000000 ) ;
#579 = VERTEX_POINT ( 'NONE', #789 ) ;
#580 = VECTOR ( 'NONE', #693, 1000.000000000000000 ) ;
#581 = APPROVAL_STATUS ( 'not_yet_approved' ) ;
#582 = FACE_OUTER_BOUND ( 'NONE', #200, .T. ) ;
#583 = FACE_OUTER_BOUND ( 'NONE', #504, .T. ) ;
#584 = VERTEX_POINT ( 'NONE', #93 ) ;
#585 = EDGE_CURVE ( 'NONE', #557, #512, #107, .T. ) ;
#586 = LINE ( 'NONE', #246, #619 ) ;
#587 = DIRECTION ( 'NONE',  ( -0.000000000000000000, -1.000000000000000000, 0.000000000000000000 ) ) ;
#588 = ADVANCED_BREP_SHAPE_REPRESENTATION ( 'stolik', ( #73, #425 ), #383 ) ;
#589 = ORIENTED_EDGE ( 'NONE', *, *, #712, .F. ) ;
#590 = DATE_AND_TIME ( #443, #621 ) ;
#591 = DIRECTION ( 'NONE',  ( 0.000000000000000000, 1.000000000000000000, -0.000000000000000000 ) ) ;
#592 = EDGE_CURVE ( 'NONE', #234, #636, #586, .T. ) ;
#593 = CYLINDRICAL_SURFACE ( 'NONE', #833, 5.000000000000004441 ) ;
#594 = ORIENTED_EDGE ( 'NONE', *, *, #122, .F. ) ;
#595 = DIRECTION ( 'NONE',  ( -0.000000000000000000, -1.000000000000000000, 0.000000000000000000 ) ) ;
#596 = DIRECTION ( 'NONE',  ( -0.000000000000000000, -1.000000000000000000, 0.000000000000000000 ) ) ;
#597 = EDGE_CURVE ( 'NONE', #837, #277, #324, .T. ) ;
#598 = ORIENTED_EDGE ( 'NONE', *, *, #280, .F. ) ;
#599 = PLANE ( 'NONE',  #606 ) ;
#600 = CARTESIAN_POINT ( 'NONE',  ( 69.99999999999998579, 3.000000000000000000, 74.75000000000002842 ) ) ;
#601 = ORIENTED_EDGE ( 'NONE', *, *, #811, .T. ) ;
#602 = CARTESIAN_POINT ( 'NONE',  ( -69.99999999999998579, 0.000000000000000000, 77.50000000000002842 ) ) ;
#603 = FACE_BOUND ( 'NONE', #283, .T. ) ;
#604 = VERTEX_POINT ( 'NONE', #810 ) ;
#605 = AXIS2_PLACEMENT_3D ( 'NONE', #228, #180, #99 ) ;
#606 = AXIS2_PLACEMENT_3D ( 'NONE', #375, #591, #173 ) ;
#607 = ADVANCED_FACE ( 'NONE', ( #536 ), #872, .F. ) ;
#608 = CARTESIAN_POINT ( 'NONE',  ( 69.99999999999998579, 3.000000000000000000, 80.25000000000002842 ) ) ;
#609 = DIRECTION ( 'NONE',  ( -7.930164461608259947E-17, 0.000000000000000000, 1.000000000000000000 ) ) ;
#610 = ORIENTED_EDGE ( 'NONE', *, *, #545, .T. ) ;
#611 = LINE ( 'NONE', #743, #21 ) ;
#612 = EDGE_CURVE ( 'NONE', #196, #277, #395, .T. ) ;
#613 = DIRECTION ( 'NONE',  ( 0.000000000000000000, 0.000000000000000000, -1.000000000000000000 ) ) ;
#614 = ORIENTED_EDGE ( 'NONE', *, *, #305, .T. ) ;
#615 = DIRECTION ( 'NONE',  ( 0.000000000000000000, 0.000000000000000000, 1.000000000000000000 ) ) ;
#616 = DIRECTION ( 'NONE',  ( 7.709882115452476934E-17, -0.000000000000000000, 1.000000000000000000 ) ) ;
#617 = VERTEX_POINT ( 'NONE', #608 ) ;
#618 = AXIS2_PLACEMENT_3D ( 'NONE', #496, #138, #353 ) ;
#619 = VECTOR ( 'NONE', #466, 1000.000000000000000 ) ;
#620 = CARTESIAN_POINT ( 'NONE',  ( 69.99999999999998579, 2.999999999999999112, -77.50000000000002842 ) ) ;
#621 = LOCAL_TIME ( 18, 40, 49.00000000000000000, #303 ) ;
#622 = LINE ( 'NONE', #269, #394 ) ;
#623 = ORIENTED_EDGE ( 'NONE', *, *, #661, .F. ) ;
#624 = EDGE_CURVE ( 'NONE', #462, #328, #178, .T. ) ;
#625 = LINE ( 'NONE', #211, #580 ) ;
#626 = CARTESIAN_POINT ( 'NONE',  ( -69.99999999999998579, 0.000000000000000000, 74.75000000000002842 ) ) ;
#627 = ORIENTED_EDGE ( 'NONE', *, *, #701, .F. ) ;
#628 = FACE_OUTER_BOUND ( 'NONE', #205, .T. ) ;
#629 = DIRECTION ( 'NONE',  ( 0.000000000000000000, 0.000000000000000000, 1.000000000000000000 ) ) ;
#630 = ORIENTED_EDGE ( 'NONE', *, *, #108, .F. ) ;
#631 = PLANE ( 'NONE',  #823 ) ;
#632 = AXIS2_PLACEMENT_3D ( 'NONE', #869, #174, #372 ) ;
#633 = ADVANCED_FACE ( 'NONE', ( #111, #876 ), #123, .T. ) ;
#634 = VECTOR ( 'NONE', #702, 1000.000000000000000 ) ;
#635 = CARTESIAN_POINT ( 'NONE',  ( -69.99999999999998579, 3.000000000000000000, 80.25000000000002842 ) ) ;
#636 = VERTEX_POINT ( 'NONE', #126 ) ;
#637 = CARTESIAN_POINT ( 'NONE',  ( 69.99999999999998579, 3.000000000000000000, -74.75000000000002842 ) ) ;
#638 = CARTESIAN_POINT ( 'NONE',  ( -69.99999999999998579, 20.00000000000000000, 77.50000000000002842 ) ) ;
#639 = CARTESIAN_POINT ( 'NONE',  ( 69.99999999999998579, 20.00000000000000000, 82.50000000000002842 ) ) ;
#640 = PERSON_AND_ORGANIZATION ( #364, #342 ) ;
#641 = APPLICATION_CONTEXT ( 'configuration controlled 3d designs of mechanical parts and assemblies' ) ;
#642 = CARTESIAN_POINT ( 'NONE',  ( -69.99999999999998579, 20.00000000000000000, -77.50000000000002842 ) ) ;
#643 = DIRECTION ( 'NONE',  ( -0.000000000000000000, -1.000000000000000000, 0.000000000000000000 ) ) ;
#644 = EDGE_LOOP ( 'NONE', ( #273, #290, #435, #742 ) ) ;
#645 = CYLINDRICAL_SURFACE ( 'NONE', #647, 2.750000000000002665 ) ;
#646 = CIRCLE ( 'NONE', #249, 5.000000000000004441 ) ;
#647 = AXIS2_PLACEMENT_3D ( 'NONE', #525, #384, #453 ) ;
#648 = FACE_BOUND ( 'NONE', #363, .T. ) ;
#649 = LOCAL_TIME ( 18, 40, 49.00000000000000000, #374 ) ;
#650 = EDGE_CURVE ( 'NONE', #214, #213, #182, .T. ) ;
#651 = SHAPE_DEFINITION_REPRESENTATION ( #505, #588 ) ;
#652 = DIRECTION ( 'NONE',  ( 1.000000000000000000, -0.000000000000000000, -0.000000000000000000 ) ) ;
#653 = CARTESIAN_POINT ( 'NONE',  ( -69.99999999999998579, 20.00000000000000000, 82.50000000000002842 ) ) ;
#654 = ORIENTED_EDGE ( 'NONE', *, *, #683, .T. ) ;
#655 = CC_DESIGN_PERSON_AND_ORGANIZATION_ASSIGNMENT ( #519, #101, ( #202 ) ) ;
#656 = LINE ( 'NONE', #862, #533 ) ;
#657 = CYLINDRICAL_SURFACE ( 'NONE', #291, 2.750000000000002665 ) ;
#658 = EDGE_LOOP ( 'NONE', ( #412, #718, #76, #704, #381, #55 ) ) ;
#659 = PERSON_AND_ORGANIZATION ( #364, #342 ) ;
#660 = DIRECTION ( 'NONE',  ( 0.000000000000000000, 1.000000000000000000, -0.000000000000000000 ) ) ;
#661 = EDGE_CURVE ( 'NONE', #377, #446, #486, .T. ) ;
#662 = DIRECTION ( 'NONE',  ( 0.000000000000000000, 0.000000000000000000, -1.000000000000000000 ) ) ;
#663 = AXIS2_PLACEMENT_3D ( 'NONE', #792, #726, #98 ) ;
#664 = ORIENTED_EDGE ( 'NONE', *, *, #68, .T. ) ;
#665 = APPROVAL_PERSON_ORGANIZATION ( #847, #788, #853 ) ;
#666 = DIRECTION ( 'NONE',  ( 0.000000000000000000, 1.000000000000000000, -0.000000000000000000 ) ) ;
#667 = CC_DESIGN_DATE_AND_TIME_ASSIGNMENT ( #172, #288, ( #202 ) ) ;
#668 = CYLINDRICAL_SURFACE ( 'NONE', #35, 5.000000000000004441 ) ;
#669 = ORIENTED_EDGE ( 'NONE', *, *, #811, .F. ) ;
#670 = DIRECTION ( 'NONE',  ( 0.000000000000000000, 1.000000000000000000, -0.000000000000000000 ) ) ;
#671 = CARTESIAN_POINT ( 'NONE',  ( -69.99999999999998579, 20.00000000000000000, 77.50000000000002842 ) ) ;
#672 = VERTEX_POINT ( 'NONE', #53 ) ;
#673 = CYLINDRICAL_SURFACE ( 'NONE', #562, 2.750000000000002665 ) ;
#674 = CARTESIAN_POINT ( 'NONE',  ( -89.99999999999998579, 3.000000000000000000, -7.137148015447432423E-15 ) ) ;
#675 = ORIENTED_EDGE ( 'NONE', *, *, #897, .T. ) ;
#676 = AXIS2_PLACEMENT_3D ( 'NONE', #131, #275, #349 ) ;
#677 = AXIS2_PLACEMENT_3D ( 'NONE', #752, #146, #773 ) ;
#678 = PRODUCT_DEFINITION_FORMATION_WITH_SPECIFIED_SOURCE ( 'ANY', '', #28, .NOT_KNOWN. ) ;
#679 = CARTESIAN_POINT ( 'NONE',  ( 69.99999999999998579, 20.00000000000000000, -72.50000000000002842 ) ) ;
#680 = DIRECTION ( 'NONE',  ( -0.000000000000000000, -1.000000000000000000, -0.000000000000000000 ) ) ;
#681 = ORIENTED_EDGE ( 'NONE', *, *, #460, .T. ) ;
#682 = DIRECTION ( 'NONE',  ( 0.000000000000000000, 0.000000000000000000, -1.000000000000000000 ) ) ;
#683 = EDGE_CURVE ( 'NONE', #557, #837, #387, .T. ) ;
#684 = FACE_BOUND ( 'NONE', #12, .T. ) ;
#685 = EDGE_LOOP ( 'NONE', ( #241, #337, #669, #531 ) ) ;
#686 = CARTESIAN_POINT ( 'NONE',  ( -69.99999999999998579, 0.000000000000000000, -77.50000000000002842 ) ) ;
#687 = EDGE_CURVE ( 'NONE', #419, #584, #692, .T. ) ;
#688 = PLANE ( 'NONE',  #7 ) ;
#689 = ORIENTED_EDGE ( 'NONE', *, *, #597, .F. ) ;
#690 = CIRCLE ( 'NONE', #805, 2.750000000000002665 ) ;
#691 = CIRCLE ( 'NONE', #262, 2.750000000000002665 ) ;
#692 = CIRCLE ( 'NONE', #292, 2.750000000000002665 ) ;
#693 = DIRECTION ( 'NONE',  ( -0.000000000000000000, -1.000000000000000000, -0.000000000000000000 ) ) ;
#694 = FACE_OUTER_BOUND ( 'NONE', #713, .T. ) ;
#695 = EDGE_CURVE ( 'NONE', #286, #887, #325, .T. ) ;
#696 = ORIENTED_EDGE ( 'NONE', *, *, #687, .F. ) ;
#697 = DESIGN_CONTEXT ( 'detailed design', #359, 'design' ) ;
#698 = DIRECTION ( 'NONE',  ( 7.709882115452472003E-17, 0.000000000000000000, 1.000000000000000000 ) ) ;
#699 = ORIENTED_EDGE ( 'NONE', *, *, #777, .F. ) ;
#700 = ORIENTED_EDGE ( 'NONE', *, *, #460, .F. ) ;
#701 = EDGE_CURVE ( 'NONE', #565, #333, #879, .T. ) ;
#702 = DIRECTION ( 'NONE',  ( 0.000000000000000000, 0.000000000000000000, -1.000000000000000000 ) ) ;
#703 = FACE_OUTER_BOUND ( 'NONE', #125, .T. ) ;
#704 = ORIENTED_EDGE ( 'NONE', *, *, #545, .F. ) ;
#705 = CARTESIAN_POINT ( 'NONE',  ( -90.00000000000000000, 15.00000000000000000, 87.50000000000005684 ) ) ;
#706 = VECTOR ( 'NONE', #41, 1000.000000000000000 ) ;
#707 = AXIS2_PLACEMENT_3D ( 'NONE', #418, #411, #698 ) ;
#708 = CARTESIAN_POINT ( 'NONE',  ( 69.99999999999998579, 0.000000000000000000, 74.75000000000002842 ) ) ;
#709 = ORIENTED_EDGE ( 'NONE', *, *, #280, .T. ) ;
#710 = LINE ( 'NONE', #637, #326 ) ;
#711 = CARTESIAN_POINT ( 'NONE',  ( -69.99999999999998579, 3.000000000000000000, -77.50000000000002842 ) ) ;
#712 = EDGE_CURVE ( 'NONE', #604, #170, #611, .T. ) ;
#713 = EDGE_LOOP ( 'NONE', ( #314, #809, #451, #20 ) ) ;
#714 = DATE_AND_TIME ( #370, #649 ) ;
#715 = FACE_BOUND ( 'NONE', #121, .T. ) ;
#716 = EDGE_CURVE ( 'NONE', #213, #170, #133, .T. ) ;
#717 = EDGE_LOOP ( 'NONE', ( #402, #819, #256, #791 ) ) ;
#718 = ORIENTED_EDGE ( 'NONE', *, *, #367, .F. ) ;
#719 = APPROVAL_STATUS ( 'not_yet_approved' ) ;
#720 = CARTESIAN_POINT ( 'NONE',  ( -69.99999999999998579, 3.000000000000000000, 77.50000000000002842 ) ) ;
#721 = VECTOR ( 'NONE', #680, 1000.000000000000000 ) ;
#722 = CIRCLE ( 'NONE', #550, 2.750000000000002665 ) ;
#723 = CARTESIAN_POINT ( 'NONE',  ( 69.99999999999998579, 3.000000000000000000, 77.50000000000002842 ) ) ;
#724 = VERTEX_POINT ( 'NONE', #330 ) ;
#725 = CALENDAR_DATE ( 2026, 24, 2 ) ;
#726 = DIRECTION ( 'NONE',  ( -0.000000000000000000, -1.000000000000000000, -0.000000000000000000 ) ) ;
#727 = DIRECTION ( 'NONE',  ( -0.000000000000000000, -1.000000000000000000, -0.000000000000000000 ) ) ;
#728 = ORIENTED_EDGE ( 'NONE', *, *, #568, .F. ) ;
#729 = PERSON_AND_ORGANIZATION_ROLE ( 'creator' ) ;
#730 = PLANE ( 'NONE',  #779 ) ;
#731 = DIRECTION ( 'NONE',  ( 0.000000000000000000, 0.000000000000000000, 1.000000000000000000 ) ) ;
#732 = ORIENTED_EDGE ( 'NONE', *, *, #523, .F. ) ;
#733 = DIRECTION ( 'NONE',  ( 0.000000000000000000, 0.000000000000000000, 1.000000000000000000 ) ) ;
#734 = ADVANCED_FACE ( 'NONE', ( #529 ), #114, .F. ) ;
#735 = CARTESIAN_POINT ( 'NONE',  ( 0.000000000000000000, 3.000000000000000000, 0.000000000000000000 ) ) ;
#736 = FACE_OUTER_BOUND ( 'NONE', #39, .T. ) ;
#737 = VECTOR ( 'NONE', #444, 1000.000000000000000 ) ;
#738 = EDGE_LOOP ( 'NONE', ( #840, #6, #136, #31 ) ) ;
#739 = CIRCLE ( 'NONE', #92, 5.000000000000004441 ) ;
#740 = FACE_OUTER_BOUND ( 'NONE', #497, .T. ) ;
#741 = FACE_OUTER_BOUND ( 'NONE', #224, .T. ) ;
#742 = ORIENTED_EDGE ( 'NONE', *, *, #875, .F. ) ;
#743 = CARTESIAN_POINT ( 'NONE',  ( -69.99999999999998579, 3.000000000000000000, -80.25000000000002842 ) ) ;
#744 = CARTESIAN_POINT ( 'NONE',  ( -69.99999999999998579, 20.00000000000000000, -77.50000000000002842 ) ) ;
#745 = ADVANCED_FACE ( 'NONE', ( #740 ), #673, .F. ) ;
#746 = ORIENTED_EDGE ( 'NONE', *, *, #864, .T. ) ;
#747 = DIRECTION ( 'NONE',  ( 0.000000000000000000, 0.000000000000000000, -1.000000000000000000 ) ) ;
#748 = DIRECTION ( 'NONE',  ( -0.000000000000000000, -1.000000000000000000, -0.000000000000000000 ) ) ;
#749 = ORIENTED_EDGE ( 'NONE', *, *, #3, .T. ) ;
#750 = VECTOR ( 'NONE', #316, 1000.000000000000000 ) ;
#751 = CIRCLE ( 'NONE', #147, 2.750000000000002665 ) ;
#752 = CARTESIAN_POINT ( 'NONE',  ( 69.99999999999998579, 3.000000000000000000, 77.50000000000002842 ) ) ;
#753 = DIRECTION ( 'NONE',  ( -0.000000000000000000, -1.000000000000000000, -0.000000000000000000 ) ) ;
#754 = ORIENTED_EDGE ( 'NONE', *, *, #597, .T. ) ;
#755 = ADVANCED_FACE ( 'NONE', ( #189 ), #471, .F. ) ;
#756 = CARTESIAN_POINT ( 'NONE',  ( -69.99999999999998579, 20.00000000000000000, -77.50000000000002842 ) ) ;
#757 = DIRECTION ( 'NONE',  ( -0.000000000000000000, -1.000000000000000000, -0.000000000000000000 ) ) ;
#758 = ORIENTED_EDGE ( 'NONE', *, *, #231, .F. ) ;
#759 = DIRECTION ( 'NONE',  ( 0.000000000000000000, 0.000000000000000000, -1.000000000000000000 ) ) ;
#760 = CC_DESIGN_PERSON_AND_ORGANIZATION_ASSIGNMENT ( #436, #432, ( #551 ) ) ;
#761 = CARTESIAN_POINT ( 'NONE',  ( 69.99999999999998579, 2.999999999999999112, -72.50000000000002842 ) ) ;
#762 = ORIENTED_EDGE ( 'NONE', *, *, #716, .F. ) ;
#763 = CIRCLE ( 'NONE', #820, 2.750000000000002665 ) ;
#764 = AXIS2_PLACEMENT_3D ( 'NONE', #257, #888, #476 ) ;
#765 = CARTESIAN_POINT ( 'NONE',  ( 0.000000000000000000, 3.000000000000000000, 0.000000000000000000 ) ) ;
#766 = CYLINDRICAL_SURFACE ( 'NONE', #36, 5.000000000000004441 ) ;
#767 = ORIENTED_EDGE ( 'NONE', *, *, #52, .T. ) ;
#768 = UNCERTAINTY_MEASURE_WITH_UNIT (LENGTH_MEASURE( 1.000000000000000082E-05 ), #69, 'distance_accuracy_value', 'NONE');
#769 = ORIENTED_EDGE ( 'NONE', *, *, #52, .F. ) ;
#770 =( NAMED_UNIT ( * ) SI_UNIT ( $, .STERADIAN. ) SOLID_ANGLE_UNIT ( ) );
#771 = PLANE ( 'NONE',  #676 ) ;
#772 = ORIENTED_EDGE ( 'NONE', *, *, #528, .T. ) ;
#773 = DIRECTION ( 'NONE',  ( 0.000000000000000000, 0.000000000000000000, -1.000000000000000000 ) ) ;
#774 = DIRECTION ( 'NONE',  ( -0.000000000000000000, -1.000000000000000000, -0.000000000000000000 ) ) ;
#775 = EDGE_LOOP ( 'NONE', ( #664, #474 ) ) ;
#776 = CIRCLE ( 'NONE', #218, 5.000000000000004441 ) ;
#777 = EDGE_CURVE ( 'NONE', #800, #252, #161, .T. ) ;
#778 = CARTESIAN_POINT ( 'NONE',  ( 6.360652745248296361E-15, 20.00000000000000000, 82.50000000000002842 ) ) ;
#779 = AXIS2_PLACEMENT_3D ( 'NONE', #735, #102, #315 ) ;
#780 = VECTOR ( 'NONE', #9, 1000.000000000000000 ) ;
#781 = LINE ( 'NONE', #576, #848 ) ;
#782 = ORIENTED_EDGE ( 'NONE', *, *, #42, .T. ) ;
#783 = PERSON_AND_ORGANIZATION ( #364, #342 ) ;
#784 = ADVANCED_FACE ( 'NONE', ( #555 ), #4, .F. ) ;
#785 = DIRECTION ( 'NONE',  ( -1.000000000000000000, 0.000000000000000000, 7.709882115452476934E-17 ) ) ;
#786 = ORIENTED_EDGE ( 'NONE', *, *, #15, .T. ) ;
#787 = SECURITY_CLASSIFICATION_LEVEL ( 'unclassified' ) ;
#788 = APPROVAL ( #452, 'UNSPECIFIED' ) ;
#789 = CARTESIAN_POINT ( 'NONE',  ( 69.99999999999998579, 20.00000000000000000, -82.50000000000002842 ) ) ;
#790 = CYLINDRICAL_SURFACE ( 'NONE', #456, 2.750000000000002665 ) ;
#791 = ORIENTED_EDGE ( 'NONE', *, *, #84, .F. ) ;
#792 = CARTESIAN_POINT ( 'NONE',  ( 69.99999999999998579, 3.000000000000000000, -77.50000000000002842 ) ) ;
#793 = AXIS2_PLACEMENT_3D ( 'NONE', #886, #616, #320 ) ;
#794 = VECTOR ( 'NONE', #338, 1000.000000000000000 ) ;
#795 = FACE_OUTER_BOUND ( 'NONE', #685, .T. ) ;
#796 = EDGE_CURVE ( 'NONE', #234, #104, #74, .T. ) ;
#797 = ORIENTED_EDGE ( 'NONE', *, *, #701, .T. ) ;
#798 = CARTESIAN_POINT ( 'NONE',  ( 69.99999999999998579, 0.000000000000000000, -77.50000000000002842 ) ) ;
#799 = DIRECTION ( 'NONE',  ( 0.000000000000000000, 0.000000000000000000, 1.000000000000000000 ) ) ;
#800 = VERTEX_POINT ( 'NONE', #827 ) ;
#801 = PERSON_AND_ORGANIZATION_ROLE ( 'design_owner' ) ;
#802 = DIRECTION ( 'NONE',  ( 0.000000000000000000, 0.000000000000000000, 1.000000000000000000 ) ) ;
#803 = VERTEX_POINT ( 'NONE', #705 ) ;
#804 = CARTESIAN_POINT ( 'NONE',  ( -89.99999999999998579, 20.00000000000000000, -7.137148015447432423E-15 ) ) ;
#805 = AXIS2_PLACEMENT_3D ( 'NONE', #86, #643, #223 ) ;
#806 = AXIS2_PLACEMENT_3D ( 'NONE', #507, #153, #434 ) ;
#807 = CARTESIAN_POINT ( 'NONE',  ( 69.99999999999998579, 0.000000000000000000, -80.25000000000002842 ) ) ;
#808 = AXIS2_PLACEMENT_3D ( 'NONE', #756, #185, #463 ) ;
#809 = ORIENTED_EDGE ( 'NONE', *, *, #322, .F. ) ;
#810 = CARTESIAN_POINT ( 'NONE',  ( -69.99999999999998579, 3.000000000000000000, -80.25000000000002842 ) ) ;
#811 = EDGE_CURVE ( 'NONE', #317, #58, #751, .T. ) ;
#812 = DIRECTION ( 'NONE',  ( 0.000000000000000000, 1.000000000000000000, -0.000000000000000000 ) ) ;
#813 = EDGE_LOOP ( 'NONE', ( #782, #493, #455, #149 ) ) ;
#814 = DIRECTION ( 'NONE',  ( 0.000000000000000000, 0.000000000000000000, 1.000000000000000000 ) ) ;
#815 = LINE ( 'NONE', #467, #204 ) ;
#816 = ORIENTED_EDGE ( 'NONE', *, *, #305, .F. ) ;
#817 = DIRECTION ( 'NONE',  ( 0.000000000000000000, 0.000000000000000000, -1.000000000000000000 ) ) ;
#818 = DIRECTION ( 'NONE',  ( 0.000000000000000000, 0.000000000000000000, 1.000000000000000000 ) ) ;
#819 = ORIENTED_EDGE ( 'NONE', *, *, #624, .T. ) ;
#820 = AXIS2_PLACEMENT_3D ( 'NONE', #120, #397, #629 ) ;
#821 = ADVANCED_FACE ( 'NONE', ( #841 ), #356, .F. ) ;
#822 = AXIS2_PLACEMENT_3D ( 'NONE', #711, #774, #85 ) ;
#823 = AXIS2_PLACEMENT_3D ( 'NONE', #765, #420, #268 ) ;
#824 = DIRECTION ( 'NONE',  ( -0.000000000000000000, -1.000000000000000000, 0.000000000000000000 ) ) ;
#825 = CARTESIAN_POINT ( 'NONE',  ( 69.99999999999998579, 2.999999999999999112, 77.50000000000002842 ) ) ;
#826 = EDGE_LOOP ( 'NONE', ( #478, #610, #165, #282 ) ) ;
#827 = CARTESIAN_POINT ( 'NONE',  ( -69.99999999999998579, 3.000000000000000000, 80.25000000000002842 ) ) ;
#828 = DIRECTION ( 'NONE',  ( -0.000000000000000000, -1.000000000000000000, -0.000000000000000000 ) ) ;
#829 = ORIENTED_EDGE ( 'NONE', *, *, #585, .T. ) ;
#830 = CARTESIAN_POINT ( 'NONE',  ( -69.99999999999998579, 3.000000000000000000, 77.50000000000002842 ) ) ;
#831 = DIRECTION ( 'NONE',  ( -0.000000000000000000, -1.000000000000000000, -0.000000000000000000 ) ) ;
#832 = ORIENTED_EDGE ( 'NONE', *, *, #683, .F. ) ;
#833 = AXIS2_PLACEMENT_3D ( 'NONE', #526, #727, #163 ) ;
#834 = VECTOR ( 'NONE', #449, 1000.000000000000000 ) ;
#835 =( NAMED_UNIT ( * ) PLANE_ANGLE_UNIT ( ) SI_UNIT ( $, .RADIAN. ) );
#836 = DIRECTION ( 'NONE',  ( -0.000000000000000000, -1.000000000000000000, -0.000000000000000000 ) ) ;
#837 = VERTEX_POINT ( 'NONE', #345 ) ;
#838 = DIRECTION ( 'NONE',  ( -1.000000000000000000, 0.000000000000000000, 0.000000000000000000 ) ) ;
#839 = CARTESIAN_POINT ( 'NONE',  ( 6.360652745248296361E-15, 20.00000000000000000, 82.50000000000002842 ) ) ;
#840 = ORIENTED_EDGE ( 'NONE', *, *, #871, .F. ) ;
#841 = FACE_OUTER_BOUND ( 'NONE', #717, .T. ) ;
#842 = CARTESIAN_POINT ( 'NONE',  ( -69.99999999999998579, 20.00000000000000000, 77.50000000000002842 ) ) ;
#843 = ORIENTED_EDGE ( 'NONE', *, *, #523, .T. ) ;
#844 = ORIENTED_EDGE ( 'NONE', *, *, #254, .F. ) ;
#845 = EDGE_CURVE ( 'NONE', #462, #579, #534, .T. ) ;
#846 = CIRCLE ( 'NONE', #863, 5.000000000000004441 ) ;
#847 = PERSON_AND_ORGANIZATION ( #364, #342 ) ;
#848 = VECTOR ( 'NONE', #70, 1000.000000000000000 ) ;
#849 = CC_DESIGN_APPROVAL ( #788, ( #678 ) ) ;
#850 = DIRECTION ( 'NONE',  ( -0.000000000000000000, -1.000000000000000000, -0.000000000000000000 ) ) ;
#851 = ORIENTED_EDGE ( 'NONE', *, *, #140, .F. ) ;
#852 = VERTEX_POINT ( 'NONE', #215 ) ;
#853 = APPROVAL_ROLE ( '' ) ;
#854 = CARTESIAN_POINT ( 'NONE',  ( -69.99999999999998579, 2.999999999999999112, -77.50000000000002842 ) ) ;
#855 = DIRECTION ( 'NONE',  ( -0.000000000000000000, -1.000000000000000000, 0.000000000000000000 ) ) ;
#856 = ORIENTED_EDGE ( 'NONE', *, *, #535, .F. ) ;
#857 = APPLICATION_PROTOCOL_DEFINITION ( 'international standard', 'config_control_design', 1994, #359 ) ;
#858 = CARTESIAN_POINT ( 'NONE',  ( -69.99999999999998579, 2.999999999999999112, -82.50000000000002842 ) ) ;
#859 = EDGE_CURVE ( 'NONE', #2, #557, #500, .T. ) ;
#860 = DIRECTION ( 'NONE',  ( 0.000000000000000000, 0.000000000000000000, 1.000000000000000000 ) ) ;
#861 = ORIENTED_EDGE ( 'NONE', *, *, #796, .T. ) ;
#862 = CARTESIAN_POINT ( 'NONE',  ( -69.99999999999998579, 3.000000000000000000, 74.75000000000002842 ) ) ;
#863 = AXIS2_PLACEMENT_3D ( 'NONE', #825, #195, #818 ) ;
#864 = EDGE_CURVE ( 'NONE', #584, #560, #710, .T. ) ;
#865 = DIRECTION ( 'NONE',  ( -0.000000000000000000, -1.000000000000000000, 0.000000000000000000 ) ) ;
#866 = VECTOR ( 'NONE', #201, 1000.000000000000000 ) ;
#867 = ORIENTED_EDGE ( 'NONE', *, *, #130, .F. ) ;
#868 = LINE ( 'NONE', #300, #737 ) ;
#869 = CARTESIAN_POINT ( 'NONE',  ( 0.000000000000000000, 20.00000000000000000, 0.000000000000000000 ) ) ;
#870 = ORIENTED_EDGE ( 'NONE', *, *, #875, .T. ) ;
#871 = EDGE_CURVE ( 'NONE', #617, #58, #625, .T. ) ;
#872 = CYLINDRICAL_SURFACE ( 'NONE', #441, 2.750000000000002665 ) ;
#873 = CARTESIAN_POINT ( 'NONE',  ( -69.99999999999998579, 2.999999999999999112, 77.50000000000002842 ) ) ;
#874 = ORIENTED_EDGE ( 'NONE', *, *, #540, .T. ) ;
#875 = EDGE_CURVE ( 'NONE', #328, #270, #739, .T. ) ;
#876 = FACE_OUTER_BOUND ( 'NONE', #116, .T. ) ;
#877 = AXIS2_PLACEMENT_3D ( 'NONE', #11, #14, #208 ) ;
#878 = LINE ( 'NONE', #60, #561 ) ;
#879 = CIRCLE ( 'NONE', #310, 2.750000000000002665 ) ;
#880 = ORIENTED_EDGE ( 'NONE', *, *, #492, .F. ) ;
#881 = DIRECTION ( 'NONE',  ( -0.000000000000000000, -1.000000000000000000, -0.000000000000000000 ) ) ;
#882 = CARTESIAN_POINT ( 'NONE',  ( -69.99999999999998579, 3.000000000000000000, -74.75000000000002842 ) ) ;
#883 = ORIENTED_EDGE ( 'NONE', *, *, #267, .F. ) ;
#884 = DIRECTION ( 'NONE',  ( -0.000000000000000000, -1.000000000000000000, 0.000000000000000000 ) ) ;
#885 = ADVANCED_FACE ( 'NONE', ( #894 ), #348, .F. ) ;
#886 = CARTESIAN_POINT ( 'NONE',  ( -6.746146851020914550E-15, 3.000000000000000000, -87.49999999999997158 ) ) ;
#887 = VERTEX_POINT ( 'NONE', #141 ) ;
#888 = DIRECTION ( 'NONE',  ( -0.000000000000000000, -1.000000000000000000, -0.000000000000000000 ) ) ;
#889 = LINE ( 'NONE', #264, #721 ) ;
#890 = ADVANCED_FACE ( 'NONE', ( #628, #898 ), #631, .T. ) ;
#891 = CIRCLE ( 'NONE', #516, 5.000000000000004441 ) ;
#892 = ORIENTED_EDGE ( 'NONE', *, *, #351, .F. ) ;
#893 = VECTOR ( 'NONE', #785, 1000.000000000000000 ) ;
#894 = FACE_OUTER_BOUND ( 'NONE', #546, .T. ) ;
#895 = DIRECTION ( 'NONE',  ( 0.000000000000000000, 0.000000000000000000, 1.000000000000000000 ) ) ;
#896 = ORIENTED_EDGE ( 'NONE', *, *, #695, .F. ) ;
#897 = EDGE_CURVE ( 'NONE', #2, #446, #484, .T. ) ;
#898 = FACE_BOUND ( 'NONE', #406, .T. ) ;
ENDSEC;
END-ISO-10303-21;
