%TF.GenerationSoftware,KiCad,Pcbnew,9.0.0*%
%TF.CreationDate,2025-11-10T15:20:41+01:00*%
%TF.ProjectId,piezotesterV2.1,7069657a-6f74-4657-9374-657256322e31,rev?*%
%TF.SameCoordinates,Original*%
%TF.FileFunction,Soldermask,Bot*%
%TF.FilePolarity,Negative*%
%FSLAX46Y46*%
G04 Gerber Fmt 4.6, Leading zero omitted, Abs format (unit mm)*
G04 Created by KiCad (PCBNEW 9.0.0) date 2025-11-10 15:20:41*
%MOMM*%
%LPD*%
G01*
G04 APERTURE LIST*
%ADD10C,2.200000*%
%ADD11C,2.000000*%
%ADD12O,3.200000X3.200000*%
%ADD13R,3.200000X3.200000*%
%ADD14O,1.050000X1.500000*%
%ADD15R,1.050000X1.500000*%
%ADD16O,2.000000X1.905000*%
%ADD17R,2.000000X1.905000*%
%ADD18O,1.700000X1.700000*%
%ADD19R,1.700000X1.700000*%
%ADD20O,1.200000X2.000000*%
%ADD21R,1.200000X2.000000*%
%ADD22C,1.159000*%
%ADD23R,1.159000X1.159000*%
%ADD24C,1.600000*%
%ADD25R,1.600000X1.600000*%
%ADD26C,1.400000*%
%ADD27R,2.000000X2.000000*%
G04 APERTURE END LIST*
D10*
%TO.C,ADS2*%
X140960000Y-108690000D03*
X143500000Y-113770000D03*
X143500000Y-111230000D03*
X143500000Y-108690000D03*
X143500000Y-106150000D03*
X143500000Y-103610000D03*
X143500000Y-101070000D03*
D11*
X120640000Y-113770000D03*
X120640000Y-111230000D03*
X120640000Y-108690000D03*
X120640000Y-106150000D03*
X120640000Y-103610000D03*
X140960000Y-106150000D03*
X120640000Y-101070000D03*
%TD*%
D12*
%TO.C,D2*%
X86580000Y-69710000D03*
D13*
X86580000Y-84950000D03*
%TD*%
D14*
%TO.C,Q3*%
X92160000Y-87880000D03*
X93430000Y-87880000D03*
D15*
X94700000Y-87880000D03*
%TD*%
D16*
%TO.C,Q4*%
X96120000Y-74450000D03*
X96120000Y-76990000D03*
D17*
X96120000Y-79530000D03*
%TD*%
D18*
%TO.C,J8*%
X79515000Y-85645000D03*
D19*
X79515000Y-88185000D03*
%TD*%
D20*
%TO.C,U1*%
X154530000Y-91530000D03*
X151990000Y-91530000D03*
X149450000Y-91530000D03*
X146910000Y-91530000D03*
X144370000Y-91530000D03*
X141830000Y-91530000D03*
X139290000Y-91530000D03*
X136750000Y-91530000D03*
X134210000Y-91530000D03*
X131670000Y-91530000D03*
X129130000Y-91530000D03*
X126590000Y-91530000D03*
X124050000Y-91530000D03*
X121510000Y-91530000D03*
X118970000Y-91530000D03*
X116430000Y-91530000D03*
X113890000Y-91530000D03*
X111352720Y-91526320D03*
X108812720Y-91526320D03*
X108810000Y-66130000D03*
X111350000Y-66130000D03*
X113890000Y-66130000D03*
X116430000Y-66130000D03*
X118970000Y-66130000D03*
X121510000Y-66130000D03*
X124050000Y-66130000D03*
X126590000Y-66130000D03*
X129130000Y-66130000D03*
X131670000Y-66130000D03*
X134210000Y-66130000D03*
X136750000Y-66130000D03*
X139290000Y-66130000D03*
X141830000Y-66130000D03*
X144370000Y-66130000D03*
X146910000Y-66130000D03*
X149450000Y-66130000D03*
X151990000Y-66130000D03*
D21*
X154530000Y-66130000D03*
%TD*%
D22*
%TO.C,IC2*%
X137920000Y-136330000D03*
X137920000Y-133790000D03*
X137920000Y-131250000D03*
X137920000Y-128710000D03*
X145730000Y-128710000D03*
X145730000Y-131250000D03*
X145730000Y-133790000D03*
D23*
X145730000Y-136330000D03*
%TD*%
D19*
%TO.C,J9*%
X79900000Y-111507323D03*
D18*
X79900000Y-108967323D03*
%TD*%
D19*
%TO.C,J2*%
X150550000Y-144530000D03*
D18*
X148010000Y-144530000D03*
X145470000Y-144530000D03*
X142930000Y-144530000D03*
%TD*%
D19*
%TO.C,J1*%
X177125000Y-144175000D03*
D18*
X174585000Y-144175000D03*
%TD*%
D24*
%TO.C,C2*%
X112420000Y-127620000D03*
D25*
X115920000Y-127620000D03*
%TD*%
D26*
%TO.C,IC4*%
X119480000Y-141950000D03*
X120480000Y-140680000D03*
X119480000Y-139410000D03*
%TD*%
D23*
%TO.C,IC1*%
X164920000Y-137570000D03*
D22*
X167460000Y-137570000D03*
X170000000Y-137570000D03*
X172540000Y-137570000D03*
X172540000Y-129760000D03*
X170000000Y-129760000D03*
X167460000Y-129760000D03*
X164920000Y-129760000D03*
%TD*%
D13*
%TO.C,D1*%
X97390000Y-115510000D03*
D12*
X112630000Y-115510000D03*
%TD*%
D27*
%TO.C,C1*%
X88620000Y-108990000D03*
D11*
X88620000Y-113990000D03*
%TD*%
M02*
