%TF.GenerationSoftware,KiCad,Pcbnew,9.0.0*%
%TF.CreationDate,2025-11-10T15:20:41+01:00*%
%TF.ProjectId,piezotesterV2.1,7069657a-6f74-4657-9374-657256322e31,rev?*%
%TF.SameCoordinates,Original*%
%TF.FileFunction,Soldermask,Top*%
%TF.FilePolarity,Negative*%
%FSLAX46Y46*%
G04 Gerber Fmt 4.6, Leading zero omitted, Abs format (unit mm)*
G04 Created by KiCad (PCBNEW 9.0.0) date 2025-11-10 15:20:41*
%MOMM*%
%LPD*%
G01*
G04 APERTURE LIST*
G04 Aperture macros list*
%AMRoundRect*
0 Rectangle with rounded corners*
0 $1 Rounding radius*
0 $2 $3 $4 $5 $6 $7 $8 $9 X,Y pos of 4 corners*
0 Add a 4 corners polygon primitive as box body*
4,1,4,$2,$3,$4,$5,$6,$7,$8,$9,$2,$3,0*
0 Add four circle primitives for the rounded corners*
1,1,$1+$1,$2,$3*
1,1,$1+$1,$4,$5*
1,1,$1+$1,$6,$7*
1,1,$1+$1,$8,$9*
0 Add four rect primitives between the rounded corners*
20,1,$1+$1,$2,$3,$4,$5,0*
20,1,$1+$1,$4,$5,$6,$7,0*
20,1,$1+$1,$6,$7,$8,$9,0*
20,1,$1+$1,$8,$9,$2,$3,0*%
G04 Aperture macros list end*
%ADD10RoundRect,0.250000X0.625000X-0.312500X0.625000X0.312500X-0.625000X0.312500X-0.625000X-0.312500X0*%
%ADD11RoundRect,0.250000X-0.325000X-0.650000X0.325000X-0.650000X0.325000X0.650000X-0.325000X0.650000X0*%
%ADD12C,2.403200*%
%ADD13C,2.203200*%
%ADD14RoundRect,0.250000X0.312500X0.625000X-0.312500X0.625000X-0.312500X-0.625000X0.312500X-0.625000X0*%
%ADD15RoundRect,0.250000X-0.312500X-0.625000X0.312500X-0.625000X0.312500X0.625000X-0.312500X0.625000X0*%
%ADD16RoundRect,0.250000X0.325000X0.650000X-0.325000X0.650000X-0.325000X-0.650000X0.325000X-0.650000X0*%
%ADD17O,3.200000X3.200000*%
%ADD18R,3.200000X3.200000*%
%ADD19O,1.050000X1.500000*%
%ADD20R,1.050000X1.500000*%
%ADD21O,2.000000X1.905000*%
%ADD22R,2.000000X1.905000*%
%ADD23O,1.700000X1.700000*%
%ADD24R,1.700000X1.700000*%
%ADD25O,1.200000X2.000000*%
%ADD26R,1.200000X2.000000*%
%ADD27C,1.159000*%
%ADD28R,1.159000X1.159000*%
%ADD29RoundRect,0.250000X-0.625000X0.312500X-0.625000X-0.312500X0.625000X-0.312500X0.625000X0.312500X0*%
%ADD30RoundRect,0.250000X-0.650000X0.325000X-0.650000X-0.325000X0.650000X-0.325000X0.650000X0.325000X0*%
%ADD31C,1.600000*%
%ADD32R,1.600000X1.600000*%
%ADD33R,2.900000X5.400000*%
%ADD34C,1.400000*%
%ADD35R,1.020000X2.160000*%
%ADD36R,8.330000X6.990000*%
%ADD37R,1.235000X1.910000*%
%ADD38RoundRect,0.250000X0.650000X-0.325000X0.650000X0.325000X-0.650000X0.325000X-0.650000X-0.325000X0*%
%ADD39R,2.000000X2.000000*%
%ADD40C,2.000000*%
G04 APERTURE END LIST*
D10*
%TO.C,R7*%
X123480000Y-127397500D03*
X123480000Y-130322500D03*
%TD*%
D11*
%TO.C,C9*%
X154950000Y-121852500D03*
X152000000Y-121852500D03*
%TD*%
%TO.C,C10*%
X154915000Y-118112500D03*
X151965000Y-118112500D03*
%TD*%
D12*
%TO.C,ADS2*%
X140960000Y-108690000D03*
X143500000Y-113770000D03*
X143500000Y-111230000D03*
X143500000Y-108690000D03*
X143500000Y-106150000D03*
X143500000Y-103610000D03*
X143500000Y-101070000D03*
D13*
X120640000Y-113770000D03*
X120640000Y-111230000D03*
X120640000Y-108690000D03*
X120640000Y-106150000D03*
X120640000Y-103610000D03*
X140960000Y-106150000D03*
X120640000Y-101070000D03*
%TD*%
D14*
%TO.C,R9*%
X97927500Y-91880000D03*
X100852500Y-91880000D03*
%TD*%
D15*
%TO.C,R10*%
X85720000Y-101650000D03*
X82795000Y-101650000D03*
%TD*%
D16*
%TO.C,C8*%
X82810000Y-96380000D03*
X85760000Y-96380000D03*
%TD*%
%TO.C,C7*%
X82820000Y-92230000D03*
X85770000Y-92230000D03*
%TD*%
D17*
%TO.C,D2*%
X86580000Y-69710000D03*
D18*
X86580000Y-84950000D03*
%TD*%
D19*
%TO.C,Q3*%
X92160000Y-87880000D03*
X93430000Y-87880000D03*
D20*
X94700000Y-87880000D03*
%TD*%
D21*
%TO.C,Q4*%
X96120000Y-74450000D03*
X96120000Y-76990000D03*
D22*
X96120000Y-79530000D03*
%TD*%
D23*
%TO.C,J8*%
X79515000Y-85645000D03*
D24*
X79515000Y-88185000D03*
%TD*%
D25*
%TO.C,U1*%
X154530000Y-91530000D03*
X151990000Y-91530000D03*
X149450000Y-91530000D03*
X146910000Y-91530000D03*
X144370000Y-91530000D03*
X141830000Y-91530000D03*
X139290000Y-91530000D03*
X136750000Y-91530000D03*
X134210000Y-91530000D03*
X131670000Y-91530000D03*
X129130000Y-91530000D03*
X126590000Y-91530000D03*
X124050000Y-91530000D03*
X121510000Y-91530000D03*
X118970000Y-91530000D03*
X116430000Y-91530000D03*
X113890000Y-91530000D03*
X111352720Y-91526320D03*
X108812720Y-91526320D03*
X108810000Y-66130000D03*
X111350000Y-66130000D03*
X113890000Y-66130000D03*
X116430000Y-66130000D03*
X118970000Y-66130000D03*
X121510000Y-66130000D03*
X124050000Y-66130000D03*
X126590000Y-66130000D03*
X129130000Y-66130000D03*
X131670000Y-66130000D03*
X134210000Y-66130000D03*
X136750000Y-66130000D03*
X139290000Y-66130000D03*
X141830000Y-66130000D03*
X144370000Y-66130000D03*
X146910000Y-66130000D03*
X149450000Y-66130000D03*
X151990000Y-66130000D03*
D26*
X154530000Y-66130000D03*
%TD*%
D15*
%TO.C,R2*%
X145750000Y-140460000D03*
X142825000Y-140460000D03*
%TD*%
D27*
%TO.C,IC2*%
X137920000Y-136330000D03*
X137920000Y-133790000D03*
X137920000Y-131250000D03*
X137920000Y-128710000D03*
X145730000Y-128710000D03*
X145730000Y-131250000D03*
X145730000Y-133790000D03*
D28*
X145730000Y-136330000D03*
%TD*%
D29*
%TO.C,R3*%
X154560000Y-138262500D03*
X154560000Y-135337500D03*
%TD*%
%TO.C,R4*%
X150285000Y-128520000D03*
X150285000Y-125595000D03*
%TD*%
D30*
%TO.C,C16*%
X134580000Y-143365000D03*
X134580000Y-140415000D03*
%TD*%
%TO.C,C12*%
X130460000Y-130390000D03*
X130460000Y-127440000D03*
%TD*%
%TO.C,C14*%
X127110000Y-130390000D03*
X127110000Y-127440000D03*
%TD*%
%TO.C,C15*%
X137930000Y-143365000D03*
X137930000Y-140415000D03*
%TD*%
D24*
%TO.C,J9*%
X79900000Y-111507323D03*
D23*
X79900000Y-108967323D03*
%TD*%
D24*
%TO.C,J2*%
X150550000Y-144530000D03*
D23*
X148010000Y-144530000D03*
X145470000Y-144530000D03*
X142930000Y-144530000D03*
%TD*%
D24*
%TO.C,J1*%
X177125000Y-144175000D03*
D23*
X174585000Y-144175000D03*
%TD*%
D31*
%TO.C,C2*%
X112420000Y-127620000D03*
D32*
X115920000Y-127620000D03*
%TD*%
D10*
%TO.C,R16*%
X144180000Y-125680000D03*
X144180000Y-122755000D03*
%TD*%
D14*
%TO.C,R15*%
X151830000Y-113830000D03*
X148905000Y-113830000D03*
%TD*%
D29*
%TO.C,R12*%
X160450000Y-134977500D03*
X160450000Y-137902500D03*
%TD*%
D10*
%TO.C,R11*%
X131040000Y-143482500D03*
X131040000Y-140557500D03*
%TD*%
D29*
%TO.C,R8*%
X125290000Y-138977500D03*
X125290000Y-141902500D03*
%TD*%
D15*
%TO.C,R6*%
X158957500Y-130490000D03*
X161882500Y-130490000D03*
%TD*%
D29*
%TO.C,R5*%
X149520000Y-133837500D03*
X149520000Y-136762500D03*
%TD*%
%TO.C,R1*%
X177170000Y-137077500D03*
X177170000Y-140002500D03*
%TD*%
D33*
%TO.C,L1*%
X97360000Y-127610000D03*
X107260000Y-127610000D03*
%TD*%
D34*
%TO.C,IC4*%
X119480000Y-141950000D03*
X120480000Y-140680000D03*
X119480000Y-139410000D03*
%TD*%
D35*
%TO.C,IC3*%
X95790000Y-108995000D03*
X97490000Y-108995000D03*
X99190000Y-108995000D03*
X100890000Y-108995000D03*
X102590000Y-108995000D03*
D36*
X99190000Y-98320000D03*
D37*
X103972500Y-95780000D03*
X94407500Y-95780000D03*
%TD*%
D28*
%TO.C,IC1*%
X164920000Y-137570000D03*
D27*
X167460000Y-137570000D03*
X170000000Y-137570000D03*
X172540000Y-137570000D03*
X172540000Y-129760000D03*
X170000000Y-129760000D03*
X167460000Y-129760000D03*
X164920000Y-129760000D03*
%TD*%
D18*
%TO.C,D1*%
X97390000Y-115510000D03*
D17*
X112630000Y-115510000D03*
%TD*%
D16*
%TO.C,C21*%
X141805000Y-119780000D03*
X138855000Y-119780000D03*
%TD*%
D11*
%TO.C,C20*%
X153850000Y-111890000D03*
X156800000Y-111890000D03*
%TD*%
%TO.C,C19*%
X125575000Y-98740000D03*
X128525000Y-98740000D03*
%TD*%
D30*
%TO.C,C18*%
X162750000Y-140705000D03*
X162750000Y-143655000D03*
%TD*%
%TO.C,C17*%
X166500000Y-140695000D03*
X166500000Y-143645000D03*
%TD*%
D16*
%TO.C,C11*%
X162065000Y-126650000D03*
X159115000Y-126650000D03*
%TD*%
D38*
%TO.C,C6*%
X130510000Y-136105000D03*
X130510000Y-133155000D03*
%TD*%
%TO.C,C5*%
X125400000Y-136155000D03*
X125400000Y-133205000D03*
%TD*%
D11*
%TO.C,C4*%
X110485000Y-139020000D03*
X113435000Y-139020000D03*
%TD*%
%TO.C,C3*%
X110515000Y-135960000D03*
X113465000Y-135960000D03*
%TD*%
D39*
%TO.C,C1*%
X88620000Y-108990000D03*
D40*
X88620000Y-113990000D03*
%TD*%
M02*
