M48
; DRILL file {KiCad 9.0.0} date 2025-11-10T15:20:45+0100
; FORMAT={-:-/ absolute / metric / decimal}
; #@! TF.CreationDate,2025-11-10T15:20:45+01:00
; #@! TF.GenerationSoftware,Kicad,Pcbnew,9.0.0
; #@! TF.FileFunction,Plated,1,2,PTH
FMAT,2
METRIC
; #@! TA.AperFunction,Plated,PTH,ViaDrill
T1C0.300
; #@! TA.AperFunction,Plated,PTH,ComponentDrill
T2C0.750
; #@! TA.AperFunction,Plated,PTH,ComponentDrill
T3C0.759
; #@! TA.AperFunction,Plated,PTH,ComponentDrill
T4C0.800
; #@! TA.AperFunction,Plated,PTH,ComponentDrill
T5C0.900
; #@! TA.AperFunction,Plated,PTH,ComponentDrill
T6C1.000
; #@! TA.AperFunction,Plated,PTH,ComponentDrill
T7C1.016
; #@! TA.AperFunction,Plated,PTH,ComponentDrill
T8C1.100
; #@! TA.AperFunction,Plated,PTH,ComponentDrill
T9C1.600
; #@! TA.AperFunction,Plated,PTH,ViaDrill
T10C4.000
%
G90
G05
T1
X95.91Y-106.87
X95.95Y-106.02
X96.91Y-106.87
X96.91Y-106.87
X96.95Y-106.02
X96.95Y-106.02
X97.94Y-106.87
X97.98Y-106.02
X98.28Y-73.13
X98.32Y-72.28
X98.94Y-106.87
X98.94Y-106.87
X98.98Y-106.02
X98.98Y-106.02
X99.28Y-73.13
X99.28Y-73.13
X99.32Y-72.28
X99.32Y-72.28
X99.89Y-106.87
X99.93Y-106.02
X100.89Y-106.87
X100.89Y-106.87
X100.93Y-106.02
X100.93Y-106.02
X101.76Y-106.84
X101.8Y-105.99
X102.76Y-106.84
X102.76Y-106.84
X102.8Y-105.99
X102.8Y-105.99
X112.03Y-111.77
X112.07Y-110.92
X113.03Y-111.77
X113.03Y-111.77
X113.07Y-110.92
X113.07Y-110.92
X114.84Y-137.86
X114.88Y-137.01
X115.84Y-137.86
X115.84Y-137.86
X115.88Y-137.01
X115.88Y-137.01
X119.96Y-98.85
X120.0Y-98.0
X120.96Y-98.85
X120.96Y-98.85
X121.0Y-98.0
X121.0Y-98.0
X127.35Y-132.72
X127.39Y-131.87
X128.35Y-132.72
X128.35Y-132.72
X128.39Y-131.87
X128.39Y-131.87
X130.0Y-99.0
X130.04Y-98.15
X131.0Y-99.0
X131.0Y-99.0
X131.04Y-98.15
X131.04Y-98.15
X136.47Y-145.8
X136.51Y-144.95
X137.47Y-145.8
X137.47Y-145.8
X137.51Y-144.95
X137.51Y-144.95
X144.9Y-143.14
X144.94Y-142.29
X145.9Y-143.14
X145.9Y-143.14
X145.94Y-142.29
X145.94Y-142.29
X156.9Y-122.24
X156.94Y-121.39
X156.96Y-119.85
X157.0Y-119.0
X157.9Y-122.24
X157.9Y-122.24
X157.94Y-121.39
X157.94Y-121.39
X157.96Y-119.85
X157.96Y-119.85
X158.0Y-119.0
X158.0Y-119.0
X163.0Y-136.0
X163.04Y-135.15
X164.0Y-136.0
X164.0Y-136.0
X164.04Y-135.15
X164.04Y-135.15
X164.34Y-146.24
X164.38Y-145.39
X165.34Y-146.24
X165.34Y-146.24
X165.38Y-145.39
X165.38Y-145.39
X170.0Y-133.0
X170.0Y-135.0
X170.04Y-132.15
X170.04Y-134.15
X171.0Y-133.0
X171.0Y-133.0
X171.0Y-135.0
X171.0Y-135.0
X171.04Y-132.15
X171.04Y-132.15
X171.04Y-134.15
X171.04Y-134.15
X172.0Y-133.0
X172.0Y-135.0
X172.04Y-132.15
X172.04Y-134.15
X176.68Y-135.72
X176.72Y-134.87
X177.68Y-135.72
X177.68Y-135.72
X177.72Y-134.87
X177.72Y-134.87
T2
X92.16Y-87.88
X93.43Y-87.88
X94.7Y-87.88
T3
X137.92Y-128.71
X137.92Y-131.25
X137.92Y-133.79
X137.92Y-136.33
X145.73Y-128.71
X145.73Y-131.25
X145.73Y-133.79
X145.73Y-136.33
X164.92Y-129.76
X164.92Y-137.57
X167.46Y-129.76
X167.46Y-137.57
X170.0Y-129.76
X170.0Y-137.57
X172.54Y-129.76
X172.54Y-137.57
T4
X108.81Y-66.13
X108.813Y-91.526
X111.35Y-66.13
X111.353Y-91.526
X112.42Y-127.62
X113.89Y-66.13
X113.89Y-91.53
X115.92Y-127.62
X116.43Y-66.13
X116.43Y-91.53
X118.97Y-66.13
X118.97Y-91.53
X121.51Y-66.13
X121.51Y-91.53
X124.05Y-66.13
X124.05Y-91.53
X126.59Y-66.13
X126.59Y-91.53
X129.13Y-66.13
X129.13Y-91.53
X131.67Y-66.13
X131.67Y-91.53
X134.21Y-66.13
X134.21Y-91.53
X136.75Y-66.13
X136.75Y-91.53
X139.29Y-66.13
X139.29Y-91.53
X141.83Y-66.13
X141.83Y-91.53
X144.37Y-66.13
X144.37Y-91.53
X146.91Y-66.13
X146.91Y-91.53
X149.45Y-66.13
X149.45Y-91.53
X151.99Y-66.13
X151.99Y-91.53
X154.53Y-66.13
X154.53Y-91.53
T5
X119.48Y-139.41
X119.48Y-141.95
X120.48Y-140.68
T6
X79.515Y-85.645
X79.515Y-88.185
X79.9Y-108.967
X79.9Y-111.507
X88.62Y-108.99
X88.62Y-113.99
X142.93Y-144.53
X145.47Y-144.53
X148.01Y-144.53
X150.55Y-144.53
X174.585Y-144.175
X177.125Y-144.175
T7
X120.64Y-101.07
X120.64Y-103.61
X120.64Y-106.15
X120.64Y-108.69
X120.64Y-111.23
X120.64Y-113.77
X140.96Y-106.15
X140.96Y-108.69
X143.5Y-101.07
X143.5Y-103.61
X143.5Y-106.15
X143.5Y-108.69
X143.5Y-111.23
X143.5Y-113.77
T8
X96.12Y-74.45
X96.12Y-76.99
X96.12Y-79.53
T9
X86.58Y-69.71
X86.58Y-84.95
X97.39Y-115.51
X112.63Y-115.51
T10
X72.0Y-62.0
X72.0Y-153.0
X185.0Y-62.0
X185.0Y-153.0
M30
